<?xml version="1.0" encoding="utf-8"?>
<!-- Generator: Adobe Illustrator 25.3.1, SVG Export Plug-In . SVG Version: 6.00 Build 0)  -->
<svg version="1.1" id="Layer_1" xmlns="http://www.w3.org/2000/svg" xmlns:xlink="http://www.w3.org/1999/xlink" x="0px" y="0px"
	 viewBox="0 0 935 555" style="enable-background:new 0 0 935 555;" xml:space="preserve">
<style type="text/css">
	.st0{fill:#FFFFFF;}
	.st1{fill:#FBC12A;}
	.st2{fill:#194FB0;}
	.st3{fill:#B1C3E7;fill-opacity:0.75;}
	.st4{fill:#8DA7DA;}
	.st5{fill:#B1C3E7;}
	.st6{fill:#194FB0;fill-opacity:0.24;}
	.st7{fill:#EE7E5C;}
	.st8{fill:#184EB0;}
	.st9{fill:#F3390E;}
	.st10{fill:#E9B73F;}
	.st11{fill:#EFC76D;}
	.st12{fill:#5A80CD;}
	.st13{fill:#F2370C;}
	.st14{fill:#F2370B;}
	.st15{font-family:'HiraMaruProN-W4-83pv-RKSJ-H';}
	.st16{font-size:51.1881px;}
	.st17{fill:#88C9D3;}
	.st18{fill:none;stroke:#5980CD;stroke-width:2.44;stroke-linecap:round;stroke-linejoin:round;stroke-miterlimit:2.2866;}
	.st19{fill:#EC4427;}
	.st20{fill:#5980CD;}
	.st21{fill:#FFD173;}
	.st22{fill:#FCE5D4;}
	.st23{fill:#1950B0;}
	.st24{fill:#003595;}
	.st25{fill:#3565BD;}
	.st26{fill:#557ACB;}
	.st27{fill:#B0C2E7;}
	.st28{fill-opacity:0.98;}
</style>
<g id="PLANT" transform="matrix(1,0,0,1,94.6774,115.527)">
	<g transform="matrix(1,0,0,1,-94.6774,-115.527)">
		<path class="st0" d="M789.11,322.87c0,0-34.92,9.54-18.92,48.16c0,0-27.04,18.44-22.94,49.26l5.28,28.3l90.96-2.36
			c0,0,30.27-49.97-18.05-73.78c0,0,19.47-27.43,9.46-40.59C834.98,331.86,810.78,316.01,789.11,322.87z"/>
	</g>
	<path class="st1" d="M741.94,228.18c0.55-8.83-4.49-13.4-11.43-15.61c-4.89-1.58-12.06-2.05-17.42-2.05
		c-0.71,0-1.26-0.55-1.26-1.26c0-0.71,0.55-1.26,1.26-1.26c5.68-0.08,13.16,0.47,18.29,2.13c8.04,2.6,13.87,8.04,13.16,18.29v0.08
		c0,0-1.73,11.03-12.61,28.61c4.49,1.73,18.05,8.12,24.67,22.62c5.28,11.59,6.23,28.53-5.83,52.65c-0.24,0.39-0.63,0.71-1.1,0.71
		h-92.77c-0.55,0-1.02-0.32-1.18-0.87c0,0-6.7-20.41-3.78-40.91c1.89-13.56,7.96-27.04,22.7-34.92l-3.07-9.22c0,0,0,0,0-0.08
		c0,0-8.99-30.74,21.28-38.62c0.63-0.16,1.34,0.24,1.5,0.87c0.16,0.63-0.24,1.34-0.87,1.5c-27.43,7.17-19.78,34.68-19.55,35.47
		l3.47,10.25c0.24,0.55-0.08,1.26-0.63,1.5c-14.58,7.33-20.49,20.41-22.31,33.5c-2.44,17.42,2.29,34.92,3.47,38.86h91.04
		c11.11-22.78,10.48-38.78,5.44-49.81c-7.57-16.55-24.67-21.83-24.67-21.83c-0.39-0.08-0.63-0.39-0.79-0.79s-0.08-0.79,0.08-1.1
		C739.66,240,741.78,229.04,741.94,228.18z"/>
	<g transform="matrix(0.985904,-0.167309,0.210306,1.23927,-225.355,38.242)">
		
			<ellipse transform="matrix(-1 6.438670e-06 -6.438670e-06 -1 1777.908 540.4911)" class="st2" cx="888.95" cy="270.25" rx="19.71" ry="6.54"/>
	</g>
	<g>
		<g transform="matrix(1,0,0,1,-4.13813,13.2255)">
			<path class="st3" d="M712.95,207.4c-2.68,1.02-7.49-8.67-8.75-10.64c-7.88-12.77-15.84-26.09-16.32-41.62
				c-0.63-20.1,15.92-29.4,19.63-47.14c3.63-17.03-11.67-31.84-9.3-50.84c2.13-17.1,19.47-25.14,21.68-42.33
				c1.58-12.37,2.36-24.75,11.19-34.6c1.73-1.97,6.54-7.02,9.7-7.02c1.1,0,6.31,10.33,6.78,11.35c5.83,12.85,8.12,26.48,4.41,40.28
				c-3.15,11.67-10.25,22.62-10.33,35c-0.16,13.4,7.09,25.38,4.81,39.1c-2.36,14.03-15.84,21.44-19.71,34.6
				c-3.47,11.82,3.23,24.83,2.68,36.97c-0.39,9.3-3.86,18.05-7.09,26.72c-4.49,11.9-4.02,18.05-17.18,13.01"/>
		</g>
		<path class="st4" d="M685.98,155.19l5.99-11.27c0,0,15.21,10.88,14.58,25.7c0,0,16.55-54.62,35.23-55.41l-26.96,108.54
			l-11.19,1.66L685.98,155.19z"/>
		<path class="st2" d="M735.4-13.33c0,0-0.32,20.89-0.08,29.87c0.16,6.38-2.29,12.22-3.94,18.37c-1.81,6.94-5.36,13.08-8.51,19.39
			c-3.23,6.54-6.07,13.24-6.07,20.97c0,6.62,1.81,12.93,3.55,19.23c1.66,6.07,3.15,12.22,2.6,18.6c-0.63,7.65-4.26,14.19-7.96,20.73
			c-3.94,6.78-7.96,13.48-9.54,21.2c-2.05,10.4,1.18,21.12,1.58,31.53c0.39,11.11-1.81,21.83-4.18,32.55
			c-0.16,0.71,0.24,1.34,0.95,1.5c0.71,0.16,1.34-0.24,1.5-0.95c2.44-10.96,4.65-21.91,4.26-33.18
			c-0.39-10.25-3.63-20.73-1.66-30.98c1.5-7.49,5.52-13.95,9.22-20.41c3.94-6.78,7.65-13.71,8.28-21.75
			c0.55-6.7-0.95-13.08-2.68-19.47c-1.66-6.15-3.47-12.22-3.47-18.6c0-7.33,2.68-13.71,5.75-19.86c3.23-6.46,6.86-12.77,8.75-19.86
			c1.66-6.38,4.18-12.45,4.02-19.07c-0.16-8.12,0.16-28.45,0.16-28.45c-0.39-0.55-0.71-1.02-1.02-1.34
			c-0.16-0.16-0.39-0.24-0.63-0.16c-0.16,0-0.39,0.08-0.39,0.08L735.4-13.33z"/>
	</g>
	<g>
		<path class="st5" d="M722.24,224.39h-16.63c-0.79-0.08-0.79-12.14-0.87-12.85c-1.42-10.09-2.21-22.07,4.18-30.74
			c3-4.02,7.25-7.25,9.14-11.98c4.1-10.4,2.52-22.07,7.02-32.55c3.94-9.22,12.45-13.56,17.81-21.52
			c6.54-9.69,9.06-21.99,14.58-32.32c6.94-12.77,25.38-34.52,42.01-34.52c1.66,0-0.24,9.93-0.32,11.43
			c-0.16,11.98,1.73,24.04-3.47,35.39c-6.23,13.64-20.02,21.99-26.41,35.47c-5.99,12.61-2.76,29.64-11.35,40.83
			c-6.94,8.99-19.63,10.56-27.19,18.92C721.53,200.51,723.73,216.82,722.24,224.39z"/>
		<path class="st2" d="M797.83,48.07c0.87-0.08,1.81-0.16,1.89,0c0.32,0.32,0.39,0.79,0.47,1.26c0,0-0.08,0.08-0.16,0.08
			c-2.6,1.89-10.4,10.17-14.11,17.66c-3.15,6.31-4.81,13.08-6.7,19.71c-1.97,6.86-4.18,13.56-8.36,19.55
			c-6.78,9.77-16.71,16.87-22.39,27.43c-2.68,4.97-4.18,10.48-5.75,15.84c-1.66,5.6-3.47,11.11-6.78,16.08
			c-8.83,13.32-23.88,19.31-23.33,58.64c0,0.71-0.55,1.26-1.26,1.26s-1.26-0.55-1.26-1.26c-0.55-40.28,14.74-46.43,23.73-60.06
			c3.15-4.73,4.81-10.01,6.46-15.37c1.66-5.52,3.23-11.11,5.99-16.32c5.68-10.72,15.69-17.89,22.54-27.75
			c4.02-5.75,6.15-12.22,8.04-18.84c1.97-6.78,3.63-13.71,6.86-20.1c3.55-7.17,10.56-14.9,13.87-17.81
			C797.75,48.15,797.75,48.07,797.83,48.07z"/>
	</g>
	<path class="st6" d="M714.83,224.39h4.49c0,0,0.24-27.19-15.21-30.5l-0.32,4.41C703.79,198.3,714.67,208.63,714.83,224.39z"/>
	<g transform="matrix(1,0,0,1,2.27374e-13,12.4701)">
		<g transform="matrix(0.99546,0.0951787,-0.0951787,0.99546,99.3506,-181.716)">
			<path class="st5" d="M633.71,338.37c-3.47-2.36-7.88-6.15-9.93-9.77c-4.18-7.17-3.7-16.79-9.85-22.7
				c-7.88-7.72-20.41-8.2-27.43-17.34c-7.49-9.69-0.95-19.55-10.64-30.42c-8.59-9.69-14.82-19.39-13.16-32.79
				c0.32-2.52,0.87-9.14,3.15-10.88c0.47-0.32,7.09,3.15,7.65,3.31c8.59,3.78,16.87,8.75,22.46,16.47c5.68,7.8,5.12,17.18,9.62,25.3
				c4.18,7.57,14.35,7.8,19.15,14.98c5.36,7.96,2.52,16.63,5.28,25.07c2.05,6.15,8.83,9.77,12.53,14.9
				c3.55,4.81,5.83,10.64,7.09,16.47c0.16,0.79,1.18,4.73,0.47,5.44"/>
		</g>
		<path class="st2" d="M642.47,85.55c-0.39,0-0.95,0.55-1.5,1.34c0,0,0.08,0.24,0.16,0.32c10.4,12.3,13.01,21.2,17.5,31.37
			c2.29,5.04,3.31,10.4,4.41,15.76c1.18,5.6,2.36,11.19,4.81,16.39c2.36,5.12,6.46,7.33,10.56,9.93c3.63,2.36,7.17,5.12,8.75,11.27
			c3.86,14.74,7.09,18.76,9.22,27.11c1.58,5.91,4.26,8.04,6.78,10.25c2.21,1.89,4.18,3.86,4.73,9.3c0.08,0.71,0.71,1.18,1.34,1.1
			c0.71-0.08,1.18-0.71,1.1-1.34c-0.63-6.38-3-8.67-5.6-10.96c-2.21-1.97-4.65-3.78-6.07-8.99c-2.21-8.43-5.36-12.37-9.22-27.11
			c-1.81-6.94-5.75-10.09-9.85-12.77c-3.63-2.36-7.49-4.34-9.62-8.91c-2.36-5.12-3.47-10.48-4.57-15.92
			c-1.18-5.6-2.29-11.11-4.57-16.32c-4.57-10.17-7.25-19.15-17.5-31.45C643.26,85.78,642.47,85.55,642.47,85.55z"/>
	</g>
	<g transform="matrix(1,0,0,1,-94.6774,-115.527)">
		<path class="st1" d="M771.45,447.8c0.47-1.97,1.42-3.63,2.52-4.89c2.21-2.6,5.44-3.94,8.51-4.65c1.97-0.39,3.94-0.55,5.36-0.55
			c1.42-6.46,4.18-10.33,7.41-12.69c3.47-2.52,7.57-3.23,11.19-3.15c5.12,0.16,9.38,1.97,9.38,1.97c1.5,0.63,2.13,2.36,1.5,3.86
			c-0.63,1.5-2.36,2.13-3.86,1.5c0,0-3.23-1.42-7.25-1.5c-2.44-0.08-5.2,0.32-7.57,2.05c-2.68,1.89-4.73,5.44-5.52,11.35
			c-0.24,1.58-1.66,2.68-3.23,2.52c0,0-3-0.32-6.23,0.32c-1.89,0.39-3.94,1.18-5.28,2.76c-0.32,0.32-0.55,0.71-0.71,1.1
			L771.45,447.8z M846.65,443.86c-2.6-2.13-5.91-3-8.91-3.31c-5.04-0.47-9.46,0.63-9.46,0.63l0,0c-1.58,0.39-3.15-0.55-3.55-2.13
			c-0.39-1.58,0.55-3.15,2.13-3.55c0,0,5.28-1.34,11.43-0.79c3.63,0.32,7.49,1.42,10.8,3.63
			C848.22,440.63,847.36,442.44,846.65,443.86z M747.33,409.65c3.86-2.29,8.75-4.1,14.27-3.63c5.68,0.47,12.14,3.39,18.68,10.88
			c1.02,1.18,0.95,3.07-0.32,4.1c-1.18,1.02-3.07,0.95-4.1-0.32c-5.2-5.99-10.25-8.51-14.82-8.91c-6.07-0.55-11.19,2.6-14.42,5.28
			C746.78,414.46,747.02,411.94,747.33,409.65z M845.15,387.74c1.26,1.58,2.36,3.15,3.31,4.81c-0.24,0.24-0.47,0.39-0.71,0.63
			c-3.07,3.15-5.44,9.3-4.02,21.36c0.16,1.58-0.95,3.07-2.52,3.23c-1.58,0.16-3.07-0.95-3.23-2.52c-1.73-14.82,1.89-22.31,5.6-26.09
			C844.13,388.61,844.68,388.14,845.15,387.74z M769.8,392.08c-0.08,0.63-0.32,1.26-0.87,1.81c-1.1,1.1-3,1.1-4.1,0
			c-0.63-0.63-0.95-1.42-0.95-2.44c0-0.87,0.79-2.68,2.68-4.34c3.7-3.23,12.14-7.41,20.02-4.57c4.49,1.58,8.99,5.44,12.14,13.4
			c1.42-0.63,3.23-1.34,5.2-1.73c3.47-0.63,7.25-0.32,10.25,2.44c1.73,1.58,3.31,4.02,4.18,7.72c0.39,1.58-0.55,3.15-2.13,3.55
			s-3.15-0.55-3.55-2.13c-0.55-2.29-1.34-3.78-2.44-4.73c-1.5-1.34-3.47-1.34-5.28-1.02c-3.39,0.63-6.23,2.6-6.23,2.6
			c-0.79,0.55-1.73,0.63-2.6,0.32c-0.87-0.32-1.58-1.02-1.81-1.89c-2.05-6.86-5.04-10.64-8.35-12.45
			c-4.73-2.52-10.01-0.63-13.4,1.42C771.45,390.58,770.35,391.6,769.8,392.08z M836.64,349.99c-2.84-0.32-6.62-0.08-9.85,2.05
			c-2.68,1.81-4.89,4.97-6.07,10.09c-0.32,1.34-1.5,2.29-2.92,2.29c0,0-4.73-0.24-6.86,3.15c-0.95,1.5-1.34,3.7-0.79,6.78
			c0.32,1.58-0.79,3.07-2.36,3.39c-1.58,0.32-3.07-0.79-3.39-2.36c-0.87-5.04,0.08-8.59,1.66-11.03c2.52-3.86,6.86-5.12,9.54-5.52
			c1.73-5.83,4.65-9.46,7.96-11.67c4.57-3.07,9.85-3.31,13.87-2.92C837.27,346.2,837.03,348.09,836.64,349.99z M767.59,347.31
			c0,0,6.38,2.21,9.7,6.31c2.52,3.15,4.41,7.8,3.23,14.5c-0.32,1.58,0.79,3.07,2.36,3.39c1.58,0.32,3.07-0.79,3.39-2.36
			c3.7-20.49-16.47-27.75-16.47-27.75c-1.5-0.55-1.89,1.18-2.44,2.68C766.8,345.65,766.09,346.83,767.59,347.31z"/>
	</g>
</g>
<g id="BUFFET" transform="matrix(1,0,0,1,94.6774,115.527)">
	<g transform="matrix(1.01534,0,0,0.958299,-18.9413,65.2451)">
		<rect x="409.42" y="100.4" class="st7" width="277.84" height="185.23"/>
	</g>
	<g>
		<g transform="matrix(1,0,0,1,-0.15956,13.0373)">
			<rect x="412.35" y="161.41" class="st8" width="251.28" height="48.32"/>
		</g>
		<g transform="matrix(1,0,0,1.80008,-0.15956,-695.269)">
			<path class="st8" d="M413.53,565.54h133.21c0.71,0,1.26,0.32,1.26,0.71c0,0.39-0.55,0.71-1.26,0.71H412.35
				c-0.71,0-1.26-0.32-1.26-0.71v-48.32c0-0.39,0.55-0.71,1.26-0.71h128.71c0.71,0,1.26,0.32,1.26,0.71s-0.55,0.71-1.26,0.71H413.53
				V565.54z"/>
		</g>
		<g transform="matrix(1,0,0,1.80008,-0.15956,-695.269)">
			<path class="st8" d="M662.37,518.64H541.06c-0.71,0-1.26-0.32-1.26-0.71s0.55-0.71,1.26-0.71h122.57c0.71,0,1.26,0.32,1.26,0.71
				v48.32c0,0.39-0.55,0.71-1.26,0.71H546.74c-0.71,0-1.26-0.32-1.26-0.71c0-0.39,0.55-0.71,1.26-0.71h115.63V518.64z"/>
		</g>
		<path class="st8" d="M536.53,237v86.94c0,0.71,0.55,1.26,1.26,1.26c0.71,0,1.26-0.55,1.26-1.26V237c0-0.71-0.55-1.26-1.26-1.26
			C537.09,235.74,536.53,236.29,536.53,237z"/>
		<g transform="matrix(1.21123,0,0,1.21123,-346.323,-293.268)">
			<circle class="st8" cx="740.55" cy="473.72" r="3.39"/>
		</g>
		<g transform="matrix(1.21123,0,0,1.21123,-408.332,-293.268)">
			<circle class="st8" cx="770.47" cy="473.72" r="3.39"/>
		</g>
	</g>
</g>
<g id="TV" transform="matrix(1,0,0,1,87.2563,115.527)">
	<g>
		<g transform="matrix(1,0,0,1,-87.2563,-115.527)">
			<path class="st8" d="M627.45,251.07H453.25c-5.75,0-10.4-4.65-10.4-10.4V45.89c0-5.75,4.65-10.4,10.4-10.4h358.01
				c5.75,0,10.4,4.65,10.4,10.4v194.77c0,5.75-4.65,10.4-10.4,10.4H648.81v13.56h35.71c2.05,0,3.94,0.79,5.36,2.21
				c1.42,1.42,2.21,3.39,2.21,5.36v4.73H584.09v-4.73c0-2.05,0.79-3.94,2.21-5.36c1.42-1.42,3.39-2.21,5.36-2.21h35.71v-13.56
				H627.45z"/>
		</g>
		<g transform="matrix(1.00085,0,0,0.849866,10.641,110.906)">
			<path class="st0" d="M712.77-201.8c0-5.83-4.02-10.64-8.99-10.64H364.07c-4.97,0-8.99,4.73-8.99,10.64V-3.64
				c0,5.83,4.02,10.64,8.99,10.64h339.72c4.97,0,8.99-4.73,8.99-10.64V-201.8z"/>
		</g>
	</g>
	<g>
		<g transform="matrix(0.774916,0.0753794,-0.08023,0.824781,477.414,-23.1485)">
			<path class="st9" d="M212.85,6.63l8.43-13.56c0.24-0.32,0.63-0.55,1.02-0.47c0.39,0.08,0.79,0.32,0.87,0.71l5.04,15.92
				l13.24-9.85c0.39-0.24,0.87-0.32,1.26-0.08s0.55,0.63,0.47,1.1l-4.18,15.92c-0.16,0.55-0.71,0.87-1.26,0.71
				c-0.55-0.16-0.95-0.71-0.79-1.18l3.39-13.08l-11.98,8.99c-0.24,0.24-0.63,0.24-0.95,0.16c-0.32-0.08-0.63-0.32-0.71-0.71
				l-4.81-15.13l-7.88,12.69c-0.16,0.24-0.47,0.47-0.79,0.47c-0.32,0.08-0.63-0.08-0.87-0.32l-10.8-10.25L203,12.22
				c0.08,0.55-0.39,1.02-0.95,1.1s-1.1-0.32-1.18-0.87l-1.73-16.39c-0.08-0.39,0.24-0.79,0.63-1.02c0.39-0.16,0.87-0.08,1.18,0.24
				L212.85,6.63z"/>
		</g>
		<g transform="matrix(0.996116,-0.0880559,0.0880559,0.996116,-72.9819,122.435)">
			<path class="st10" d="M531.53-41.04l5.68-13.01c0.16-0.32,0.47-0.55,0.87-0.47s0.63,0.32,0.71,0.71l1.97,12.3l6.7-6.23
				c0.24-0.24,0.63-0.32,0.95-0.16c0.32,0.16,0.47,0.47,0.47,0.79l-1.02,10.88c-0.08,0.47-0.47,0.79-0.87,0.79
				c-0.47-0.08-0.79-0.47-0.71-0.95l0.79-8.67l-6.31,5.75c-0.24,0.24-0.55,0.24-0.87,0.16c-0.32-0.08-0.47-0.32-0.55-0.63
				l-1.73-11.03l-5.36,12.45c-0.16,0.32-0.47,0.55-0.79,0.47c-0.32,0-0.63-0.24-0.71-0.55l-3.86-11.98l-2.6,15.05
				c-0.08,0.32-0.24,0.55-0.47,0.63c-0.24,0.08-0.55,0.08-0.79-0.08l-10.48-7.8l4.65,16.63c0.16,0.47-0.16,0.87-0.55,1.02
				c-0.47,0.16-0.87-0.16-1.02-0.55l-5.28-19c-0.08-0.32,0-0.71,0.32-0.95c0.32-0.24,0.71-0.16,0.95,0l11.35,8.51l2.76-17.1
				c0.08-0.39,0.39-0.63,0.79-0.71c0.39,0,0.71,0.24,0.87,0.55L531.53-41.04z"/>
		</g>
		<path class="st11" d="M609.36-35.01l-7.8-9.85h7.8v-9.3l10.96,9.3l6.94-5.12v11.27l6.54,7.25h-10.33l-3.15,10.64l-5.99-10.64
			l-12.77,5.83L609.36-35.01z"/>
		<g transform="matrix(1,0,0,1,-87.2563,-115.527)">
			<path class="st9" d="M467.52,160.89l3.55-2.68l-5.83-9.14l-4.1,3.94L467.52,160.89z M469.96,144.34l3.94,8.43l4.1-1.18
				l-3.15-10.96L469.96,144.34z M483.68,141.9l1.02,8.75l3.23,0.79l1.1-9.85L483.68,141.9z"/>
		</g>
		<g transform="matrix(1,0,0,1,-87.2563,-115.527)">
			<path class="st9" d="M792.89,129.68l-3.55-2.68l5.83-9.14l4.1,3.94L792.89,129.68z M790.53,113.13l-3.94,8.43l-4.1-1.18
				l3.15-10.96L790.53,113.13z M776.73,110.69l-1.02,8.75l-3.31,0.79l-1.1-9.85L776.73,110.69z"/>
		</g>
	</g>
	<g transform="matrix(1,0,0,0.967877,0,20.2095)">
		<path class="st5" d="M366.12,35.39l21.28,4.41V24.99h37.91V38.7h50.13v-54.86h60.61v41.07l30.19-25.77v-18.05
			c0-10.09,7.88-18.21,17.66-18.21l0,0c9.77,0,17.66,8.12,17.66,18.21v2.76h49.26v15.37h13.24v-7.65h27.51v33.42h32.79v65.5
			c0,5.36-4.18,9.69-9.38,9.69c-50.45,0-289.04,0-339.4,0c-5.2,0-9.38-4.34-9.38-9.69C366.12,72.44,366.12,35.39,366.12,35.39z"/>
	</g>
	<g transform="matrix(0.998621,0,0,0.9275,1.63686,51.9617)">
		<path class="st0" d="M380.03,70.66V50.01l19.86-27.35h48.16V-3.99h56.91l5.91-29.64h79.37l10.8,51.71l7.09-42.96h52.65l7.8,37.2
			l54.86-0.32c0,0,0.47,32,0.71,48.79c0,2.6-0.87,5.12-2.6,7.02c-1.73,1.89-4.02,2.92-6.46,2.92H380.03V70.66z"/>
	</g>
	<g transform="matrix(1,0,0,1,-87.2563,-115.527)">
		<path class="st5" d="M702.25,229.39h-11.59v2.84h11.59V229.39z M580.07,226.87h-11.59v2.84h11.59V226.87z M557.45,226.87h-11.59
			v2.84h11.59V226.87z M782.33,220.01h-11.59v2.84h11.59V220.01z M680.57,200.38h7.88v2.84h-7.88V200.38z M596.94,200.38h-6.54v2.76
			h6.54V200.38z M600.33,194.71h-9.85v2.76h9.85V194.71z M677.18,194.24h11.59v2.84h-11.59V194.24z M733.3,193.76h-11.59v2.84h11.59
			V193.76z M746.54,189.11h-11.59v2.84h11.59V189.11z"/>
	</g>
	<path class="st8" d="M382.04,98.28v18.44c0,0.47-0.39,0.87-0.87,0.87s-0.87-0.39-0.87-0.87V97.96c0-0.16,0.08-0.39,0.16-0.55
		l19.94-25.46c0.16-0.24,0.39-0.32,0.63-0.32h48c0.47,0,0.87,0.39,0.87,0.87v46.03c0,0.47-0.39,0.87-0.87,0.87
		c-0.47,0-0.87-0.39-0.87-0.87V73.37h-46.74L382.04,98.28z"/>
	<g transform="matrix(1,0,0,1.07539,0,-62.4319)">
		<path class="st8" d="M602.42,122.02v46.35c0,0.39-0.39,0.79-0.87,0.79c-0.47,0-0.87-0.32-0.87-0.79v-46.35c0-0.08,0-0.08,0-0.16
			l6.78-36.57c0.08-0.39,0.39-0.63,0.79-0.63h53.05c0.39,0,0.71,0.24,0.79,0.55l10.09,36.57c0.08,0.39-0.16,0.87-0.63,0.95
			c-0.47,0.08-0.87-0.16-1.02-0.55l-9.93-36.02h-51.71L602.42,122.02z"/>
	</g>
	<path class="st8" d="M670.68,72.58v46.03c0,0.71,0.55,1.26,1.26,1.26s1.26-0.55,1.26-1.26V72.58c0-0.71-0.55-1.26-1.26-1.26
		C671.23,71.32,670.68,71.87,670.68,72.58z"/>
	<path class="st8" d="M724.44,60.6l-54.7,0.55l0.95,7.09v33.1l54.47-0.08L724.44,60.6z"/>
	<g transform="matrix(1,0,0,0.376347,0.0168286,520.17)">
		<rect x="602.11" y="-1199.04" class="st8" width="68.57" height="4.26"/>
	</g>
	<g>
		<path class="st12" d="M629.85,106.32v3.86h-14.9v-3.86H629.85z M629.85,104.19h-14.9V86.93h14.9V104.19z"/>
		<path class="st12" d="M658.86,106.32v3.86h-14.9v-3.86H658.86z M658.86,104.19h-14.9V86.93h14.9V104.19z"/>
	</g>
	<g transform="matrix(0.936548,0,0,1,100.546,-8.31103)">
		<g transform="matrix(1,0,0,1,-3.29444,-3.90934)">
			<path class="st5" d="M453.48,122.94h21.99c0.47,0,0.87,0.39,0.87,0.87s-0.39,0.87-0.87,0.87h-22.86c-0.47,0-0.87-0.39-0.87-0.87
				v-20.97c0-3.15,1.34-6.15,3.7-8.36c2.36-2.21,5.6-3.47,8.91-3.47l0,0v1.66l0,0c-2.84,0-5.6,1.1-7.65,3
				c-2.05,1.89-3.15,4.49-3.15,7.17v20.1H453.48z"/>
		</g>
		<g transform="matrix(1,0,0,1,-3.29444,-3.90934)">
			<path class="st5" d="M476.41,123.8v-21.52c0-3-1.26-5.83-3.55-7.96s-5.36-3.31-8.51-3.31l0,0v1.66l0,0
				c2.76,0,5.36,1.02,7.25,2.84c1.89,1.81,3,4.26,3,6.78v21.52c0,0.47,0.39,0.87,0.87,0.87
				C476.02,124.59,476.41,124.28,476.41,123.8z"/>
		</g>
		<g transform="matrix(1,0,0,0.969589,0.723526,26.9204)">
			<path class="st5" d="M459.17,62.96v32.87c0,0.47,0.39,0.87,0.87,0.87s0.87-0.39,0.87-0.87V62.96c0-0.47-0.39-0.87-0.87-0.87
				S459.17,62.49,459.17,62.96z"/>
		</g>
		<g transform="matrix(0.000756354,1,-0.695262,0.000525865,2176.4,-653.025)">
			<path class="st5" d="M750.44,2452v32.87c0,0.71,0.39,1.26,0.87,1.26s0.87-0.55,0.87-1.26V2452c0-0.71-0.39-1.26-0.87-1.26
				C750.83,2450.66,750.44,2451.29,750.44,2452z"/>
		</g>
		<g transform="matrix(-6.93889e-18,0.695263,-0.695262,-0.00039074,2177.57,-152.7)">
			<path class="st5" d="M379.72,2452.81l0,32.87c0,0.71,0.55,1.26,1.18,1.26s1.18-0.55,1.18-1.26v-32.87c0-0.71-0.55-1.26-1.18-1.26
				C380.27,2451.55,379.72,2452.1,379.72,2452.81z"/>
		</g>
	</g>
	<g transform="matrix(0.936548,0,0,1,198.191,-8.31103)">
		<g transform="matrix(1,0,0,1,-3.29444,-3.90934)">
			<path class="st10" d="M392.61,122.94h10.56c0.47,0,0.87,0.39,0.87,0.87s-0.39,0.87-0.87,0.87h-11.43c-0.47,0-0.87-0.39-0.87-0.87
				v-21.2c0-3.07,1.26-5.99,3.63-8.2c2.29-2.13,5.44-3.39,8.75-3.39l0,0c0.47,0,0.87,0.39,0.87,0.87s-0.39,0.87-0.87,0.87l0,0
				c-2.76,0-5.52,1.02-7.49,2.92c-1.97,1.89-3.07,4.34-3.07,7.02v20.26H392.61z"/>
		</g>
		<g transform="matrix(1,0,0,1,-3.29444,-3.90934)">
			<path class="st10" d="M413.66,122.94v-20.41c0-5.44-4.73-9.85-10.56-9.85c-0.47,0-0.87-0.39-0.87-0.87s0.39-0.87,0.87-0.87
				c6.78,0,12.3,5.2,12.3,11.51v21.2c0,0.47-0.39,0.87-0.87,0.87H403.1c-0.47,0-0.87-0.39-0.87-0.87s0.39-0.87,0.87-0.87h10.56
				V122.94z"/>
		</g>
		<g transform="matrix(1,0,0,0.969589,0.723526,26.9204)">
			<path class="st10" d="M398.23,62.96v32.87c0,0.47,0.39,0.87,0.87,0.87s0.87-0.39,0.87-0.87V62.96c0-0.47-0.39-0.87-0.87-0.87
				S398.23,62.49,398.23,62.96z"/>
		</g>
		<g transform="matrix(0.000756354,1,-0.695262,0.000525865,2176.4,-653.025)">
			<path class="st10" d="M750.42,2539.56v32.87c0,0.71,0.39,1.26,0.87,1.26c0.47,0,0.87-0.55,0.87-1.26v-32.87
				c0-0.71-0.39-1.26-0.87-1.26C750.74,2538.3,750.42,2538.85,750.42,2539.56z"/>
		</g>
		<g transform="matrix(-6.93889e-18,0.695263,-0.695262,-0.00039074,2177.57,-152.7)">
			<path class="st10" d="M379.82,2540.46v32.87c0,0.71,0.55,1.26,1.18,1.26s1.18-0.55,1.18-1.26v-32.87c0-0.71-0.55-1.26-1.18-1.26
				S379.82,2539.75,379.82,2540.46z"/>
		</g>
	</g>
	<g transform="matrix(0.698108,0,0,1,421.497,1.68706)">
		<path class="st10" d="M57.86,105.96h8.12c0.63,0,1.18,0.39,1.18,0.87s-0.55,0.87-1.18,0.87h-9.3c-0.63,0-1.18-0.39-1.18-0.87
			V86.02c0-0.47,0.55-0.87,1.18-0.87h9.3c0.63,0,1.18,0.39,1.18,0.87s-0.55,0.87-1.18,0.87h-8.12V105.96z"/>
	</g>
	<g transform="matrix(0.698108,0,0,1,421.497,1.68706)">
		<path class="st10" d="M67.16,106.75V85.94c0-0.47-0.55-0.87-1.18-0.87s-1.18,0.39-1.18,0.87v20.81c0,0.47,0.55,0.87,1.18,0.87
			C66.61,107.62,67.16,107.22,67.16,106.75z"/>
	</g>
	<g transform="matrix(0.698108,0,0,1,475.977,1.68706)">
		<path class="st5" d="M12.25,86.81v20.02c0,0.47-0.55,0.87-1.18,0.87c-0.63,0-1.18-0.39-1.18-0.87V86.02
			c0-0.47,0.55-0.87,1.18-0.87h9.3c0.63,0,1.18,0.39,1.18,0.87s-0.55,0.87-1.18,0.87h-8.12V86.81z"/>
	</g>
	<g transform="matrix(0.698108,0,0,1,475.977,1.68706)">
		<path class="st5" d="M19.19,105.96V85.94c0-0.47,0.55-0.87,1.18-0.87s1.18,0.39,1.18,0.87v20.81c0,0.47-0.55,0.87-1.18,0.87h-9.3
			c-0.63,0-1.18-0.39-1.18-0.87s0.55-0.87,1.18-0.87h8.12V105.96z"/>
	</g>
	<path class="st10" d="M683.14,117.43v-7.25c0-0.47,0.39-0.87,0.87-0.87h9.3c0.47,0,0.87,0.39,0.87,0.87v7.25h-1.66v-6.38h-7.65
		v6.38H683.14z"/>
	<path class="st8" d="M704.18,117.83v-7.65c0-0.47,0.39-0.87,0.87-0.87h9.3c0.47,0,0.87,0.39,0.87,0.87v7.65h-1.66v-6.86h-7.65v6.86
		H704.18z"/>
	<g transform="matrix(1,0,0,1,-87.2563,-115.527)">
		<path class="st8" d="M489.27,221.43h-9.3v11.51h9.3V221.43z M509.14,221.43h-9.3v11.51h9.3V221.43z M528.92,221.43h-9.3v11.51h9.3
			V221.43z"/>
	</g>
	<g transform="matrix(1,0,0,1,-87.2563,-115.527)">
		<path class="st8" d="M707.29,145.21l-2.29,39.73c0,0.47,0.32,0.87,0.79,0.87s0.87-0.32,0.87-0.79l2.29-39.73
			c0-0.47-0.32-0.87-0.79-0.87C707.69,144.42,707.37,144.74,707.29,145.21z M718.17,145.05v39.8c0,0.47,0.39,0.87,0.87,0.87
			s0.87-0.39,0.87-0.87v-39.8c0-0.47-0.39-0.87-0.87-0.87S718.17,144.58,718.17,145.05z M722.03,145.05v39.73
			c0,0.47,0.39,0.87,0.87,0.87s0.87-0.39,0.87-0.87v-39.73c0-0.47-0.39-0.87-0.87-0.87C722.43,144.18,722.03,144.58,722.03,145.05z
			 M740.08,145.13l5.68,39.49c0.08,0.47,0.47,0.79,0.95,0.71c0.47-0.08,0.79-0.47,0.71-0.95l-5.68-39.49
			c-0.08-0.47-0.47-0.79-0.95-0.71C740.32,144.26,740,144.66,740.08,145.13z M732.28,145.05l2.36,39.49c0,0.47,0.39,0.79,0.87,0.79
			s0.79-0.39,0.79-0.87l-2.36-39.49c0-0.47-0.39-0.79-0.87-0.79S732.2,144.58,732.28,145.05z"/>
	</g>
	<g transform="matrix(1,0,0,1,-87.2563,-115.527)">
		<path class="st8" d="M646.36,136.7l4.41,50.45c0.08,0.47,0.47,0.79,0.87,0.79c0.47-0.08,0.79-0.47,0.79-0.87l-4.41-50.45
			c-0.08-0.47-0.47-0.79-0.87-0.79C646.6,135.83,646.28,136.22,646.36,136.7z M617.04,136.54l-3,50.37c0,0.47,0.32,0.87,0.79,0.87
			s0.87-0.32,0.87-0.79l3-50.37c0-0.47-0.32-0.87-0.79-0.87C617.51,135.75,617.12,136.07,617.04,136.54z M629.1,136.62l-0.08,50.29
			c0,0.47,0.39,0.87,0.87,0.87s0.87-0.39,0.87-0.87l0.08-50.29c0-0.47-0.39-0.87-0.87-0.87C629.42,135.75,629.1,136.14,629.1,136.62
			z M603.8,135.99l-5.12,50.76c-0.08,0.47,0.32,0.87,0.71,0.95c0.47,0.08,0.87-0.32,0.95-0.71l5.12-50.76
			c0.08-0.47-0.32-0.87-0.71-0.95C604.19,135.2,603.8,135.51,603.8,135.99z M661.02,136.7l5.44,50.05c0.08,0.47,0.47,0.79,0.95,0.71
			c0.47-0.08,0.79-0.47,0.71-0.95l-5.44-50.05c-0.08-0.47-0.47-0.79-0.95-0.71S660.95,136.22,661.02,136.7z M666.54,136.7
			l6.07,50.05c0.08,0.47,0.47,0.79,0.95,0.71c0.47-0.08,0.79-0.47,0.71-0.95l-6.07-50.05c-0.08-0.47-0.47-0.79-0.95-0.71
			S666.46,136.22,666.54,136.7z M612.71,136.54l-3.07,49.81c0,0.47,0.32,0.87,0.79,0.87s0.87-0.32,0.87-0.79l3.15-49.81
			c0-0.47-0.32-0.87-0.79-0.87C613.1,135.75,612.71,136.07,612.71,136.54z"/>
	</g>
	<g transform="matrix(1,0,0,1,-87.2563,-115.527)">
		<path class="st8" d="M501.65,187.77l-10.72,24.91c-0.16,0.39,0,0.95,0.47,1.1c0.39,0.16,0.95,0,1.1-0.47l10.72-24.91
			c0.16-0.39,0-0.95-0.39-1.1C502.28,187.14,501.81,187.38,501.65,187.77z M520.41,188.88l-2.44,23.96
			c-0.08,0.47,0.32,0.87,0.71,0.95c0.47,0.08,0.87-0.32,0.95-0.71l2.44-23.96c0.08-0.47-0.32-0.87-0.71-0.95
			C520.88,188.09,520.41,188.4,520.41,188.88z M493.06,187.69l-15.37,24.75c-0.24,0.39-0.16,0.87,0.24,1.18
			c0.39,0.24,0.87,0.16,1.18-0.24l15.37-24.75c0.24-0.39,0.16-0.87-0.24-1.18C493.77,187.14,493.29,187.3,493.06,187.69z
			 M529.47,188.88v23.8c0,0.47,0.39,0.87,0.87,0.87s0.87-0.39,0.87-0.87v-23.8c0-0.47-0.39-0.87-0.87-0.87
			C529.79,188.01,529.47,188.4,529.47,188.88z M506.38,187.93l-6.7,23.96c-0.16,0.47,0.16,0.87,0.55,1.02
			c0.47,0.16,0.87-0.16,1.02-0.55l6.7-23.96c0.16-0.47-0.16-0.87-0.55-1.02C507.01,187.22,506.53,187.46,506.38,187.93z"/>
	</g>
	<g transform="matrix(1,0,0,1,-0.0580565,-4.85505)">
		<path class="st8" d="M503.36,77.39h98.29c0.47,0,0.87-0.39,0.87-0.87s-0.39-0.87-0.87-0.87h-98.29c-0.47,0-0.87,0.39-0.87,0.87
			C502.49,77,502.89,77.39,503.36,77.39z"/>
	</g>
	<path class="st8" d="M448.8,96.86h-67.71c-0.47,0-0.87,0.39-0.87,0.87s0.39,0.87,0.87,0.87h67.71c0.47,0,0.87-0.39,0.87-0.87
		C449.59,97.25,449.2,96.86,448.8,96.86z"/>
	<path class="st8" d="M448.96,80.46h54.31V68.48l3.7-22.62h-58.01L448.96,80.46L448.96,80.46z"/>
	<path class="st8" d="M504.13,73.92v44.22c0,0.47-0.39,0.87-0.87,0.87s-0.87-0.39-0.87-0.87v-44.3c0-0.08,0-0.08,0-0.16l8.04-53.68
		c0.08-0.39,0.39-0.71,0.79-0.71h79.22c0.39,0,0.71,0.24,0.79,0.63l11.35,50.76c0,0.08,0,0.16,0,0.16v47.21
		c0,0.47-0.39,0.87-0.87,0.87s-0.87-0.39-0.87-0.87V71.01l-11.19-50.05h-77.8L504.13,73.92z"/>
	<g transform="matrix(1,0,0,1,-8.41896,0)">
		<path class="st13" d="M399.43-52.9V2.9c0,0.71-0.55,1.26-1.26,1.26c-0.71,0-1.26-0.55-1.26-1.26v-57.07
			c0-0.71,0.55-1.26,1.26-1.26h97.74c0.71,0,1.26,0.55,1.26,1.26s-0.55,1.26-1.26,1.26H399.43z"/>
	</g>
	<g transform="matrix(1,0,0,1,-8.41896,0)">
		<path class="st13" d="M494.65,1.64v-55.81c0-0.71,0.55-1.26,1.26-1.26c0.71,0,1.26,0.55,1.26,1.26V2.9c0,0.71-0.55,1.26-1.26,1.26
			h-97.74c-0.71,0-1.26-0.55-1.26-1.26s0.55-1.26,1.26-1.26H494.65z"/>
	</g>
	<g transform="matrix(1,0,0,1,-86.8751,-121.725)">
		<path class="st13" d="M487.46,119.64l74.41,0.24c0.71,0,1.26-0.55,1.26-1.26c0-0.71-0.55-1.26-1.26-1.26l-74.41-0.24
			c-0.71,0-1.26,0.55-1.26,1.26C486.28,119.01,486.83,119.64,487.46,119.64z"/>
	</g>
	<g transform="matrix(0.794473,0,0,1.67523,251.627,-394.816)">
		<text transform="matrix(0.5969 0 0 0.5969 186.9782 230.8011)" class="st14 st15 st16">NEWS</text>
	</g>
	<g transform="matrix(1,0,0,1,7.42109,4.54747e-13)">
		<path class="st9" d="M550.72-39.66l6.62-10.33v12.22h12.85l-6.7,9.54v12.69l-8.59-5.28l-14.11,7.8v-10.72l-11.74-4.41l11.67-3.07
			l-2.92-13.56L550.72-39.66z"/>
	</g>
</g>
<g id="GREEN-PRINKLES" transform="matrix(1.02574,-0.00214966,0.00214966,1.02574,41.3702,102.35)">
	<path class="st17" d="M752.63-90.21l-3,14.66l5.99,2.13l5.36-16L752.63-90.21z"/>
	<path class="st17" d="M773.59-85.4l-10.33,14.9l5.12,4.89l12.45-13.08L773.59-85.4z"/>
	<path class="st17" d="M773.28-60.17l13.01-6.23l2.05,8.59l-13.48,4.41L773.28-60.17z"/>
	<path class="st17" d="M368.69-85.24l8.75-5.12l8.91,14.03l-5.04,5.12L368.69-85.24z"/>
	<path class="st17" d="M389.66-98.8l5.44,16.47l6.94-0.55l-2.44-16.39L389.66-98.8z"/>
	<path class="st17" d="M409.83-81.85l6.94-15.61l6.86,4.97l-7.02,13.01L409.83-81.85z"/>
</g>
<g id="LAPTOP" transform="matrix(1,0,0,1,94.6774,115.527)">
	<path class="st0" d="M517.07,344.59l126.9,48.63l88.04-9.14l68.18-74.25L664.62,275.7l-47.92,56.2L516.99,339v5.6H517.07z"/>
	<g>
		<path class="st18" d="M673.21,282.96l-4.26,5.2"/>
		<g transform="matrix(1,0,0,1,5.07833,2.42068)">
			<path class="st18" d="M670.24,281.58l-4.26,5.2"/>
		</g>
		<g transform="matrix(0.424399,0.905475,-0.905475,0.424399,2321.78,-938.629)">
			<path class="st18" d="M410.24,2009.33l-4.26,5.2"/>
		</g>
		<g transform="matrix(0.419715,0.907656,-0.907656,0.419715,2330.84,-932.074)">
			<path class="st18" d="M411.98,2014.46l-4.26,5.2"/>
		</g>
	</g>
	<path class="st19" d="M793.33,293.44l6.94,3.78l13.79-16.71l-9.7-4.81L793.33,293.44z"/>
	<path class="st19" d="M809.18,315.9l-2.21,4.65l15.45,7.72l3.86-7.72L809.18,315.9z"/>
	<path class="st19" d="M806.5,302.82l2.68,5.52l17.1-4.34l-3.39-9.69L806.5,302.82z"/>
	<g transform="matrix(1,0,0,1,-77.9325,113.884)">
		<path class="st18" d="M718.72,216.43l-4.26,5.2"/>
		<g transform="matrix(1,0,0,1,5.07833,2.42068)">
			<path class="st18" d="M715.75,214.97l-4.26,5.2"/>
		</g>
		<g transform="matrix(0.329454,0.944172,-0.944172,0.329454,2554.1,-882.922)">
			<path class="st18" d="M437.28,2093.08l-4.26,5.2"/>
		</g>
		<g transform="matrix(0.338816,0.940853,-0.940853,0.338816,2529.3,-884.227)">
			<path class="st18" d="M427.76,2076.19l-4.26,5.2"/>
		</g>
	</g>
	<g transform="matrix(-0.998299,0.0582993,-0.0582993,-0.998299,3961.64,2752.98)">
		<path class="st18" d="M3107.33,2584.52l-4.26,5.2"/>
		<g transform="matrix(1,0,0,1,5.07833,2.42068)">
			<path class="st18" d="M3104.36,2583.06l-4.26,5.2"/>
		</g>
		<g transform="matrix(0.308858,0.951108,-0.951108,0.308858,2600.4,-867.712)">
			<path class="st18" d="M3443.97,583.01l-4.26,5.2"/>
		</g>
		<g transform="matrix(0.304096,0.952641,-0.952641,0.304096,2608.69,-859.5)">
			<path class="st18" d="M3437.98,572.92l-4.26,5.2"/>
		</g>
	</g>
	<g transform="matrix(0.999998,-0.00181567,0.00181567,0.999998,49.7616,168.749)">
		<path class="st18" d="M644.79,184.11l-4.26,5.2"/>
		<g transform="matrix(1,0,0,1,5.07833,2.42068)">
			<path class="st18" d="M641.82,182.65l-4.26,5.2"/>
		</g>
		<g transform="matrix(0.338258,0.941054,-0.941054,0.338258,2533.2,-889.431)">
			<path class="st18" d="M375.34,2138.2l-4.26,5.2"/>
		</g>
		<g transform="matrix(0.344401,0.938823,-0.938823,0.344401,2515.58,-888.564)">
			<path class="st18" d="M368.05,2125.62l-4.26,5.2"/>
		</g>
	</g>
	<g>
		<path class="st20" d="M651.85,370.21l-73.78-24.83l-20.73,2.52l82.92,27.11L651.85,370.21z"/>
		<path class="st20" d="M616.22,330.64l47.53-55.1c0.47-0.55,1.26-0.55,1.73-0.16c0.55,0.47,0.55,1.26,0.16,1.73l-47.92,55.49
			c-0.24,0.24-0.55,0.39-0.87,0.39l-98.61,7.02v4.41l127.93,47.45l85.05-8.36c0.71-0.08,1.26,0.39,1.34,1.1s-0.47,1.26-1.1,1.34
			l-85.28,8.43c-0.16,0-0.39,0-0.55-0.08l-129.03-47.84c-0.47-0.16-0.79-0.63-0.79-1.18v-6.46c0-0.63,0.47-1.18,1.18-1.26
			L616.22,330.64z"/>
		<path class="st20" d="M797.91,310.54L664.38,277.6c-0.63-0.16-1.1-0.87-0.95-1.5c0.16-0.63,0.87-1.1,1.5-0.95l135.57,33.42
			c0.39,0.08,0.79,0.39,0.87,0.87c0.16,0.39,0,0.87-0.24,1.18l-68.89,75.04c-0.47,0.47-1.26,0.55-1.73,0.08
			c-0.47-0.47-0.55-1.26-0.08-1.73L797.91,310.54z"/>
		<path class="st20" d="M517.07,338.92l129.03,45.87l81.26-7.88l67-68.57l5.91,1.5l-68.89,75.04l-85.28,8.43l-129.03-47.84V338.92z"
			/>
		<path class="st20" d="M616.38,333.01l114.53,45.09c0.63,0.24,1.34-0.08,1.66-0.71c0.24-0.63-0.08-1.34-0.71-1.66l-114.53-45.09
			c-0.63-0.24-1.34,0.08-1.66,0.71C615.36,332.06,615.67,332.77,616.38,333.01z"/>
		<g transform="matrix(1.25406,0.348972,-0.32539,1.16932,-61.2696,-908.476)">
			<path class="st20" d="M857.84,783.47l-61.01,0.71l-2.13,4.1l60.38,0.16L857.84,783.47z"/>
		</g>
		<g transform="matrix(0.624303,0.268739,-0.479899,1.11485,1285.78,-566.042)">
			<path class="st20" d="M-275.69,887.7l-60.14,1.26l-2.21,4.26l61.4-0.95L-275.69,887.7z"/>
		</g>
		<g transform="matrix(0.624303,0.268739,-0.479899,1.11485,1413.11,-515.969)">
			<path class="st20" d="M-415.17,889.49l-39.96,0.95l-1.73,4.97l40.75-1.34L-415.17,889.49z"/>
		</g>
		<g transform="matrix(0.401682,0.172909,-0.479899,1.11485,1877.15,-338.846)">
			<path class="st20" d="M-1776.23,899.5l-37.76,0.47l-1.02,4.49l36.02-0.16L-1776.23,899.5z"/>
		</g>
		<g>
			<g transform="matrix(1,0,0,1,-8.92637,-0.679368)">
				<path class="st20" d="M664.62,321.96l70.23,25.85c0.39,0.16,0.63,0.63,0.47,1.02c-0.16,0.39-0.63,0.63-1.1,0.47l-71.33-26.25
					c-0.24-0.08-0.47-0.32-0.55-0.55s0-0.55,0.16-0.71l20.49-24.99c0.32-0.32,0.79-0.39,1.18-0.08c0.32,0.32,0.39,0.79,0.08,1.18
					L664.62,321.96z"/>
			</g>
			<g transform="matrix(1,0,0,1,-8.92637,-0.679368)">
				<path class="st20" d="M685.27,296.81l-0.87,1.1c-0.32,0.39-0.79,0.39-1.18,0.08c-0.39-0.32-0.39-0.79-0.08-1.18l1.26-1.5
					c0.24-0.24,0.55-0.39,0.87-0.24l74.01,22.46c0.24,0.08,0.47,0.32,0.55,0.55s0,0.55-0.16,0.79l-24.51,30.27
					c-0.32,0.39-0.79,0.39-1.18,0.16c-0.39-0.32-0.39-0.79-0.16-1.18l23.73-29.32L685.27,296.81z"/>
			</g>
			<g transform="matrix(0.624303,0.268739,-0.479899,1.11485,1285.78,-566.042)">
				<path class="st20" d="M-259.92,850.5l-59.83,3.78l-1.66,4.34l61.09-3.47L-259.92,850.5z"/>
			</g>
			<g transform="matrix(0.624303,0.268739,-0.479899,1.11485,1285.78,-566.042)">
				<path class="st20" d="M-263.63,859.64l-59.98,2.68l-1.89,4.34l61.24-2.36L-263.63,859.64z"/>
			</g>
			<g transform="matrix(0.624303,0.268739,-0.479899,1.11485,1285.78,-566.042)">
				<path class="st20" d="M-268.36,867.6l-59.98,2.68l-1.89,4.34l61.24-2.36L-268.36,867.6z"/>
			</g>
		</g>
	</g>
	<g transform="matrix(0.88816,-0.164313,0.167587,0.905855,-38.2713,437.225)">
		<path class="st19" d="M763.45,18.22c-0.08,0-0.08-0.08-0.32-0.63c-0.16-0.39-0.24-0.87-0.32-1.34c-0.24-1.02-0.24-2.13,0-3.15
			c0.16-0.63,0.32-1.34,0.79-1.81c1.1-1.34,3.39-1.58,4.34,0.08c0.24,0.39,0.32,0.87,0.39,1.34c0,0.08,0,0.47,0.08,0.47
			c0.08,0,0.32-0.16,0.32-0.16c0.24-0.16,0.55-0.24,0.87-0.24c1.18-0.16,2.6,0.39,3.15,1.5c0.63,1.26-0.47,2.68-1.5,3.31
			C769.05,19.01,763.45,18.22,763.45,18.22z"/>
	</g>
	<g transform="matrix(0.999456,-0.0329788,0.0329788,0.999456,-52.8679,57.199)">
		<g transform="matrix(0.668839,0,0,0.767736,615.369,341.182)">
			<path class="st20" d="M124.83-61.56h-2.84c-0.39,0-0.79-0.32-0.79-0.63c0-0.32,0.32-0.63,0.79-0.63h4.34
				c0.32,0,0.55,0.16,0.71,0.39c0.16,0.24,0.08,0.47-0.08,0.71l-4.26,5.12c-0.24,0.32-0.71,0.39-1.02,0.16
				c-0.32-0.24-0.39-0.63-0.16-0.95L124.83-61.56z"/>
		</g>
		<g transform="matrix(0.793402,0.524075,-0.58005,0.878144,1237.59,-802.94)">
			<path class="st20" d="M166.96,1150.94c0.24,0,0.39,0.16,0.55,0.39c0.24,0.32,0.32,0.79,0.32,1.26s-0.16,0.95-0.32,1.26
				c-0.16,0.24-0.32,0.39-0.55,0.39c-0.32,0-0.55,0.24-0.55,0.47c0,0.24,0.24,0.47,0.55,0.47c0.47,0,0.87-0.24,1.26-0.55
				c0.39-0.47,0.71-1.18,0.71-2.05c0-0.87-0.32-1.58-0.71-2.05c-0.32-0.39-0.79-0.55-1.26-0.55c-0.32,0-0.55,0.24-0.55,0.47
				C166.41,1150.78,166.65,1150.94,166.96,1150.94z"/>
		</g>
		<g transform="matrix(0.793402,0.524075,-0.58005,0.878144,1247.32,-798.845)">
			<path class="st20" d="M160.63,1152.04c0.24,0,0.39,0.16,0.55,0.39c0.24,0.32,0.32,0.79,0.32,1.26c0,0.47-0.16,0.95-0.32,1.26
				c-0.16,0.24-0.32,0.39-0.55,0.39c-0.32,0-0.55,0.24-0.55,0.47s0.24,0.47,0.55,0.47c0.47,0,0.87-0.24,1.26-0.55
				c0.39-0.47,0.71-1.18,0.71-2.05c0-0.87-0.32-1.58-0.71-2.05c-0.32-0.39-0.79-0.55-1.26-0.55c-0.32,0-0.55,0.24-0.55,0.47
				C160.08,1151.8,160.31,1152.04,160.63,1152.04z"/>
		</g>
		<g transform="matrix(0.793402,0.524075,-0.58005,0.878144,1257.01,-794.848)">
			<path class="st20" d="M154.24,1153.15c0.24,0,0.39,0.16,0.55,0.39c0.24,0.32,0.32,0.79,0.32,1.26s-0.16,0.95-0.32,1.26
				c-0.16,0.24-0.32,0.39-0.55,0.39c-0.32,0-0.55,0.24-0.55,0.47c0,0.24,0.24,0.47,0.55,0.47c0.47,0,0.87-0.24,1.26-0.55
				c0.39-0.47,0.71-1.18,0.71-2.05c0-0.87-0.32-1.58-0.71-2.05c-0.32-0.39-0.79-0.55-1.26-0.55c-0.32,0-0.55,0.24-0.55,0.47
				C153.77,1152.92,154,1153.15,154.24,1153.15z"/>
		</g>
		<g transform="matrix(0.793402,0.524075,-0.58005,0.878144,1266.71,-790.851)">
			<path class="st20" d="M147.93,1154.27c0.24,0,0.39,0.16,0.55,0.39c0.24,0.32,0.32,0.79,0.32,1.26c0,0.47-0.16,0.95-0.32,1.26
				c-0.16,0.24-0.32,0.39-0.55,0.39c-0.32,0-0.55,0.24-0.55,0.47c0,0.24,0.24,0.47,0.55,0.47c0.47,0,0.87-0.24,1.26-0.55
				c0.39-0.47,0.71-1.18,0.71-2.05c0-0.87-0.32-1.58-0.71-2.05c-0.32-0.39-0.79-0.55-1.26-0.55c-0.32,0-0.55,0.24-0.55,0.47
				C147.45,1154.03,147.69,1154.27,147.93,1154.27z"/>
		</g>
		<g transform="matrix(0.793402,0.524075,-0.58005,0.878144,1276.41,-786.854)">
			<path class="st20" d="M141.61,1155.38c0.24,0,0.39,0.16,0.55,0.39c0.24,0.32,0.32,0.79,0.32,1.26c0,0.47-0.16,0.95-0.32,1.26
				c-0.16,0.24-0.32,0.39-0.55,0.39c-0.32,0-0.55,0.24-0.55,0.47c0,0.24,0.24,0.47,0.55,0.47c0.47,0,0.87-0.24,1.26-0.55
				c0.39-0.47,0.71-1.18,0.71-2.05c0-0.87-0.32-1.58-0.71-2.05c-0.32-0.39-0.79-0.55-1.26-0.55c-0.32,0-0.55,0.24-0.55,0.47
				C141.06,1155.14,141.3,1155.38,141.61,1155.38z"/>
		</g>
		<g transform="matrix(0.793402,0.524075,-0.58005,0.878144,1286.1,-782.858)">
			<path class="st20" d="M135.3,1156.49c0.24,0,0.39,0.16,0.55,0.39c0.24,0.32,0.32,0.79,0.32,1.26s-0.16,0.95-0.32,1.26
				c-0.16,0.24-0.32,0.39-0.55,0.39c-0.32,0-0.55,0.24-0.55,0.47c0,0.24,0.24,0.47,0.55,0.47c0.47,0,0.87-0.24,1.26-0.55
				c0.39-0.47,0.71-1.18,0.71-2.05c0-0.87-0.32-1.58-0.71-2.05c-0.32-0.39-0.79-0.55-1.26-0.55c-0.32,0-0.55,0.24-0.55,0.47
				C134.75,1156.26,134.99,1156.49,135.3,1156.49z"/>
		</g>
		<g transform="matrix(0.793402,0.524075,-0.58005,0.878144,1295.8,-778.861)">
			<path class="st20" d="M128.99,1157.61c0.24,0,0.39,0.16,0.55,0.39c0.24,0.32,0.32,0.79,0.32,1.26s-0.16,0.95-0.32,1.26
				c-0.16,0.24-0.32,0.39-0.55,0.39c-0.32,0-0.55,0.24-0.55,0.47c0,0.24,0.24,0.47,0.55,0.47c0.47,0,0.87-0.24,1.26-0.55
				c0.39-0.47,0.71-1.18,0.71-2.05c0-0.87-0.32-1.58-0.71-2.05c-0.32-0.39-0.79-0.55-1.26-0.55c-0.32,0-0.55,0.24-0.55,0.47
				S128.67,1157.61,128.99,1157.61z"/>
		</g>
		<g transform="matrix(0.793402,0.524075,-0.58005,0.878144,1237.59,-802.94)">
			<path class="st20" d="M166.96,1154.25c-0.24,0-0.39-0.16-0.55-0.39c-0.24-0.32-0.32-0.79-0.32-1.26s0.16-0.95,0.32-1.26
				c0.16-0.24,0.32-0.39,0.55-0.39c0.32,0,0.55-0.24,0.55-0.47s-0.24-0.47-0.55-0.47c-0.47,0-0.87,0.24-1.26,0.55
				c-0.39,0.47-0.71,1.18-0.71,2.05c0,0.79,0.32,1.58,0.71,2.05c0.32,0.39,0.79,0.55,1.26,0.55c0.32,0,0.55-0.24,0.55-0.47
				C167.51,1154.48,167.28,1154.25,166.96,1154.25z"/>
		</g>
		<g transform="matrix(0.793402,0.524075,-0.58005,0.878144,1247.32,-798.845)">
			<path class="st20" d="M160.63,1155.35c-0.24,0-0.39-0.16-0.55-0.39c-0.24-0.32-0.32-0.79-0.32-1.26c0-0.47,0.16-0.95,0.32-1.26
				c0.16-0.24,0.32-0.39,0.55-0.39c0.32,0,0.55-0.24,0.55-0.47c0-0.24-0.24-0.47-0.55-0.47c-0.47,0-0.87,0.24-1.26,0.55
				c-0.39,0.47-0.71,1.18-0.71,2.05c0,0.79,0.32,1.58,0.71,2.05c0.32,0.39,0.79,0.55,1.26,0.55c0.32,0,0.55-0.24,0.55-0.47
				S160.87,1155.35,160.63,1155.35z"/>
		</g>
		<g transform="matrix(0.793402,0.524075,-0.58005,0.878144,1257.01,-794.848)">
			<path class="st20" d="M154.24,1156.46c-0.24,0-0.39-0.16-0.55-0.39c-0.24-0.32-0.32-0.79-0.32-1.26s0.16-0.95,0.32-1.26
				c0.16-0.24,0.32-0.39,0.55-0.39c0.32,0,0.55-0.24,0.55-0.47c0-0.24-0.24-0.47-0.55-0.47c-0.47,0-0.87,0.24-1.26,0.55
				c-0.39,0.47-0.71,1.18-0.71,2.05c0,0.79,0.32,1.58,0.71,2.05c0.32,0.39,0.79,0.55,1.26,0.55c0.32,0,0.55-0.24,0.55-0.47
				S154.55,1156.46,154.24,1156.46z"/>
		</g>
		<g transform="matrix(0.793402,0.524075,-0.58005,0.878144,1266.71,-790.851)">
			<path class="st20" d="M147.93,1157.58c-0.24,0-0.39-0.16-0.55-0.39c-0.24-0.32-0.32-0.79-0.32-1.26s0.16-0.95,0.32-1.26
				c0.16-0.24,0.32-0.39,0.55-0.39c0.32,0,0.55-0.24,0.55-0.47c0-0.24-0.24-0.47-0.55-0.47c-0.47,0-0.87,0.24-1.26,0.55
				c-0.39,0.47-0.71,1.18-0.71,2.05c0,0.79,0.32,1.58,0.71,2.05c0.32,0.39,0.79,0.55,1.26,0.55c0.32,0,0.55-0.24,0.55-0.47
				C148.48,1157.73,148.24,1157.58,147.93,1157.58z"/>
		</g>
		<g transform="matrix(0.793402,0.524075,-0.58005,0.878144,1276.41,-786.854)">
			<path class="st20" d="M141.61,1158.69c-0.24,0-0.39-0.16-0.55-0.39c-0.24-0.32-0.32-0.79-0.32-1.26c0-0.47,0.16-0.95,0.32-1.26
				c0.16-0.24,0.32-0.39,0.55-0.39c0.32,0,0.55-0.24,0.55-0.47c0-0.24-0.24-0.47-0.55-0.47c-0.47,0-0.87,0.24-1.26,0.55
				c-0.39,0.47-0.71,1.18-0.71,2.05c0,0.79,0.32,1.58,0.71,2.05c0.32,0.39,0.79,0.55,1.26,0.55c0.32,0,0.55-0.24,0.55-0.47
				C142.16,1158.93,141.93,1158.69,141.61,1158.69z"/>
		</g>
		<g transform="matrix(0.793402,0.524075,-0.58005,0.878144,1286.1,-782.858)">
			<path class="st20" d="M135.3,1159.8c-0.24,0-0.39-0.16-0.55-0.39c-0.24-0.32-0.32-0.79-0.32-1.26s0.16-0.95,0.32-1.26
				c0.16-0.24,0.32-0.39,0.55-0.39c0.32,0,0.55-0.24,0.55-0.47s-0.24-0.47-0.55-0.47c-0.47,0-0.87,0.24-1.26,0.55
				c-0.39,0.47-0.71,1.18-0.71,2.05c0,0.79,0.32,1.58,0.71,2.05c0.32,0.39,0.79,0.55,1.26,0.55c0.32,0,0.55-0.24,0.55-0.47
				C135.85,1159.96,135.62,1159.8,135.3,1159.8z"/>
		</g>
		<g transform="matrix(0.793402,0.524075,-0.58005,0.878144,1295.8,-778.861)">
			<path class="st20" d="M128.99,1160.92c-0.24,0-0.39-0.16-0.55-0.39c-0.24-0.32-0.32-0.79-0.32-1.26s0.16-0.95,0.32-1.26
				c0.16-0.24,0.32-0.39,0.55-0.39c0.32,0,0.55-0.24,0.55-0.47s-0.24-0.47-0.55-0.47c-0.47,0-0.87,0.24-1.26,0.55
				c-0.39,0.47-0.71,1.18-0.71,2.05c0,0.79,0.32,1.58,0.71,2.05c0.32,0.39,0.79,0.55,1.26,0.55c0.32,0,0.55-0.24,0.55-0.47
				C129.54,1161.15,129.22,1160.92,128.99,1160.92z"/>
		</g>
	</g>
</g>
<g id="CHAIR" transform="matrix(1,0,0,1,94.6104,116.93)">
	<path class="st7" d="M86.87,257.36h96.48h10.56l0,0l75.67,0.47c0.79,0,1.42,0.63,1.42,1.42s-0.63,1.42-1.42,1.42l-75.67-0.47H85.38
		l-1.42-1.5c7.33-116.5-2.6-176.01-17.26-205.57c-8.51-17.18-18.6-23.96-27.75-25.85c-13.56-2.76-24.75,5.36-24.75,5.36l0,0
		c-0.63,0.47-1.5,0.32-1.97-0.32c-0.47-0.63-0.32-1.5,0.32-1.97c0,0,12.22-8.75,26.88-5.83C49.12,26.49,60,33.5,69.14,51.87
		C83.96,81.43,94.05,141.02,86.87,257.36z"/>
	<path class="st7" d="M153.56,29.09c0,0,32.47,1.66,57.7,3c18.37,0.95,33.89,14.11,37.83,32.08c3.94,18.84,7.8,46.82,10.4,88.59
		c0.08,0.79,0.71,1.34,1.5,1.34c0.79-0.08,1.34-0.71,1.34-1.5c-2.6-41.93-6.54-70.07-10.48-89.07
		c-4.26-19.23-20.81-33.26-40.44-34.29c-25.22-1.34-57.7-3-57.7-3c-0.79-0.08-1.42,0.55-1.5,1.34
		C152.14,28.38,152.77,29.01,153.56,29.09z"/>
	<path class="st7" d="M388.76,339.88l3.15-38.46c0.87-10.64-2.76-21.12-10.01-28.93s-17.42-12.22-28.06-12.22
		c-32.87,0.16-74.56,0.32-86.39,0.32c-2.52,0-4.65-2.05-4.65-4.65c-0.32-41.46-1.58-75.43-3.31-103.26
		c-0.08-0.79,0.55-1.42,1.34-1.5c0.79-0.08,1.42,0.55,1.5,1.34c1.73,27.9,3,61.87,3.31,103.41c0,1.02,0.87,1.81,1.89,1.81
		c11.82-0.08,53.44-0.16,86.39-0.32c11.43-0.08,22.39,4.73,30.11,13.08c7.8,8.43,11.67,19.63,10.72,31.06
		c-1.66,20.1-3.23,39.73-3.23,39.73c-0.08,0.71-0.63,1.26-1.34,1.26c0,0-229.29,2.13-320.17,2.92
		c-22.07,0.24-41.38-14.9-46.43-36.42c-2.29-9.77-4.89-21.12-7.72-33.58C4.11,223.39-11.02,151.66-18.9,95.62
		c-2.68-19.47,3.55-39.17,16.87-53.6c13.32-14.5,32.4-22.23,52.02-21.2c48.4,2.52,103.73,5.36,103.73,5.36
		c0.79,0.08,1.34,0.71,1.34,1.5c-0.08,0.79-0.71,1.34-1.5,1.34c0,0-55.33-2.92-103.73-5.36C30.99,22.71,12.7,30.12-0.07,43.99
		C-12.83,57.86-18.75,76.7-16.22,95.38c7.8,55.96,22.94,127.61,34.68,179.63c2.84,12.45,5.44,23.8,7.72,33.58
		c4.73,20.26,22.94,34.44,43.67,34.29L388.76,339.88z"/>
	<g transform="matrix(1,0,0,1,-94.6104,-116.93)">
		<path class="st7" d="M373.72,377.5c0,0,15.05-0.47,23.57,14.35c6.54,11.43,7.49,31.29-8.36,66.05c-0.32,0.71,0,1.58,0.71,1.89
			c0.71,0.32,1.58,0,1.89-0.71c16.55-36.02,15.05-56.75,8.28-68.65c-9.38-16.39-26.09-15.76-26.09-15.76
			c-0.79,0-1.42,0.71-1.34,1.42C372.3,376.94,373.01,377.57,373.72,377.5z"/>
	</g>
	<g transform="matrix(1,0,0,1,-94.6104,-116.93)">
		<path class="st7" d="M146.56,458.92l1.73,8.59c0,0,3.63,20.26,5.83,32.47c1.02,5.91,6.23,10.17,12.22,10.17l0,0
			c6.15,0,11.35-4.41,12.3-10.48c2.29-13.87,6.23-38.46,6.23-38.46c0.16-0.79-0.39-1.5-1.18-1.66c-0.79-0.16-1.5,0.39-1.66,1.18
			c0,0-3.94,24.59-6.23,38.46c-0.79,4.65-4.81,8.12-9.54,8.12l0,0c-4.65,0-8.59-3.31-9.46-7.88c-2.21-12.22-5.83-32.47-5.83-32.47
			l0,0l-1.73-8.59c-0.16-0.79-0.87-1.26-1.66-1.1C146.95,457.34,146.48,458.13,146.56,458.92z"/>
	</g>
	<g transform="matrix(1,0,0,1,620.595,-114.855)">
		<path class="st7" d="M-271.33,456.66c0,0,4.97,27.35,7.57,42.09c1.1,5.91,6.23,10.25,12.22,10.25l0,0
			c6.15,0,11.35-4.41,12.3-10.48c2.36-14.66,6.78-41.62,6.78-41.62c0.16-0.79-0.39-1.5-1.18-1.66c-0.79-0.16-1.5,0.39-1.66,1.18
			c0,0-4.41,26.96-6.78,41.62c-0.79,4.65-4.81,8.12-9.54,8.12l0,0c-4.65,0-8.59-3.31-9.46-7.88c-2.68-14.66-7.57-42.09-7.57-42.09
			c-0.16-0.79-0.87-1.26-1.66-1.1C-270.94,455.17-271.49,455.96-271.33,456.66z"/>
	</g>
	<g transform="matrix(1,0,0,1,41.8863,-116.93)">
		<path class="st7" d="M291.37,377.5c10.88,2.68,21.28,3.55,29.32,19.15c2.84,5.6,3.86,12.3,3.7,21.68
			c-0.16,9.62-1.5,22.07-3.31,39.17c-0.08,0.79,0.47,1.5,1.26,1.58c0.79,0.08,1.5-0.47,1.58-1.26c1.81-17.18,3.15-29.72,3.39-39.41
			c0.16-9.93-0.95-17.03-4.02-23.02c-8.51-16.71-19.55-17.73-31.13-20.65c-0.79-0.16-1.5,0.24-1.73,1.02
			C290.19,376.55,290.66,377.26,291.37,377.5z"/>
	</g>
	<g transform="matrix(1,0,0,1,-16.7214,-116.93)">
		<path class="st7" d="M324.99,377.5c10.88,2.68,21.99,3.55,30.03,19.15c2.84,5.6,3.86,12.3,3.7,21.68
			c-0.16,9.62-1.5,22.07-3.31,39.17c-0.08,0.79,0.47,1.5,1.26,1.58c0.79,0.08,1.5-0.47,1.58-1.26c1.81-17.18,3.15-29.72,3.39-39.41
			c0.16-9.93-0.95-17.03-4.02-23.02c-8.51-16.71-20.18-17.73-31.84-20.65c-0.79-0.16-1.5,0.24-1.73,1.02
			C323.73,376.55,324.2,377.26,324.99,377.5z"/>
	</g>
</g>
<g id="DOG" transform="matrix(1,0,0,1,94.6774,115.527)">
	<path class="st21" d="M-32.79,382.03c0,0,11.03-47.77,50.21-51.31l85.84,0.16c0,0-0.71-10.4,8.36-10.01c0,0,8.99,0.55,13.95-0.71
		c0,0,3.63-7.25,5.12-10.4c0.63-1.34-13.01-10.4-10.8-12.69c0,0,6.46-3.63,18.21,2.36l32.16-3.15l-6.23-17.1
		c0,0,0.39-9.93,17.03,3.39c0,0,20.73,17.34,24.59,56.12l-0.32,45.4c0,0,35,11.35,35.08,21.36c0,0.63-0.24,1.26-0.71,1.66
		c-0.47,0.47-1.02,0.71-1.66,0.71c-2.68,0-7.8,0-7.8,0s2.29,2.21,3.47,4.97c0.47,1.02,0.32,2.29-0.32,3.23
		c-0.63,0.95-1.73,1.5-2.92,1.42c-26.09-0.95-187.75-6.54-187.75-6.54s19.94,15.29,16.32,23.33l0,0c-2.21,3.39-6.38,4.97-10.33,3.86
		c-2.13-0.63-4.02-1.1-4.02-1.1l-77.56-43.51h-61.4C-94.11,393.46-93.64,382.03-32.79,382.03z"/>
	<path d="M163.63,378.41c0,0,57.22,23.02,67.47,30.58c0.16,0.08,0.47,0.24,0.55,0.32c0.55,0.47-1.26-1.5-1.26-1.5l2.92-0.08
		c0,0-0.39-0.32-0.63-0.47c-10.8-7.8-68.1-31.21-68.1-31.21c-0.63-0.24-1.34,0.08-1.66,0.71C162.69,377.46,163,378.17,163.63,378.41
		z"/>
	<path d="M207.93,384.79l-2.52-0.55c0,0,0,7.02,0.08,10.8c0,0.71,0.63,1.26,1.26,1.18c0.71,0,1.26-0.63,1.18-1.26
		C207.85,391.41,207.93,384.79,207.93,384.79z"/>
	<path d="M36.89,401.58c2.13,2.13,9.22,9.3,9.22,9.3s-3.07,0.32-3.55-0.16c-4.57-4.81-8.2-7.8-8.2-7.8
		c-0.71-0.39-0.87-0.95-0.55-1.66c7.72-17.66,7.49-29.56,3.86-37.76c-5.28-12.06-17.03-15.45-17.03-15.45
		c-0.63-0.16-1.02-0.87-0.87-1.58c0.16-0.63,0.87-1.02,1.58-0.87c0,0,12.85,3.7,18.6,16.79C43.82,370.92,44.69,383.45,36.89,401.58z
		"/>
	<path d="M110.43,344.12c0.47,0.16,7.57,2.84,27.43,2.44c0.71,0,1.26,0.55,1.26,1.26c0,0.71-0.55,1.26-1.18,1.26
		c-21.28,0.39-28.45-2.68-28.45-2.68h-0.08c-3.63-1.73-5.6-4.81-6.78-7.8c-1.18-3.07-1.34-7.8-1.34-7.8h2.52c0,0,0.16,4.1,1.18,6.86
		C105.86,340.18,107.51,342.7,110.43,344.12z"/>
	<path d="M139.75,310.94c0,0-3.07,5.52-12.3,6.54c-0.16,0-0.55,0.08-0.55,0.08l-1.34,2.6c0,0,0.39,0,0.63,0
		c11.9-0.63,15.76-7.96,15.76-7.96c0.32-0.63,0.08-1.34-0.47-1.66C140.85,310.15,140.06,310.39,139.75,310.94z"/>
	<path d="M138.17,299.43l-2.6-1.18l-6.46,9.46c0.71,0.63,1.34,1.26,1.66,2.05L138.17,299.43z"/>
	<path d="M176.32,293.91l-7.02-0.24l0.95,2.68l6.07,0.08c0.71,0,1.26-0.55,1.26-1.26C177.58,294.46,177.03,293.91,176.32,293.91z"/>
	<path d="M116.89,321.11c0,0,3.7,19.71-13.4,14.5c0,0-2.44-13.08,5.44-14.5C112.24,320.32,114.45,320.87,116.89,321.11z"/>
	<path d="M188.78,350.27c1.1-4.73,3.7-9.06,8.04-11.59c2.84-1.66,6.23-2.52,9.3-1.02c0.63,0.32,0.87,1.02,0.55,1.66
		c-0.32,0.63-1.02,0.87-1.66,0.55c-2.29-1.1-4.81-0.32-6.94,0.95c-4.02,2.36-6.23,6.46-7.09,10.88c1.89,1.58,3.31,3.78,3.86,6.23
		c0.16,0.79,0.24,1.89,0.08,2.76c-0.16,0.79-0.55,1.5-1.18,1.97c-1.66,1.26-3.31,0.32-4.26-1.18c-1.1-1.73-1.34-3.94-1.34-5.99
		c0-0.87,0.08-1.81,0.24-2.68c-0.32-0.16-0.63-0.32-0.95-0.47c-4.97-2.13-9.14-0.24-12.14,3.15c-3.15,3.63-5.12,8.83-5.6,13.24
		c-0.24,2.44-0.32,4.89-0.24,7.33c0,0.32,0.08,1.73,0.08,1.97c0.16,0.39,0.16,0.87-0.08,1.18c-0.39,0.55-1.18,0.71-1.73,0.32
		c-0.16-0.08-0.47-0.47-0.63-1.1c-0.08-0.63-0.16-1.97-0.16-2.36c-0.08-2.52,0-5.12,0.24-7.65c0.47-4.89,2.68-10.72,6.15-14.66
		c3.7-4.18,8.83-6.38,14.98-3.86C188.46,350.11,188.62,350.19,188.78,350.27z M190.67,354.76c0,0.24,0,0.47,0,0.79
		c0,1.58,0.08,3.31,0.95,4.65c0.08,0.16,0.24,0.32,0.32,0.39c0.08,0.08,0.16,0.16,0.24,0.08c0.24-0.16,0.32-0.47,0.32-0.79
		c0.08-0.55,0-1.02-0.08-1.5C192.16,357.05,191.53,355.79,190.67,354.76z"/>
</g>
<g id="CHARACTER" transform="matrix(1,0,0,1,-141.735,-23.3118)">
	<g transform="matrix(1,0,0,1,94.6774,115.527)">
		<path class="st22" d="M214.14-1.46c0,0-6.54-13.01-15.37-4.49c0,0-3.07,5.04,3.86,15.13l-15.45,30.19c0,0-16.87,1.89-25.22,2.92
			c-15.76,1.89-42.56,4.26-53.99,21.05c-7.88,11.59-7.88,21.91-7.88,31.06c13.87,48.95,27.75,97.9,37.68,156.93
			c0,0,10.17,37.28,46.35,38.07c33.1,0.71,137.15-8.04,140.54-5.44l-0.32-8.83l7.33,0.08h3.47l1.02,2.36c0,0,28.06,4.34,38.07,18.84
			l57.62-4.34c0,0-1.66-12.53-8.75-16.87h18.84l57.54,150.08l91.51,0.08c0,0-7.02-7.09-14.35-9.62L511.3,228.93
			c0,0-17.5-48.71-87.96-46.35l-0.87-13.64c0,0,46.43-1.73,51.23-33.42c0,0,15.13-40.04-49.89-71.33l-0.47-44.93
			c0,0-8.04-31.92-26.33-37.52c0,0-25.7-9.77-44.53-3.23c0,0-15.69,10.4-23.49,20.65l-37.99,46.66l-61.64-0.39l-0.08-5.12
			c0,0,14.03-1.18,17.73-9.22l11.11-22.07C258.05,9.1,241.41-25.18,214.14-1.46z"/>
	</g>
	<g transform="matrix(1,0,0,1,-1.24089,-0.674955)">
		<path d="M484.16,402.91c0,0,2.05,3.78,2.52,8.2c0.08,0.79,0.79,1.34,1.58,1.26c0.79-0.08,1.34-0.79,1.26-1.58
			c-0.55-5.04-2.84-9.3-2.84-9.3c-0.39-0.71-1.26-0.95-1.89-0.55C484.08,401.33,483.77,402.2,484.16,402.91z"/>
	</g>
	<g transform="matrix(1,0,0,1,27.2286,-3.70411)">
		<path d="M467.57,404.66c0,0,2.05,3.78,2.52,8.2c0.08,0.79,0.79,1.34,1.58,1.26s1.34-0.79,1.26-1.58c-0.55-5.04-2.84-9.3-2.84-9.3
			c-0.39-0.71-1.26-0.95-1.89-0.55C467.41,403.16,467.18,404.03,467.57,404.66z"/>
	</g>
	<g transform="matrix(1,0,0,1,51.9647,-6.91752)">
		<path d="M453.11,406.6c0,0,2.05,3.78,2.52,8.2c0.08,0.79,0.79,1.34,1.58,1.26c0.79-0.08,1.34-0.79,1.26-1.58
			c-0.55-5.04-2.84-9.3-2.84-9.3c-0.39-0.71-1.26-0.95-1.89-0.55C452.95,405.02,452.72,405.89,453.11,406.6z"/>
	</g>
	<g transform="matrix(1,0,0,1,94.6774,115.527)">
		<path d="M252.45,6.66c-4.41-8.28-6.94-17.73-6.94-27.67c0-32.87,27.19-59.51,60.69-59.51c33.03,0,59.9,25.93,60.69,58.09
			c-5.04,0.39-13.08,2.76-24.91,10.17c0,0-2.84,0-44.77,50.13c-16.87-2.44-31.53-11.82-40.91-24.99l2.76-4.57L252.45,6.66z"/>
	</g>
	<g transform="matrix(1,0,0,1,94.6774,115.527)">
		<path class="st23" d="M309.12,181.09l11.74-0.16l3.7,102.94l-132.5,5.36c0,0,0.24,0,0.95-0.16c11.59-2.68,35.39-10.56,65.19-31.84
			C279.01,242.26,286.03,216.17,309.12,181.09z"/>
		<g transform="matrix(1,0,0,1,-94.6774,-115.527)">
			<path class="st24" d="M332.01,402.93c-0.16-0.95,0.24-1.89,1.1-2.52l9.46-6.23c1.18-0.79,2.68-0.47,3.47,0.71
				s0.47,2.68-0.71,3.47l-6.38,4.18L332.01,402.93z M359.44,401.82c0-0.08,0-0.16-0.08-0.16c-0.32-1.34,0.63-2.68,1.97-2.92
				l11.03-2.29c1.34-0.32,2.68,0.63,2.92,1.97c0.24,1.18-0.39,2.29-1.42,2.76L359.44,401.82z M386.4,400.72L386.4,400.72
				c-0.95-1.1-0.79-2.68,0.24-3.55l8.59-7.33c1.02-0.87,2.6-0.79,3.55,0.32c0.87,1.02,0.79,2.6-0.32,3.55l-8.04,6.86L386.4,400.72z
				 M408.47,399.77l-0.79-0.32c-1.26-0.47-1.97-1.89-1.5-3.23c0.47-1.26,1.89-1.97,3.23-1.5l9.77,3.63v0.87L408.47,399.77z
				 M327.28,394.96c0,0.08,0,0.08,0,0.16c0.08,1.34-0.95,2.52-2.36,2.68l-4.73,0.24c0.39-0.16,1.58-0.63,1.97-0.79
				C323.97,396.46,325.47,395.91,327.28,394.96z M353.92,376.44l7.02,6.7c1.02,0.95,1.02,2.52,0.16,3.55
				c-0.95,1.02-2.52,1.02-3.55,0.16l-7.33-7.02C351.48,378.73,352.66,377.55,353.92,376.44z M383.48,380.23l-10.72-3.55
				c-1.34-0.39-2.76,0.24-3.15,1.58c-0.47,1.34,0.24,2.68,1.58,3.15l10.72,3.55c1.34,0.47,2.76-0.24,3.15-1.58
				C385.45,382.12,384.74,380.7,383.48,380.23z M400.11,373.21l7.25,8.59c0.87,1.02,2.44,1.18,3.55,0.32
				c1.02-0.87,1.18-2.44,0.32-3.55l-7.25-8.59c-0.87-1.02-2.44-1.18-3.55-0.32C399.4,370.61,399.25,372.19,400.11,373.21z
				 M390.5,368.56l-2.13-11.03c-0.24-1.34-1.58-2.21-2.92-1.97c-1.34,0.24-2.21,1.58-1.97,2.92l2.13,11.11
				c0.24,1.34,1.58,2.21,2.92,1.97C389.87,371.24,390.73,369.9,390.5,368.56z M368.51,359.26l1.66,0.47
				c1.34,0.47,2.05,1.81,1.58,3.15c-0.47,1.34-1.81,2.05-3.15,1.58l-3.07-1.02C366.54,362.1,367.56,360.76,368.51,359.26z
				 M417.53,361.94c-0.55,0.16-1.1,0.16-1.66-0.08l-10.48-4.26c-1.26-0.55-1.89-1.97-1.34-3.23c0.55-1.26,1.97-1.89,3.23-1.34
				l10.09,4.1L417.53,361.94z M377.89,343.18l9.54-4.26c1.26-0.55,2.76,0,3.31,1.26c0.55,1.26,0,2.76-1.26,3.31l-10.33,4.49
				c-1.26,0.55-2.44,0.32-3-0.95C376.07,346.96,377.25,344.6,377.89,343.18z M401.93,333.01l-4.02,10.56
				c-0.47,1.26,0.16,2.76,1.42,3.23c1.26,0.47,2.76-0.16,3.23-1.42l4.02-10.56c0.47-1.26-0.16-2.76-1.42-3.23
				C403.9,331.12,402.4,331.75,401.93,333.01z M416.51,327.73c-0.47-0.32-0.79-0.87-0.87-1.42l-2.36-11.03
				c-0.32-1.34,0.55-2.68,1.89-3c0.32-0.08,0.63-0.08,0.95,0L416.51,327.73z M389.47,323.16c0.39,0.47,0.63,1.02,0.63,1.73
				c0,1.34-1.18,2.44-2.52,2.44h-0.32C387.97,325.92,388.68,324.58,389.47,323.16z M404.29,303.69l-7.33,8.59
				c-0.87,1.02-0.79,2.6,0.24,3.55c1.02,0.87,2.6,0.79,3.55-0.24l7.33-8.59c0.87-1.02,0.79-2.6-0.24-3.55
				C406.73,302.51,405.16,302.67,404.29,303.69z"/>
		</g>
	</g>
	<g transform="matrix(1,0,0,1,94.6774,115.527)">
		<path class="st25" d="M124.05,183.77c0,0,7.09,35.08,12.85,63.45c5.12,25.22,27.67,43.04,53.36,42.09
			c30.11-1.1,68.26-13.56,93.32-61.87l-36.49-36.49c-14.82,9.06-25.93,18.37-46.11,31.76C168.98,237.05,139.11,229.17,124.05,183.77
			z"/>
		<g transform="matrix(1,0,0,1,-94.6774,-115.527)">
			<path class="st5" d="M307.81,401.66l-5.28,1.18l-0.55-0.71c-0.87-1.1-0.63-2.68,0.47-3.47c1.1-0.87,2.68-0.63,3.47,0.47
				L307.81,401.66z M263.83,401.35l2.92-5.12c0.55-1.26,2.05-1.81,3.31-1.18c1.26,0.55,1.81,2.05,1.18,3.31l-1.81,4.89
				C267.06,402.61,264.78,401.82,263.83,401.35z M287.08,394.49l11.19-1.58c1.34-0.16,2.29-1.42,2.13-2.84
				c-0.16-1.34-1.42-2.29-2.84-2.13l-11.19,1.58c-1.34,0.16-2.29,1.42-2.13,2.84C284.4,393.7,285.66,394.65,287.08,394.49z
				 M335.01,390.71l-5.04,0.79c-1.34,0.16-2.6-0.87-2.76-2.21s0.87-2.6,2.21-2.76l11.19-1.18c1.02-0.08,1.34-0.24,1.81,0.63
				C339.97,387.63,337.37,389.6,335.01,390.71z M239.71,382.04c0-0.71,0.24-1.18,0.87-1.66c1.1-0.87,2.6-0.71,3.55,0.39l7.09,8.75
				c0.87,1.1,0.71,2.6-0.39,3.55c-0.16,0.16-0.47,0.24-0.63,0.32C245.07,389.13,242.39,385.82,239.71,382.04z M309.78,376.84
				l1.5,11.19c0.16,1.34,1.42,2.29,2.84,2.13c1.34-0.16,2.29-1.42,2.13-2.84l-1.5-11.19c-0.16-1.34-1.42-2.29-2.84-2.13
				C310.57,374.23,309.63,375.5,309.78,376.84z M262.02,381.88l10.56,4.02c1.26,0.47,2.76-0.16,3.23-1.42
				c0.47-1.26-0.16-2.76-1.42-3.23l-10.56-4.02c-1.26-0.47-2.76,0.16-3.23,1.42C260.13,379.91,260.76,381.41,262.02,381.88z
				 M291.97,373.84l-7.09-8.75c-0.87-1.1-2.44-1.26-3.55-0.39c-1.1,0.87-1.26,2.44-0.39,3.55l7.09,8.75
				c0.87,1.1,2.44,1.26,3.55,0.39C292.68,376.44,292.84,374.87,291.97,373.84z M333.19,372.82l-6.54-9.22
				c-0.79-1.1-2.36-1.42-3.47-0.55c-1.1,0.79-1.42,2.36-0.55,3.47l6.54,9.22c0.79,1.1,2.36,1.42,3.47,0.55
				C333.75,375.5,333.98,373.92,333.19,372.82z M345.57,362.02l-1.5,11.19c-0.16,1.34,0.79,2.6,2.13,2.84
				c1.34,0.16,2.6-0.79,2.84-2.13l1.5-11.19c0.16-1.34-0.79-2.6-2.13-2.84C346.99,359.65,345.73,360.6,345.57,362.02z
				 M304.19,367.77l4.18-10.48c0.47-1.26-0.16-2.76-1.42-3.23c-1.26-0.47-2.76,0.16-3.23,1.42l-4.18,10.48
				c-0.47,1.26,0.16,2.76,1.42,3.23C302.22,369.66,303.64,369.03,304.19,367.77z M250.2,363.52l-11.27,0.16
				c-1.34,0-2.44,1.18-2.44,2.52s1.18,2.44,2.52,2.44l11.27-0.16c1.34,0,2.44-1.18,2.44-2.52
				C252.72,364.54,251.54,363.44,250.2,363.52z M263.75,354.45l2.84,10.96c0.32,1.34,1.73,2.13,3.07,1.81s2.13-1.73,1.81-3.07
				l-2.84-10.96c-0.32-1.34-1.73-2.13-3.07-1.81C264.23,351.77,263.44,353.11,263.75,354.45z M364.96,364.15l-5.44-6.86
				c-0.87-1.1-0.63-2.68,0.47-3.47c1.1-0.87,2.68-0.63,3.47,0.47l4.81,5.52C367.17,361.15,365.98,362.81,364.96,364.15z
				 M228.52,347.83l7.33,4.02c1.18,0.63,1.66,2.21,0.95,3.39c-0.63,1.18-2.21,1.66-3.39,0.95l-3.63-2.05
				C229.39,351.93,228.83,349.72,228.52,347.83z M332.88,343.89l-9.06,6.7c-1.1,0.79-1.34,2.36-0.55,3.47s2.36,1.34,3.47,0.55
				l9.06-6.7c1.1-0.79,1.34-2.36,0.55-3.47S333.98,343.1,332.88,343.89z M251.77,343.02c1.66,0.63,3.31,1.1,5.12,1.58
				c-0.08,0.08-0.39,0.47-0.47,0.63l-6.86,8.99c-0.87,1.1-2.36,1.34-3.47,0.47s-1.34-2.36-0.47-3.47L251.77,343.02z M286.22,342.47
				l5.52,6.86c0.87,1.1,0.71,2.6-0.39,3.55c-1.1,0.87-2.6,0.71-3.55-0.39l-6.86-8.51C282.67,343.57,284.25,343.18,286.22,342.47z
				 M352.74,347.36l3.86-10.56c0.47-1.26-0.16-2.76-1.5-3.23c-1.26-0.47-2.76,0.16-3.23,1.5l-3.86,10.56
				c-0.47,1.26,0.16,2.76,1.5,3.23C350.77,349.25,352.27,348.62,352.74,347.36z M375.52,348.22l-9.38-1.18
				c-1.34-0.16-2.36-1.42-2.21-2.76c0.16-1.34,1.42-2.36,2.76-2.21l11.11,1.34C377.18,344.91,376.39,346.57,375.52,348.22z
				 M317.51,341.13l-11.11-1.73c-1.34-0.24-2.6,0.71-2.84,2.05c-0.24,1.34,0.71,2.6,2.05,2.84l11.11,1.73
				c1.34,0.24,2.6-0.71,2.84-2.05C319.79,342.63,318.93,341.37,317.51,341.13z M230.73,326.55c2.21,2.84,4.26,5.12,6.38,7.09
				l1.02,4.02c0.32,1.34-0.47,2.68-1.81,3.07c-1.34,0.32-2.68-0.47-3.07-1.81l-2.84-10.96
				C230.41,327.57,230.57,326.94,230.73,326.55z M319.72,322.21l6.78,4.65c1.1,0.79,1.42,2.29,0.71,3.47
				c-0.79,1.1-2.29,1.42-3.47,0.71l-8.2-5.6C316.96,324.42,318.3,323.24,319.72,322.21z M350.61,320.4l-10.8,3.31
				c-1.34,0.39-2.05,1.81-1.66,3.07c0.39,1.34,1.81,2.05,3.07,1.66l10.88-3.23c1.34-0.39,2.05-1.81,1.66-3.07
				C353.29,320.79,351.95,320.01,350.61,320.4z M346.2,310.86c-0.32,0.24-1.02,0.63-1.5,0.71l-11.03,0.63
				c4.89-3.31,8.28-5.68,8.28-5.68L346.2,310.86z"/>
		</g>
	</g>
	<g transform="matrix(1,0,0,1,94.6774,115.527)">
		<path class="st21" d="M290.91,45.99l-23.02,0.08c0,0-37.68,43.35-97.66-5.6c0,0-14.27,1.73-30.74,3.7
			c-12.61,1.5-24.04,8.36-31.37,18.76c-7.33,10.4-9.93,23.41-7.17,35.86c5.52,24.67,11.11,49.42,11.11,49.42L186,127.81l3.23,13.48
			c0,0,36.81-28.06,48.71-30.19L290.91,45.99z"/>
		<g transform="matrix(1,0,0,1,-94.6774,-115.527)">
			<path class="st0" d="M214.88,245.05c2.92,0,5.2,2.36,5.2,5.2c0,2.92-2.36,5.2-5.2,5.2c-2.92,0-5.2-2.36-5.2-5.2
				C209.6,247.41,211.97,245.05,214.88,245.05z M248.86,252.06c-5.83-6.86-5.99-15.84-3.07-22.7c2.6-6.07,7.57-10.4,13.16-10.72
				c1.34-0.08,2.52,0.95,2.6,2.36c0.08,1.34-0.95,2.52-2.36,2.6c-3.86,0.24-7.09,3.47-8.83,7.65c-2.52,5.83-2.05,13.71,4.02,19.23
				L248.86,252.06z M320.35,218.48c-3.39-3.47-8.83-4.65-14.35-3.47c-9.77,2.05-19.71,11.27-17.26,25.62
				c0.24,1.34,1.5,2.29,2.92,2.05c1.34-0.24,2.29-1.5,2.05-2.92c-1.89-11.11,5.75-18.29,13.4-19.86c3.7-0.79,7.49-0.24,9.77,2.13
				c0.95,0.95,2.52,1.02,3.55,0.08C321.29,221.09,321.37,219.51,320.35,218.48z M307.97,238.66c-1.89-0.79-3.15-2.68-3.15-4.81
				c0-2.92,2.36-5.2,5.2-5.2c2.92,0,5.2,2.36,5.2,5.2c0,0.08,0,0.16,0,0.16C312.86,235.51,310.41,237.09,307.97,238.66z
				 M194.71,204.69c9.85-4.89,19.71-1.26,25.54,4.89c4.49,4.81,6.46,11.11,4.49,16.32c-0.47,1.26-1.89,1.97-3.23,1.5
				c-1.26-0.47-1.97-1.89-1.42-3.23c1.34-3.63-0.32-7.88-3.47-11.19c-4.81-5.12-13.32-7.96-21.6-2.84
				C194.94,208.4,194.78,206.58,194.71,204.69z M339.66,176.08c4.57,10.01,0.71,19.78-5.6,25.38c-4.89,4.41-11.27,6.15-16.47,4.1
				c-1.26-0.55-1.89-1.97-1.34-3.23c0.55-1.26,1.97-1.89,3.23-1.34c3.55,1.42,7.88-0.16,11.27-3.15c4.97-4.41,7.96-12.22,4.1-20.18
				C336.5,177.1,338.08,176.55,339.66,176.08z M248.46,193.1c2.92,0,5.2,2.36,5.2,5.2s-2.36,5.2-5.2,5.2c-2.92,0-5.2-2.36-5.2-5.2
				S245.62,193.1,248.46,193.1z M278.73,166.54c1.5,0.87,3,1.73,4.41,2.44c-1.66,1.66-2.84,3.94-3.47,6.54
				c-1.81,7.09,0.47,16.16,10.01,20.18c1.26,0.55,1.89,1.97,1.34,3.23s-1.97,1.89-3.23,1.34c-12.3-5.2-15.29-16.95-12.93-26.01
				C275.58,171.35,276.92,168.67,278.73,166.54z M308.13,184.2c2.92,0,5.2,2.36,5.2,5.2c0,2.92-2.36,5.2-5.2,5.2
				c-2.84,0-5.2-2.36-5.2-5.2C302.93,186.56,305.29,184.2,308.13,184.2z M358.5,193.42c-4.49-3.86-6.94-9.14-6.07-14.19
				c0.24-1.34,1.5-2.29,2.92-2.05c1.34,0.24,2.29,1.5,2.05,2.92c-0.63,3.39,1.26,6.78,4.26,9.38L358.5,193.42z M253.58,170.56
				c-3.7-4.18-10.17-5.44-16.55-3.78c-9.06,2.44-17.73,10.88-16.16,24.12c0.16,1.34,1.42,2.36,2.76,2.21s2.36-1.42,2.21-2.76
				c-1.18-10.25,5.52-16.79,12.53-18.68c4.41-1.18,8.99-0.63,11.51,2.21c0.95,1.02,2.52,1.1,3.55,0.24
				C254.45,173.24,254.53,171.59,253.58,170.56z M377.1,164.81c0.95,0.87,1.58,2.05,1.73,3.31l-4.65,5.75c-0.16,0-0.39,0-0.55,0
				c-2.92,0-5.2-2.36-5.2-5.2c0-0.87,0.24-1.73,0.63-2.44L377.1,164.81z"/>
		</g>
	</g>
	<g transform="matrix(1,0,0,1,94.6774,115.527)">
		<path d="M266.09,47.96l1.81-1.89l-38.86-0.24c-0.55,0-0.95,0.39-0.95,0.95s0.39,0.95,0.95,0.95L266.09,47.96z"/>
		<path d="M227.78,50.01L231.25,40c0.16-0.47-0.08-1.02-0.55-1.18c-0.47-0.16-1.02,0.08-1.18,0.55l-3.47,10.01
			c-0.16,0.47,0.08,1.02,0.55,1.18C227.07,50.8,227.62,50.56,227.78,50.01z"/>
		<path d="M213.04,29.67c0,0,3.94,3.94,9.14,7.65c4.18,3,9.54,3.94,14.5,2.68c4.97-1.26,9.22-4.65,11.51-9.22
			c4.65-9.3,10.72-21.28,10.72-21.28c0.24-0.47,0.08-1.02-0.39-1.26c-0.47-0.24-1.02-0.08-1.26,0.39c0,0-5.99,11.98-10.72,21.28
			c-2.05,4.1-5.83,7.09-10.33,8.2c-4.49,1.1-9.22,0.24-12.93-2.44c-5.04-3.55-8.91-7.41-8.91-7.41c-0.39-0.39-0.95-0.39-1.34,0
			C212.65,28.73,212.65,29.36,213.04,29.67z"/>
		<path d="M214.69,2.09c0,0-0.47-4.18-2.44-7.65c-1.26-2.21-3-4.18-5.52-4.81c-1.66-0.39-3.7-0.24-6.07,0.87
			c-5.6,2.6-8.12,10.48,2.44,20.57c0.39,0.39,1.02,0.32,1.34,0c0.39-0.39,0.32-1.02,0-1.34c-8.99-8.59-7.72-15.13-2.92-17.42
			c1.89-0.87,3.47-1.1,4.81-0.79c1.97,0.47,3.39,2.05,4.34,3.86c1.73,3.15,2.21,6.94,2.21,6.94c0.08,0.55,0.55,0.87,1.1,0.87
			C214.38,3.03,214.77,2.56,214.69,2.09z"/>
		<path d="M200.19,7.13l-15.13,32.16c-0.24,0.47,0,1.02,0.47,1.26c0.47,0.24,1.02,0,1.26-0.47l15.13-32.16
			c0.24-0.47,0-1.02-0.47-1.26C200.98,6.5,200.43,6.66,200.19,7.13z"/>
		<path d="M172.45,42.13l14.03-1.97c0.55-0.08,0.87-0.55,0.87-1.02c-0.08-0.55-0.55-0.87-1.02-0.87l-16.08,2.13L172.45,42.13z"/>
		<g transform="matrix(0.610599,-0.533726,0.648359,0.741743,-199.813,522.509)">
			<path d="M806.15-94.53c0.39,0,0.71,0.24,1.02,0.55c0.39,0.47,0.63,1.1,0.63,1.81c0,0.71-0.24,1.34-0.63,1.81
				c-0.24,0.32-0.63,0.55-1.02,0.55c-0.63,0-1.18,0.47-1.18,0.95c0,0.55,0.55,0.95,1.18,0.95c0.95,0,1.81-0.32,2.52-0.95
				c0.87-0.79,1.5-1.97,1.5-3.39s-0.63-2.6-1.5-3.39c-0.71-0.63-1.58-0.95-2.52-0.95c-0.63,0-1.18,0.47-1.18,0.95
				C804.97-94.93,805.52-94.53,806.15-94.53z"/>
		</g>
		<g transform="matrix(0.610599,-0.533726,0.648359,0.741743,-199.813,522.509)">
			<path d="M806.15-89.72c-0.39,0-0.71-0.24-1.02-0.55c-0.39-0.47-0.63-1.1-0.63-1.81c0-0.71,0.24-1.34,0.63-1.81
				c0.24-0.32,0.63-0.55,1.02-0.55c0.63,0,1.18-0.47,1.18-0.95c0-0.55-0.55-0.95-1.18-0.95c-0.95,0-1.81,0.32-2.52,0.95
				c-0.87,0.79-1.5,1.97-1.5,3.39c0,1.42,0.63,2.6,1.5,3.39c0.71,0.63,1.58,0.95,2.52,0.95c0.63,0,1.18-0.47,1.18-0.95
				C807.33-89.33,806.86-89.72,806.15-89.72z"/>
		</g>
		<path d="M213.67-0.51c0,0,13.48,7.25,24.91-4.57c0,0,5.91,13.71,20.34,14.66c0,0,3.63-4.89,1.1-10.09
			c-1.97-4.02-6.31-9.77-11.67-14.66c-9.62-8.67-24.28-8.91-34.13-0.47c-2.29,1.97-4.41,4.34-6.15,7.17
			C207.99-8.47,211.46-9.81,213.67-0.51z"/>
	</g>
	<g transform="matrix(1,0,0,1,94.6774,115.527)">
		<path d="M237.87,111.18c0,0,59.43-71.73,93.72-113.11c13.95-16.87,36.73-23.65,57.7-17.26l0,0c19.47,5.99,32.79,24.04,32.63,44.46
			c-0.16,30.82-0.39,70.62-0.39,70.62c0,0.71,0.55,1.26,1.26,1.26s1.26-0.55,1.26-1.26c0,0,0.24-39.8,0.39-70.62
			c0.08-21.52-13.87-40.51-34.44-46.82l0,0c-21.91-6.7-45.72,0.39-60.38,18.05C295.33,37.87,235.9,109.6,235.9,109.6
			c-0.47,0.55-0.39,1.34,0.16,1.73C236.61,111.81,237.4,111.73,237.87,111.18z"/>
		<path d="M421.13,168.64v12.45l-0.47,94.51c0,0.71,0.55,1.26,1.26,1.26c0.71,0,1.26-0.55,1.26-1.26l0.47-94.51v-12.45
			c0-0.71-0.55-1.26-1.26-1.26C421.68,167.38,421.13,167.93,421.13,168.64z"/>
		<path d="M430.43,290.81c-0.95-10.48-9.06-14.11-9.06-14.11c-0.63-0.24-0.95-1.02-0.63-1.66c0.24-0.63,1.02-0.95,1.66-0.63
			c0,0,10.17,4.34,10.64,17.5c0,0.63-0.47,1.26-1.18,1.26l-57.62,4.34c-0.39,0-0.71-0.08-1.02-0.39c0,0-16.71-17.81-37.2-18.44
			c-0.71,0-1.18-0.55-1.18-1.26l-0.39-96.32c0-0.71,0.55-1.26,1.26-1.26c0.71,0,1.26,0.55,1.26,1.26l0.32,95.22
			c19,1.18,34.6,16,37.36,18.68L430.43,290.81z"/>
		<path d="M336.95,181.09l-0.08-12.69c0-0.71-0.55-1.26-1.26-1.26c-0.71,0-1.26,0.55-1.26,1.26l0.08,12.69
			c0,0.71,0.55,1.26,1.26,1.26C336.39,182.27,336.95,181.72,336.95,181.09z"/>
		<path d="M336.32,70.82l0.16-12.77c0-0.71-0.55-1.26-1.26-1.26c-0.71,0-1.26,0.55-1.26,1.26l-0.16,12.77
			c0,0.71,0.55,1.26,1.26,1.26C335.76,72,336.32,71.45,336.32,70.82z"/>
		<path d="M318.11,162.41l-36.49,63.21l2.05,1.97l36.57-63.85c0.32-0.63,0.16-1.34-0.47-1.73
			C319.21,161.62,318.42,161.86,318.11,162.41z"/>
	</g>
	<g transform="matrix(1,0,0,1,94.6774,115.527)">
		<path d="M320.79,184.48l13.71-0.63c0.71,0,1.26-0.55,1.26-1.26c0-0.71-0.55-1.26-1.26-1.26l-13.71,0.63V184.48z"/>
		<path d="M588.39,424.1c-4.65-5.04-12.14-7.09-12.14-7.09c-0.39-0.08-0.71-0.39-0.87-0.79c0,0-38.54-110.11-62.58-179
			c-11.19-31.92-41.3-53.28-75.12-53.28h-14.42c-0.71,0-1.26-0.55-1.26-1.26c0-0.71,0.55-1.26,1.26-1.26h14.42
			c34.92,0,65.97,22.07,77.48,55.02l62.43,178.37c2.29,0.79,10.4,3.78,14.42,9.93c0.24,0.39,0.32,0.87,0.08,1.26
			c-0.24,0.39-0.63,0.63-1.1,0.63l-92.69-3.94c-0.55,0-0.95-0.32-1.18-0.79l-60.53-159.53c-0.24-0.63,0.08-1.34,0.71-1.58
			c0.63-0.24,1.34,0.08,1.58,0.71l60.22,158.67L588.39,424.1z"/>
		<path d="M469.29,210.65l14.58,9.62c0.55,0.39,1.34,0.24,1.73-0.39c0.39-0.55,0.24-1.34-0.39-1.73l-14.58-9.62
			c-0.55-0.39-1.34-0.24-1.73,0.32C468.5,209.47,468.66,210.25,469.29,210.65z"/>
		<path d="M441.86,273.78c0,0-7.57,0-18.84,0c-0.71,0-1.26,0.55-1.26,1.26c0,0.71,0.55,1.26,1.26,1.26c11.27,0,18.84,0,18.84,0
			c0.71,0,1.26-0.55,1.26-1.26C443.12,274.34,442.57,273.78,441.86,273.78z"/>
		<path d="M324.97,273.78c0.24,0,2.84,0,6.38,0c1.42,0,1.89,0,3.7,0c0.71,0,1.26,0.55,1.26,1.26c0,0.71-0.55,1.26-1.26,1.26
			c-1.81,0-2.29,0-3.7,0c-3.78,0-7.09,0-7.09,0l-0.08-2.44c0,0,0.39-0.08,0.47-0.08C324.81,273.78,324.89,273.78,324.97,273.78z"/>
	</g>
	<g transform="matrix(1,0,0,1,94.6774,115.527)">
		<path class="st26" d="M309.75,155.24l28.77,11.11c1.89,0.71,3.94,0.16,5.2-1.34c0.39,0.32,0.95,0.47,1.58,0.63l2.52-0.32
			l-2.13,4.26c-1.1,2.13-3.7,3.07-5.83,2.05l-33.34-14.98L309.75,155.24z M373.52,107.63L383.61,88c0,0-0.08,4.34-0.08,6.23
			c0,0.55-0.16,1.18-0.39,1.73l-6.38,12.69C375.96,108.02,374.94,107.63,373.52,107.63z"/>
		<path class="st27" d="M316.37,100.38c7.41-12.61,14.19-24.28,17.34-29.64c1.1-1.89,3.23-2.84,5.36-2.52
			c14.74,2.84,34.05,11.27,41.7,14.9c0.79,0.39,1.5,0.95,2.05,1.58c0.95,1.02,1.18,2.52,0.55,3.7l-9.85,19.23
			c-1.73,0-4.1,0.63-7.17,2.52l-23.65,49.26c0,0-1.42,4.02,1.18,5.68c-1.42,1.58-3.7,2.13-5.68,1.34l-28.53-11.27l3.86-1.73
			l11.03-51.23L316.37,100.38z"/>
		<g transform="matrix(0.868545,0.432243,-0.463288,0.930927,499.326,-333.163)">
			<path class="st0" d="M83.71,416.8c0-0.87-0.39-1.73-1.1-2.36c-0.71-0.63-1.66-0.87-2.6-0.79c-0.16,0-0.24,0-0.39,0
				c-9.22,0.87-27.51,2.13-39.8,4.34c-2.36,0.47-4.1,2.36-4.18,4.65c-0.87,13.64-3.7,59.98-4.65,73.93
				c-0.08,1.02,0.32,1.97,1.1,2.68c0.79,0.71,1.81,1.1,2.92,0.95c9.54-0.79,32.4-2.52,42.41-3.31c2.76-0.24,4.81-2.29,4.89-4.89
				C82.6,477.34,83.47,430.2,83.71,416.8z"/>
		</g>
		<g transform="matrix(0.940787,0.339,-0.339,0.940787,308.249,-247.407)">
			<path class="st26" d="M167.4,287.75c0-0.55-0.47-1.02-1.02-1.02h-16.63c-0.55,0-1.02,0.47-1.02,1.02c0,0.55,0.47,1.02,1.02,1.02
				h16.63C167,288.78,167.4,288.31,167.4,287.75z"/>
		</g>
		<path d="M355.31,124.89l-0.87,1.81l-23.17-9.14l18.84-4.73c5.36-3.39,0.32-8.75,0.32-8.75c-3.39,0.87-20.49-0.95-26.17-1.58
			l11.82-21.6l33.97,13.24l-8.43,17.58c-3.63,0.87-12.45,3.78-10.56,10.25L355.31,124.89z"/>
		<g transform="matrix(0.911149,0.412078,-0.412078,0.911149,469.546,-287.113)">
			<path class="st13" d="M54.97,432.46c0.79-1.58,2.36-1.58,3.15-0.79c0.79,0.79,0.79,2.29,0,3.86c-0.55,1.18-1.97,2.29-3.15,3.07
				c-1.18-0.79-2.6-1.97-3.15-3.07c-0.79-1.58-0.79-3.07,0-3.86C52.6,430.96,54.18,430.96,54.97,432.46z"/>
		</g>
		<g transform="matrix(1.03092,0.395189,-0.450064,1.17407,338.539,-504.992)">
			<path d="M221.24,431.01h-32.63l-0.55,3.55l32.95-0.08L221.24,431.01z"/>
		</g>
		<path class="st28" d="M344.99,144.44l-9.3,18.76l-24.75-9.85l6.62-2.84c9.38-6.46,3.31-8.99,3.31-8.99
			c3.7-0.95,5.44-3.15,6.23-4.73L344.99,144.44z"/>
	</g>
	<path class="st13" d="M482.24,178.36l-8.91,8.83l3.86,3.94l9.46-6.46L482.24,178.36z M463.96,182.46l4.02,2.76l8.99-12.14
		l-7.72-3.55L463.96,182.46z M450.4,178.76l5.68,1.1l3.47-12.14l-7.8-1.5L450.4,178.76z"/>
	<g transform="matrix(1,0,0,1,94.6774,115.527)">
		<path d="M178.36,85.8l9.22,55.49c0.08,0.71,0.55-0.39,1.26-0.47s1.1-0.79,1.02-1.42l-8.99-53.99c-0.08-0.71-0.79-1.1-1.42-1.02
			C178.75,84.46,178.28,85.09,178.36,85.8z"/>
		<path d="M314.4,99.12c0.95,0.16,24.36,4.26,35.31,3.78c1.26-0.08,2.84,0.87,3.7,2.44c0.87,1.66,1.02,4.02-0.87,6.38
			c-1.58,2.05-4.81,4.18-10.72,5.68c-7.17,1.81-15.05,4.41-35,1.42c-0.71-0.08-1.18-0.71-1.02-1.42c0.08-0.71,0.71-1.18,1.42-1.02
			c19.31,2.92,27.04,0.39,33.97-1.42c4.49-1.1,7.25-2.6,8.75-4.1c1.26-1.26,1.66-2.44,1.5-3.55c-0.16-0.71-0.55-1.34-1.02-1.73
			c-0.24-0.16-0.47-0.32-0.63-0.24c-11.35,0.55-35.94-3.78-35.94-3.78h-0.08c-29.64-7.02-58.41,1.02-82.37,13.16
			c-36.02,18.29-61.01,45.95-61.01,45.95c-0.47,0.47-1.26,0.55-1.73,0.08c-0.47-0.47-0.55-1.26-0.08-1.73
			c0,0,25.22-27.98,61.72-46.5C254.81,100.14,284.21,92.02,314.4,99.12z"/>
		<path d="M326.38,120.48c0,0,0.79,0.71,1.26,1.73c0.32,0.63,0.47,1.34,0.24,2.13c-0.32,0.95-1.18,1.89-2.92,2.84
			c-3,1.58-8.2,2.92-17.1,3.63c-0.71,0.08-1.18,0.63-1.18,1.34c0.08,0.71,0.63,1.18,1.34,1.18c9.38-0.79,14.9-2.29,18.05-3.94
			c2.44-1.26,3.55-2.76,4.02-4.1c0.55-1.5,0.32-2.92-0.24-4.02c-0.71-1.58-1.89-2.68-1.89-2.68c-0.47-0.47-1.26-0.39-1.73,0.08
			C325.83,119.22,325.91,120,326.38,120.48L326.38,120.48z"/>
		<path d="M324.81,129.78c0,0,2.36,2.44,1.89,5.12c-0.24,1.34-1.34,2.76-3.7,4.02c-2.76,1.42-7.09,2.6-13.79,3.31
			c-0.71,0.08-1.18,0.71-1.1,1.34c0.08,0.71,0.71,1.18,1.34,1.1c5.68-0.55,9.77-1.5,12.61-2.68c5.12-2.05,6.78-4.73,7.09-7.17
			c0.39-3.63-2.6-6.86-2.6-6.86c-0.47-0.47-1.26-0.47-1.73,0C324.33,128.44,324.26,129.23,324.81,129.78z"/>
		<path d="M307.47,154.45c8.91-4.49,12.69-7.41,13.95-9.46c0.32-0.55,0.47-0.87,0.39-1.18c-0.08-0.24-0.32-0.39-0.47-0.55
			c-0.39-0.24-0.87-0.39-0.87-0.39l0,0c-0.71-0.16-1.1-0.79-0.95-1.5s0.79-1.1,1.5-0.95c0,0,0.87,0.16,1.73,0.71
			c0.63,0.39,1.26,1.02,1.5,1.89c0.24,0.79,0.24,1.89-0.63,3.31c-1.42,2.21-5.36,5.52-14.98,10.33c0,0,0,0-0.08,0
			c0,0-48.71,21.36-96.32,60.06c0,0,0,0-0.08,0c0,0-28.38,20.73-55.02,10.64c-11.43-4.34-22.54-14.27-30.9-33.89v-0.08l-14.03-45.32
			l2.36-0.71c0,0,13.56,43.98,13.95,45.16c8.04,18.84,18.6,28.38,29.48,32.55c25.07,9.46,51.79-9.69,52.65-10.33
			C257.73,176.44,306.05,155.08,307.47,154.45z"/>
	</g>
	<g transform="matrix(1,0,0,1,94.6774,115.527)">
		<path d="M423.18,65.46c0,0,16.55,6.62,30.82,19.31c14.11,12.53,25.93,31.06,16.87,55.17c-3.23,8.51-17.34,40.51-114.53,22.31
			c-0.71-0.16-1.34,0.32-1.42,1.02c-0.16,0.71,0.32,1.34,1.02,1.5c99.79,18.68,114.05-15.13,117.36-23.88
			c9.54-25.3-2.76-44.77-17.5-57.93c-14.58-13.01-31.53-19.78-31.53-19.78c-0.63-0.24-1.34,0.08-1.66,0.71
			C422.23,64.51,422.55,65.22,423.18,65.46z"/>
		<path d="M383.45,95.96l51.31,2.13c0.71,0,1.26-0.47,1.26-1.18c0-0.71-0.47-1.26-1.18-1.26l-51.31-2.13
			c-0.71,0-1.26,0.47-1.26,1.18C382.27,95.33,382.82,95.96,383.45,95.96z"/>
		<g transform="matrix(-2.63809,-6.87137,-16.2623,6.24351,18297.4,2261.17)">
			<path d="M1145.77,916.4c0-0.16-0.24-0.24-0.55-0.24s-0.55,0.08-0.55,0.24v1.02c0,0.08-0.08,0.08-0.16,0.08
				c-0.08,0-0.16,0-0.16-0.08v-1.02c0-0.24,0.39-0.39,0.95-0.39c0.55,0,0.95,0.16,0.95,0.39c0,0.08-0.08,0.08-0.16,0.08
				C1145.85,916.48,1145.77,916.48,1145.77,916.4z"/>
		</g>
		<g transform="matrix(-2.63809,-6.87137,-16.2623,6.24351,18297.4,2261.17)">
			<path d="M1144.67,917.42c0,0.16,0.24,0.24,0.55,0.24s0.55-0.08,0.55-0.24v-1.02c0-0.08,0.08-0.08,0.16-0.08
				c0.08,0,0.16,0,0.16,0.08v1.02c0,0.24-0.39,0.39-0.95,0.39c-0.55,0-0.95-0.16-0.95-0.39c0-0.08,0.08-0.08,0.16-0.08
				C1144.59,917.42,1144.67,917.42,1144.67,917.42z"/>
		</g>
		<g transform="matrix(-2.63809,-6.87137,-16.2623,6.24351,18290.4,2293.76)">
			<path d="M1148,915.78c0-0.16-0.24-0.24-0.55-0.24c-0.32,0-0.55,0.08-0.55,0.24v1.02c0,0.08-0.08,0.08-0.16,0.08
				c-0.08,0-0.16,0-0.16-0.08v-1.02c0-0.24,0.39-0.39,0.95-0.39c0.55,0,0.95,0.16,0.95,0.39c0,0.08-0.08,0.08-0.16,0.08
				C1148.08,915.86,1148,915.86,1148,915.78z"/>
		</g>
		<g transform="matrix(-2.63809,-6.87137,-16.2623,6.24351,18290.4,2293.76)">
			<path d="M1146.89,916.81c0,0.16,0.24,0.24,0.55,0.24c0.32,0,0.55-0.08,0.55-0.24v-1.02c0-0.08,0.08-0.08,0.16-0.08
				c0.08,0,0.16,0,0.16,0.08v1.02c0,0.24-0.39,0.39-0.95,0.39c-0.55,0-0.95-0.16-0.95-0.39c0-0.08,0.08-0.08,0.16-0.08
				C1146.81,916.81,1146.89,916.81,1146.89,916.81z"/>
		</g>
		<g transform="matrix(-2.63809,-6.87137,-16.2623,6.24351,18283.5,2326.34)">
			<path d="M1149.67,914.93c-0.32,0-0.55,0.08-0.55,0.24v1.02c0,0.08-0.08,0.08-0.16,0.08c-0.08,0-0.16,0-0.16-0.08v-1.02
				c0-0.24,0.39-0.39,0.95-0.39c0.08,0,0.16,0,0.16,0.08C1149.9,914.93,1149.75,914.93,1149.67,914.93z"/>
		</g>
		<g transform="matrix(-2.63809,-6.87137,-16.2623,6.24351,18283.5,2326.34)">
			<path d="M1149.12,916.27c0,0.16,0.24,0.24,0.55,0.24c0.32,0,0.55-0.08,0.55-0.24v-1.02c0-0.16-0.24-0.24-0.55-0.24
				c-0.08,0-0.16,0-0.16-0.08s0.08-0.08,0.16-0.08c0.47,0,0.95,0.16,0.95,0.39v1.02c0,0.24-0.39,0.39-0.95,0.39
				c-0.47,0-0.95-0.16-0.95-0.39c0-0.08,0.08-0.08,0.16-0.08C1149.04,916.19,1149.12,916.19,1149.12,916.27z"/>
		</g>
		<g transform="matrix(-2.63809,-6.87137,-16.2623,6.24351,18276.5,2358.93)">
			<path d="M1151.89,914.32c-0.32,0-0.55,0.08-0.55,0.24v1.02c0,0.08-0.08,0.08-0.16,0.08s-0.16,0-0.16-0.08v-1.02
				c0-0.24,0.39-0.39,0.95-0.39c0.08,0,0.16,0,0.16,0.08S1151.97,914.32,1151.89,914.32z"/>
		</g>
		<g transform="matrix(-2.63809,-6.87137,-16.2623,6.24351,18276.5,2358.93)">
			<path d="M1151.26,915.66c0,0.16,0.24,0.24,0.55,0.24c0.32,0,0.55-0.08,0.55-0.24v-1.02c0-0.16-0.24-0.24-0.55-0.24
				c-0.08,0-0.16,0-0.16-0.08c0-0.08,0.08-0.08,0.16-0.08c0.47,0,0.95,0.16,0.95,0.39v1.02c0,0.24-0.39,0.39-0.95,0.39
				c-0.55,0-0.95-0.16-0.95-0.39c0-0.08,0.08-0.08,0.16-0.08C1151.26,915.58,1151.26,915.58,1151.26,915.66z"/>
		</g>
	</g>
	<g transform="matrix(1,0,0,1,94.6774,115.527)">
		<path d="M363.98,0.35l15.05,9.77c0.55,0.39,1.34,0.24,1.73-0.39c0.39-0.55,0.24-1.34-0.39-1.73l-15.05-9.77
			c-0.55-0.39-1.34-0.24-1.73,0.39C363.19-0.83,363.35-0.04,363.98,0.35z"/>
	</g>
</g>
<g transform="matrix(-0.663918,0,0,0.663918,2637.91,1056.71)">
	<g id="HASHTAG-BUBBLE" transform="matrix(0.965361,0,0,0.938474,-18.4846,18.9686)">
		<path d="M2757.21-1131.28c-0.87,0.39-0.87,0.39-1.73,0.79c-7.02,2.76-14.74,4.26-22.86,4.26c-31.29,0-56.51-22.39-56.51-49.82
			c0-27.43,25.22-49.81,56.51-49.81s56.51,22.39,56.51,49.81c0,13.79-6.38,26.33-16.79,35.39c-0.79,0.71-0.71,0.71-1.58,1.34
			c-0.87,0.63-2.05,0.47-2.76-0.39c-0.63-0.87-0.47-2.13,0.39-2.84c0.71-0.55,0.71-0.55,1.42-1.18
			c9.46-8.28,15.37-19.71,15.37-32.32c0-25.38-23.65-45.8-52.65-45.8c-29.01,0-52.65,20.41-52.65,45.8
			c0,25.38,23.65,45.8,52.65,45.8c7.65,0,14.9-1.42,21.52-4.02c0.79-0.32,0.79-0.39,1.58-0.71c1.02-0.47,2.13,0,2.52,1.02
			C2758.71-1132.86,2758.24-1131.68,2757.21-1131.28z"/>
	</g>
	<g transform="matrix(-1.82904,0,0,1.91361,4519.22,-1872.75)">
		<path d="M1026.48,401.32l9.14,23.25c0.24,0.63,1.02,1.02,1.73,0.79c0.71-0.24,1.02-1.02,0.79-1.66l-9.14-23.25
			c-0.24-0.71-1.02-1.02-1.73-0.79C1026.56,399.9,1026.25,400.61,1026.48,401.32z"/>
	</g>
	<g transform="matrix(-1.82904,0,0,1.91361,4474.41,-1890.33)">
		<path d="M1012.15,406.66l9.14,23.25c0.24,0.63,1.02,1.02,1.73,0.79c0.71-0.24,1.02-1.02,0.79-1.66l-9.14-23.25
			c-0.24-0.71-1.02-1.02-1.73-0.79C1012.23,405.24,1011.91,406.02,1012.15,406.66z"/>
	</g>
	<g transform="matrix(-0.0908262,-1.91125,-1.82678,0.0950258,2863.75,4426.62)">
		<path d="M2882.76-23.39l9.14,23.25c0.24,0.71,1.02,1.02,1.66,0.71s0.95-1.1,0.71-1.73l-9.14-23.25c-0.24-0.71-1.02-1.02-1.66-0.71
			C2882.84-24.81,2882.52-24.02,2882.76-23.39z"/>
	</g>
	<g transform="matrix(0.105007,1.91045,1.82602,-0.109863,-1898.19,-3643.44)">
		<path d="M1473.92,2377.17l9.14,23.25c0.24,0.71,1.02,1.02,1.66,0.71c0.63-0.32,0.95-1.1,0.71-1.73l-9.14-23.25
			c-0.24-0.71-1.02-1.02-1.66-0.71C1474,2375.68,1473.68,2376.46,1473.92,2377.17z"/>
	</g>
	<g transform="matrix(1,0,0,1,0.0209705,-9.02408)">
		<path d="M2657.79-1023.32l-13.87-13.48c-0.71-0.71-1.97-0.71-2.68,0s-0.71,1.97,0,2.68l18.44,17.89c0.63,0.55,1.5,0.71,2.21,0.32
			c0.71-0.39,1.1-1.26,0.95-2.05l-5.83-25.14c-0.24-1.02-1.26-1.66-2.29-1.42c-1.02,0.24-1.66,1.26-1.42,2.29L2657.79-1023.32z"/>
	</g>
</g>
</svg>
