<?xml version="1.0" encoding="utf-8"?>
<!-- Generator: Adobe Illustrator 25.3.1, SVG Export Plug-In . SVG Version: 6.00 Build 0)  -->
<svg version="1.1" id="Layer_1" xmlns="http://www.w3.org/2000/svg" xmlns:xlink="http://www.w3.org/1999/xlink" x="0px" y="0px"
	 viewBox="0 0 188 180" style="enable-background:new 0 0 188 180;" xml:space="preserve">
<style type="text/css">
	.st0{fill:#FFFFFF;}
	.st1{fill:#E56C00;}
	.st2{fill:#656464;}
	.st3{fill:#EC6C00;}
	.st4{fill:#6D8BD6;}
	.st5{fill:#426FB9;}
</style>
<g>
	<path class="st0" d="M119.81,216.01c-4.42,0-9.16,2.04-14.21,6.11c-2.08-4.07-5.62-6.11-10.59-6.11c-4.47,0-8.98,1.86-13.53,5.59
		l-1.15-5.59h-8.85v44.49h11.09v-29.66c3.09-3.84,5.12-5.76,8.28-5.76c3.67,0,5.5,2.52,5.5,7.54v27.88h11.09v-29.65
		c3.24-3.84,5.11-5.76,8.07-5.76c3.72,0,5.58,2.48,5.58,7.42v28.01h11.23v-27.59C132.33,221.65,128.16,216.01,119.81,216.01z
		 M171.21,216.01c-7.78,0-13.04,0.07-19.03,0.43c-5.82,0.35-11.89,5.99-12.96,12.74c-0.89,5.64-0.77,10.97-0.45,17.45
		c0.46,9.22,5.34,13.85,16.02,13.85c3.9,0,8.39-1.04,11.83-3.14l2.74,3.14h7.71v-38.77C177.08,219,173.96,216.01,171.21,216.01z
		 M165.99,248.13c-2.84,2.32-6.16,3.48-10.23,3.48c-4.02,0-5.55-1.73-6.03-5.08c-0.34-2.34-0.15-13.15,0.26-16.05
		c0.49-3.46,3.17-5.26,5.47-5.54c1.58-0.19,4.36-0.46,7.92-0.46c1.14,0,2.62-0.1,2.62,1.17v22.49H165.99z M207.31,236.76h-0.21
		l13.8-20.75h-11.31l-8.64,12.99l-8.86-12.99h-12.22l14.92,22.27l-14.78,22.23h11.31l9.64-14.5l14.83,23.93l12.92-0.04
		L207.31,236.76z"/>
	<path class="st1" d="M62.59,221.16c-0.51-3.35-2.82-5.72-5.4-6.01c-4.16-0.46-10.95-1.13-20.25-0.86
		c-6.69,0.19-12.57-0.09-16.51,0.86c-4.21,1.02-8.66,4.97-9.43,10.91c-0.68,5.21-1.08,10.58-1.08,18.07c0,7.49,0.23,22.96,1.33,28.1
		c0.77,3.61,4.1,5.13,6.69,5.42c4.16,0.46,11.27,0.86,18.65,0.86c7.39,0,11.3-0.39,15.45-0.9c5.92-0.74,9.78-4.5,10.81-10.95
		c0.83-5.19,0.84-15.05,0.84-22.54C63.69,236.63,63.38,226.36,62.59,221.16z M48.13,265.74c-0.46,1.83-2.48,4.51-4.65,4.51H27.71
		c-2.16,0-2.27-0.86-2.55-2.67c-0.28-1.8-0.39-13.66-0.39-20.88s0.07-17.07,0.48-19.63c0.41-2.56,2.34-4.51,4.5-4.51h16.11
		c1.54,0,2.13,0.66,2.35,2.73c0.22,2.07,0.39,12.82,0.39,21.11C48.61,254.69,48.59,263.9,48.13,265.74z"/>
	<rect x="-14.84" y="234.55" class="st1" width="15.31" height="43.09"/>
	<path class="st1" d="M31.88,280.51c-4.88,1.2-6.34,4.7-5.75,6.43c0.58,1.72,2.85,8.06,2.85,8.06s20.35-15.76,55.38-15.63
		l-0.03-0.98C57.76,275.76,40.69,278.34,31.88,280.51z"/>
	<path class="st0" d="M192.61,282.22c-24.32,1.42-57.6,1.42-96.63-2.69c-2.92-0.31-5.8-0.56-8.62-0.76v0.85
		c2.14,0.13,10.19,1.47,12.39,1.81c44.17,6.79,61.02,9.3,95.71,8.84c16.62-0.22,29.9-2.57,36.2-3.9c2.56-0.54,2.61-3.22,2.06-4.29
		c-0.54-1.07-3.44-6.31-3.44-6.31S216.68,280.81,192.61,282.22z"/>
	<path class="st1" d="M1.18,219.61c0,4.75-3.84,8.61-8.59,8.61c-4.74,0-8.59-3.85-8.59-8.61c0-4.75,3.84-8.61,8.59-8.61
		C-2.67,211,1.18,214.86,1.18,219.61z"/>
</g>
<g>
	<g>
		<path class="st2" d="M-189.53-2.5v-44.49h8.85l1.15,5.59c4.55-3.73,9.06-5.59,13.53-5.59c4.98,0,8.51,2.03,10.59,6.1
			c5.05-4.07,9.79-6.1,14.21-6.1c8.34,0,12.52,5.64,12.52,16.91V-2.5h-11.23v-28.01c0-4.94-1.86-7.42-5.58-7.42
			c-2.96,0-4.83,1.92-8.07,5.76V-2.5h-11.09v-27.88c0-5.03-1.84-7.54-5.51-7.54c-3.17,0-5.19,1.92-8.29,5.76V-2.5H-189.53z"/>
		<path class="st2" d="M-121.78-33.81c1.07-6.75,7.14-12.39,12.96-12.74c5.99-0.36,11.26-0.43,19.04-0.43
			c2.75,0,5.87,2.98,5.87,5.71V-2.5h-7.72l-2.74-3.13c-3.44,2.09-7.94,3.13-11.83,3.13c-10.68,0-15.57-4.63-16.02-13.86
			C-122.55-22.84-122.67-28.17-121.78-33.81z M-95.02-29.2v-8.18c0-1.27-1.48-1.18-2.62-1.18c-3.56,0-6.34,0.27-7.92,0.47
			c-2.29,0.28-4.98,2.08-5.47,5.55c-0.41,2.9-0.6,13.72-0.26,16.05c0.49,3.35,2.01,5.09,6.03,5.09c4.07,0,7.39-1.16,10.23-3.47
			v-5.85V-29.2z"/>
		<path class="st2" d="M-81.14-46.99h12.22l15.12,22.19l-11.68,1.18L-81.14-46.99z M-65.77-26.24h12.09L-32.3,6.9l-12.92,0.04
			L-65.77-26.24z M-69.69-2.5H-81l29.59-44.49h11.31L-69.69-2.5z"/>
	</g>
	<g>
		<g>
			<path class="st3" d="M-198.41-41.84c-0.51-3.35-2.82-5.72-5.41-6.01c-4.16-0.46-10.95-1.13-20.25-0.86
				c-6.69,0.19-12.57-0.09-16.52,0.86c-4.21,1.02-8.66,4.98-9.43,10.91c-0.68,5.21-1.08,10.58-1.08,18.07
				c0,7.49,0.23,22.96,1.33,28.1c0.77,3.61,4.11,5.13,6.69,5.42c4.16,0.46,11.27,0.86,18.66,0.86s11.3-0.39,15.45-0.91
				c5.92-0.74,9.78-4.5,10.81-10.94c0.83-5.19,0.84-15.05,0.84-22.54C-197.32-26.37-197.62-36.65-198.41-41.84z M-212.88,2.74
				c-0.46,1.84-2.48,4.51-4.65,4.51h-15.77c-2.16,0-2.27-0.86-2.55-2.67c-0.28-1.81-0.39-13.67-0.39-20.89
				c0-7.22,0.07-17.07,0.48-19.62c0.41-2.56,2.34-4.51,4.5-4.51h16.12c1.55,0,2.13,0.66,2.35,2.73c0.22,2.06,0.39,12.83,0.39,21.12
				C-212.4-8.31-212.41,0.9-212.88,2.74z"/>
		</g>
	</g>
	<rect x="-275.85" y="-28.46" class="st3" width="15.31" height="43.09"/>
	<path class="st3" d="M-229.13,17.51c-4.88,1.21-6.34,4.7-5.75,6.42c0.58,1.73,2.85,8.06,2.85,8.06s20.35-15.76,55.38-15.63
		l-0.02-0.99C-203.24,12.76-220.32,15.34-229.13,17.51z"/>
	<path class="st2" d="M-68.39,19.22c-24.33,1.42-57.6,1.42-96.64-2.68c-2.92-0.31-5.8-0.56-8.62-0.76v0.85
		c2.14,0.13,10.19,1.48,12.39,1.82c44.17,6.79,61.02,9.31,95.72,8.84c16.62-0.23,29.91-2.56,36.2-3.9c2.56-0.54,2.61-3.22,2.06-4.29
		c-0.54-1.07-3.44-6.31-3.44-6.31S-44.32,17.82-68.39,19.22z"/>
	<ellipse class="st3" cx="-268.41" cy="-43.39" rx="8.59" ry="8.61"/>
</g>
<g>
	<path class="st4" d="M82.94,74.68c-1.43,4.21-1.09,7.72-1.55,11.56c-0.22,1.86-0.76,3.68-1.67,5.32c-0.28,0.5-0.56,0.95-0.88,1.38
		c-0.49,0.67-1.01,1.43-1.77,2.22c-0.08,0.11-0.5,0.62-0.63,0.75c-8.11,8.63-16.34,17.23-23.84,26.51
		c-2.97,3.68-6.15,7.63-8.61,11.99c-0.99,1.38-1.86,2.75-2.55,4.12c-1.13,2.25-1.82,4.5-1.82,6.75c-0.01,1.68,0.41,3.33,1.25,4.88
		c0.44,1.34,1.13,2.63,2.08,3.82c0.75,0.94,1.6,1.73,2.61,2.28c1.01,0.55,2.17,0.83,3.42,0.83c0.21,0,0.42-0.01,0.64-0.02
		c0.81-0.06,1.59-0.22,2.33-0.46c0.74,0.16,1.49,0.26,2.25,0.26c1.75,0,3.51-0.45,5.17-1.41c2.5-1.44,4.74-3.95,6.65-7.66
		c1.91-3.72,3.51-8.65,4.69-15.07l0,0.01c0.69-3.58,1.29-6.69,1.83-9.41c3.18-9.75,5.71-17.36,7.77-23.53
		c0.58-1.26,1.15-2.52,1.71-3.79c3.54-4.59,7.21-9.45,10.82-14.28c0.53-0.47,1.36-1.22,1.89-1.69c1.14-0.64,2.35-1.23,3.63-1.76
		l-0.04,0.02c7.01-2.65,12.35-6.28,16.02-9.34c1.84-1.53,3.26-2.92,4.27-3.96c0.5-0.52,0.9-0.96,1.2-1.29
		c0.15-0.16,0.27-0.3,0.36-0.4l0.11-0.12l0.03-0.03l0.01-0.01l-0.12-0.12l-1.86-1.9c-0.1,0.1-0.17,0.17-0.27,0.29
		c-0.36,0.4-1.03,1.17-2.06,2.2c-3.01,3.03-9.03,8.23-18.02,11.77c2.65-3.38,5.23-6.82,7.7-10.34c0.82-1.18,3.04-4.33,5.53-8.34
		c5.1-7.06,8.44-11.75,8.44-11.75l-1.51-1.07c0.26-0.6,0.52-1.19,0.76-1.78c1.27-3.21,2.13-6.29,2.14-9.01c0-1.59-0.3-3.1-1.12-4.38
		c-0.81-1.28-2.13-2.23-3.79-2.68c-0.14-0.04-0.28-0.05-0.42-0.09c-0.38-0.39-0.79-0.75-1.27-1.03c-0.73-0.42-1.56-0.71-2.48-0.88
		l-0.04-0.01l-0.04,0c-0.51-0.07-1.02-0.1-1.51-0.1c-1.5,0-2.92,0.31-4.23,0.89c0,0-2.93,0.77-4.33,3.1 M54.22,152.19
		c-0.78,0.61-1.59,1.11-2.42,1.46c-0.39-0.12-0.78-0.26-1.18-0.44c0.72-0.49,1.4-1.06,2.04-1.71c1.58-1.6,2.97-3.56,4.12-5.4
		c1.16-1.84,2.08-3.56,2.65-4.6c3.37-6.14,5.9-12.56,9.09-18.53c0.63-1.18,1.26-2.35,1.9-3.53c-0.2,1-0.41,2.05-0.63,3.18
		c-0.04,0.12-0.07,0.22-0.11,0.34l0,0.01l0,0c-2.77,8.75-6.03,17.85-11.48,25.03C57.07,149.48,55.72,151.02,54.22,152.19z
		 M103.04,37.82c1.55-3.02,3.2-5.43,4.92-7.01c0.86-0.79,1.72-1.38,2.6-1.77c0.88-0.39,1.77-0.59,2.72-0.59
		c0.28,0,0.56,0.03,0.85,0.06l0.13,0.24c0.28,0.61,0.44,1.42,0.44,2.42c0,1.75-0.5,4.04-1.41,6.6c-2.72,7.72-8.98,17.85-14.33,25.7
		c-3.17,4.66-6.32,9.31-9.5,13.96c0.93-2.6,1.84-5.2,2.69-7.83c0.87-2.68,1.69-5.38,2.44-8.09l0,0.01
		C97.23,52.34,99.93,43.87,103.04,37.82z M49.51,150.53c-0.46,0.36-0.91,0.64-1.34,0.83c-0.2-0.28-0.38-0.57-0.54-0.9
		c-0.56-1.16-0.84-2.66-0.84-4.34c0-2.37,0.56-5.09,1.5-7.66c0.94-2.57,2.27-4.99,3.72-6.82c2.04-2.3,4.04-4.63,6-6.98
		c1.27-1.52,2.51-3.05,3.75-4.58l0.16-0.14l0.01-0.01l0,0c1.67-1.54,3.78-3.83,6.25-6.7c1.47-1.71,3.07-3.65,4.76-5.72
		c-0.13,0.55-0.27,1.19-0.44,1.94c-2.1,4.08-4.3,8.12-6.48,12.2c-3.29,6.16-5.82,12.58-9.08,18.5c-0.88,1.6-2.49,4.62-4.43,7.18
		C51.56,148.59,50.51,149.74,49.51,150.53z M43.06,146.07c0-1.45,0.28-2.96,0.78-4.47c0.53-1.6,4.77-9.45,5.57-10.98
		c-0.08,0.2-3.71,6.67-3.78,6.87c-1.04,2.84-1.67,5.83-1.68,8.64c0,1.57,0.21,3.07,0.68,4.46c-0.1-0.11-0.21-0.22-0.32-0.35
		c-0.32-0.39-0.59-0.77-0.82-1.16C43.21,148.1,43.06,147.11,43.06,146.07z M118.19,33.08c0.01,2.11-0.73,4.94-1.94,7.97
		c-1.8,4.55-4.61,9.56-7.17,13.7c-0.08,0.13-0.16,0.25-0.24,0.38c-3.21,4.44-7.11,9.8-11.32,15.52c1.26-1.86,2.53-3.72,3.79-5.58
		c3.6-5.3,7.62-11.6,10.77-17.64c1.57-3.02,2.92-5.97,3.89-8.72c0.97-2.75,1.57-5.29,1.57-7.55c0-0.33-0.03-0.66-0.05-0.98
		l0.03,0.04C117.94,30.89,118.19,31.84,118.19,33.08z M61.71,149.45c-1.23,1.69-2.49,2.83-3.75,3.55c-0.27,0.15-0.53,0.28-0.8,0.39
		c1.26-1.17,2.36-2.46,3.29-3.69c2.02-2.66,3.73-5.54,5.23-8.52C64.5,144.75,63.14,147.48,61.71,149.45z"/>
	<path class="st4" d="M49.34,130.81c0,0,19.05-23.54,24.17-28.21c5.12-4.67,24.01-31.95,24.01-31.95"/>
	<path class="st4" d="M104.38,29.01c0.89-0.85,1.93-1.19,2.9-1.62c0.33-0.15,0.68-0.26,1.03-0.36c-1.66,0.98-3.14,2.41-4.49,4.17
		c-2.47,3.22-4.55,7.57-6.49,12.63c-0.96,2.51-1.87,5.2-2.77,8c-0.22,0.7-0.41,1.4-0.56,2.12c-0.91,4.33-4.89,21.98-12.48,38.95
		c-4.54,7.14-6.92,16.07-11.09,26.53"/>
	<path class="st5" d="M101.78,39.61l0.68-1.7c0.07-0.18-0.01-0.39-0.2-0.46l-0.07-0.03l2.42-6c0.63-1.57,1.69-2.94,3.05-3.94
		l1.87-1.39l-3.82,2.26c-0.75,0.44-1.39,1.03-1.89,1.74l-4.41,6.2l-0.07-0.03c-0.18-0.07-0.39,0.02-0.46,0.2l-0.68,1.69
		c-0.2-0.02-0.41-0.02-0.61,0.02c-0.41,0.08-0.92,0.31-1.5,0.96c-0.58,0.66-1.24,1.74-1.98,3.57l-6.15,15.24
		c-0.74,1.83-1.03,3.08-1.07,3.96c-0.05,0.88,0.16,1.41,0.4,1.75c0.12,0.17,0.28,0.31,0.45,0.43l-0.69,1.7
		c-0.07,0.18,0.02,0.39,0.2,0.46l0.07,0.03l-1.57,9.46l-1.47,8.24l2.47-8.24l3.36-8.33l0.07,0.03c0.18,0.07,0.39-0.01,0.46-0.2
		l0.69-1.71c0.16,0.02,0.32,0.03,0.47,0.01c0.43-0.05,0.95-0.21,1.54-0.85c0.6-0.64,1.28-1.76,2.08-3.73l6.15-15.24
		c0.74-1.83,1.02-3.05,1.07-3.91c0.05-0.86-0.16-1.36-0.4-1.72C102.11,39.9,101.95,39.75,101.78,39.61z"/>
	<path class="st4" d="M100.78,39.61l0.68-1.7c0.07-0.18-0.01-0.39-0.2-0.46l-0.07-0.03l3.39-8.4l-2.79-1.12l-0.03,0.07l-3.36,8.33
		l-0.07-0.03c-0.18-0.07-0.39,0.02-0.46,0.2l-0.68,1.69c-0.2-0.02-0.41-0.02-0.61,0.02c-0.41,0.08-0.92,0.31-1.5,0.96
		c-0.58,0.66-1.24,1.74-1.98,3.57l-6.15,15.24c-0.74,1.83-1.03,3.08-1.07,3.96c-0.05,0.88,0.16,1.41,0.4,1.75
		c0.12,0.17,0.28,0.31,0.45,0.43l-0.69,1.7c-0.07,0.18,0.02,0.39,0.2,0.46l0.07,0.03l-3.39,8.4l2.79,1.12l0.03-0.07l3.36-8.33
		l0.07,0.03c0.18,0.07,0.39-0.01,0.46-0.2l0.69-1.71c0.16,0.02,0.32,0.03,0.47,0.01c0.43-0.05,0.95-0.21,1.54-0.85
		c0.6-0.64,1.28-1.76,2.08-3.73l6.15-15.24c0.74-1.83,1.02-3.05,1.07-3.91c0.05-0.86-0.16-1.36-0.4-1.72
		C101.11,39.9,100.95,39.75,100.78,39.61z"/>
	<path class="st4" d="M100.78,39.61l0.68-1.7c0.07-0.18-0.02-0.39-0.2-0.46l-0.07-0.03l3.39-8.4l-2.79-1.12l-0.03,0.07l-3.36,8.33
		l-0.07-0.03c-0.18-0.07-0.39,0.02-0.46,0.2l-0.68,1.69c-0.2-0.02-0.41-0.02-0.61,0.02c-0.41,0.08-0.92,0.31-1.5,0.96
		c-0.58,0.66-1.24,1.74-1.98,3.57l-6.15,15.24c-0.74,1.83-1.03,3.08-1.07,3.96c-0.05,0.88,0.16,1.41,0.4,1.75
		c0.12,0.17,0.28,0.31,0.45,0.43l-0.69,1.7c-0.07,0.18,0.02,0.39,0.2,0.46l0.07,0.03l-3.39,8.4l2.79,1.12l0.03-0.07l3.36-8.33
		l0.07,0.03c0.18,0.07,0.39-0.01,0.46-0.2l0.69-1.71c0.16,0.02,0.32,0.03,0.47,0.01c0.43-0.05,0.95-0.21,1.54-0.85
		c0.6-0.64,1.28-1.76,2.08-3.73l6.15-15.24c0.74-1.83,1.02-3.05,1.07-3.91c0.05-0.86-0.16-1.36-0.4-1.72
		C101.11,39.9,100.95,39.75,100.78,39.61z M85.64,75.61l-2.5-1.01l3.33-8.26l2.5,1.01L85.64,75.61z M101.89,28.1l2.5,1.01
		l-3.33,8.26l-2.5-1.01L101.89,28.1z M98.03,36.53c0.04-0.1,0.16-0.15,0.26-0.11l0.07,0.03l2.79,1.12l0.07,0.03
		c0.1,0.04,0.15,0.16,0.11,0.26l-0.67,1.66l-0.1-0.04c-0.12-0.08-0.24-0.16-0.38-0.21l-2.35-0.95c-0.14-0.05-0.28-0.08-0.42-0.11
		l-0.04-0.02L98.03,36.53z M89.5,67.18c-0.04,0.1-0.16,0.15-0.26,0.11l-2.92-1.18c-0.1-0.04-0.15-0.16-0.11-0.26l0.67-1.66
		l0.19,0.07l0.14,0.08l2.59,1.04l0.16,0.04l0.03,0.01l0.19,0.08L89.5,67.18z M100.43,45.66L94.28,60.9
		c-0.79,1.96-1.47,3.06-2.05,3.68c-0.58,0.62-1.04,0.75-1.45,0.8c-0.26,0.03-0.53-0.01-0.78-0.09l-2.89-1.16l0,0
		c-0.27-0.13-0.52-0.31-0.69-0.55c-0.22-0.31-0.42-0.79-0.37-1.65c0.04-0.86,0.33-2.1,1.06-3.91l6.15-15.24
		c0.73-1.82,1.39-2.89,1.95-3.52c0.56-0.64,1.03-0.83,1.41-0.91c0.24-0.05,0.48-0.03,0.72,0.01l0.14,0.06l2.92,1.18l0.09,0.03
		c0.24,0.15,0.46,0.33,0.62,0.56c0.23,0.33,0.42,0.79,0.38,1.62C101.44,42.63,101.16,43.84,100.43,45.66z"/>
	<path class="st0" d="M88.63,57.43l0.07,0.03c0.27-0.67,0.78-1.16,1.39-1.42c0.61-0.26,1.32-0.29,1.99-0.02s1.16,0.78,1.42,1.39
		c0.26,0.61,0.29,1.32,0.02,1.99c-0.27,0.67-0.78,1.16-1.39,1.42c-0.61,0.26-1.32,0.29-1.99,0.02s-1.16-0.78-1.42-1.39
		c-0.26-0.61-0.29-1.32-0.02-1.99L88.63,57.43l-0.07-0.03c-0.57,1.41,0.11,3.02,1.52,3.58c1.41,0.57,3.02-0.11,3.58-1.52
		c0.57-1.41-0.11-3.02-1.52-3.58c-1.41-0.57-3.02,0.11-3.58,1.52L88.63,57.43z"/>
	<path class="st0" d="M90.67,57.1l-0.03,0.07l1.68,0.68l0.05,0.11l-0.68,1.68l-0.11,0.04L89.91,59l-0.04-0.11l0.68-1.68l0.11-0.05
		L90.67,57.1l0.03-0.07c-0.12-0.05-0.26,0.01-0.31,0.13l-0.68,1.68c-0.05,0.12,0.01,0.26,0.13,0.31l1.68,0.68
		c0.12,0.05,0.26-0.01,0.31-0.13l0.68-1.68c0.05-0.12-0.01-0.26-0.13-0.31l-1.68-0.68L90.67,57.1z"/>
	<path class="st0" d="M96.22,42.92l0.07,0.03c0.1-0.25,0.3-0.44,0.53-0.54c0.23-0.1,0.5-0.11,0.75-0.01c0.25,0.1,0.44,0.3,0.54,0.53
		c0.1,0.23,0.11,0.5,0.01,0.75c-0.1,0.25-0.3,0.44-0.53,0.54c-0.23,0.1-0.5,0.11-0.75,0.01c-0.25-0.1-0.44-0.3-0.54-0.53
		c-0.1-0.23-0.11-0.5-0.01-0.75L96.22,42.92l-0.07-0.03c-0.24,0.58,0.05,1.25,0.63,1.48c0.58,0.24,1.25-0.05,1.48-0.63
		c0.24-0.58-0.05-1.25-0.63-1.48c-0.58-0.24-1.25,0.05-1.48,0.63L96.22,42.92z"/>
	<path class="st0" d="M94.34,47.59l0.07,0.03c0.1-0.25,0.3-0.44,0.53-0.54c0.23-0.1,0.5-0.11,0.75-0.01c0.25,0.1,0.44,0.3,0.54,0.53
		c0.1,0.23,0.11,0.5,0.01,0.75c-0.1,0.25-0.3,0.44-0.53,0.54c-0.23,0.1-0.5,0.11-0.75,0.01c-0.25-0.1-0.44-0.3-0.54-0.53
		c-0.1-0.23-0.11-0.5-0.01-0.75L94.34,47.59l-0.07-0.03c-0.24,0.58,0.05,1.25,0.63,1.48c0.58,0.24,1.25-0.05,1.48-0.63
		c0.24-0.58-0.05-1.25-0.63-1.48c-0.58-0.24-1.25,0.05-1.48,0.63L94.34,47.59z"/>
	<path class="st0" d="M92.45,52.26l0.07,0.03c0.1-0.25,0.3-0.44,0.53-0.54c0.23-0.1,0.5-0.11,0.75-0.01c0.25,0.1,0.44,0.3,0.54,0.53
		c0.1,0.23,0.11,0.5,0.01,0.75c-0.1,0.25-0.3,0.44-0.53,0.54c-0.23,0.1-0.5,0.11-0.75,0.01c-0.25-0.1-0.44-0.3-0.54-0.53
		c-0.1-0.23-0.11-0.5-0.01-0.75L92.45,52.26l-0.07-0.03c-0.24,0.58,0.05,1.25,0.63,1.48c0.58,0.24,1.25-0.05,1.48-0.63
		c0.24-0.58-0.05-1.25-0.63-1.48c-0.58-0.24-1.25,0.05-1.48,0.63L92.45,52.26z"/>
	<polygon class="st0" points="95.08,44.19 95.21,44.24 95.05,44.62 95.53,44.81 95.68,44.43 95.81,44.48 95.43,45.4 95.31,45.35 
		95.48,44.92 95.01,44.73 94.83,45.16 94.71,45.11 	"/>
	
		<rect x="95.41" y="44.99" transform="matrix(0.3743 -0.9273 0.9273 0.3743 18.2284 117.1285)" class="st0" width="0.99" height="0.14"/>
	<path class="st0" d="M96.97,44.98c0.07,0.08,0.09,0.19,0.06,0.32l-0.12-0.05l-0.03-0.18l-0.16-0.12l-0.25,0.01
		c-0.08,0.04-0.15,0.12-0.2,0.25c-0.04,0.11-0.06,0.21-0.04,0.3c0.02,0.09,0.08,0.15,0.19,0.2l0.23,0.01
		c0.07-0.03,0.13-0.09,0.18-0.2l-0.29-0.12l0.04-0.1l0.4,0.16l-0.2,0.49l-0.08-0.03l0.02-0.13l-0.15,0.05l-0.22-0.04
		c-0.11-0.04-0.19-0.12-0.23-0.22c-0.05-0.12-0.04-0.26,0.02-0.42c0.06-0.15,0.15-0.26,0.27-0.32c0.11-0.06,0.23-0.06,0.36-0.01
		L96.97,44.98z"/>
	<polygon class="st0" points="97.37,45.11 97.49,45.16 97.34,45.54 97.81,45.73 97.97,45.35 98.09,45.4 97.72,46.32 97.59,46.27 
		97.77,45.84 97.29,45.65 97.12,46.08 96.99,46.03 	"/>
	<polygon class="st0" points="92.37,48.53 92.54,48.6 92.49,49.49 93.07,48.82 93.25,48.89 92.88,49.81 92.76,49.76 92.98,49.22 
		93.02,49.13 93.08,48.99 92.5,49.66 92.37,49.61 92.42,48.72 92.41,48.75 92.37,48.86 92.33,48.96 92.11,49.5 91.99,49.45 	"/>
	
		<rect x="92.85" y="49.4" transform="matrix(0.3732 -0.9277 0.9277 0.3732 12.6152 117.6001)" class="st0" width="0.99" height="0.14"/>
	<path class="st0" d="M93.8,49.11l0.37,0.15c0.13,0.05,0.2,0.13,0.24,0.25c0.03,0.11,0.02,0.22-0.03,0.35
		c-0.04,0.1-0.09,0.18-0.16,0.24c-0.12,0.11-0.26,0.14-0.41,0.08l-0.37-0.15L93.8,49.11z M93.82,50.07l0.11,0.03l0.15-0.05
		l0.11-0.12l0.05-0.09c0.05-0.11,0.06-0.21,0.04-0.29c-0.02-0.08-0.08-0.14-0.18-0.18l-0.22-0.09l-0.29,0.71L93.82,50.07z"/>
	<path class="st0" d="M94.73,49.49l0.37,0.15c0.13,0.05,0.2,0.13,0.24,0.25c0.03,0.11,0.02,0.22-0.03,0.35
		c-0.04,0.1-0.09,0.18-0.16,0.24c-0.12,0.11-0.26,0.14-0.41,0.08l-0.37-0.15L94.73,49.49z M94.75,50.44l0.11,0.03l0.15-0.05
		l0.11-0.12l0.05-0.09c0.05-0.11,0.06-0.21,0.04-0.29c-0.02-0.08-0.08-0.14-0.18-0.18l-0.22-0.09l-0.29,0.71L94.75,50.44z"/>
	<polygon class="st0" points="95.65,49.86 95.78,49.91 95.45,50.72 95.91,50.91 95.87,51.02 95.28,50.78 	"/>
	<polygon class="st0" points="96.38,50.15 97.05,50.42 97,50.53 96.46,50.31 96.34,50.59 96.85,50.8 96.81,50.9 96.3,50.7 
		96.17,51.01 96.73,51.24 96.69,51.35 96.01,51.07 	"/>
	<polygon class="st0" points="91.5,53.46 91.63,53.51 91.3,54.32 91.76,54.51 91.72,54.62 91.13,54.38 	"/>
	<path class="st0" d="M92.92,54.19c0.03,0.11,0.02,0.22-0.03,0.35c-0.06,0.14-0.14,0.24-0.24,0.3c-0.13,0.07-0.26,0.08-0.42,0.02
		c-0.14-0.06-0.23-0.15-0.28-0.28c-0.04-0.12-0.03-0.25,0.03-0.39c0.05-0.12,0.12-0.22,0.22-0.28c0.13-0.08,0.27-0.09,0.42-0.03
		C92.79,53.95,92.89,54.05,92.92,54.19z M92.58,54.73c0.08-0.06,0.14-0.14,0.18-0.24c0.04-0.11,0.05-0.21,0.02-0.3
		c-0.03-0.09-0.09-0.15-0.19-0.19c-0.1-0.04-0.19-0.04-0.27,0c-0.09,0.04-0.16,0.13-0.21,0.25c-0.04,0.1-0.05,0.2-0.03,0.29
		c0.02,0.09,0.09,0.16,0.21,0.21C92.4,54.8,92.5,54.79,92.58,54.73z"/>
	<polygon class="st0" points="93.28,54.18 93.15,55 93.66,54.33 93.8,54.38 93.7,55.22 94.18,54.54 94.32,54.59 93.7,55.42 
		93.57,55.37 93.67,54.52 93.14,55.19 93.01,55.14 93.14,54.12 	"/>
	<path class="st4" d="M121.21,64.79l-4.38-4.24c-0.09-0.09-0.1-0.24-0.01-0.33l1.69-1.75c0.09-0.09,0.24-0.1,0.33-0.01l4.38,4.24
		c0.09,0.09,0.1,0.24,0.01,0.33l-1.69,1.75l-0.17,0.07l-0.05,0L121.21,64.79z"/>
	<path class="st4" d="M125.28,65.65l-9.44-9.14l-0.08-0.11l-0.04-0.16c0-0.14,0.08-0.24,0.11-0.27l12.85-13.27
		c0.07-0.07,0.17-0.11,0.26-0.11l0.12,0.02l0.15,0.09c3.15,3.04,6.29,6.09,9.44,9.13c0.15,0.14,0.15,0.38,0.01,0.53l-12.85,13.27
		C125.66,65.79,125.42,65.79,125.28,65.65z"/>
	<polygon class="st4" points="137.06,50.29 136.88,50.47 138.33,51.87 143.88,46.14 142.43,44.74 142.06,44.38 139.09,41.5 
		134.74,37.29 129.19,43.02 135.45,49.08 136.88,50.47 137.06,50.29 137.23,50.11 135.8,48.72 129.9,43.01 134.75,38 138.74,41.86 
		141.71,44.74 142.08,45.1 143.18,46.15 138.32,51.17 137.23,50.11 	"/>
	<path class="st4" d="M138.67,47.89l0.17-0.18l-1.4-1.35l-0.03-0.08l0.03-0.08l1.14-1.18l0.08-0.03l0.08,0.03l1.4,1.35l0.03,0.08
		l-0.03,0.08l-1.14,1.18l-0.08,0.03l-0.08-0.03L138.67,47.89l-0.17,0.18c0.12,0.11,0.27,0.17,0.43,0.17c0.16,0,0.32-0.06,0.44-0.19
		l1.14-1.18c0.11-0.12,0.17-0.27,0.17-0.43c0-0.16-0.06-0.32-0.19-0.44l-1.4-1.35c-0.12-0.11-0.27-0.17-0.43-0.17
		c-0.16,0-0.32,0.06-0.44,0.19l-1.14,1.18c-0.12,0.12-0.17,0.27-0.17,0.43c0,0.16,0.06,0.32,0.19,0.44l1.4,1.35L138.67,47.89z"/>
	<path class="st4" d="M134.67,43.91l0.17-0.18l-1.4-1.35l-0.03-0.08l0.03-0.08l1.14-1.18l0.08-0.03l0.08,0.03l1.4,1.35l0.03,0.08
		l-0.03,0.08L135,43.73l-0.08,0.03l-0.08-0.03L134.67,43.91l-0.17,0.18c0.12,0.11,0.27,0.17,0.43,0.17c0.16,0,0.32-0.06,0.44-0.19
		l1.14-1.18c0.11-0.12,0.17-0.27,0.17-0.43c0-0.16-0.06-0.32-0.19-0.44l-1.4-1.35c-0.12-0.11-0.27-0.17-0.43-0.17
		c-0.16,0-0.32,0.06-0.44,0.19l-1.14,1.18c-0.12,0.12-0.17,0.27-0.17,0.43c0,0.16,0.06,0.32,0.19,0.44l1.4,1.35L134.67,43.91z"/>
	<path class="st4" d="M135.28,47.11l0.17-0.18l-1.2-1.16l0,0l0,0l0,0l0,0l0,0l0-0.01l0.03-0.06l0.1-0.11l0.07-0.03l0.01,0l0-0.01
		l0,0l0,0l0-0.01l0,0l1.16,1.12l0.03,0.07l-0.01,0.02l-0.02,0.03l-0.09,0.1l-0.07,0.03l-0.01,0l0,0.01l0.01-0.01l0,0l0,0.01
		l0.01-0.01L135.28,47.11l-0.17,0.18c0.1,0.1,0.23,0.14,0.35,0.14c0.16,0,0.31-0.07,0.43-0.19l0.1-0.11l0.01-0.01l0.07-0.09
		L136.1,47l0.06-0.19l0.02-0.08l-0.1-0.28l-0.02-0.05l-1.24-1.2c-0.1-0.1-0.23-0.14-0.35-0.14c-0.16,0-0.31,0.07-0.43,0.19
		l-0.1,0.11c-0.11,0.11-0.17,0.26-0.17,0.41c0,0.13,0.05,0.27,0.15,0.37l1.2,1.16L135.28,47.11z"/>
	<polygon class="st4" points="119.39,45.73 115.19,43.26 115.12,43 116.11,41.32 116.37,41.26 120.57,43.74 120.63,43.99 
		119.65,45.67 119.53,45.76 119.49,45.76 	"/>
	<polygon class="st4" points="125.25,35.98 125.38,35.76 121.23,33.31 123.55,29.39 127.48,31.71 125.04,35.85 125.25,35.98 
		125.38,35.76 125.25,35.98 125.47,36.1 128.16,31.54 123.37,28.71 120.55,33.49 125.34,36.32 125.47,36.1 	"/>
	<path class="st4" d="M121.05,44.66l-5.73-3.38l-0.05-0.04l-0.04-0.07l0.02-0.14l4.72-8l0.12-0.09l0.06-0.01l0.09,0.03
		c1.91,1.13,3.82,2.25,5.73,3.38c0.09,0.05,0.12,0.17,0.07,0.26l-4.72,8C121.26,44.68,121.14,44.71,121.05,44.66z"/>
</g>
</svg>
