<?xml version="1.0" encoding="utf-8"?>
<!-- Generator: Adobe Illustrator 25.3.1, SVG Export Plug-In . SVG Version: 6.00 Build 0)  -->
<svg version="1.1" id="Layer_1" xmlns="http://www.w3.org/2000/svg" xmlns:xlink="http://www.w3.org/1999/xlink" x="0px" y="0px"
	 viewBox="0 0 188 180" style="enable-background:new 0 0 188 180;" xml:space="preserve">
<style type="text/css">
	.st0{fill:#FFFFFF;}
	.st1{fill:#E56C00;}
	.st2{fill:#656464;}
	.st3{fill:#EC6C00;}
	.st4{fill:#426FB9;}
	.st5{fill:#6D8BD6;}
	.st6{fill:none;stroke:#426FB9;stroke-width:1.4173;stroke-linecap:round;stroke-miterlimit:10;}
	.st7{fill:none;stroke:#426FB9;stroke-width:1.4173;stroke-linecap:round;stroke-miterlimit:10;stroke-dasharray:2.7831,2.7831;}
</style>
<g>
	<path class="st0" d="M119.81,216.01c-4.42,0-9.16,2.04-14.21,6.11c-2.08-4.07-5.62-6.11-10.59-6.11c-4.47,0-8.98,1.86-13.53,5.59
		l-1.15-5.59h-8.85v44.49h11.09v-29.66c3.09-3.84,5.12-5.76,8.28-5.76c3.67,0,5.5,2.52,5.5,7.54v27.88h11.09v-29.65
		c3.24-3.84,5.11-5.76,8.07-5.76c3.72,0,5.58,2.48,5.58,7.42v28.01h11.23v-27.59C132.33,221.65,128.16,216.01,119.81,216.01z
		 M171.21,216.01c-7.78,0-13.04,0.07-19.03,0.43c-5.82,0.35-11.89,5.99-12.96,12.74c-0.89,5.64-0.77,10.97-0.45,17.45
		c0.46,9.22,5.34,13.85,16.02,13.85c3.9,0,8.39-1.04,11.83-3.14l2.74,3.14h7.71v-38.77C177.08,219,173.96,216.01,171.21,216.01z
		 M165.99,248.13c-2.84,2.32-6.16,3.48-10.23,3.48c-4.02,0-5.55-1.73-6.03-5.08c-0.34-2.34-0.15-13.15,0.26-16.05
		c0.49-3.46,3.17-5.26,5.47-5.54c1.58-0.19,4.36-0.46,7.92-0.46c1.14,0,2.62-0.1,2.62,1.17v22.49H165.99z M207.31,236.76h-0.21
		l13.8-20.75h-11.31l-8.64,12.99l-8.86-12.99h-12.22l14.92,22.27l-14.78,22.23h11.31l9.64-14.5l14.83,23.93l12.92-0.04
		L207.31,236.76z"/>
	<path class="st1" d="M62.59,221.16c-0.51-3.35-2.82-5.72-5.4-6.01c-4.16-0.46-10.95-1.13-20.25-0.86
		c-6.69,0.19-12.57-0.09-16.51,0.86c-4.21,1.02-8.66,4.97-9.43,10.91c-0.68,5.21-1.08,10.58-1.08,18.07c0,7.49,0.23,22.96,1.33,28.1
		c0.77,3.61,4.1,5.13,6.69,5.42c4.16,0.46,11.27,0.86,18.65,0.86c7.39,0,11.3-0.39,15.45-0.9c5.92-0.74,9.78-4.5,10.81-10.95
		c0.83-5.19,0.84-15.05,0.84-22.54C63.69,236.63,63.38,226.36,62.59,221.16z M48.13,265.74c-0.46,1.83-2.48,4.51-4.65,4.51H27.71
		c-2.16,0-2.27-0.86-2.55-2.67c-0.28-1.8-0.39-13.66-0.39-20.88s0.07-17.07,0.48-19.63c0.41-2.56,2.34-4.51,4.5-4.51h16.11
		c1.54,0,2.13,0.66,2.35,2.73c0.22,2.07,0.39,12.82,0.39,21.11C48.61,254.69,48.59,263.9,48.13,265.74z"/>
	<rect x="-14.84" y="234.55" class="st1" width="15.31" height="43.09"/>
	<path class="st1" d="M31.88,280.51c-4.88,1.2-6.34,4.7-5.75,6.43c0.58,1.72,2.85,8.06,2.85,8.06s20.35-15.76,55.38-15.63
		l-0.03-0.98C57.76,275.76,40.69,278.34,31.88,280.51z"/>
	<path class="st0" d="M192.61,282.22c-24.32,1.42-57.6,1.42-96.63-2.69c-2.92-0.31-5.8-0.56-8.62-0.76v0.85
		c2.14,0.13,10.19,1.47,12.39,1.81c44.17,6.79,61.02,9.3,95.71,8.84c16.62-0.22,29.9-2.57,36.2-3.9c2.56-0.54,2.61-3.22,2.06-4.29
		c-0.54-1.07-3.44-6.31-3.44-6.31S216.68,280.81,192.61,282.22z"/>
	<path class="st1" d="M1.18,219.61c0,4.75-3.84,8.61-8.59,8.61c-4.74,0-8.59-3.85-8.59-8.61c0-4.75,3.84-8.61,8.59-8.61
		C-2.67,211,1.18,214.86,1.18,219.61z"/>
</g>
<g>
	<g>
		<path class="st2" d="M-189.53-2.5v-44.49h8.85l1.15,5.59c4.55-3.73,9.06-5.59,13.53-5.59c4.98,0,8.51,2.03,10.59,6.1
			c5.05-4.07,9.79-6.1,14.21-6.1c8.34,0,12.52,5.64,12.52,16.91V-2.5h-11.23v-28.01c0-4.94-1.86-7.42-5.58-7.42
			c-2.96,0-4.83,1.92-8.07,5.76V-2.5h-11.09v-27.88c0-5.03-1.84-7.54-5.51-7.54c-3.17,0-5.19,1.92-8.29,5.76V-2.5H-189.53z"/>
		<path class="st2" d="M-121.78-33.81c1.07-6.75,7.14-12.39,12.96-12.74c5.99-0.36,11.26-0.43,19.04-0.43
			c2.75,0,5.87,2.98,5.87,5.71V-2.5h-7.72l-2.74-3.13c-3.44,2.09-7.94,3.13-11.83,3.13c-10.68,0-15.57-4.63-16.02-13.86
			C-122.55-22.84-122.67-28.17-121.78-33.81z M-95.02-29.2v-8.18c0-1.27-1.48-1.18-2.62-1.18c-3.56,0-6.34,0.27-7.92,0.47
			c-2.29,0.28-4.98,2.08-5.47,5.55c-0.41,2.9-0.6,13.72-0.26,16.05c0.49,3.35,2.01,5.09,6.03,5.09c4.07,0,7.39-1.16,10.23-3.47
			v-5.85V-29.2z"/>
		<path class="st2" d="M-81.14-46.99h12.22l15.12,22.19l-11.68,1.18L-81.14-46.99z M-65.77-26.24h12.09L-32.3,6.9l-12.92,0.04
			L-65.77-26.24z M-69.69-2.5H-81l29.59-44.49h11.31L-69.69-2.5z"/>
	</g>
	<g>
		<g>
			<path class="st3" d="M-198.41-41.84c-0.51-3.35-2.82-5.72-5.41-6.01c-4.16-0.46-10.95-1.13-20.25-0.86
				c-6.69,0.19-12.57-0.09-16.52,0.86c-4.21,1.02-8.66,4.98-9.43,10.91c-0.68,5.21-1.08,10.58-1.08,18.07
				c0,7.49,0.23,22.96,1.33,28.1c0.77,3.61,4.11,5.13,6.69,5.42c4.16,0.46,11.27,0.86,18.66,0.86s11.3-0.39,15.45-0.91
				c5.92-0.74,9.78-4.5,10.81-10.94c0.83-5.19,0.84-15.05,0.84-22.54C-197.32-26.37-197.62-36.65-198.41-41.84z M-212.88,2.74
				c-0.46,1.84-2.48,4.51-4.65,4.51h-15.77c-2.16,0-2.27-0.86-2.55-2.67c-0.28-1.81-0.39-13.67-0.39-20.89
				c0-7.22,0.07-17.07,0.48-19.62c0.41-2.56,2.34-4.51,4.5-4.51h16.12c1.55,0,2.13,0.66,2.35,2.73c0.22,2.06,0.39,12.83,0.39,21.12
				C-212.4-8.31-212.41,0.9-212.88,2.74z"/>
		</g>
	</g>
	<rect x="-275.85" y="-28.46" class="st3" width="15.31" height="43.09"/>
	<path class="st3" d="M-229.13,17.51c-4.88,1.21-6.34,4.7-5.75,6.42c0.58,1.73,2.85,8.06,2.85,8.06s20.35-15.76,55.38-15.63
		l-0.02-0.99C-203.24,12.76-220.32,15.34-229.13,17.51z"/>
	<path class="st2" d="M-68.39,19.22c-24.33,1.42-57.6,1.42-96.64-2.68c-2.92-0.31-5.8-0.56-8.62-0.76v0.85
		c2.14,0.13,10.19,1.48,12.39,1.82c44.17,6.79,61.02,9.31,95.72,8.84c16.62-0.23,29.91-2.56,36.2-3.9c2.56-0.54,2.61-3.22,2.06-4.29
		c-0.54-1.07-3.44-6.31-3.44-6.31S-44.32,17.82-68.39,19.22z"/>
	<ellipse class="st3" cx="-268.41" cy="-43.39" rx="8.59" ry="8.61"/>
</g>
<g>
	<path class="st4" d="M34.86,35.62c-4.74,0-13.99-0.79-17.04-6.69c-1.4-2.56-4.92-14.33-5.31-15.66c-0.22-0.75,0.2-1.54,0.95-1.76
		c0.75-0.22,1.54,0.2,1.76,0.95c1.05,3.54,4.03,13.17,5.1,15.14c2.68,5.19,13.27,5.43,17.12,5.09c0.78-0.08,1.47,0.51,1.54,1.29
		c0.07,0.78-0.51,1.47-1.29,1.54C37.53,35.53,36.45,35.62,34.86,35.62z"/>
	<path class="st4" d="M34.33,32.76c-3.98,0-11.08-1.32-16.39-9.65c-0.19-0.3-0.41-0.56-0.65-0.76c-4.26-3.66-5.53-4.25-5.58-4.27
		c-0.74-0.26-1.09-1.06-0.83-1.79c0.26-0.74,1.1-1.11,1.84-0.85c0.34,0.12,1.82,0.82,6.42,4.77c0.45,0.39,0.86,0.86,1.2,1.39
		c6.65,10.44,16.24,8.16,16.34,8.13c0.76-0.19,1.53,0.27,1.72,1.03c0.19,0.76-0.27,1.53-1.03,1.72
		C37.34,32.48,36.16,32.76,34.33,32.76z"/>
	<path class="st4" d="M15.51,24.53c1.21,1.37,2.65-4.31,6.22-0.83c1.37,0.46,1.46-3.57,0.46-4.76c-0.95-1.12-8.68-4.12-9.53,0.72
		c-0.1,0.57-0.08,1.27,0.36,1.64C14.43,22.49,15.21,24.23,15.51,24.53z"/>
	<path class="st4" d="M154.69,36.16c-1.6,0-2.69-0.09-2.85-0.1c-0.78-0.07-1.36-0.76-1.29-1.54s0.76-1.36,1.54-1.29
		c3.86,0.34,14.45,0.08,17.11-5.06c1.09-2,4.06-11.62,5.12-15.17c0.22-0.75,1.02-1.18,1.76-0.95c0.75,0.22,1.18,1.01,0.95,1.76
		c-0.4,1.33-3.92,13.1-5.33,15.69C168.67,35.37,159.43,36.16,154.69,36.16z"/>
	<path class="st4" d="M155.3,33.34c-1.86,0-3.06-0.3-3.14-0.32c-0.76-0.19-1.22-0.96-1.03-1.72c0.19-0.76,0.95-1.22,1.72-1.03
		c0.4,0.1,9.74,2.24,16.34-8.13c0.34-0.54,0.74-1,1.2-1.39c4.6-3.95,6.08-4.65,6.42-4.77c0.74-0.26,1.55,0.13,1.81,0.87
		c0.26,0.74-0.13,1.55-0.87,1.81l0,0c0.01,0-1.26,0.59-5.52,4.25c-0.24,0.21-0.46,0.46-0.65,0.76c-4.02,6.32-9.06,8.53-12.57,9.28
		C157.62,33.24,156.35,33.34,155.3,33.34z"/>
	<path class="st4" d="M174.6,24.23c-0.26,0.43-0.86,0.54-1.25,0.21c-1.11-0.95-2.61-3.23-5.38-0.54c-1.4,0.47-1.49-3.63-0.47-4.84
		c1.01-1.19,9.52-4.46,9.77,1.41c0.01,0.17-0.04,0.35-0.13,0.49C176.41,22.15,175.6,22.56,174.6,24.23z"/>
	<path class="st5" d="M36.99,26.09c0,0-1.19,5.32,2.86,14.93c1.51,6.27,2.76,50.36-1.51,109.36c-1.4,13.07-2.67,17.34,1.08,17.18
		c4.16,0,115.85,0,115.85,0s3.92,0.08,3.15-5.57c0,0-8.19-102.05-7.77-116.31c1.06-10.65,2.77-15.97,0.85-19.59
		C149.59,22.48,37.15,23.77,36.99,26.09z"/>
	<g>
		<g>
			<path class="st6" d="M39.85,41.02c0,0,0.48-0.06,1.4-0.16"/>
			<path class="st7" d="M44.02,40.59c12.29-1.14,50.88-3.79,104.23,1.24"/>
			<path class="st6" d="M149.64,41.96c0.47,0.05,0.94,0.09,1.41,0.14"/>
		</g>
	</g>
</g>
</svg>
