<?xml version="1.0" encoding="utf-8"?>
<!-- Generator: Adobe Illustrator 25.3.1, SVG Export Plug-In . SVG Version: 6.00 Build 0)  -->
<svg version="1.1" id="Layer_1" xmlns="http://www.w3.org/2000/svg" xmlns:xlink="http://www.w3.org/1999/xlink" x="0px" y="0px"
	 viewBox="0 0 935 555" style="enable-background:new 0 0 935 555;" xml:space="preserve">
<style type="text/css">
	.st0{fill:#FFFFFF;}
	.st1{fill:#FBC12A;}
	.st2{fill:#194FB0;}
	.st3{fill:#B1C3E7;fill-opacity:0.75;}
	.st4{fill:#8DA7DA;}
	.st5{fill:#B1C3E7;}
	.st6{fill:#194FB0;fill-opacity:0.24;}
	.st7{fill:#EE7E5C;}
	.st8{fill:#184EB0;}
	.st9{fill:#F3390E;}
	.st10{fill:#E9B73F;}
	.st11{fill:#EFC76D;}
	.st12{fill:#5A80CD;}
	.st13{fill:#F2370C;}
	.st14{fill:#F2370B;}
	.st15{font-family:'HiraMaruProN-W4-83pv-RKSJ-H';}
	.st16{font-size:51.0801px;}
	.st17{fill:#88C9D3;}
	.st18{fill:none;stroke:#5980CD;stroke-width:2.44;stroke-linecap:round;stroke-linejoin:round;stroke-miterlimit:2.2866;}
	.st19{fill:#EC4427;}
	.st20{fill:#5980CD;}
	.st21{fill:#FFD173;}
	.st22{fill:#FCE5D4;}
	.st23{fill:#1950B0;}
	.st24{fill:#003595;}
	.st25{fill:#3565BD;}
	.st26{fill:#557ACB;}
	.st27{fill:#B0C2E7;}
	.st28{fill-opacity:0.98;}
</style>
<g transform="matrix(1,0,0,1,93.1855,-96.6621)">
	<g id="PLANT" transform="matrix(1,0,0,1,94.6774,115.527)">
		<g transform="matrix(1,0,0,1,-94.6774,-115.527)">
			<path class="st0" d="M693.9,419.2c0,0-34.85,9.52-18.88,48.06c0,0-26.98,18.41-22.89,49.16l5.27,28.24l90.77-2.36
				c0,0,30.21-49.87-18.01-73.62c0,0,19.43-27.37,9.44-40.51C739.68,428.17,715.53,412.36,693.9,419.2z"/>
		</g>
		<path class="st1" d="M646.63,324.46c0.55-8.81-4.48-13.37-11.41-15.57c-4.88-1.57-12.03-2.05-17.38-2.05
			c-0.71,0-1.26-0.55-1.26-1.26c0-0.71,0.55-1.26,1.26-1.26c5.66-0.08,13.14,0.47,18.25,2.12c8.02,2.6,13.84,8.02,13.14,18.25v0.08
			c0,0-1.73,11.01-12.59,28.55c4.48,1.73,18.01,8.1,24.62,22.58c5.27,11.56,6.21,28.47-5.82,52.54c-0.24,0.39-0.63,0.71-1.1,0.71
			h-92.58c-0.55,0-1.02-0.31-1.18-0.87c0,0-6.69-20.37-3.78-40.82c1.89-13.53,7.94-26.98,22.65-34.85l-3.07-9.2c0,0,0,0,0-0.08
			c0,0-8.97-30.68,21.24-38.54c0.63-0.16,1.34,0.24,1.49,0.87c0.16,0.63-0.24,1.34-0.87,1.49c-27.37,7.16-19.74,34.61-19.51,35.4
			l3.46,10.23c0.24,0.55-0.08,1.26-0.63,1.49c-14.55,7.32-20.45,20.37-22.26,33.43c-2.44,17.38,2.28,34.85,3.46,38.78h90.85
			c11.09-22.73,10.46-38.7,5.43-49.71c-7.55-16.52-24.62-21.79-24.62-21.79c-0.39-0.08-0.63-0.39-0.79-0.79
			c-0.16-0.39-0.08-0.79,0.08-1.1C644.35,336.26,646.47,325.33,646.63,324.46z"/>
		<g transform="matrix(0.985904,-0.167309,0.210306,1.23927,-225.355,38.242)">
			
				<ellipse transform="matrix(-1 9.607716e-06 -9.607716e-06 -1 1557.959 666.2559)" class="st2" cx="778.98" cy="333.13" rx="19.66" ry="6.53"/>
		</g>
		<g>
			<g transform="matrix(1,0,0,1,-4.13813,13.2255)">
				<path class="st3" d="M617.7,303.71c-2.67,1.02-7.47-8.65-8.73-10.62c-7.87-12.74-15.81-26.04-16.28-41.53
					c-0.63-20.06,15.89-29.34,19.59-47.04c3.62-16.99-11.64-31.78-9.28-50.74c2.12-17.07,19.43-25.09,21.63-42.24
					c1.57-12.35,2.36-24.7,11.17-34.53c1.73-1.97,6.53-7,9.68-7c1.1,0,6.29,10.3,6.76,11.33c5.82,12.82,8.1,26.43,4.4,40.19
					c-3.15,11.64-10.23,22.58-10.3,34.92c-0.16,13.37,7.08,25.33,4.8,39.01c-2.36,14-15.81,21.4-19.66,34.53
					c-3.46,11.8,3.22,24.78,2.67,36.89c-0.39,9.28-3.85,18.01-7.08,26.67c-4.48,11.88-4.01,18.01-17.15,12.98"/>
			</g>
			<path class="st4" d="M590.78,251.63l5.98-11.25c0,0,15.18,10.85,14.55,25.64c0,0,16.52-54.51,35.16-55.3l-26.9,108.31
				l-11.17,1.65L590.78,251.63z"/>
			<path class="st2" d="M640.1,83.45c0,0-0.31,20.84-0.08,29.81c0.16,6.37-2.28,12.19-3.93,18.33c-1.81,6.92-5.35,13.06-8.5,19.35
				c-3.22,6.53-6.06,13.21-6.06,20.92c0,6.61,1.81,12.9,3.54,19.19c1.65,6.06,3.15,12.19,2.6,18.56
				c-0.63,7.63-4.25,14.16-7.94,20.69c-3.93,6.76-7.94,13.45-9.52,21.16c-2.05,10.38,1.18,21.08,1.57,31.46
				c0.39,11.09-1.81,21.79-4.17,32.49c-0.16,0.71,0.24,1.34,0.94,1.49c0.71,0.16,1.34-0.24,1.49-0.94
				c2.44-10.93,4.64-21.87,4.25-33.12c-0.39-10.23-3.62-20.69-1.65-30.91c1.49-7.47,5.51-13.92,9.2-20.37
				c3.93-6.76,7.63-13.69,8.26-21.71c0.55-6.69-0.94-13.06-2.67-19.43c-1.65-6.14-3.46-12.19-3.46-18.56
				c0-7.32,2.67-13.69,5.74-19.82c3.22-6.45,6.84-12.74,8.73-19.82c1.65-6.37,4.17-12.43,4.01-19.04c-0.16-8.1,0.16-28.4,0.16-28.4
				c-0.39-0.55-0.71-1.02-1.02-1.34c-0.16-0.16-0.39-0.24-0.63-0.16c-0.16,0-0.39,0.08-0.39,0.08L640.1,83.45z"/>
		</g>
		<g>
			<path class="st5" d="M626.97,320.69h-16.6c-0.79-0.08-0.79-12.11-0.87-12.82c-1.42-10.07-2.2-22.02,4.17-30.68
				c2.99-4.01,7.24-7.24,9.12-11.96c4.09-10.38,2.52-22.02,7-32.49c3.93-9.2,12.43-13.53,17.78-21.47
				c6.53-9.68,9.05-21.95,14.55-32.25c6.92-12.74,25.33-34.45,41.93-34.45c1.65,0-0.24,9.91-0.31,11.41
				c-0.16,11.96,1.73,23.99-3.46,35.32c-6.21,13.61-19.98,21.95-26.35,35.4c-5.98,12.59-2.75,29.58-11.33,40.75
				c-6.92,8.97-19.59,10.54-27.14,18.88C626.26,296.85,628.46,313.14,626.97,320.69z"/>
			<path class="st2" d="M702.4,144.73c0.87-0.08,1.81-0.16,1.89,0c0.31,0.31,0.39,0.79,0.47,1.26c0,0-0.08,0.08-0.16,0.08
				c-2.6,1.89-10.38,10.15-14.08,17.62c-3.15,6.29-4.8,13.06-6.69,19.66c-1.97,6.84-4.17,13.53-8.34,19.51
				c-6.76,9.75-16.68,16.83-22.34,27.37c-2.67,4.96-4.17,10.46-5.74,15.81c-1.65,5.58-3.46,11.09-6.76,16.05
				c-8.81,13.29-23.83,19.27-23.28,58.52c0,0.71-0.55,1.26-1.26,1.26s-1.26-0.55-1.26-1.26c-0.55-40.19,14.71-46.33,23.68-59.94
				c3.15-4.72,4.8-9.99,6.45-15.34c1.65-5.51,3.23-11.09,5.98-16.28c5.66-10.7,15.65-17.86,22.5-27.69
				c4.01-5.74,6.14-12.19,8.02-18.8c1.97-6.76,3.62-13.69,6.84-20.06c3.54-7.16,10.54-14.87,13.84-17.78
				C702.32,144.81,702.32,144.73,702.4,144.73z"/>
		</g>
		<path class="st6" d="M619.57,320.69h4.48c0,0,0.24-27.14-15.18-30.44l-0.31,4.4C608.56,294.65,619.42,304.96,619.57,320.69z"/>
		<g transform="matrix(1,0,0,1,2.27374e-13,12.4701)">
			<g transform="matrix(0.99546,0.0951787,-0.0951787,0.99546,99.3506,-181.716)">
				<path class="st5" d="M548.09,443.29c-3.46-2.36-7.87-6.14-9.91-9.75c-4.17-7.16-3.7-16.75-9.83-22.65
					c-7.87-7.71-20.37-8.18-27.37-17.3c-7.47-9.68-0.94-19.51-10.62-30.36c-8.57-9.68-14.79-19.35-13.14-32.72
					c0.31-2.52,0.87-9.12,3.15-10.85c0.47-0.31,7.08,3.15,7.63,3.3c8.57,3.78,16.83,8.73,22.42,16.44
					c5.66,7.79,5.11,17.15,9.6,25.25c4.17,7.55,14.32,7.79,19.11,14.95c5.35,7.94,2.52,16.6,5.27,25.01
					c2.05,6.14,8.81,9.75,12.51,14.87c3.54,4.8,5.82,10.62,7.08,16.44c0.16,0.79,1.18,4.72,0.47,5.43"/>
			</g>
			<path class="st2" d="M547.36,182.1c-0.39,0-0.94,0.55-1.49,1.34c0,0,0.08,0.24,0.16,0.31c10.38,12.27,12.98,21.16,17.46,31.31
				c2.28,5.03,3.3,10.38,4.4,15.73c1.18,5.58,2.36,11.17,4.8,16.36c2.36,5.11,6.45,7.32,10.54,9.91c3.62,2.36,7.16,5.11,8.73,11.25
				c3.85,14.71,7.08,18.72,9.2,27.06c1.57,5.9,4.25,8.02,6.76,10.23c2.2,1.89,4.17,3.85,4.72,9.28c0.08,0.71,0.71,1.18,1.34,1.1
				c0.71-0.08,1.18-0.71,1.1-1.34c-0.63-6.37-2.99-8.65-5.58-10.93c-2.2-1.97-4.64-3.78-6.06-8.97c-2.2-8.42-5.35-12.35-9.2-27.06
				c-1.81-6.92-5.74-10.07-9.83-12.74c-3.62-2.36-7.47-4.33-9.6-8.89c-2.36-5.11-3.46-10.46-4.56-15.89
				c-1.18-5.58-2.28-11.09-4.56-16.28c-4.56-10.15-7.24-19.11-17.46-31.38C548.15,182.34,547.36,182.1,547.36,182.1z"/>
		</g>
		<g transform="matrix(1,0,0,1,-94.6774,-115.527)">
			<path class="st1" d="M676.28,543.88c0.47-1.97,1.42-3.62,2.52-4.88c2.2-2.6,5.43-3.93,8.5-4.64c1.97-0.39,3.93-0.55,5.35-0.55
				c1.42-6.45,4.17-10.3,7.39-12.66c3.46-2.52,7.55-3.23,11.17-3.15c5.11,0.16,9.36,1.97,9.36,1.97c1.49,0.63,2.12,2.36,1.49,3.85
				c-0.63,1.49-2.36,2.12-3.85,1.49c0,0-3.22-1.42-7.24-1.49c-2.44-0.08-5.19,0.31-7.55,2.05c-2.67,1.89-4.72,5.43-5.51,11.33
				c-0.24,1.57-1.65,2.67-3.22,2.52c0,0-2.99-0.31-6.21,0.31c-1.89,0.39-3.93,1.18-5.27,2.75c-0.31,0.31-0.55,0.71-0.71,1.1
				L676.28,543.88z M751.32,539.95c-2.6-2.12-5.9-2.99-8.89-3.3c-5.03-0.47-9.44,0.63-9.44,0.63l0,0c-1.57,0.39-3.15-0.55-3.54-2.12
				c-0.39-1.57,0.55-3.15,2.12-3.54c0,0,5.27-1.34,11.41-0.79c3.62,0.31,7.47,1.42,10.78,3.62
				C752.89,536.72,752.02,538.53,751.32,539.95z M652.21,505.81c3.85-2.28,8.73-4.09,14.24-3.62c5.66,0.47,12.11,3.38,18.64,10.85
				c1.02,1.18,0.94,3.07-0.31,4.09c-1.18,1.02-3.07,0.94-4.09-0.31c-5.19-5.98-10.23-8.5-14.79-8.89
				c-6.06-0.55-11.17,2.6-14.39,5.27C651.66,510.61,651.89,508.09,652.21,505.81z M749.82,483.94c1.26,1.57,2.36,3.15,3.3,4.8
				c-0.24,0.24-0.47,0.39-0.71,0.63c-3.07,3.15-5.43,9.28-4.01,21.32c0.16,1.57-0.94,3.07-2.52,3.23s-3.07-0.94-3.23-2.52
				c-1.73-14.79,1.89-22.26,5.58-26.04C748.8,484.81,749.35,484.33,749.82,483.94z M674.62,488.27c-0.08,0.63-0.31,1.26-0.87,1.81
				c-1.1,1.1-2.99,1.1-4.09,0c-0.63-0.63-0.94-1.42-0.94-2.44c0-0.87,0.79-2.67,2.67-4.33c3.7-3.23,12.11-7.39,19.98-4.56
				c4.48,1.57,8.97,5.43,12.11,13.37c1.42-0.63,3.22-1.34,5.19-1.73c3.46-0.63,7.24-0.31,10.23,2.44c1.73,1.57,3.3,4.01,4.17,7.71
				c0.39,1.57-0.55,3.15-2.12,3.54c-1.57,0.39-3.15-0.55-3.54-2.12c-0.55-2.28-1.34-3.78-2.44-4.72c-1.49-1.34-3.46-1.34-5.27-1.02
				c-3.38,0.63-6.21,2.6-6.21,2.6c-0.79,0.55-1.73,0.63-2.6,0.31c-0.87-0.31-1.57-1.02-1.81-1.89c-2.05-6.84-5.03-10.62-8.34-12.43
				c-4.72-2.52-9.99-0.63-13.37,1.42C676.28,486.77,675.17,487.79,674.62,488.27z M741.33,446.26c-2.83-0.31-6.61-0.08-9.83,2.05
				c-2.67,1.81-4.88,4.96-6.06,10.07c-0.31,1.34-1.49,2.28-2.91,2.28c0,0-4.72-0.24-6.84,3.15c-0.94,1.49-1.34,3.7-0.79,6.76
				c0.31,1.57-0.79,3.07-2.36,3.38c-1.57,0.31-3.07-0.79-3.38-2.36c-0.87-5.03,0.08-8.57,1.65-11.01c2.52-3.85,6.84-5.11,9.52-5.51
				c1.73-5.82,4.64-9.44,7.94-11.64c4.56-3.07,9.83-3.3,13.84-2.91C741.96,442.49,741.72,444.37,741.33,446.26z M672.42,443.59
				c0,0,6.37,2.2,9.68,6.29c2.52,3.15,4.4,7.79,3.23,14.47c-0.31,1.57,0.79,3.07,2.36,3.38c1.57,0.31,3.07-0.79,3.38-2.36
				c3.7-20.45-16.44-27.69-16.44-27.69c-1.49-0.55-1.89,1.18-2.44,2.67C671.63,441.94,670.93,443.12,672.42,443.59z"/>
		</g>
	</g>
	<g id="BUFFET" transform="matrix(1,0,0,1,94.6774,115.527)">
		<g transform="matrix(1.01534,0,0,0.958299,-18.9413,65.2451)">
			<rect x="316.25" y="201.02" class="st7" width="277.27" height="184.85"/>
		</g>
		<g>
			<g transform="matrix(1,0,0,1,-0.15956,13.0373)">
				<rect x="317.71" y="257.81" class="st8" width="250.77" height="48.22"/>
			</g>
			<g transform="matrix(1,0,0,1.80008,-0.15956,-695.269)">
				<path class="st8" d="M318.89,618.92h132.93c0.71,0,1.26,0.31,1.26,0.71s-0.55,0.71-1.26,0.71H317.71
					c-0.71,0-1.26-0.31-1.26-0.71v-48.22c0-0.39,0.55-0.71,1.26-0.71h128.45c0.71,0,1.26,0.31,1.26,0.71s-0.55,0.71-1.26,0.71
					H318.89V618.92z"/>
			</g>
			<g transform="matrix(1,0,0,1.80008,-0.15956,-695.269)">
				<path class="st8" d="M567.22,572.12H446.16c-0.71,0-1.26-0.31-1.26-0.71s0.55-0.71,1.26-0.71h122.31c0.71,0,1.26,0.31,1.26,0.71
					v48.22c0,0.39-0.55,0.71-1.26,0.71H451.83c-0.71,0-1.26-0.31-1.26-0.71s0.55-0.71,1.26-0.71h115.39V572.12z"/>
			</g>
			<path class="st8" d="M441.65,333.27v86.76c0,0.71,0.55,1.26,1.26,1.26c0.71,0,1.26-0.55,1.26-1.26v-86.76
				c0-0.71-0.55-1.26-1.26-1.26C442.2,332.02,441.65,332.57,441.65,333.27z"/>
			<g transform="matrix(1.21123,0,0,1.21123,-346.323,-293.268)">
				<circle class="st8" cx="662.19" cy="553.13" r="3.38"/>
			</g>
			<g transform="matrix(1.21123,0,0,1.21123,-408.332,-293.268)">
				<circle class="st8" cx="692.15" cy="553.13" r="3.38"/>
			</g>
		</g>
	</g>
	<g id="TV" transform="matrix(1,0,0,1,87.2563,115.527)">
		<g>
			<g transform="matrix(1,0,0,1,-87.2563,-115.527)">
				<path class="st8" d="M532.57,347.55H358.73c-5.74,0-10.38-4.64-10.38-10.38V142.8c0-5.74,4.64-10.38,10.38-10.38H716
					c5.74,0,10.38,4.64,10.38,10.38v194.37c0,5.74-4.64,10.38-10.38,10.38H553.88v13.53h35.63c2.05,0,3.93,0.79,5.35,2.2
					c1.42,1.42,2.2,3.38,2.2,5.35v4.72H489.3v-4.72c0-2.05,0.79-3.93,2.2-5.35c1.42-1.42,3.38-2.2,5.35-2.2h35.63L532.57,347.55
					L532.57,347.55z"/>
			</g>
			<g transform="matrix(1.00085,0,0,0.849866,10.641,110.906)">
				<path class="st0" d="M617.59-87.8c0-5.82-4.01-10.62-8.97-10.62H269.6c-4.96,0-8.97,4.72-8.97,10.62v197.75
					c0,5.82,4.01,10.62,8.97,10.62h339.02c4.96,0,8.97-4.72,8.97-10.62V-87.8z"/>
			</g>
		</g>
		<g>
			<g transform="matrix(0.774916,0.0753794,-0.08023,0.824781,477.414,-23.1485)">
				<path class="st9" d="M103.32,133.95l8.42-13.53c0.24-0.31,0.63-0.55,1.02-0.47c0.39,0.08,0.79,0.31,0.87,0.71l5.03,15.89
					l13.21-9.83c0.39-0.24,0.87-0.31,1.26-0.08c0.39,0.24,0.55,0.63,0.47,1.1l-4.17,15.89c-0.16,0.55-0.71,0.87-1.26,0.71
					c-0.55-0.16-0.94-0.71-0.79-1.18l3.38-13.06l-11.96,8.97c-0.24,0.24-0.63,0.24-0.94,0.16c-0.31-0.08-0.63-0.31-0.71-0.71
					l-4.8-15.1l-7.87,12.66c-0.16,0.24-0.47,0.47-0.79,0.47c-0.31,0.08-0.63-0.08-0.87-0.31l-10.78-10.23l1.42,13.53
					c0.08,0.55-0.39,1.02-0.94,1.1c-0.55,0.08-1.1-0.31-1.18-0.87l-1.73-16.36c-0.08-0.39,0.24-0.79,0.63-1.02
					c0.39-0.16,0.87-0.08,1.18,0.24L103.32,133.95z"/>
			</g>
			<g transform="matrix(0.996116,-0.0880559,0.0880559,0.996116,-72.9819,122.435)">
				<path class="st10" d="M428.69,46.94l5.66-12.98c0.16-0.31,0.47-0.55,0.87-0.47c0.39,0.08,0.63,0.31,0.71,0.71l1.97,12.27
					l6.69-6.21c0.24-0.24,0.63-0.31,0.94-0.16c0.31,0.16,0.47,0.47,0.47,0.79l-1.02,10.85c-0.08,0.47-0.47,0.79-0.87,0.79
					c-0.47-0.08-0.79-0.47-0.71-0.94l0.79-8.65l-6.29,5.74c-0.24,0.24-0.55,0.24-0.87,0.16c-0.31-0.08-0.47-0.31-0.55-0.63
					l-1.73-11.01l-5.35,12.43c-0.16,0.31-0.47,0.55-0.79,0.47c-0.31,0-0.63-0.24-0.71-0.55l-3.85-11.96l-2.6,15.02
					c-0.08,0.31-0.24,0.55-0.47,0.63c-0.24,0.08-0.55,0.08-0.79-0.08l-10.46-7.79l4.64,16.6c0.16,0.47-0.16,0.87-0.55,1.02
					c-0.47,0.16-0.87-0.16-1.02-0.55l-5.27-18.96c-0.08-0.31,0-0.71,0.31-0.94c0.31-0.24,0.71-0.16,0.94,0l11.33,8.5l2.75-17.07
					c0.08-0.39,0.39-0.63,0.79-0.71c0.39,0,0.71,0.24,0.87,0.55L428.69,46.94z"/>
			</g>
			<path class="st11" d="M514.34,61.82l-7.79-9.83h7.79v-9.28l10.93,9.28l6.92-5.11v11.25l6.53,7.24h-10.3l-3.15,10.62l-5.98-10.62
				l-12.74,5.82L514.34,61.82z"/>
			<g transform="matrix(1,0,0,1,-87.2563,-115.527)">
				<path class="st9" d="M372.97,257.56l3.54-2.67l-5.82-9.12l-4.09,3.93L372.97,257.56z M375.4,241.04l3.93,8.42l4.09-1.18
					l-3.15-10.93L375.4,241.04z M389.09,238.6l1.02,8.73l3.23,0.79l1.1-9.83L389.09,238.6z"/>
			</g>
			<g transform="matrix(1,0,0,1,-87.2563,-115.527)">
				<path class="st9" d="M697.67,226.41l-3.54-2.67l5.82-9.12l4.09,3.93L697.67,226.41z M695.31,209.89l-3.93,8.42l-4.09-1.18
					l3.15-10.93L695.31,209.89z M681.55,207.45l-1.02,8.73l-3.3,0.79l-1.1-9.83L681.55,207.45z"/>
			</g>
		</g>
		<g transform="matrix(1,0,0,0.967877,0,20.2095)">
			<path class="st5" d="M271.6,135.24l21.24,4.4v-14.79h37.84v13.69h50.03V83.8h60.49v40.98l30.13-25.72V81.05
				c0-10.07,7.87-18.17,17.62-18.17l0,0c9.75,0,17.62,8.1,17.62,18.17v2.75h49.16v15.34h13.21v-7.63h27.45v33.35h32.72v65.37
				c0,5.35-4.17,9.68-9.36,9.68c-50.34,0-288.44,0-338.71,0c-5.19,0-9.36-4.33-9.36-9.68C271.6,172.21,271.6,135.24,271.6,135.24z"
				/>
		</g>
		<g transform="matrix(0.998621,0,0,0.9275,1.63686,51.9617)">
			<path class="st0" d="M285.35,174.72v-20.61l19.82-27.29h48.06v-26.59h56.79l5.9-29.58h79.21l10.78,51.6l7.08-42.87h52.54
				l7.79,37.13l54.75-0.31c0,0,0.47,31.94,0.71,48.69c0,2.6-0.87,5.11-2.6,7c-1.73,1.89-4.01,2.91-6.45,2.91H285.35V174.72z"/>
		</g>
		<g transform="matrix(1,0,0,1,-87.2563,-115.527)">
			<path class="st5" d="M607.21,325.91h-11.56v2.83h11.56V325.91z M485.29,323.4h-11.56v2.83h11.56V323.4z M462.72,323.4h-11.56
				v2.83h11.56V323.4z M687.13,316.55h-11.56v2.83h11.56V316.55z M585.58,296.97h7.87v2.83h-7.87V296.97z M502.12,296.97h-6.53v2.75
				h6.53V296.97z M505.51,291.3h-9.83v2.75h9.83V291.3z M582.2,290.83h11.56v2.83H582.2V290.83z M638.2,290.36h-11.56v2.83h11.56
				V290.36z M651.42,285.72h-11.56v2.83h11.56V285.72z"/>
		</g>
		<path class="st8" d="M287.48,194.83v18.41c0,0.47-0.39,0.87-0.87,0.87s-0.87-0.39-0.87-0.87v-18.72c0-0.16,0.08-0.39,0.16-0.55
			l19.9-25.41c0.16-0.24,0.39-0.31,0.63-0.31h47.9c0.47,0,0.87,0.39,0.87,0.87v45.94c0,0.47-0.39,0.87-0.87,0.87
			c-0.47,0-0.87-0.39-0.87-0.87v-45.07h-46.64L287.48,194.83z"/>
		<g transform="matrix(1,0,0,1.07539,0,-62.4319)">
			<path class="st8" d="M507.42,211.87v46.25c0,0.39-0.39,0.79-0.87,0.79c-0.47,0-0.87-0.31-0.87-0.79v-46.25c0-0.08,0-0.08,0-0.16
				l6.76-36.5c0.08-0.39,0.39-0.63,0.79-0.63h52.94c0.39,0,0.71,0.24,0.79,0.55l10.07,36.5c0.08,0.39-0.16,0.87-0.63,0.94
				c-0.47,0.08-0.87-0.16-1.02-0.55l-9.91-35.95h-51.6L507.42,211.87z"/>
		</g>
		<path class="st8" d="M575.53,169.19v45.94c0,0.71,0.55,1.26,1.26,1.26s1.26-0.55,1.26-1.26v-45.94c0-0.71-0.55-1.26-1.26-1.26
			C576.09,167.93,575.53,168.48,575.53,169.19z"/>
		<path class="st8" d="M629.18,157.23l-54.59,0.55l0.94,7.08v33.04l54.35-0.08L629.18,157.23z"/>
		<g transform="matrix(1,0,0,0.376347,0.0168286,520.17)">
			<rect x="507.1" y="-942.32" class="st8" width="68.43" height="4.25"/>
		</g>
		<g>
			<path class="st12" d="M534.79,202.86v3.85h-14.87v-3.85H534.79z M534.79,200.73h-14.87v-17.23h14.87V200.73z"/>
			<path class="st12" d="M563.74,202.86v3.85h-14.87v-3.85H563.74z M563.74,200.73h-14.87v-17.23h14.87V200.73z"/>
		</g>
		<g transform="matrix(0.936548,0,0,1,100.546,-8.31103)">
			<g transform="matrix(1,0,0,1,-3.29444,-3.90934)">
				<path class="st5" d="M352.21,219.47h21.95c0.47,0,0.87,0.39,0.87,0.87c0,0.47-0.39,0.87-0.87,0.87h-22.81
					c-0.47,0-0.87-0.39-0.87-0.87v-20.92c0-3.15,1.34-6.14,3.7-8.34c2.36-2.2,5.58-3.46,8.89-3.46l0,0v1.65l0,0
					c-2.83,0-5.58,1.1-7.63,2.99c-2.05,1.89-3.15,4.48-3.15,7.16v20.06H352.21z"/>
			</g>
			<g transform="matrix(1,0,0,1,-3.29444,-3.90934)">
				<path class="st5" d="M375.1,220.33v-21.47c0-2.99-1.26-5.82-3.54-7.94c-2.28-2.12-5.35-3.3-8.5-3.3l0,0v1.65l0,0
					c2.75,0,5.35,1.02,7.24,2.83c1.89,1.81,2.99,4.25,2.99,6.76v21.47c0,0.47,0.39,0.87,0.87,0.87
					C374.7,221.12,375.1,220.8,375.1,220.33z"/>
			</g>
			<g transform="matrix(1,0,0,0.969589,0.723526,26.9204)">
				<path class="st5" d="M357.88,162.59v32.8c0,0.47,0.39,0.87,0.87,0.87c0.47,0,0.87-0.39,0.87-0.87v-32.8
					c0-0.47-0.39-0.87-0.87-0.87C358.27,161.72,357.88,162.11,357.88,162.59z"/>
			</g>
			<g transform="matrix(0.000756354,1,-0.695262,0.000525865,2176.4,-653.025)">
				<path class="st5" d="M846.93,2597.82v32.8c0,0.71,0.39,1.26,0.87,1.26c0.47,0,0.87-0.55,0.87-1.26v-32.8
					c0-0.71-0.39-1.26-0.87-1.26C847.33,2596.49,846.93,2597.12,846.93,2597.82z"/>
			</g>
			<g transform="matrix(-6.93889e-18,0.695263,-0.695262,-0.00039074,2177.57,-152.7)">
				<path class="st5" d="M518.67,2598.53v32.8c0,0.71,0.55,1.26,1.18,1.26c0.63,0,1.18-0.55,1.18-1.26v-32.8
					c0-0.71-0.55-1.26-1.18-1.26C519.22,2597.27,518.67,2597.82,518.67,2598.53z"/>
			</g>
		</g>
		<g transform="matrix(0.936548,0,0,1,198.191,-8.31103)">
			<g transform="matrix(1,0,0,1,-3.29444,-3.90934)">
				<path class="st10" d="M291.26,219.47h10.54c0.47,0,0.87,0.39,0.87,0.87c0,0.47-0.39,0.87-0.87,0.87h-11.41
					c-0.47,0-0.87-0.39-0.87-0.87v-21.16c0-3.07,1.26-5.98,3.62-8.18c2.28-2.12,5.43-3.38,8.73-3.38l0,0c0.47,0,0.87,0.39,0.87,0.87
					c0,0.47-0.39,0.87-0.87,0.87l0,0c-2.75,0-5.51,1.02-7.47,2.91c-1.97,1.89-3.07,4.33-3.07,7L291.26,219.47L291.26,219.47z"/>
			</g>
			<g transform="matrix(1,0,0,1,-3.29444,-3.90934)">
				<path class="st10" d="M312.26,219.47v-20.37c0-5.43-4.72-9.83-10.54-9.83c-0.47,0-0.87-0.39-0.87-0.87
					c0-0.47,0.39-0.87,0.87-0.87c6.76,0,12.27,5.19,12.27,11.48v21.16c0,0.47-0.39,0.87-0.87,0.87h-11.41
					c-0.47,0-0.87-0.39-0.87-0.87s0.39-0.87,0.87-0.87h10.54V219.47z"/>
			</g>
			<g transform="matrix(1,0,0,0.969589,0.723526,26.9204)">
				<path class="st10" d="M296.85,162.59v32.8c0,0.47,0.39,0.87,0.87,0.87c0.47,0,0.87-0.39,0.87-0.87v-32.8
					c0-0.47-0.39-0.87-0.87-0.87C297.24,161.72,296.85,162.11,296.85,162.59z"/>
			</g>
			<g transform="matrix(0.000756354,1,-0.695262,0.000525865,2176.4,-653.025)">
				<path class="st10" d="M846.92,2685.52v32.8c0,0.71,0.39,1.26,0.87,1.26s0.87-0.55,0.87-1.26v-32.8c0-0.71-0.39-1.26-0.87-1.26
					C847.23,2684.26,846.92,2684.81,846.92,2685.52z"/>
			</g>
			<g transform="matrix(-6.93889e-18,0.695263,-0.695262,-0.00039074,2177.57,-152.7)">
				<path class="st10" d="M518.77,2686.3v32.8c0,0.71,0.55,1.26,1.18,1.26s1.18-0.55,1.18-1.26v-32.8c0-0.71-0.55-1.26-1.18-1.26
					S518.77,2685.6,518.77,2686.3z"/>
			</g>
		</g>
		<g transform="matrix(0.698108,0,0,1,421.497,1.68706)">
			<path class="st10" d="M-77.82,202.5h8.1c0.63,0,1.18,0.39,1.18,0.87c0,0.47-0.55,0.87-1.18,0.87H-79c-0.63,0-1.18-0.39-1.18-0.87
				V182.6c0-0.47,0.55-0.87,1.18-0.87h9.28c0.63,0,1.18,0.39,1.18,0.87s-0.55,0.87-1.18,0.87h-8.1V202.5z"/>
		</g>
		<g transform="matrix(0.698108,0,0,1,421.497,1.68706)">
			<path class="st10" d="M-68.54,203.28v-20.77c0-0.47-0.55-0.87-1.18-0.87c-0.63,0-1.18,0.39-1.18,0.87v20.77
				c0,0.47,0.55,0.87,1.18,0.87C-69.09,204.15-68.54,203.76-68.54,203.28z"/>
		</g>
		<g transform="matrix(0.698108,0,0,1,475.977,1.68706)">
			<path class="st5" d="M-123.5,183.38v19.98c0,0.47-0.55,0.87-1.18,0.87s-1.18-0.39-1.18-0.87V182.6c0-0.47,0.55-0.87,1.18-0.87
				h9.28c0.63,0,1.18,0.39,1.18,0.87c0,0.47-0.55,0.87-1.18,0.87h-8.1V183.38z"/>
		</g>
		<g transform="matrix(0.698108,0,0,1,475.977,1.68706)">
			<path class="st5" d="M-116.58,202.5v-19.98c0-0.47,0.55-0.87,1.18-0.87c0.63,0,1.18,0.39,1.18,0.87v20.77
				c0,0.47-0.55,0.87-1.18,0.87h-9.28c-0.63,0-1.18-0.39-1.18-0.87c0-0.47,0.55-0.87,1.18-0.87h8.1V202.5z"/>
		</g>
		<path class="st10" d="M587.96,213.95v-7.24c0-0.47,0.39-0.87,0.87-0.87h9.28c0.47,0,0.87,0.39,0.87,0.87v7.24h-1.65v-6.37h-7.63
			v6.37H587.96z"/>
		<path class="st8" d="M608.96,214.34v-7.63c0-0.47,0.39-0.87,0.87-0.87h9.28c0.47,0,0.87,0.39,0.87,0.87v7.63h-1.65v-6.84h-7.63
			v6.84H608.96z"/>
		<g transform="matrix(1,0,0,1,-87.2563,-115.527)">
			<path class="st8" d="M394.68,317.97h-9.28v11.48h9.28V317.97z M414.5,317.97h-9.28v11.48h9.28V317.97z M434.24,317.97h-9.28
				v11.48h9.28V317.97z"/>
		</g>
		<g transform="matrix(1,0,0,1,-87.2563,-115.527)">
			<path class="st8" d="M612.25,241.91l-2.28,39.64c0,0.47,0.31,0.87,0.79,0.87s0.87-0.31,0.87-0.79l2.28-39.64
				c0-0.47-0.31-0.87-0.79-0.87C612.64,241.12,612.33,241.43,612.25,241.91z M623.1,241.75v39.72c0,0.47,0.39,0.87,0.87,0.87
				c0.47,0,0.87-0.39,0.87-0.87v-39.72c0-0.47-0.39-0.87-0.87-0.87C623.5,240.88,623.1,241.28,623.1,241.75z M626.96,241.75v39.64
				c0,0.47,0.39,0.87,0.87,0.87s0.87-0.39,0.87-0.87v-39.64c0-0.47-0.39-0.87-0.87-0.87C627.35,240.88,626.96,241.28,626.96,241.75z
				 M644.97,241.83l5.66,39.41c0.08,0.47,0.47,0.79,0.94,0.71c0.47-0.08,0.79-0.47,0.71-0.94l-5.66-39.41
				c-0.08-0.47-0.47-0.79-0.94-0.71C645.21,240.96,644.89,241.36,644.97,241.83z M637.18,241.75l2.36,39.41
				c0,0.47,0.39,0.79,0.87,0.79s0.79-0.39,0.79-0.87l-2.36-39.41c0-0.47-0.39-0.79-0.87-0.79S637.1,241.28,637.18,241.75z"/>
		</g>
		<g transform="matrix(1,0,0,1,-87.2563,-115.527)">
			<path class="st8" d="M551.44,233.41l4.4,50.34c0.08,0.47,0.47,0.79,0.87,0.79c0.47-0.08,0.79-0.47,0.79-0.87l-4.4-50.34
				c-0.08-0.47-0.47-0.79-0.87-0.79C551.68,232.55,551.37,232.94,551.44,233.41z M522.18,233.25l-2.99,50.26
				c0,0.47,0.31,0.87,0.79,0.87s0.87-0.31,0.87-0.79l2.99-50.26c0-0.47-0.31-0.87-0.79-0.87
				C522.65,232.47,522.26,232.78,522.18,233.25z M534.22,233.33l-0.08,50.18c0,0.47,0.39,0.87,0.87,0.87c0.47,0,0.87-0.39,0.87-0.87
				l0.08-50.18c0-0.47-0.39-0.87-0.87-0.87C534.53,232.47,534.22,232.86,534.22,233.33z M508.97,232.7l-5.11,50.66
				c-0.08,0.47,0.31,0.87,0.71,0.94c0.47,0.08,0.87-0.31,0.94-0.71l5.11-50.66c0.08-0.47-0.31-0.87-0.71-0.94
				C509.36,231.92,508.97,232.23,508.97,232.7z M566.07,233.41l5.43,49.95c0.08,0.47,0.47,0.79,0.94,0.71
				c0.47-0.08,0.79-0.47,0.71-0.94l-5.43-49.95c-0.08-0.47-0.47-0.79-0.94-0.71C566.31,232.55,566,232.94,566.07,233.41z
				 M571.58,233.41l6.06,49.95c0.08,0.47,0.47,0.79,0.94,0.71c0.47-0.08,0.79-0.47,0.71-0.94l-6.06-49.95
				c-0.08-0.47-0.47-0.79-0.94-0.71C571.82,232.55,571.5,232.94,571.58,233.41z M517.86,233.25l-3.07,49.71
				c0,0.47,0.31,0.87,0.79,0.87s0.87-0.31,0.87-0.79l3.15-49.71c0-0.47-0.31-0.87-0.79-0.87
				C518.25,232.47,517.86,232.78,517.86,233.25z"/>
		</g>
		<g transform="matrix(1,0,0,1,-87.2563,-115.527)">
			<path class="st8" d="M407.03,284.38l-10.7,24.86c-0.16,0.39,0,0.94,0.47,1.1c0.39,0.16,0.94,0,1.1-0.47l10.7-24.86
				c0.16-0.39,0-0.94-0.39-1.1C407.65,283.75,407.18,283.99,407.03,284.38z M425.75,285.48l-2.44,23.91
				c-0.08,0.47,0.31,0.87,0.71,0.94c0.47,0.08,0.87-0.31,0.94-0.71l2.44-23.91c0.08-0.47-0.31-0.87-0.71-0.94
				C426.22,284.7,425.75,285.01,425.75,285.48z M398.45,284.3L383.11,309c-0.24,0.39-0.16,0.87,0.24,1.18
				c0.39,0.24,0.87,0.16,1.18-0.24l15.34-24.7c0.24-0.39,0.16-0.87-0.24-1.18C399.16,283.75,398.69,283.91,398.45,284.3z
				 M434.79,285.48v23.76c0,0.47,0.39,0.87,0.87,0.87c0.47,0,0.87-0.39,0.87-0.87v-23.76c0-0.47-0.39-0.87-0.87-0.87
				C435.11,284.62,434.79,285.01,434.79,285.48z M411.75,284.54l-6.69,23.91c-0.16,0.47,0.16,0.87,0.55,1.02
				c0.47,0.16,0.87-0.16,1.02-0.55l6.69-23.91c0.16-0.47-0.16-0.87-0.55-1.02C412.37,283.83,411.9,284.07,411.75,284.54z"/>
		</g>
		<g transform="matrix(1,0,0,1,-0.0580565,-4.85505)">
			<path class="st8" d="M408.55,174h98.09c0.47,0,0.87-0.39,0.87-0.87s-0.39-0.87-0.87-0.87h-98.09c-0.47,0-0.87,0.39-0.87,0.87
				C407.69,173.61,408.08,174,408.55,174z"/>
		</g>
		<path class="st8" d="M354.11,193.42h-67.57c-0.47,0-0.87,0.39-0.87,0.87c0,0.47,0.39,0.87,0.87,0.87h67.57
			c0.47,0,0.87-0.39,0.87-0.87C354.9,193.81,354.5,193.42,354.11,193.42z"/>
		<path class="st8" d="M354.27,177.06h54.2V165.1l3.7-22.58h-57.89L354.27,177.06L354.27,177.06z"/>
		<path class="st8" d="M409.33,170.53v44.13c0,0.47-0.39,0.87-0.87,0.87c-0.47,0-0.87-0.39-0.87-0.87v-44.21c0-0.08,0-0.08,0-0.16
			l8.02-53.57c0.08-0.39,0.39-0.71,0.79-0.71h79.05c0.39,0,0.71,0.24,0.79,0.63l11.33,50.66c0,0.08,0,0.16,0,0.16v47.12
			c0,0.47-0.39,0.87-0.87,0.87c-0.47,0-0.87-0.39-0.87-0.87v-46.96l-11.17-49.95h-77.64L409.33,170.53z"/>
		<g transform="matrix(1,0,0,1,-8.41896,0)">
			<path class="st13" d="M304.86,43.97v55.69c0,0.71-0.55,1.26-1.26,1.26c-0.71,0-1.26-0.55-1.26-1.26V42.71
				c0-0.71,0.55-1.26,1.26-1.26h97.54c0.71,0,1.26,0.55,1.26,1.26s-0.55,1.26-1.26,1.26H304.86z"/>
		</g>
		<g transform="matrix(1,0,0,1,-8.41896,0)">
			<path class="st13" d="M399.88,98.4V42.71c0-0.71,0.55-1.26,1.26-1.26c0.71,0,1.26,0.55,1.26,1.26v56.95
				c0,0.71-0.55,1.26-1.26,1.26H303.6c-0.71,0-1.26-0.55-1.26-1.26c0-0.71,0.55-1.26,1.26-1.26H399.88z"/>
		</g>
		<g transform="matrix(1,0,0,1,-86.8751,-121.725)">
			<path class="st13" d="M392.86,216.41l74.25,0.24c0.71,0,1.26-0.55,1.26-1.26c0-0.71-0.55-1.26-1.26-1.26l-74.25-0.24
				c-0.71,0-1.26,0.55-1.26,1.26C391.68,215.78,392.24,216.41,392.86,216.41z"/>
		</g>
		<g transform="matrix(0.794473,0,0,1.67523,251.627,-394.816)">
			<text transform="matrix(0.5969 0 0 0.5969 67.9137 288.5695)" class="st14 st15 st16">NEWS</text>
		</g>
		<g transform="matrix(1,0,0,1,7.42109,4.54747e-13)">
			<path class="st9" d="M455.8,57.18l6.61-10.3v12.19h12.82l-6.69,9.52v12.66l-8.57-5.27l-14.08,7.79v-10.7l-11.72-4.4l11.64-3.07
				l-2.91-13.53L455.8,57.18z"/>
		</g>
	</g>
	<g id="GREEN-PRINKLES" transform="matrix(1.02574,-0.00214966,0.00214966,1.02574,41.3702,102.35)">
		<path class="st17" d="M659.56,4.14l-2.99,14.63l5.98,2.12l5.35-15.97L659.56,4.14z"/>
		<path class="st17" d="M680.48,8.94l-10.3,14.87l5.11,4.88l12.43-13.06L680.48,8.94z"/>
		<path class="st17" d="M680.17,34.11l12.98-6.21l2.05,8.57l-13.45,4.4L680.17,34.11z"/>
		<path class="st17" d="M276.41,9.1l8.73-5.11l8.89,14l-5.03,5.11L276.41,9.1z"/>
		<path class="st17" d="M297.33-4.43l5.43,16.44l6.92-0.55L307.24-4.9L297.33-4.43z"/>
		<path class="st17" d="M317.47,12.48l6.92-15.57l6.84,4.96l-7,12.98L317.47,12.48z"/>
	</g>
	<g id="LAPTOP" transform="matrix(1,0,0,1,94.6774,115.527)">
		<path class="st0" d="M422.22,440.64l126.64,48.53l87.86-9.12l68.04-74.1L569.47,371.9l-47.82,56.08l-99.5,7.08v5.58H422.22z"/>
		<g>
			<path class="st18" d="M578.04,379.13l-4.25,5.19"/>
			<g transform="matrix(1,0,0,1,5.07833,2.42068)">
				<path class="st18" d="M575.07,377.75l-4.25,5.19"/>
			</g>
			<g transform="matrix(0.424399,0.905475,-0.905475,0.424399,2321.78,-938.629)">
				<path class="st18" d="M456.93,2136.32l-4.25,5.19"/>
			</g>
			<g transform="matrix(0.419715,0.907656,-0.907656,0.419715,2330.84,-932.074)">
				<path class="st18" d="M459.32,2141.21l-4.25,5.19"/>
			</g>
		</g>
		<path class="st19" d="M697.92,389.59l6.92,3.78l13.77-16.68l-9.68-4.8L697.92,389.59z"/>
		<path class="st19" d="M713.73,412.01l-2.2,4.64l15.42,7.71l3.85-7.71L713.73,412.01z"/>
		<path class="st19" d="M711.05,398.95l2.67,5.51l17.07-4.33l-3.38-9.68L711.05,398.95z"/>
		<g transform="matrix(1,0,0,1,-77.9325,113.884)">
			<path class="st18" d="M623.62,312.51l-4.25,5.19"/>
			<g transform="matrix(1,0,0,1,5.07833,2.42068)">
				<path class="st18" d="M620.65,311.05l-4.25,5.19"/>
			</g>
			<g transform="matrix(0.329454,0.944172,-0.944172,0.329454,2554.1,-882.922)">
				<path class="st18" d="M496.66,2214.53l-4.25,5.19"/>
			</g>
			<g transform="matrix(0.338816,0.940853,-0.940853,0.338816,2529.3,-884.227)">
				<path class="st18" d="M485.92,2198.22l-4.25,5.19"/>
			</g>
		</g>
		<g transform="matrix(-0.998299,0.0582993,-0.0582993,-0.998299,3961.64,2752.98)">
			<path class="st18" d="M3208.01,2494.2l-4.25,5.19"/>
			<g transform="matrix(1,0,0,1,5.07833,2.42068)">
				<path class="st18" d="M3205.04,2492.74l-4.25,5.19"/>
			</g>
			<g transform="matrix(0.308858,0.951108,-0.951108,0.308858,2600.4,-867.712)">
				<path class="st18" d="M3389.16,459.36l-4.25,5.19"/>
			</g>
			<g transform="matrix(0.304096,0.952641,-0.952641,0.304096,2608.69,-859.5)">
				<path class="st18" d="M3382.55,449.54l-4.25,5.19"/>
			</g>
		</g>
		<g transform="matrix(0.999998,-0.00181567,0.00181567,0.999998,49.7616,168.749)">
			<path class="st18" d="M549.4,279.97l-4.25,5.19"/>
			<g transform="matrix(1,0,0,1,5.07833,2.42068)">
				<path class="st18" d="M546.43,278.51l-4.25,5.19"/>
			</g>
			<g transform="matrix(0.338258,0.941054,-0.941054,0.338258,2533.2,-889.431)">
				<path class="st18" d="M433.28,2260.4l-4.25,5.19"/>
			</g>
			<g transform="matrix(0.344401,0.938823,-0.938823,0.344401,2515.58,-888.564)">
				<path class="st18" d="M425.18,2248.19l-4.25,5.19"/>
			</g>
		</g>
		<g>
			<path class="st20" d="M556.72,466.21l-73.62-24.78l-20.69,2.52l82.75,27.06L556.72,466.21z"/>
			<path class="st20" d="M521.17,426.72l47.43-54.98c0.47-0.55,1.26-0.55,1.73-0.16c0.55,0.47,0.55,1.26,0.16,1.73l-47.82,55.38
				c-0.24,0.24-0.55,0.39-0.87,0.39l-98.4,7v4.4l127.66,47.35l84.87-8.34c0.71-0.08,1.26,0.39,1.34,1.1
				c0.08,0.71-0.47,1.26-1.1,1.34l-85.11,8.42c-0.16,0-0.39,0-0.55-0.08l-128.76-47.75c-0.47-0.16-0.79-0.63-0.79-1.18v-6.45
				c0-0.63,0.47-1.18,1.18-1.26L521.17,426.72z"/>
			<path class="st20" d="M702.48,406.66l-133.25-32.88c-0.63-0.16-1.1-0.87-0.94-1.49c0.16-0.63,0.87-1.1,1.49-0.94l135.29,33.35
				c0.39,0.08,0.79,0.39,0.87,0.87c0.16,0.39,0,0.87-0.24,1.18l-68.75,74.88c-0.47,0.47-1.26,0.55-1.73,0.08
				c-0.47-0.47-0.55-1.26-0.08-1.73L702.48,406.66z"/>
			<path class="st20" d="M422.22,434.98l128.76,45.78l81.1-7.87l66.86-68.43l5.9,1.49l-68.75,74.88l-85.11,8.42l-128.76-47.75
				V434.98z"/>
			<path class="st20" d="M521.33,429.08l114.29,44.99c0.63,0.24,1.34-0.08,1.65-0.71c0.24-0.63-0.08-1.34-0.71-1.65l-114.29-44.99
				c-0.63-0.24-1.34,0.08-1.65,0.71C520.31,428.14,520.62,428.84,521.33,429.08z"/>
			<g transform="matrix(1.25406,0.348972,-0.32539,1.16932,-61.2696,-908.476)">
				<path class="st20" d="M807.07,880.83l-60.88,0.71l-2.12,4.09l60.25,0.16L807.07,880.83z"/>
			</g>
			<g transform="matrix(0.624303,0.268739,-0.479899,1.11485,1285.78,-566.042)">
				<path class="st20" d="M-348.47,991.39l-60.02,1.26l-2.2,4.25l61.28-0.94L-348.47,991.39z"/>
			</g>
			<g transform="matrix(0.624303,0.268739,-0.479899,1.11485,1413.11,-515.969)">
				<path class="st20" d="M-488.08,993.18l-39.88,0.94l-1.73,4.96l40.67-1.34L-488.08,993.18z"/>
			</g>
			<g transform="matrix(0.401682,0.172909,-0.479899,1.11485,1877.15,-338.846)">
				<path class="st20" d="M-1889.56,1003.21l-37.68,0.47l-1.02,4.48l35.95-0.16L-1889.56,1003.21z"/>
			</g>
			<g>
				<g transform="matrix(1,0,0,1,-8.92637,-0.679368)">
					<path class="st20" d="M569.48,418.06l70.09,25.8c0.39,0.16,0.63,0.63,0.47,1.02c-0.16,0.39-0.63,0.63-1.1,0.47l-71.19-26.19
						c-0.24-0.08-0.47-0.31-0.55-0.55c-0.08-0.24,0-0.55,0.16-0.71l20.45-24.93c0.31-0.31,0.79-0.39,1.18-0.08
						c0.31,0.31,0.39,0.79,0.08,1.18L569.48,418.06z"/>
				</g>
				<g transform="matrix(1,0,0,1,-8.92637,-0.679368)">
					<path class="st20" d="M590.09,392.96l-0.87,1.1c-0.31,0.39-0.79,0.39-1.18,0.08c-0.39-0.31-0.39-0.79-0.08-1.18l1.26-1.49
						c0.24-0.24,0.55-0.39,0.87-0.24l73.86,22.42c0.24,0.08,0.47,0.31,0.55,0.55c0.08,0.24,0,0.55-0.16,0.79l-24.46,30.21
						c-0.31,0.39-0.79,0.39-1.18,0.16c-0.39-0.31-0.39-0.79-0.16-1.18l23.68-29.26L590.09,392.96z"/>
				</g>
				<g transform="matrix(0.624303,0.268739,-0.479899,1.11485,1285.78,-566.042)">
					<path class="st20" d="M-332.74,954.27l-59.7,3.78l-1.65,4.33l60.96-3.46L-332.74,954.27z"/>
				</g>
				<g transform="matrix(0.624303,0.268739,-0.479899,1.11485,1285.78,-566.042)">
					<path class="st20" d="M-336.43,963.39l-59.86,2.67l-1.89,4.33l61.12-2.36L-336.43,963.39z"/>
				</g>
				<g transform="matrix(0.624303,0.268739,-0.479899,1.11485,1285.78,-566.042)">
					<path class="st20" d="M-341.15,971.33l-59.86,2.67l-1.89,4.33l61.12-2.36L-341.15,971.33z"/>
				</g>
			</g>
		</g>
		<g transform="matrix(0.88816,-0.164313,0.167587,0.905855,-38.2713,437.225)">
			<path class="st19" d="M640.56,102c-0.08,0-0.08-0.08-0.31-0.63c-0.16-0.39-0.24-0.87-0.31-1.34c-0.24-1.02-0.24-2.12,0-3.15
				c0.16-0.63,0.31-1.34,0.79-1.81c1.1-1.34,3.38-1.57,4.33,0.08c0.24,0.39,0.31,0.87,0.39,1.34c0,0.08,0,0.47,0.08,0.47
				c0.08,0,0.31-0.16,0.31-0.16c0.24-0.16,0.55-0.24,0.87-0.24c1.18-0.16,2.6,0.39,3.15,1.49c0.63,1.26-0.47,2.67-1.49,3.3
				C646.15,102.78,640.56,102,640.56,102z"/>
		</g>
		<g transform="matrix(0.999456,-0.0329788,0.0329788,0.999456,-52.8679,57.199)">
			<g transform="matrix(0.668839,0,0,0.767736,615.369,341.182)">
				<path class="st20" d="M-22.07,59.44h-2.83c-0.39,0-0.79-0.31-0.79-0.63c0-0.31,0.31-0.63,0.79-0.63h4.33
					c0.31,0,0.55,0.16,0.71,0.39s0.08,0.47-0.08,0.71l-4.25,5.11c-0.24,0.31-0.71,0.39-1.02,0.16c-0.31-0.24-0.39-0.63-0.16-0.94
					L-22.07,59.44z"/>
			</g>
			<g transform="matrix(0.793402,0.524075,-0.58005,0.878144,1237.59,-802.94)">
				<path class="st20" d="M134.58,1276.04c0.24,0,0.39,0.16,0.55,0.39c0.24,0.31,0.31,0.79,0.31,1.26s-0.16,0.94-0.31,1.26
					c-0.16,0.24-0.31,0.39-0.55,0.39c-0.31,0-0.55,0.24-0.55,0.47c0,0.24,0.24,0.47,0.55,0.47c0.47,0,0.87-0.24,1.26-0.55
					c0.39-0.47,0.71-1.18,0.71-2.05s-0.31-1.57-0.71-2.05c-0.31-0.39-0.79-0.55-1.26-0.55c-0.31,0-0.55,0.24-0.55,0.47
					C134.03,1275.89,134.27,1276.04,134.58,1276.04z"/>
			</g>
			<g transform="matrix(0.793402,0.524075,-0.58005,0.878144,1247.32,-798.845)">
				<path class="st20" d="M128.24,1277.15c0.24,0,0.39,0.16,0.55,0.39c0.24,0.31,0.31,0.79,0.31,1.26s-0.16,0.94-0.31,1.26
					c-0.16,0.24-0.31,0.39-0.55,0.39c-0.31,0-0.55,0.24-0.55,0.47c0,0.24,0.24,0.47,0.55,0.47c0.47,0,0.87-0.24,1.26-0.55
					c0.39-0.47,0.71-1.18,0.71-2.05c0-0.87-0.31-1.57-0.71-2.05c-0.31-0.39-0.79-0.55-1.26-0.55c-0.31,0-0.55,0.24-0.55,0.47
					C127.69,1276.91,127.93,1277.15,128.24,1277.15z"/>
			</g>
			<g transform="matrix(0.793402,0.524075,-0.58005,0.878144,1257.01,-794.848)">
				<path class="st20" d="M121.84,1278.26c0.24,0,0.39,0.16,0.55,0.39c0.24,0.31,0.31,0.79,0.31,1.26s-0.16,0.94-0.31,1.26
					c-0.16,0.24-0.31,0.39-0.55,0.39c-0.31,0-0.55,0.24-0.55,0.47c0,0.24,0.24,0.47,0.55,0.47c0.47,0,0.87-0.24,1.26-0.55
					c0.39-0.47,0.71-1.18,0.71-2.05s-0.31-1.57-0.71-2.05c-0.31-0.39-0.79-0.55-1.26-0.55c-0.31,0-0.55,0.24-0.55,0.47
					C121.37,1278.02,121.61,1278.26,121.84,1278.26z"/>
			</g>
			<g transform="matrix(0.793402,0.524075,-0.58005,0.878144,1266.71,-790.851)">
				<path class="st20" d="M115.52,1279.38c0.24,0,0.39,0.16,0.55,0.39c0.24,0.31,0.31,0.79,0.31,1.26s-0.16,0.94-0.31,1.26
					c-0.16,0.24-0.31,0.39-0.55,0.39c-0.31,0-0.55,0.24-0.55,0.47c0,0.24,0.24,0.47,0.55,0.47c0.47,0,0.87-0.24,1.26-0.55
					c0.39-0.47,0.71-1.18,0.71-2.05s-0.31-1.57-0.71-2.05c-0.31-0.39-0.79-0.55-1.26-0.55c-0.31,0-0.55,0.24-0.55,0.47
					C115.05,1279.14,115.28,1279.38,115.52,1279.38z"/>
			</g>
			<g transform="matrix(0.793402,0.524075,-0.58005,0.878144,1276.41,-786.854)">
				<path class="st20" d="M109.2,1280.49c0.24,0,0.39,0.16,0.55,0.39c0.24,0.31,0.31,0.79,0.31,1.26s-0.16,0.94-0.31,1.26
					c-0.16,0.24-0.31,0.39-0.55,0.39c-0.31,0-0.55,0.24-0.55,0.47c0,0.24,0.24,0.47,0.55,0.47c0.47,0,0.87-0.24,1.26-0.55
					c0.39-0.47,0.71-1.18,0.71-2.05s-0.31-1.57-0.71-2.05c-0.31-0.39-0.79-0.55-1.26-0.55c-0.31,0-0.55,0.24-0.55,0.47
					C108.65,1280.26,108.88,1280.49,109.2,1280.49z"/>
			</g>
			<g transform="matrix(0.793402,0.524075,-0.58005,0.878144,1286.1,-782.858)">
				<path class="st20" d="M102.88,1281.61c0.24,0,0.39,0.16,0.55,0.39c0.24,0.31,0.31,0.79,0.31,1.26c0,0.47-0.16,0.94-0.31,1.26
					c-0.16,0.24-0.31,0.39-0.55,0.39c-0.31,0-0.55,0.24-0.55,0.47c0,0.24,0.24,0.47,0.55,0.47c0.47,0,0.87-0.24,1.26-0.55
					c0.39-0.47,0.71-1.18,0.71-2.05c0-0.87-0.31-1.57-0.71-2.05c-0.31-0.39-0.79-0.55-1.26-0.55c-0.31,0-0.55,0.24-0.55,0.47
					C102.33,1281.37,102.56,1281.61,102.88,1281.61z"/>
			</g>
			<g transform="matrix(0.793402,0.524075,-0.58005,0.878144,1295.8,-778.861)">
				<path class="st20" d="M96.55,1282.72c0.24,0,0.39,0.16,0.55,0.39c0.24,0.31,0.31,0.79,0.31,1.26s-0.16,0.94-0.31,1.26
					c-0.16,0.24-0.31,0.39-0.55,0.39c-0.31,0-0.55,0.24-0.55,0.47c0,0.24,0.24,0.47,0.55,0.47c0.47,0,0.87-0.24,1.26-0.55
					c0.39-0.47,0.71-1.18,0.71-2.05s-0.31-1.57-0.71-2.05c-0.31-0.39-0.79-0.55-1.26-0.55c-0.31,0-0.55,0.24-0.55,0.47
					S96.24,1282.72,96.55,1282.72z"/>
			</g>
			<g transform="matrix(0.793402,0.524075,-0.58005,0.878144,1237.59,-802.94)">
				<path class="st20" d="M134.58,1279.35c-0.24,0-0.39-0.16-0.55-0.39c-0.24-0.31-0.31-0.79-0.31-1.26s0.16-0.94,0.31-1.26
					c0.16-0.24,0.31-0.39,0.55-0.39c0.31,0,0.55-0.24,0.55-0.47s-0.24-0.47-0.55-0.47c-0.47,0-0.87,0.24-1.26,0.55
					c-0.39,0.47-0.71,1.18-0.71,2.05c0,0.79,0.31,1.57,0.71,2.05c0.31,0.39,0.79,0.55,1.26,0.55c0.31,0,0.55-0.24,0.55-0.47
					C135.13,1279.58,134.9,1279.35,134.58,1279.35z"/>
			</g>
			<g transform="matrix(0.793402,0.524075,-0.58005,0.878144,1247.32,-798.845)">
				<path class="st20" d="M128.24,1280.45c-0.24,0-0.39-0.16-0.55-0.39c-0.24-0.31-0.31-0.79-0.31-1.26s0.16-0.94,0.31-1.26
					c0.16-0.24,0.31-0.39,0.55-0.39c0.31,0,0.55-0.24,0.55-0.47s-0.24-0.47-0.55-0.47c-0.47,0-0.87,0.24-1.26,0.55
					c-0.39,0.47-0.71,1.18-0.71,2.05c0,0.79,0.31,1.57,0.71,2.05c0.31,0.39,0.79,0.55,1.26,0.55c0.31,0,0.55-0.24,0.55-0.47
					C128.79,1280.69,128.48,1280.45,128.24,1280.45z"/>
			</g>
			<g transform="matrix(0.793402,0.524075,-0.58005,0.878144,1257.01,-794.848)">
				<path class="st20" d="M121.84,1281.56c-0.24,0-0.39-0.16-0.55-0.39c-0.24-0.31-0.31-0.79-0.31-1.26s0.16-0.94,0.31-1.26
					c0.16-0.24,0.31-0.39,0.55-0.39c0.31,0,0.55-0.24,0.55-0.47s-0.24-0.47-0.55-0.47c-0.47,0-0.87,0.24-1.26,0.55
					c-0.39,0.47-0.71,1.18-0.71,2.05c0,0.79,0.31,1.57,0.71,2.05c0.31,0.39,0.79,0.55,1.26,0.55c0.31,0,0.55-0.24,0.55-0.47
					S122.16,1281.56,121.84,1281.56z"/>
			</g>
			<g transform="matrix(0.793402,0.524075,-0.58005,0.878144,1266.71,-790.851)">
				<path class="st20" d="M115.52,1282.68c-0.24,0-0.39-0.16-0.55-0.39c-0.24-0.31-0.31-0.79-0.31-1.26c0-0.47,0.16-0.94,0.31-1.26
					c0.16-0.24,0.31-0.39,0.55-0.39c0.31,0,0.55-0.24,0.55-0.47c0-0.24-0.24-0.47-0.55-0.47c-0.47,0-0.87,0.24-1.26,0.55
					c-0.39,0.47-0.71,1.18-0.71,2.05c0,0.79,0.31,1.57,0.71,2.05c0.31,0.39,0.79,0.55,1.26,0.55c0.31,0,0.55-0.24,0.55-0.47
					C116.07,1282.84,115.83,1282.68,115.52,1282.68z"/>
			</g>
			<g transform="matrix(0.793402,0.524075,-0.58005,0.878144,1276.41,-786.854)">
				<path class="st20" d="M109.2,1283.8c-0.24,0-0.39-0.16-0.55-0.39c-0.24-0.31-0.31-0.79-0.31-1.26s0.16-0.94,0.31-1.26
					c0.16-0.24,0.31-0.39,0.55-0.39c0.31,0,0.55-0.24,0.55-0.47s-0.24-0.47-0.55-0.47c-0.47,0-0.87,0.24-1.26,0.55
					c-0.39,0.47-0.71,1.18-0.71,2.05c0,0.79,0.31,1.57,0.71,2.05c0.31,0.39,0.79,0.55,1.26,0.55c0.31,0,0.55-0.24,0.55-0.47
					S109.51,1283.8,109.2,1283.8z"/>
			</g>
			<g transform="matrix(0.793402,0.524075,-0.58005,0.878144,1286.1,-782.858)">
				<path class="st20" d="M102.88,1284.91c-0.24,0-0.39-0.16-0.55-0.39c-0.24-0.31-0.31-0.79-0.31-1.26c0-0.47,0.16-0.94,0.31-1.26
					c0.16-0.24,0.31-0.39,0.55-0.39c0.31,0,0.55-0.24,0.55-0.47c0-0.24-0.24-0.47-0.55-0.47c-0.47,0-0.87,0.24-1.26,0.55
					c-0.39,0.47-0.71,1.18-0.71,2.05c0,0.79,0.31,1.57,0.71,2.05c0.31,0.39,0.79,0.55,1.26,0.55c0.31,0,0.55-0.24,0.55-0.47
					C103.43,1285.07,103.19,1284.91,102.88,1284.91z"/>
			</g>
			<g transform="matrix(0.793402,0.524075,-0.58005,0.878144,1295.8,-778.861)">
				<path class="st20" d="M96.55,1286.03c-0.24,0-0.39-0.16-0.55-0.39c-0.24-0.31-0.31-0.79-0.31-1.26s0.16-0.94,0.31-1.26
					c0.16-0.24,0.31-0.39,0.55-0.39c0.31,0,0.55-0.24,0.55-0.47s-0.24-0.47-0.55-0.47c-0.47,0-0.87,0.24-1.26,0.55
					c-0.39,0.47-0.71,1.18-0.71,2.05c0,0.79,0.31,1.57,0.71,2.05c0.31,0.39,0.79,0.55,1.26,0.55c0.31,0,0.55-0.24,0.55-0.47
					C97.1,1286.26,96.79,1286.03,96.55,1286.03z"/>
			</g>
		</g>
	</g>
	<g id="CHAIR" transform="matrix(1,0,0,1,94.6104,116.93)">
		<path class="st7" d="M-7.09,353.58h96.28h10.54l0,0l75.51,0.47c0.79,0,1.42,0.63,1.42,1.42s-0.63,1.42-1.42,1.42l-75.51-0.47
			H-8.58l-1.42-1.49c7.32-116.26-2.6-175.65-17.23-205.14c-8.5-17.15-18.56-23.91-27.69-25.8c-13.53-2.75-24.7,5.35-24.7,5.35l0,0
			c-0.63,0.47-1.49,0.31-1.97-0.31s-0.31-1.49,0.31-1.97c0,0,12.19-8.73,26.82-5.82c9.68,1.97,20.53,8.97,29.65,27.29
			C-10,178.02,0.07,237.48-7.09,353.58z"/>
		<path class="st7" d="M59.46,125.79c0,0,32.41,1.65,57.58,2.99c18.33,0.94,33.82,14.08,37.76,32.01
			c3.93,18.8,7.79,46.72,10.38,88.41c0.08,0.79,0.71,1.34,1.49,1.34c0.79-0.08,1.34-0.71,1.34-1.49
			c-2.6-41.85-6.53-69.93-10.46-88.88c-4.25-19.19-20.77-33.19-40.35-34.22c-25.17-1.34-57.58-2.99-57.58-2.99
			c-0.79-0.08-1.42,0.55-1.49,1.34C58.04,125.08,58.67,125.71,59.46,125.79z"/>
		<path class="st7" d="M294.17,435.94l3.15-38.39c0.87-10.62-2.75-21.08-9.99-28.87c-7.24-7.79-17.38-12.19-28-12.19
			c-32.8,0.16-74.41,0.31-86.21,0.31c-2.52,0-4.64-2.05-4.64-4.64c-0.31-41.37-1.57-75.28-3.3-103.04
			c-0.08-0.79,0.55-1.42,1.34-1.49c0.79-0.08,1.42,0.55,1.49,1.34c1.73,27.85,2.99,61.75,3.3,103.2c0,1.02,0.87,1.81,1.89,1.81
			c11.8-0.08,53.33-0.16,86.21-0.31c11.41-0.08,22.34,4.72,30.05,13.06c7.79,8.42,11.64,19.59,10.7,30.99
			c-1.65,20.06-3.23,39.64-3.23,39.64c-0.08,0.71-0.63,1.26-1.34,1.26c0,0-228.82,2.12-319.51,2.91
			c-22.02,0.24-41.3-14.87-46.33-36.34c-2.28-9.75-4.88-21.08-7.71-33.51c-11.72-51.99-26.82-123.57-34.69-179.5
			c-2.67-19.43,3.54-39.09,16.83-53.49c13.29-14.47,32.33-22.18,51.92-21.16c48.3,2.52,103.52,5.35,103.52,5.35
			c0.79,0.08,1.34,0.71,1.34,1.49c-0.08,0.79-0.71,1.34-1.49,1.34c0,0-55.22-2.91-103.52-5.35c-18.8-0.94-37.05,6.45-49.79,20.29
			c-12.74,13.84-18.64,32.64-16.13,51.29c7.79,55.85,22.89,127.35,34.61,179.26c2.83,12.43,5.43,23.76,7.71,33.51
			c4.72,20.22,22.89,34.37,43.58,34.22L294.17,435.94z"/>
		<g transform="matrix(1,0,0,1,-94.6104,-116.93)">
			<path class="st7" d="M279.36,473.71c0,0,15.02-0.47,23.52,14.32c6.53,11.41,7.47,31.23-8.34,65.92c-0.31,0.71,0,1.57,0.71,1.89
				c0.71,0.31,1.57,0,1.89-0.71c16.52-35.95,15.02-56.63,8.26-68.51c-9.36-16.36-26.04-15.73-26.04-15.73
				c-0.79,0-1.42,0.71-1.34,1.42C277.95,473.16,278.65,473.79,279.36,473.71z"/>
		</g>
		<g transform="matrix(1,0,0,1,-94.6104,-116.93)">
			<path class="st7" d="M52.67,554.97l1.73,8.57c0,0,3.62,20.22,5.82,32.41c1.02,5.9,6.21,10.15,12.19,10.15l0,0
				c6.14,0,11.33-4.4,12.27-10.46c2.28-13.84,6.21-38.39,6.21-38.39c0.16-0.79-0.39-1.49-1.18-1.65c-0.79-0.16-1.49,0.39-1.65,1.18
				c0,0-3.93,24.54-6.21,38.39c-0.79,4.64-4.8,8.1-9.52,8.1l0,0c-4.64,0-8.57-3.3-9.44-7.87c-2.2-12.19-5.82-32.41-5.82-32.41l0,0
				l-1.73-8.57c-0.16-0.79-0.87-1.26-1.65-1.1C53.06,553.4,52.59,554.18,52.67,554.97z"/>
		</g>
		<g transform="matrix(1,0,0,1,620.595,-114.855)">
			<path class="st7" d="M-365.83,552.72c0,0,4.96,27.29,7.55,42c1.1,5.9,6.21,10.23,12.19,10.23l0,0c6.14,0,11.33-4.4,12.27-10.46
				c2.36-14.63,6.76-41.53,6.76-41.53c0.16-0.79-0.39-1.49-1.18-1.65c-0.79-0.16-1.49,0.39-1.65,1.18c0,0-4.4,26.9-6.76,41.53
				c-0.79,4.64-4.8,8.1-9.52,8.1l0,0c-4.64,0-8.57-3.3-9.44-7.87c-2.67-14.63-7.55-42-7.55-42c-0.16-0.79-0.87-1.26-1.65-1.1
				C-365.44,551.22-365.99,552.01-365.83,552.72z"/>
		</g>
		<g transform="matrix(1,0,0,1,41.8863,-116.93)">
			<path class="st7" d="M196.9,473.71c10.85,2.67,21.24,3.54,29.26,19.11c2.83,5.58,3.85,12.27,3.7,21.63
				c-0.16,9.6-1.49,22.02-3.3,39.09c-0.08,0.79,0.47,1.49,1.26,1.57c0.79,0.08,1.49-0.47,1.57-1.26
				c1.81-17.15,3.15-29.65,3.38-39.33c0.16-9.91-0.94-16.99-4.01-22.97c-8.5-16.68-19.51-17.7-31.07-20.61
				c-0.79-0.16-1.49,0.24-1.73,1.02C195.72,472.77,196.19,473.48,196.9,473.71z"/>
		</g>
		<g transform="matrix(1,0,0,1,-16.7214,-116.93)">
			<path class="st7" d="M230.57,473.71c10.85,2.67,21.95,3.54,29.97,19.11c2.83,5.58,3.85,12.27,3.7,21.63
				c-0.16,9.6-1.49,22.02-3.3,39.09c-0.08,0.79,0.47,1.49,1.26,1.57c0.79,0.08,1.49-0.47,1.57-1.26
				c1.81-17.15,3.15-29.65,3.38-39.33c0.16-9.91-0.94-16.99-4.01-22.97c-8.5-16.68-20.14-17.7-31.78-20.61
				c-0.79-0.16-1.49,0.24-1.73,1.02C229.31,472.77,229.78,473.48,230.57,473.71z"/>
		</g>
	</g>
	<g id="DOG" transform="matrix(1,0,0,1,94.6774,115.527)">
		<path class="st21" d="M-126.51,478.01c0,0,11.01-47.67,50.11-51.21l85.66,0.16c0,0-0.71-10.38,8.34-9.99c0,0,8.97,0.55,13.92-0.71
			c0,0,3.62-7.24,5.11-10.38c0.63-1.34-12.98-10.38-10.78-12.66c0,0,6.45-3.62,18.17,2.36l32.09-3.15l-6.21-17.07
			c0,0,0.39-9.91,16.99,3.38c0,0,20.69,17.31,24.54,56.01l-0.31,45.31c0,0,34.92,11.33,35,21.32c0,0.63-0.24,1.26-0.71,1.65
			c-0.47,0.47-1.02,0.71-1.65,0.71c-2.67,0-7.79,0-7.79,0s2.28,2.2,3.46,4.96c0.47,1.02,0.31,2.28-0.31,3.22
			c-0.63,0.94-1.73,1.49-2.91,1.42c-26.04-0.94-187.37-6.53-187.37-6.53s19.9,15.26,16.28,23.28l0,0c-2.2,3.38-6.37,4.96-10.3,3.85
			c-2.12-0.63-4.01-1.1-4.01-1.1l-77.4-43.42h-61.28C-187.71,489.41-187.23,478.01-126.51,478.01z"/>
		<path d="M69.51,474.39c0,0,57.11,22.97,67.33,30.52c0.16,0.08,0.47,0.24,0.55,0.31c0.55,0.47-1.26-1.49-1.26-1.49l2.91-0.08
			c0,0-0.39-0.31-0.63-0.47c-10.78-7.79-67.96-31.15-67.96-31.15c-0.63-0.24-1.34,0.08-1.65,0.71
			C68.57,473.44,68.88,474.15,69.51,474.39z"/>
		<path d="M113.72,480.76l-2.52-0.55c0,0,0,7,0.08,10.78c0,0.71,0.63,1.26,1.26,1.18c0.71,0,1.26-0.63,1.18-1.26
			C113.64,487.37,113.72,480.76,113.72,480.76z"/>
		<path d="M-56.97,497.51c2.12,2.12,9.2,9.28,9.2,9.28s-3.07,0.31-3.54-0.16c-4.56-4.8-8.18-7.79-8.18-7.79
			c-0.71-0.39-0.87-0.94-0.55-1.65c7.71-17.62,7.47-29.5,3.85-37.68c-5.27-12.03-16.99-15.42-16.99-15.42
			c-0.63-0.16-1.02-0.87-0.87-1.57c0.16-0.63,0.87-1.02,1.57-0.87c0,0,12.82,3.7,18.56,16.75
			C-50.05,466.92-49.19,479.42-56.97,497.51z"/>
		<path d="M16.41,440.17c0.47,0.16,7.55,2.83,27.37,2.44c0.71,0,1.26,0.55,1.26,1.26c0,0.71-0.55,1.26-1.18,1.26
			c-21.24,0.39-28.4-2.67-28.4-2.67h-0.08c-3.62-1.73-5.58-4.8-6.76-7.79c-1.18-3.07-1.34-7.79-1.34-7.79h2.52
			c0,0,0.16,4.09,1.18,6.84C11.85,436.24,13.5,438.76,16.41,440.17z"/>
		<path d="M45.68,407.06c0,0-3.07,5.51-12.27,6.53c-0.16,0-0.55,0.08-0.55,0.08l-1.34,2.6c0,0,0.39,0,0.63,0
			c11.88-0.63,15.73-7.94,15.73-7.94c0.31-0.63,0.08-1.34-0.47-1.65C46.78,406.27,45.99,406.51,45.68,407.06z"/>
		<path d="M44.1,395.57l-2.6-1.18l-6.45,9.44c0.71,0.63,1.34,1.26,1.65,2.05L44.1,395.57z"/>
		<path d="M82.17,390.07l-7-0.24l0.94,2.67l6.06,0.08c0.71,0,1.26-0.55,1.26-1.26C83.43,390.62,82.88,390.07,82.17,390.07z"/>
		<path d="M22.86,417.2c0,0,3.7,19.66-13.37,14.47c0,0-2.44-13.06,5.43-14.47C18.22,416.42,20.43,416.97,22.86,417.2z"/>
		<path d="M94.6,446.31c1.1-4.72,3.7-9.05,8.02-11.56c2.83-1.65,6.21-2.52,9.28-1.02c0.63,0.31,0.87,1.02,0.55,1.65
			c-0.31,0.63-1.02,0.87-1.65,0.55c-2.28-1.1-4.8-0.31-6.92,0.94c-4.01,2.36-6.21,6.45-7.08,10.85c1.89,1.57,3.3,3.78,3.85,6.21
			c0.16,0.79,0.24,1.89,0.08,2.75c-0.16,0.79-0.55,1.49-1.18,1.97c-1.65,1.26-3.3,0.31-4.25-1.18c-1.1-1.73-1.34-3.93-1.34-5.98
			c0-0.87,0.08-1.81,0.24-2.67c-0.31-0.16-0.63-0.31-0.94-0.47c-4.96-2.12-9.12-0.24-12.11,3.15c-3.15,3.62-5.11,8.81-5.58,13.21
			c-0.24,2.44-0.31,4.88-0.24,7.32c0,0.31,0.08,1.73,0.08,1.97c0.16,0.39,0.16,0.87-0.08,1.18c-0.39,0.55-1.18,0.71-1.73,0.31
			c-0.16-0.08-0.47-0.47-0.63-1.1c-0.08-0.63-0.16-1.97-0.16-2.36c-0.08-2.52,0-5.11,0.24-7.63c0.47-4.88,2.67-10.7,6.14-14.63
			c3.7-4.17,8.81-6.37,14.95-3.85C94.29,446.15,94.44,446.23,94.6,446.31z M96.49,450.79c0,0.24,0,0.47,0,0.79
			c0,1.57,0.08,3.3,0.94,4.64c0.08,0.16,0.24,0.31,0.31,0.39c0.08,0.08,0.16,0.16,0.24,0.08c0.24-0.16,0.31-0.47,0.31-0.79
			c0.08-0.55,0-1.02-0.08-1.49C97.98,453.07,97.36,451.81,96.49,450.79z"/>
	</g>
	<g id="CHARACTER" transform="matrix(1,0,0,1,-141.735,-23.3118)">
		<g transform="matrix(1,0,0,1,94.6774,115.527)">
			<path class="st22" d="M120.21,95.35c0,0-6.53-12.98-15.34-4.48c0,0-3.07,5.03,3.85,15.1l-15.42,30.13c0,0-16.83,1.89-25.17,2.91
				c-15.73,1.89-42.48,4.25-53.88,21C6.39,171.57,6.39,181.87,6.39,191c13.84,48.85,27.69,97.69,37.6,156.61
				c0,0,10.15,37.21,46.25,37.99c33.04,0.71,136.87-8.02,140.25-5.43l-0.31-8.81l7.32,0.08h3.46l1.02,2.36c0,0,28,4.33,37.99,18.8
				l57.5-4.33c0,0-1.65-12.51-8.73-16.83h18.8l57.42,149.77l91.32,0.08c0,0-7-7.08-14.32-9.6l-65.21-186.42
				c0,0-17.46-48.61-87.78-46.25l-0.87-13.61c0,0,46.33-1.73,51.13-33.35c0,0,15.1-39.96-49.79-71.19l-0.47-44.84
				c0,0-8.02-31.86-26.27-37.44c0,0-25.64-9.75-44.44-3.23c0,0-15.65,10.38-23.44,20.61l-37.91,46.57l-61.51-0.39l-0.08-5.11
				c0,0,14-1.18,17.7-9.2l11.09-22.02C164.02,105.89,147.42,71.67,120.21,95.35z"/>
		</g>
		<g transform="matrix(1,0,0,1,-1.24089,-0.674955)">
			<path d="M389.87,499.13c0,0,2.05,3.78,2.52,8.18c0.08,0.79,0.79,1.34,1.57,1.26c0.79-0.08,1.34-0.79,1.26-1.57
				c-0.55-5.03-2.83-9.28-2.83-9.28c-0.39-0.71-1.26-0.94-1.89-0.55C389.79,497.55,389.48,498.42,389.87,499.13z"/>
		</g>
		<g transform="matrix(1,0,0,1,27.2286,-3.70411)">
			<path d="M373.25,500.88c0,0,2.05,3.78,2.52,8.18c0.08,0.79,0.79,1.34,1.57,1.26c0.79-0.08,1.34-0.79,1.26-1.57
				c-0.55-5.03-2.83-9.28-2.83-9.28c-0.39-0.71-1.26-0.94-1.89-0.55C373.1,499.38,372.86,500.25,373.25,500.88z"/>
		</g>
		<g transform="matrix(1,0,0,1,51.9647,-6.91752)">
			<path d="M358.77,502.82c0,0,2.05,3.78,2.52,8.18c0.08,0.79,0.79,1.34,1.57,1.26c0.79-0.08,1.34-0.79,1.26-1.57
				c-0.55-5.03-2.83-9.28-2.83-9.28c-0.39-0.71-1.26-0.94-1.89-0.55C358.62,501.25,358.38,502.11,358.77,502.82z"/>
		</g>
		<g transform="matrix(1,0,0,1,94.6774,115.527)">
			<path d="M158.44,103.45c-4.4-8.26-6.92-17.7-6.92-27.61c0-32.8,27.14-59.39,60.57-59.39c32.96,0,59.78,25.88,60.57,57.97
				c-5.03,0.39-13.06,2.75-24.86,10.15c0,0-2.83,0-44.68,50.03c-16.83-2.44-31.46-11.8-40.82-24.93l2.75-4.56L158.44,103.45z"/>
		</g>
		<g transform="matrix(1,0,0,1,94.6774,115.527)">
			<path class="st23" d="M214.99,277.52l11.72-0.16l3.7,102.73l-132.23,5.35c0,0,0.24,0,0.94-0.16
				c11.56-2.67,35.32-10.54,65.05-31.78C184.95,338.56,191.95,312.53,214.99,277.52z"/>
			<g transform="matrix(1,0,0,1,-94.6774,-115.527)">
				<path class="st24" d="M238.03,499.14c-0.16-0.94,0.24-1.89,1.1-2.52l9.44-6.21c1.18-0.79,2.67-0.47,3.46,0.71
					c0.79,1.18,0.47,2.67-0.71,3.46l-6.37,4.17L238.03,499.14z M265.4,498.04c0-0.08,0-0.16-0.08-0.16
					c-0.31-1.34,0.63-2.67,1.97-2.91l11.01-2.28c1.34-0.31,2.67,0.63,2.91,1.97c0.24,1.18-0.39,2.28-1.42,2.75L265.4,498.04z
					 M292.3,496.94L292.3,496.94c-0.94-1.1-0.79-2.67,0.24-3.54l8.57-7.32c1.02-0.87,2.6-0.79,3.54,0.31
					c0.87,1.02,0.79,2.6-0.31,3.54l-8.02,6.84L292.3,496.94z M314.33,495.99l-0.79-0.31c-1.26-0.47-1.97-1.89-1.49-3.23
					c0.47-1.26,1.89-1.97,3.23-1.49l9.75,3.62v0.87L314.33,495.99z M233.31,491.2c0,0.08,0,0.08,0,0.16
					c0.08,1.34-0.94,2.52-2.36,2.67l-4.72,0.24c0.39-0.16,1.57-0.63,1.97-0.79C230.01,492.69,231.5,492.14,233.31,491.2z
					 M259.9,472.71l7,6.69c1.02,0.94,1.02,2.52,0.16,3.54c-0.94,1.02-2.52,1.02-3.54,0.16l-7.32-7
					C257.46,474.99,258.64,473.81,259.9,472.71z M289.39,476.49l-10.7-3.54c-1.34-0.39-2.75,0.24-3.15,1.57
					c-0.47,1.34,0.24,2.67,1.57,3.15l10.7,3.54c1.34,0.47,2.75-0.24,3.15-1.57C291.36,478.38,290.65,476.96,289.39,476.49z
					 M305.99,469.49l7.24,8.57c0.87,1.02,2.44,1.18,3.54,0.31c1.02-0.87,1.18-2.44,0.31-3.54l-7.24-8.57
					c-0.87-1.02-2.44-1.18-3.54-0.31C305.28,466.89,305.13,468.46,305.99,469.49z M296.39,464.85l-2.12-11.01
					c-0.24-1.34-1.57-2.2-2.91-1.97s-2.2,1.57-1.97,2.91l2.12,11.09c0.24,1.34,1.57,2.2,2.91,1.97
					C295.77,467.52,296.63,466.18,296.39,464.85z M274.45,455.56l1.65,0.47c1.34,0.47,2.05,1.81,1.57,3.15
					c-0.47,1.34-1.81,2.05-3.15,1.57l-3.07-1.02C272.48,458.4,273.5,457.06,274.45,455.56z M323.37,458.24
					c-0.55,0.16-1.1,0.16-1.65-0.08l-10.46-4.25c-1.26-0.55-1.89-1.97-1.34-3.22c0.55-1.26,1.97-1.89,3.23-1.34l10.07,4.09
					L323.37,458.24z M283.81,439.52l9.52-4.25c1.26-0.55,2.75,0,3.3,1.26c0.55,1.26,0,2.75-1.26,3.3l-10.3,4.48
					c-1.26,0.55-2.44,0.31-2.99-0.94C282,443.29,283.18,440.93,283.81,439.52z M307.8,429.37l-4.01,10.54
					c-0.47,1.26,0.16,2.75,1.42,3.23c1.26,0.47,2.75-0.16,3.23-1.42l4.01-10.54c0.47-1.26-0.16-2.75-1.42-3.23
					C309.77,427.48,308.27,428.11,307.8,429.37z M322.35,424.1c-0.47-0.31-0.79-0.87-0.87-1.42l-2.36-11.01
					c-0.31-1.34,0.55-2.67,1.89-2.99c0.31-0.08,0.63-0.08,0.94,0L322.35,424.1z M295.37,419.54c0.39,0.47,0.63,1.02,0.63,1.73
					c0,1.34-1.18,2.44-2.52,2.44h-0.31C293.88,422.29,294.59,420.95,295.37,419.54z M310.16,400.11l-7.32,8.57
					c-0.87,1.02-0.79,2.6,0.24,3.54c1.02,0.87,2.6,0.79,3.54-0.24l7.32-8.57c0.87-1.02,0.79-2.6-0.24-3.54
					C312.6,398.93,311.03,399.09,310.16,400.11z"/>
			</g>
		</g>
		<g transform="matrix(1,0,0,1,94.6774,115.527)">
			<path class="st25" d="M30.3,280.2c0,0,7.08,35,12.82,63.32c5.11,25.17,27.61,42.95,53.25,42c30.05-1.1,68.12-13.53,93.13-61.75
				l-36.42-36.42c-14.79,9.05-25.88,18.33-46.02,31.7C75.14,333.37,45.33,325.51,30.3,280.2z"/>
			<g transform="matrix(1,0,0,1,-94.6774,-115.527)">
				<path class="st5" d="M213.88,497.88l-5.27,1.18l-0.55-0.71c-0.87-1.1-0.63-2.67,0.47-3.46c1.1-0.87,2.67-0.63,3.46,0.47
					L213.88,497.88z M169.99,497.57l2.91-5.11c0.55-1.26,2.05-1.81,3.3-1.18c1.26,0.55,1.81,2.05,1.18,3.3l-1.81,4.88
					C173.21,498.83,170.93,498.04,169.99,497.57z M193.19,490.72l11.17-1.57c1.34-0.16,2.28-1.42,2.12-2.83
					c-0.16-1.34-1.42-2.28-2.83-2.12l-11.17,1.57c-1.34,0.16-2.28,1.42-2.12,2.83C190.52,489.94,191.78,490.88,193.19,490.72z
					 M241.02,486.95l-5.03,0.79c-1.34,0.16-2.6-0.87-2.75-2.2s0.87-2.6,2.2-2.75l11.17-1.18c1.02-0.08,1.34-0.24,1.81,0.63
					C245.97,483.88,243.38,485.85,241.02,486.95z M145.92,478.3c0-0.71,0.24-1.18,0.87-1.65c1.1-0.87,2.6-0.71,3.54,0.39l7.08,8.73
					c0.87,1.1,0.71,2.6-0.39,3.54c-0.16,0.16-0.47,0.24-0.63,0.31C151.27,485.38,148.59,482.07,145.92,478.3z M215.85,473.1
					l1.49,11.17c0.16,1.34,1.42,2.28,2.83,2.12c1.34-0.16,2.28-1.42,2.12-2.83l-1.49-11.17c-0.16-1.34-1.42-2.28-2.83-2.12
					C216.63,470.51,215.69,471.77,215.85,473.1z M168.18,478.14l10.54,4.01c1.26,0.47,2.75-0.16,3.23-1.42
					c0.47-1.26-0.16-2.75-1.42-3.23l-10.54-4.01c-1.26-0.47-2.75,0.16-3.23,1.42C166.29,476.17,166.92,477.67,168.18,478.14z
					 M198.07,470.12l-7.08-8.73c-0.87-1.1-2.44-1.26-3.54-0.39s-1.26,2.44-0.39,3.54l7.08,8.73c0.87,1.1,2.44,1.26,3.54,0.39
					C198.78,472.71,198.94,471.14,198.07,470.12z M239.21,469.09l-6.53-9.2c-0.79-1.1-2.36-1.42-3.46-0.55
					c-1.1,0.79-1.42,2.36-0.55,3.46l6.53,9.2c0.79,1.1,2.36,1.42,3.46,0.55C239.76,471.77,240,470.19,239.21,469.09z M251.56,458.32
					l-1.49,11.17c-0.16,1.34,0.79,2.6,2.12,2.83c1.34,0.16,2.6-0.79,2.83-2.12l1.49-11.17c0.16-1.34-0.79-2.6-2.12-2.83
					C252.97,455.96,251.72,456.9,251.56,458.32z M210.26,464.06l4.17-10.46c0.47-1.26-0.16-2.75-1.42-3.23
					c-1.26-0.47-2.75,0.16-3.23,1.42l-4.17,10.46c-0.47,1.26,0.16,2.75,1.42,3.23C208.3,465.95,209.71,465.32,210.26,464.06z
					 M156.38,459.81l-11.25,0.16c-1.34,0-2.44,1.18-2.44,2.52s1.18,2.44,2.52,2.44l11.25-0.16c1.34,0,2.44-1.18,2.44-2.52
					C158.9,460.83,157.72,459.73,156.38,459.81z M169.91,450.77l2.83,10.93c0.31,1.34,1.73,2.12,3.07,1.81s2.12-1.73,1.81-3.07
					l-2.83-10.93c-0.31-1.34-1.73-2.12-3.07-1.81C170.38,448.09,169.6,449.43,169.91,450.77z M270.91,460.44l-5.43-6.84
					c-0.87-1.1-0.63-2.67,0.47-3.46c1.1-0.87,2.67-0.63,3.46,0.47l4.8,5.51C273.11,457.45,271.93,459.1,270.91,460.44z
					 M134.75,444.16l7.32,4.01c1.18,0.63,1.65,2.2,0.94,3.38c-0.63,1.18-2.2,1.65-3.38,0.94l-3.62-2.05
					C135.62,448.25,135.06,446.05,134.75,444.16z M238.89,440.23l-9.05,6.69c-1.1,0.79-1.34,2.36-0.55,3.46
					c0.79,1.1,2.36,1.34,3.46,0.55l9.05-6.69c1.1-0.79,1.34-2.36,0.55-3.46S240,439.44,238.89,440.23z M157.95,439.36
					c1.65,0.63,3.3,1.1,5.11,1.57c-0.08,0.08-0.39,0.47-0.47,0.63l-6.84,8.97c-0.87,1.1-2.36,1.34-3.46,0.47
					c-1.1-0.87-1.34-2.36-0.47-3.46L157.95,439.36z M192.33,438.81l5.51,6.84c0.87,1.1,0.71,2.6-0.39,3.54
					c-1.1,0.87-2.6,0.71-3.54-0.39l-6.84-8.5C188.79,439.91,190.36,439.52,192.33,438.81z M258.72,443.69l3.85-10.54
					c0.47-1.26-0.16-2.75-1.49-3.23c-1.26-0.47-2.75,0.16-3.23,1.49L254,441.96c-0.47,1.26,0.16,2.75,1.49,3.23
					C256.75,445.57,258.24,444.94,258.72,443.69z M281.45,444.55l-9.36-1.18c-1.34-0.16-2.36-1.42-2.2-2.75
					c0.16-1.34,1.42-2.36,2.75-2.2l11.09,1.34C283.1,441.25,282.31,442.9,281.45,444.55z M223.56,437.47l-11.09-1.73
					c-1.34-0.24-2.6,0.71-2.83,2.05c-0.24,1.34,0.71,2.6,2.05,2.83l11.09,1.73c1.34,0.24,2.6-0.71,2.83-2.05
					C225.84,438.97,224.97,437.71,223.56,437.47z M136.95,422.92c2.2,2.83,4.25,5.11,6.37,7.08l1.02,4.01
					c0.31,1.34-0.47,2.67-1.81,3.07c-1.34,0.31-2.67-0.47-3.07-1.81l-2.83-10.93C136.64,423.94,136.8,423.31,136.95,422.92z
					 M225.76,418.59l6.76,4.64c1.1,0.79,1.42,2.28,0.71,3.46c-0.79,1.1-2.28,1.42-3.46,0.71l-8.18-5.58
					C223.01,420.8,224.34,419.62,225.76,418.59z M256.59,416.78l-10.78,3.3c-1.34,0.39-2.05,1.81-1.65,3.07
					c0.39,1.34,1.81,2.05,3.07,1.65l10.85-3.23c1.34-0.39,2.05-1.81,1.65-3.07C259.27,417.18,257.93,416.39,256.59,416.78z
					 M252.19,407.27c-0.31,0.24-1.02,0.63-1.49,0.71l-11.01,0.63c4.88-3.3,8.26-5.66,8.26-5.66L252.19,407.27z"/>
			</g>
		</g>
		<g transform="matrix(1,0,0,1,94.6774,115.527)">
			<path class="st21" d="M196.82,142.7l-22.97,0.08c0,0-37.6,43.26-97.46-5.58c0,0-14.24,1.73-30.68,3.7
				c-12.59,1.49-23.99,8.34-31.31,18.72C7.1,170,4.5,182.98,7.25,195.4c5.51,24.62,11.09,49.32,11.09,49.32l73.78-20.37l3.23,13.45
				c0,0,36.73-28,48.61-30.13L196.82,142.7z"/>
			<g transform="matrix(1,0,0,1,-94.6774,-115.527)">
				<path class="st0" d="M121.14,341.59c2.91,0,5.19,2.36,5.19,5.19c0,2.91-2.36,5.19-5.19,5.19c-2.91,0-5.19-2.36-5.19-5.19
					C115.87,343.95,118.23,341.59,121.14,341.59z M155.04,348.59c-5.82-6.84-5.98-15.81-3.07-22.65c2.6-6.06,7.55-10.38,13.14-10.7
					c1.34-0.08,2.52,0.94,2.6,2.36c0.08,1.34-0.94,2.52-2.36,2.6c-3.85,0.24-7.08,3.46-8.81,7.63c-2.52,5.82-2.05,13.69,4.01,19.19
					L155.04,348.59z M226.39,315.08c-3.38-3.46-8.81-4.64-14.32-3.46c-9.75,2.05-19.66,11.25-17.23,25.56
					c0.24,1.34,1.49,2.28,2.91,2.05c1.34-0.24,2.28-1.49,2.05-2.91c-1.89-11.09,5.74-18.25,13.37-19.82
					c3.7-0.79,7.47-0.24,9.75,2.12c0.94,0.94,2.52,1.02,3.54,0.08C227.33,317.67,227.41,316.1,226.39,315.08z M214.04,335.22
					c-1.89-0.79-3.15-2.67-3.15-4.8c0-2.91,2.36-5.19,5.19-5.19c2.91,0,5.19,2.36,5.19,5.19c0,0.08,0,0.16,0,0.16
					C218.92,332.07,216.48,333.64,214.04,335.22z M101.01,301.31c9.83-4.88,19.66-1.26,25.49,4.88c4.48,4.8,6.45,11.09,4.48,16.28
					c-0.47,1.26-1.89,1.97-3.22,1.49c-1.26-0.47-1.97-1.89-1.42-3.23c1.34-3.62-0.31-7.87-3.46-11.17
					c-4.8-5.11-13.29-7.94-21.55-2.83C101.24,305.01,101.08,303.2,101.01,301.31z M245.66,272.76c4.56,9.99,0.71,19.74-5.58,25.33
					c-4.88,4.4-11.25,6.14-16.44,4.09c-1.26-0.55-1.89-1.97-1.34-3.23c0.55-1.26,1.97-1.89,3.23-1.34
					c3.54,1.42,7.87-0.16,11.25-3.15c4.96-4.4,7.94-12.19,4.09-20.14C242.51,273.78,244.09,273.23,245.66,272.76z M154.65,289.75
					c2.91,0,5.19,2.36,5.19,5.19s-2.36,5.19-5.19,5.19c-2.91,0-5.19-2.36-5.19-5.19S151.82,289.75,154.65,289.75z M184.86,263.24
					c1.49,0.87,2.99,1.73,4.4,2.44c-1.65,1.65-2.83,3.93-3.46,6.53c-1.81,7.08,0.47,16.13,9.99,20.14c1.26,0.55,1.89,1.97,1.34,3.23
					c-0.55,1.26-1.97,1.89-3.23,1.34c-12.27-5.19-15.26-16.91-12.9-25.96C181.71,268.04,183.05,265.37,184.86,263.24z M214.2,280.86
					c2.91,0,5.19,2.36,5.19,5.19c0,2.91-2.36,5.19-5.19,5.19c-2.83,0-5.19-2.36-5.19-5.19C209,283.22,211.36,280.86,214.2,280.86z
					 M264.46,290.07c-4.48-3.85-6.92-9.12-6.06-14.16c0.24-1.34,1.49-2.28,2.91-2.05c1.34,0.24,2.28,1.49,2.05,2.91
					c-0.63,3.38,1.26,6.76,4.25,9.36L264.46,290.07z M159.76,267.25c-3.7-4.17-10.15-5.43-16.52-3.78
					c-9.05,2.44-17.7,10.85-16.13,24.07c0.16,1.34,1.42,2.36,2.75,2.2s2.36-1.42,2.2-2.75c-1.18-10.23,5.51-16.75,12.51-18.64
					c4.4-1.18,8.97-0.63,11.48,2.2c0.94,1.02,2.52,1.1,3.54,0.24C160.63,269.93,160.71,268.28,159.76,267.25z M283.02,261.51
					c0.94,0.87,1.57,2.05,1.73,3.3l-4.64,5.74c-0.16,0-0.39,0-0.55,0c-2.91,0-5.19-2.36-5.19-5.19c0-0.87,0.24-1.73,0.63-2.44
					L283.02,261.51z"/>
			</g>
		</g>
		<g transform="matrix(1,0,0,1,94.6774,115.527)">
			<path d="M172.04,144.67l1.81-1.89l-38.78-0.24c-0.55,0-0.94,0.39-0.94,0.94c0,0.55,0.39,0.94,0.94,0.94L172.04,144.67z"/>
			<path d="M133.82,146.71l3.46-9.99c0.16-0.47-0.08-1.02-0.55-1.18c-0.47-0.16-1.02,0.08-1.18,0.55l-3.46,9.99
				c-0.16,0.47,0.08,1.02,0.55,1.18C133.11,147.5,133.66,147.26,133.82,146.71z"/>
			<path d="M119.11,126.42c0,0,3.93,3.93,9.12,7.63c4.17,2.99,9.52,3.93,14.47,2.67c4.96-1.26,9.2-4.64,11.48-9.2
				c4.64-9.28,10.7-21.24,10.7-21.24c0.24-0.47,0.08-1.02-0.39-1.26c-0.47-0.24-1.02-0.08-1.26,0.39c0,0-5.98,11.96-10.7,21.24
				c-2.05,4.09-5.82,7.08-10.3,8.18c-4.48,1.1-9.2,0.24-12.9-2.44c-5.03-3.54-8.89-7.39-8.89-7.39c-0.39-0.39-0.94-0.39-1.34,0
				C118.71,125.48,118.71,126.11,119.11,126.42z"/>
			<path d="M120.76,98.89c0,0-0.47-4.17-2.44-7.63c-1.26-2.2-2.99-4.17-5.51-4.8c-1.65-0.39-3.7-0.24-6.06,0.87
				c-5.58,2.6-8.1,10.46,2.44,20.53c0.39,0.39,1.02,0.31,1.34,0c0.39-0.39,0.31-1.02,0-1.34c-8.97-8.57-7.71-15.1-2.91-17.38
				c1.89-0.87,3.46-1.1,4.8-0.79c1.97,0.47,3.38,2.05,4.33,3.85c1.73,3.15,2.2,6.92,2.2,6.92c0.08,0.55,0.55,0.87,1.1,0.87
				C120.44,99.83,120.84,99.36,120.76,98.89z"/>
			<path d="M106.29,103.92l-15.1,32.09c-0.24,0.47,0,1.02,0.47,1.26c0.47,0.24,1.02,0,1.26-0.47l15.1-32.09
				c0.24-0.47,0-1.02-0.47-1.26C107.07,103.29,106.52,103.45,106.29,103.92z"/>
			<path d="M78.6,138.85l14-1.97c0.55-0.08,0.87-0.55,0.87-1.02c-0.08-0.55-0.55-0.87-1.02-0.87l-16.05,2.12L78.6,138.85z"/>
			<g transform="matrix(0.610599,-0.533726,0.648359,0.741743,-199.813,522.509)">
				<path d="M640.39-83.36c0.39,0,0.71,0.24,1.02,0.55c0.39,0.47,0.63,1.1,0.63,1.81s-0.24,1.34-0.63,1.81
					c-0.24,0.31-0.63,0.55-1.02,0.55c-0.63,0-1.18,0.47-1.18,0.94c0,0.55,0.55,0.94,1.18,0.94c0.94,0,1.81-0.31,2.52-0.94
					c0.87-0.79,1.49-1.97,1.49-3.38c0-1.42-0.63-2.6-1.49-3.38c-0.71-0.63-1.57-0.94-2.52-0.94c-0.63,0-1.18,0.47-1.18,0.94
					C639.21-83.75,639.76-83.36,640.39-83.36z"/>
			</g>
			<g transform="matrix(0.610599,-0.533726,0.648359,0.741743,-199.813,522.509)">
				<path d="M640.39-78.56c-0.39,0-0.71-0.24-1.02-0.55c-0.39-0.47-0.63-1.1-0.63-1.81c0-0.71,0.24-1.34,0.63-1.81
					c0.24-0.31,0.63-0.55,1.02-0.55c0.63,0,1.18-0.47,1.18-0.94c0-0.55-0.55-0.94-1.18-0.94c-0.94,0-1.81,0.31-2.52,0.94
					c-0.87,0.79-1.49,1.97-1.49,3.38s0.63,2.6,1.49,3.38c0.71,0.63,1.57,0.94,2.52,0.94c0.63,0,1.18-0.47,1.18-0.94
					C641.57-78.17,641.1-78.56,640.39-78.56z"/>
			</g>
			<path d="M119.74,96.29c0,0,13.45,7.24,24.86-4.56c0,0,5.9,13.69,20.29,14.63c0,0,3.62-4.88,1.1-10.07
				c-1.97-4.01-6.29-9.75-11.64-14.63c-9.6-8.65-24.23-8.89-34.06-0.47c-2.28,1.97-4.4,4.33-6.14,7.16
				C114.07,88.35,117.53,87.01,119.74,96.29z"/>
		</g>
		<g transform="matrix(1,0,0,1,94.6774,115.527)">
			<path d="M143.89,207.75c0,0,59.31-71.58,93.53-112.88c13.92-16.83,36.66-23.6,57.58-17.23l0,0
				c19.43,5.98,32.72,23.99,32.56,44.36c-0.16,30.76-0.39,70.48-0.39,70.48c0,0.71,0.55,1.26,1.26,1.26c0.71,0,1.26-0.55,1.26-1.26
				c0,0,0.24-39.72,0.39-70.48c0.08-21.47-13.84-40.43-34.37-46.72l0,0c-21.87-6.69-45.62,0.39-60.25,18.01
				c-34.22,41.3-93.53,112.88-93.53,112.88c-0.47,0.55-0.39,1.34,0.16,1.73C142.63,208.38,143.41,208.3,143.89,207.75z"/>
			<path d="M326.77,265.1v12.43l-0.47,94.31c0,0.71,0.55,1.26,1.26,1.26c0.71,0,1.26-0.55,1.26-1.26l0.47-94.31V265.1
				c0-0.71-0.55-1.26-1.26-1.26C327.32,263.84,326.77,264.39,326.77,265.1z"/>
			<path d="M336.05,387.02c-0.94-10.46-9.05-14.08-9.05-14.08c-0.63-0.24-0.94-1.02-0.63-1.65c0.24-0.63,1.02-0.94,1.65-0.63
				c0,0,10.15,4.33,10.62,17.46c0,0.63-0.47,1.26-1.18,1.26l-57.5,4.33c-0.39,0-0.71-0.08-1.02-0.39c0,0-16.68-17.78-37.13-18.41
				c-0.71,0-1.18-0.55-1.18-1.26l-0.39-96.12c0-0.71,0.55-1.26,1.26-1.26c0.71,0,1.26,0.55,1.26,1.26l0.31,95.02
				c18.96,1.18,34.53,15.97,37.28,18.64L336.05,387.02z"/>
			<path d="M242.76,277.52l-0.08-12.66c0-0.71-0.55-1.26-1.26-1.26c-0.71,0-1.26,0.55-1.26,1.26l0.08,12.66
				c0,0.71,0.55,1.26,1.26,1.26C242.21,278.7,242.76,278.15,242.76,277.52z"/>
			<path d="M242.13,167.48l0.16-12.74c0-0.71-0.55-1.26-1.26-1.26c-0.71,0-1.26,0.55-1.26,1.26l-0.16,12.74
				c0,0.71,0.55,1.26,1.26,1.26C241.58,168.66,242.13,168.11,242.13,167.48z"/>
			<path d="M223.96,258.88l-36.42,63.08l2.05,1.97l36.5-63.71c0.31-0.63,0.16-1.34-0.47-1.73
				C225.06,258.1,224.27,258.33,223.96,258.88z"/>
		</g>
		<g transform="matrix(1,0,0,1,94.6774,115.527)">
			<path d="M226.63,280.91l13.69-0.63c0.71,0,1.26-0.55,1.26-1.26c0-0.71-0.55-1.26-1.26-1.26l-13.69,0.63V280.91z"/>
			<path d="M493.68,520.03c-4.64-5.03-12.11-7.08-12.11-7.08c-0.39-0.08-0.71-0.39-0.87-0.79c0,0-38.46-109.89-62.46-178.63
				c-11.17-31.86-41.22-53.17-74.96-53.17h-14.39c-0.71,0-1.26-0.55-1.26-1.26c0-0.71,0.55-1.26,1.26-1.26h14.39
				c34.85,0,65.84,22.02,77.32,54.9l62.3,178.01c2.28,0.79,10.38,3.78,14.39,9.91c0.24,0.39,0.31,0.87,0.08,1.26
				c-0.24,0.39-0.63,0.63-1.1,0.63l-92.5-3.93c-0.55,0-0.94-0.31-1.18-0.79l-60.41-159.21c-0.24-0.63,0.08-1.34,0.71-1.57
				c0.63-0.24,1.34,0.08,1.57,0.71l60.1,158.34L493.68,520.03z"/>
			<path d="M374.83,307.02l14.55,9.6c0.55,0.39,1.34,0.24,1.73-0.39c0.39-0.55,0.24-1.34-0.39-1.73l-14.55-9.6
				c-0.55-0.39-1.34-0.24-1.73,0.31C374.04,305.84,374.2,306.63,374.83,307.02z"/>
			<path d="M347.45,370.03c0,0-7.55,0-18.8,0c-0.71,0-1.26,0.55-1.26,1.26c0,0.71,0.55,1.26,1.26,1.26c11.25,0,18.8,0,18.8,0
				c0.71,0,1.26-0.55,1.26-1.26C348.71,370.58,348.16,370.03,347.45,370.03z"/>
			<path d="M230.8,370.03c0.24,0,2.83,0,6.37,0c1.42,0,1.89,0,3.7,0c0.71,0,1.26,0.55,1.26,1.26c0,0.71-0.55,1.26-1.26,1.26
				c-1.81,0-2.28,0-3.7,0c-3.78,0-7.08,0-7.08,0l-0.08-2.44c0,0,0.39-0.08,0.47-0.08C230.65,370.03,230.72,370.03,230.8,370.03z"/>
		</g>
		<g transform="matrix(1,0,0,1,94.6774,115.527)">
			<path class="st26" d="M215.62,251.72l28.71,11.09c1.89,0.71,3.93,0.16,5.19-1.34c0.39,0.31,0.94,0.47,1.57,0.63l2.52-0.31
				l-2.12,4.25c-1.1,2.12-3.7,3.07-5.82,2.05l-33.27-14.95L215.62,251.72z M279.26,204.21l10.07-19.59c0,0-0.08,4.33-0.08,6.21
				c0,0.55-0.16,1.18-0.39,1.73l-6.37,12.66C281.7,204.61,280.67,204.21,279.26,204.21z"/>
			<path class="st27" d="M222.23,196.98c7.39-12.59,14.16-24.23,17.31-29.58c1.1-1.89,3.23-2.83,5.35-2.52
				c14.71,2.83,33.98,11.25,41.61,14.87c0.79,0.39,1.49,0.94,2.05,1.57c0.94,1.02,1.18,2.52,0.55,3.7l-9.83,19.19
				c-1.73,0-4.09,0.63-7.16,2.52l-23.6,49.16c0,0-1.42,4.01,1.18,5.66c-1.42,1.57-3.7,2.12-5.66,1.34l-28.47-11.25l3.85-1.73
				l11.01-51.13L222.23,196.98z"/>
			<g transform="matrix(0.868545,0.432243,-0.463288,0.930927,499.326,-333.163)">
				<path class="st0" d="M41.08,540.38c0-0.87-0.39-1.73-1.1-2.36c-0.71-0.63-1.65-0.87-2.6-0.79c-0.16,0-0.24,0-0.39,0
					c-9.2,0.87-27.45,2.12-39.72,4.33c-2.36,0.47-4.09,2.36-4.17,4.64c-0.87,13.61-3.7,59.86-4.64,73.78
					c-0.08,1.02,0.31,1.97,1.1,2.67c0.79,0.71,1.81,1.1,2.91,0.94c9.52-0.79,32.33-2.52,42.32-3.3c2.75-0.24,4.8-2.28,4.88-4.88
					C39.98,600.79,40.85,553.75,41.08,540.38z"/>
			</g>
			<g transform="matrix(0.940787,0.339,-0.339,0.940787,308.249,-247.407)">
				<path class="st26" d="M111.49,410.62c0-0.55-0.47-1.02-1.02-1.02h-16.6c-0.55,0-1.02,0.47-1.02,1.02c0,0.55,0.47,1.02,1.02,1.02
					h16.6C111.1,411.65,111.49,411.17,111.49,410.62z"/>
			</g>
			<path d="M261.09,221.44l-0.87,1.81l-23.13-9.12l18.8-4.72c5.35-3.38,0.31-8.73,0.31-8.73c-3.38,0.87-20.45-0.94-26.11-1.57
				l11.8-21.55l33.9,13.21l-8.42,17.54c-3.62,0.87-12.43,3.78-10.54,10.23L261.09,221.44z"/>
			<g transform="matrix(0.911149,0.412078,-0.412078,0.911149,469.546,-287.113)">
				<path class="st13" d="M8.92,559.24c0.79-1.57,2.36-1.57,3.15-0.79c0.79,0.79,0.79,2.28,0,3.85c-0.55,1.18-1.97,2.28-3.15,3.07
					c-1.18-0.79-2.6-1.97-3.15-3.07c-0.79-1.57-0.79-3.07,0-3.85C6.56,557.74,8.14,557.74,8.92,559.24z"/>
			</g>
			<g transform="matrix(1.03092,0.395189,-0.450064,1.17407,338.539,-504.992)">
				<path d="M172.85,529.6h-32.56l-0.55,3.54l32.88-0.08L172.85,529.6z"/>
			</g>
			<path class="st28" d="M250.78,240.95l-9.28,18.72l-24.7-9.83l6.61-2.83c9.36-6.45,3.3-8.97,3.3-8.97
				c3.7-0.94,5.43-3.15,6.21-4.72L250.78,240.95z"/>
		</g>
		<path class="st13" d="M387.95,275.04l-8.89,8.81l3.85,3.93l9.44-6.45L387.95,275.04z M369.7,279.13l4.01,2.75l8.97-12.11
			l-7.71-3.54L369.7,279.13z M356.18,275.43l5.66,1.1l3.46-12.11l-7.79-1.49L356.18,275.43z"/>
		<polygon class="st22" points="286.53,314.83 312.44,311.77 323.3,313.9 337.77,315.87 350.91,316.18 352.79,319.4 352.79,322.47 
			347.6,326.09 333.6,330.34 327.78,331.44 328.96,332.86 329.67,335.84 328.49,338.13 326.44,340.88 327.86,343.95 328.49,346.78 
			326.91,349.85 324.79,351.58 320.94,352.99 321.88,354.25 323.3,355.12 322.67,358.11 319.76,360.94 312.36,365.81 296.83,372.41 
					"/>
		<g transform="matrix(1,0,0,1,94.6774,115.527)">
			<path d="M84.5,182.43l9.2,55.38c0.08,0.71,0.55-0.39,1.26-0.47c0.71-0.08,1.1-0.79,1.02-1.42l-8.97-53.88
				c-0.08-0.71-0.79-1.1-1.42-1.02C84.89,181.09,84.42,181.72,84.5,182.43z"/>
			<path d="M220.26,195.72c0.94,0.16,24.31,4.25,35.24,3.78c1.26-0.08,2.83,0.87,3.7,2.44c0.87,1.65,1.02,4.01-0.87,6.37
				c-1.57,2.05-4.8,4.17-10.7,5.66c-7.16,1.81-15.02,4.4-34.92,1.42c-0.71-0.08-1.18-0.71-1.02-1.42c0.08-0.71,0.71-1.18,1.42-1.02
				c19.27,2.91,26.98,0.39,33.9-1.42c4.48-1.1,7.24-2.6,8.73-4.09c1.26-1.26,1.65-2.44,1.49-3.54c-0.16-0.71-0.55-1.34-1.02-1.73
				c-0.24-0.16-0.47-0.31-0.63-0.24c-11.33,0.55-35.87-3.78-35.87-3.78h-0.08c-29.58-7-58.29,1.02-82.2,13.14
				c-35.95,18.25-60.88,45.86-60.88,45.86c-0.47,0.47-1.26,0.55-1.73,0.08c-0.47-0.47-0.55-1.26-0.08-1.73
				c0,0,25.17-27.92,61.59-46.41C160.8,196.74,190.14,188.64,220.26,195.72z"/>
			<path d="M232.22,217.04c0,0,0.79,0.71,1.26,1.73c0.31,0.63,0.47,1.34,0.24,2.12c-0.31,0.94-1.18,1.89-2.91,2.83
				c-2.99,1.57-8.18,2.91-17.07,3.62c-0.71,0.08-1.18,0.63-1.18,1.34c0.08,0.71,0.63,1.18,1.34,1.18
				c9.36-0.79,14.87-2.28,18.01-3.93c2.44-1.26,3.54-2.75,4.01-4.09c0.55-1.49,0.31-2.91-0.24-4.01c-0.71-1.57-1.89-2.67-1.89-2.67
				c-0.47-0.47-1.26-0.39-1.73,0.08C231.67,215.78,231.75,216.56,232.22,217.04L232.22,217.04z"/>
			<path d="M230.65,226.32c0,0,2.36,2.44,1.89,5.11c-0.24,1.34-1.34,2.75-3.7,4.01c-2.75,1.42-7.08,2.6-13.77,3.3
				c-0.71,0.08-1.18,0.71-1.1,1.34c0.08,0.71,0.71,1.18,1.34,1.1c5.66-0.55,9.75-1.49,12.59-2.67c5.11-2.05,6.76-4.72,7.08-7.16
				c0.39-3.62-2.6-6.84-2.6-6.84c-0.47-0.47-1.26-0.47-1.73,0C230.17,224.98,230.1,225.77,230.65,226.32z"/>
			<path d="M213.34,250.94c8.89-4.48,12.66-7.39,13.92-9.44c0.31-0.55,0.47-0.87,0.39-1.18c-0.08-0.24-0.31-0.39-0.47-0.55
				c-0.39-0.24-0.87-0.39-0.87-0.39l0,0c-0.71-0.16-1.1-0.79-0.94-1.49c0.16-0.71,0.79-1.1,1.49-0.94c0,0,0.87,0.16,1.73,0.71
				c0.63,0.39,1.26,1.02,1.49,1.89c0.24,0.79,0.24,1.89-0.63,3.3c-1.42,2.2-5.35,5.51-14.95,10.3c0,0,0,0-0.08,0
				c0,0-48.61,21.32-96.12,59.94c0,0,0,0-0.08,0c0,0-28.32,20.69-54.9,10.62c-11.41-4.33-22.5-14.24-30.83-33.82v-0.08l-14-45.23
				l2.36-0.71c0,0,13.53,43.89,13.92,45.07c8.02,18.8,18.56,28.32,29.42,32.49c25.01,9.44,51.68-9.68,52.54-10.3
				C163.71,272.88,211.93,251.57,213.34,250.94z"/>
		</g>
		<g transform="matrix(1,0,0,1,94.6774,115.527)">
			<path d="M328.81,162.13c0,0,16.52,6.61,30.76,19.27c14.08,12.51,25.88,30.99,16.83,55.06c-3.23,8.5-17.3,40.43-114.29,22.26
				c-0.71-0.16-1.34,0.31-1.42,1.02c-0.16,0.71,0.31,1.34,1.02,1.49c99.58,18.64,113.82-15.1,117.12-23.83
				c9.52-25.25-2.75-44.68-17.46-57.81c-14.55-12.98-31.46-19.74-31.46-19.74c-0.63-0.24-1.34,0.08-1.65,0.71
				C327.87,161.19,328.18,161.9,328.81,162.13z"/>
			<path d="M289.17,192.57l51.21,2.12c0.71,0,1.26-0.47,1.26-1.18c0-0.71-0.47-1.26-1.18-1.26l-51.21-2.12
				c-0.71,0-1.26,0.47-1.26,1.18C287.99,191.94,288.54,192.57,289.17,192.57z"/>
			<g transform="matrix(-2.63809,-6.87137,-16.2623,6.24351,18297.4,2261.17)">
				<path d="M1138.11,923.44c0-0.16-0.24-0.24-0.55-0.24c-0.31,0-0.55,0.08-0.55,0.24v1.02c0,0.08-0.08,0.08-0.16,0.08
					s-0.16,0-0.16-0.08v-1.02c0-0.24,0.39-0.39,0.94-0.39c0.55,0,0.94,0.16,0.94,0.39c0,0.08-0.08,0.08-0.16,0.08
					C1138.19,923.52,1138.11,923.52,1138.11,923.44z"/>
			</g>
			<g transform="matrix(-2.63809,-6.87137,-16.2623,6.24351,18297.4,2261.17)">
				<path d="M1137.01,924.46c0,0.16,0.24,0.24,0.55,0.24c0.31,0,0.55-0.08,0.55-0.24v-1.02c0-0.08,0.08-0.08,0.16-0.08
					c0.08,0,0.16,0,0.16,0.08v1.02c0,0.24-0.39,0.39-0.94,0.39s-0.94-0.16-0.94-0.39c0-0.08,0.08-0.08,0.16-0.08
					C1136.94,924.46,1137.01,924.46,1137.01,924.46z"/>
			</g>
			<g transform="matrix(-2.63809,-6.87137,-16.2623,6.24351,18290.4,2293.76)">
				<path d="M1140.34,922.82c0-0.16-0.24-0.24-0.55-0.24c-0.31,0-0.55,0.08-0.55,0.24v1.02c0,0.08-0.08,0.08-0.16,0.08
					s-0.16,0-0.16-0.08v-1.02c0-0.24,0.39-0.39,0.94-0.39c0.55,0,0.94,0.16,0.94,0.39c0,0.08-0.08,0.08-0.16,0.08
					C1140.42,922.9,1140.34,922.9,1140.34,922.82z"/>
			</g>
			<g transform="matrix(-2.63809,-6.87137,-16.2623,6.24351,18290.4,2293.76)">
				<path d="M1139.24,923.84c0,0.16,0.24,0.24,0.55,0.24s0.55-0.08,0.55-0.24v-1.02c0-0.08,0.08-0.08,0.16-0.08
					c0.08,0,0.16,0,0.16,0.08v1.02c0,0.24-0.39,0.39-0.94,0.39c-0.55,0-0.94-0.16-0.94-0.39c0-0.08,0.08-0.08,0.16-0.08
					C1139.16,923.84,1139.24,923.84,1139.24,923.84z"/>
			</g>
			<g transform="matrix(-2.63809,-6.87137,-16.2623,6.24351,18283.5,2326.34)">
				<path d="M1142.02,921.97c-0.31,0-0.55,0.08-0.55,0.24v1.02c0,0.08-0.08,0.08-0.16,0.08s-0.16,0-0.16-0.08v-1.02
					c0-0.24,0.39-0.39,0.94-0.39c0.08,0,0.16,0,0.16,0.08S1142.09,921.97,1142.02,921.97z"/>
			</g>
			<g transform="matrix(-2.63809,-6.87137,-16.2623,6.24351,18283.5,2326.34)">
				<path d="M1141.46,923.31c0,0.16,0.24,0.24,0.55,0.24s0.55-0.08,0.55-0.24v-1.02c0-0.16-0.24-0.24-0.55-0.24
					c-0.08,0-0.16,0-0.16-0.08s0.08-0.08,0.16-0.08c0.47,0,0.94,0.16,0.94,0.39v1.02c0,0.24-0.39,0.39-0.94,0.39
					c-0.47,0-0.94-0.16-0.94-0.39c0-0.08,0.08-0.08,0.16-0.08C1141.39,923.23,1141.46,923.23,1141.46,923.31z"/>
			</g>
			<g transform="matrix(-2.63809,-6.87137,-16.2623,6.24351,18276.5,2358.93)">
				<path d="M1144.24,921.35c-0.31,0-0.55,0.08-0.55,0.24v1.02c0,0.08-0.08,0.08-0.16,0.08c-0.08,0-0.16,0-0.16-0.08v-1.02
					c0-0.24,0.39-0.39,0.94-0.39c0.08,0,0.16,0,0.16,0.08S1144.32,921.35,1144.24,921.35z"/>
			</g>
			<g transform="matrix(-2.63809,-6.87137,-16.2623,6.24351,18276.5,2358.93)">
				<path d="M1143.61,922.69c0,0.16,0.24,0.24,0.55,0.24c0.31,0,0.55-0.08,0.55-0.24v-1.02c0-0.16-0.24-0.24-0.55-0.24
					c-0.08,0-0.16,0-0.16-0.08s0.08-0.08,0.16-0.08c0.47,0,0.94,0.16,0.94,0.39v1.02c0,0.24-0.39,0.39-0.94,0.39
					c-0.55,0-0.94-0.16-0.94-0.39c0-0.08,0.08-0.08,0.16-0.08C1143.61,922.61,1143.61,922.61,1143.61,922.69z"/>
			</g>
		</g>
		<g transform="matrix(1,0,0,1,94.6774,115.527)">
			<path d="M269.74,97.16l15.02,9.75c0.55,0.39,1.34,0.24,1.73-0.39c0.39-0.55,0.24-1.34-0.39-1.73l-15.02-9.75
				c-0.55-0.39-1.34-0.24-1.73,0.39C268.95,95.98,269.11,96.77,269.74,97.16z"/>
		</g>
	</g>
	<g transform="matrix(-0.663918,0,0,0.663918,2637.91,1056.71)">
		<g id="HASHTAG-BUBBLE" transform="matrix(0.965361,0,0,0.938474,-18.4846,18.9686)">
			<path d="M2906.07-976.81c-0.87,0.39-0.87,0.39-1.73,0.79c-7,2.75-14.71,4.25-22.81,4.25c-31.23,0-56.4-22.34-56.4-49.71
				s25.17-49.71,56.4-49.71s56.4,22.34,56.4,49.71c0,13.77-6.37,26.27-16.75,35.32c-0.79,0.71-0.71,0.71-1.57,1.34
				c-0.86,0.63-2.04,0.47-2.75-0.39c-0.63-0.87-0.47-2.12,0.39-2.83c0.71-0.55,0.71-0.55,1.42-1.18
				c9.44-8.26,15.34-19.66,15.34-32.25c0-25.33-23.6-45.7-52.54-45.7c-28.95,0-52.54,20.37-52.54,45.7s23.6,45.7,52.54,45.7
				c7.63,0,14.87-1.42,21.47-4.01c0.79-0.31,0.79-0.39,1.57-0.71c1.02-0.47,2.12,0,2.52,1.02
				C2907.56-978.39,2907.09-977.21,2906.07-976.81z"/>
		</g>
		<g transform="matrix(-1.82904,0,0,1.91361,4519.22,-1872.75)">
			<path d="M947.91,477.14l9.12,23.2c0.24,0.63,1.02,1.02,1.73,0.79c0.71-0.24,1.02-1.02,0.79-1.65l-9.12-23.2
				c-0.24-0.71-1.02-1.02-1.73-0.79C947.99,475.73,947.68,476.44,947.91,477.14z"/>
		</g>
		<g transform="matrix(-1.82904,0,0,1.91361,4474.41,-1890.33)">
			<path d="M933.56,482.49l9.12,23.2c0.24,0.63,1.02,1.02,1.73,0.79c0.71-0.24,1.02-1.02,0.79-1.65l-9.12-23.2
				c-0.24-0.71-1.02-1.02-1.73-0.79C933.64,481.07,933.33,481.86,933.56,482.49z"/>
		</g>
		<g transform="matrix(-0.0908262,-1.91125,-1.82678,0.0950258,2863.75,4426.62)">
			<path d="M2803.15-98.09l9.12,23.2c0.24,0.71,1.02,1.02,1.65,0.71c0.63-0.31,0.94-1.1,0.71-1.73l-9.12-23.2
				c-0.24-0.71-1.02-1.02-1.65-0.71C2803.23-99.51,2802.91-98.72,2803.15-98.09z"/>
		</g>
		<g transform="matrix(0.105007,1.91045,1.82602,-0.109863,-1898.19,-3643.44)">
			<path d="M1554.11,2451.31l9.12,23.2c0.24,0.71,1.02,1.02,1.65,0.71c0.63-0.31,0.94-1.1,0.71-1.73l-9.12-23.2
				c-0.24-0.71-1.02-1.02-1.65-0.71C1554.19,2449.82,1553.88,2450.6,1554.11,2451.31z"/>
		</g>
		<g transform="matrix(1,0,0,1,0.0209705,-9.02408)">
			<path d="M2801.46-878.38l-13.84-13.45c-0.71-0.71-1.97-0.71-2.67,0c-0.71,0.71-0.71,1.97,0,2.67l18.41,17.86
				c0.63,0.55,1.49,0.71,2.2,0.31c0.71-0.39,1.1-1.26,0.94-2.05l-5.82-25.09c-0.24-1.02-1.26-1.65-2.28-1.42
				c-1.02,0.24-1.65,1.26-1.42,2.28L2801.46-878.38z"/>
		</g>
	</g>
</g>
</svg>
