<?xml version="1.0" encoding="utf-8"?>
<!-- Generator: Adobe Illustrator 25.3.1, SVG Export Plug-In . SVG Version: 6.00 Build 0)  -->
<svg version="1.1" id="Layer_1" xmlns="http://www.w3.org/2000/svg" xmlns:xlink="http://www.w3.org/1999/xlink" x="0px" y="0px"
	 viewBox="0 0 640 200" style="enable-background:new 0 0 640 200;" xml:space="preserve">
<style type="text/css">
	.st0{fill:#023433;}
	.st1{fill:#010000;}
	.st2{fill:#F4B027;}
</style>
<g>
	<polygon class="st0" points="381.7,172.1 381.7,172.1 381.7,172.1 	"/>
	<polygon class="st0" points="526.8,157.3 526.8,157.3 526.8,157.3 	"/>
	<path class="st0" d="M245.5,76.7c-2.6-5.4-6.3-10.5-11.1-15.4l0,0l0,0c-4.7-4.7-10.2-8.1-16.3-10.2c-6.1-2.2-12.9-3.2-20.5-3.2
		c-1,0-2,0-3,0.1l0,0c-3.6,0.1-6.8,0.5-9.4,1.1c-4,1-7.1,2.6-9.3,5c-2.1,2.3-3.4,5.3-4.1,9.1c-3.1,1.3-5.4,3.1-7.1,5.1
		c-1.8,2.2-3,4.7-4,7.2l0,0l-2.3,6.6l0,0.1c-1.3,6.3-1.9,12.6-1.9,18.8c0,12.4,2.4,24.7,6.5,36.9l0,0l0,0c2,5.7,5.7,10.1,10.7,13.4
		c5.1,3.2,11.5,5.2,19,6.1l0,0c3.7,0.4,7.3,0.6,10.8,0.6c6.6,0,12.9-0.9,18.6-3.4c5.8-2.5,11.1-6.5,15.8-12.6h0c0,0,0,0,0,0
		c0,0,0,0,0,0l0,0c4.5-5.6,7.3-13.5,9-22.1c1.7-8.5,2.4-17.8,2.6-26.1l0,0v0C249.4,87.8,248,82.1,245.5,76.7z M177.8,138.6
		c-8.8-26.8,0.2-62.2,0-59.3c-0.2,2.6-6,27.9-0.6,49.3c1.2,4.7,2.1,5.5,2.5,10.2C179.9,140.9,178.3,139.8,177.8,138.6z M195.2,61.1
		c0-0.5,0.1-1,0.4-1.6l0,0l0,0c0.4-0.9,1.1-1.7,2.1-2.2c1-0.5,2.2-0.9,3.5-0.9c1.3,0,2.6,0.3,3.8,0.9l0,0l0,0
		c1.6,0.8,4.1,2.2,6.6,4.1c1.9,1.5,3.8,3.2,5.2,4.9c-1.5,0.2-3,0.2-4.6,0.2c-4.4,0-9.1-0.6-12.6-1.3l0,0l0,0
		c-1.5-0.3-2.6-0.9-3.4-1.7C195.6,62.9,195.2,62,195.2,61.1z M224.9,118.3L224.9,118.3L224.9,118.3c-0.7,5.1-2.2,10.1-4.1,14.9
		c-1.6,3.5-4.4,7.1-7.5,9.8c-1.6,1.4-3.2,2.5-4.7,3.2c-1.6,0.8-3,1.2-4.3,1.2c-1.2,0-2.2-0.3-3-1.1c-0.8-0.8-1.5-2.1-1.9-4.2
		c-0.6-3.5-1.2-9.2-1.6-15.8c-0.4-6.6-0.7-14.2-0.7-21.7c0-6.3,0.2-12.4,0.6-17.8c0.4-4.9,1-9.2,1.8-12.3l20,1h0
		c1.2,0,2,0.2,2.6,0.6c0.6,0.4,1,0.8,1.3,1.5c1.1,3,2.2,5.6,2.6,8.1l0,0l0,0c0.7,4,1,7.9,1,11.8C227,104.5,226.1,111.4,224.9,118.3z
		"/>
	<path class="st0" d="M145.4,96.5L145.4,96.5L145.4,96.5c-0.1-3.1-0.1-6-0.1-8.7c0-2,0-3.9,0-5.7c0-6.3-0.1-11.3-1.7-15.5
		c-0.8-2.1-1.9-3.9-3.5-5.4c-1.6-1.6-3.7-2.8-6.4-3.9l0,0l0,0c-5-1.9-10.2-3.6-15.5-3.6c-3.4,0-6.9,0.7-10.4,2.5
		c-0.8-0.8-1.5-1.6-2.2-2.4c-0.8-0.9-1.6-1.8-2.7-2.6c-4.8-3.4-10.4-5.5-16-5.5c-5,0-10,1.7-14.1,5.6l0,0c-2.4,2.3-3.9,4.8-5.7,6.8
		l-1.7,1.8L63.2,52l0,0c-0.7-2.4-2.5-4.4-4.8-6.1c-2.3-1.6-5.2-2.8-8.2-3.4c-0.4-0.1-0.8-0.1-1.2-0.1c-1,0-2,0.3-2.9,0.7
		c-1.7,0.9-3.2,2.4-4.6,4.4c-2.5,3.6-4.6,8.8-6.5,15.1c-0.2,0.8-0.5,1.6-0.7,2.5c0.4-4.3,0.8-8.5,1.1-12.8c0.2-3.1-4.5-3.6-5.3-0.7
		c-6,21.7-7.9,44.5-6.8,66.9c0.5,11.2,0.8,22.4,2.1,33.6c0.4,3.5,0.3,7.5,2.7,10.1c0.4,0.9,0.9,1.7,1.6,2.3c1.1,1,2.7,1.7,4.5,2l0,0
		c3.4,0.5,6.3,0.9,8.8,0.9c1.6,0,3.1-0.1,4.5-0.5c2.1-0.5,3.9-1.4,5.4-2.8c1.5-1.4,2.8-3.3,4-5.8l0,0l0,0c0.2-0.4,0.4-0.8,0.6-1.3
		c0.2-0.5,0.3-1,0.3-1.6c0-4.1,0.7-8.2,1.6-12.4c0.8-4.2,1.8-8.5,2.2-13l0,0c1.1-12,2.5-20.6,5.1-29.5c1.6-5.5,3.6-11.2,6.3-18
		c0.2-0.2,0.3-0.5,0.4-0.8c0.2-0.5,0.3-0.9,0.5-1.4c0.7-1.8,1.5-3.6,2.2-5.5c1-2.1,2.1-4.1,3.4-6.1c1.1-1.7,4-5.2,6.2-3.3
		c1.1,0.9,1.2,2.8,1.1,4.7c-1,6.2-2,12.8-2.7,18.9c-1.4,11.4-3,24.9-3,34.9c0,3.6,0.2,6.7,0.7,9.2l0,0l0,0c0.2,1.1,0.9,2,1.7,2.8
		c0.9,0.7,2,1.3,3.2,1.6l0,0c0,0,0,0,0,0c0,0,0,0,0,0l0,0c2.6,0.7,5.1,1.1,7.2,1.1c1,0,2-0.1,2.9-0.3c1.3-0.3,2.5-1,3.3-2.1
		c0.8-1.1,1.2-2.5,1.2-4.1l0,0c0,0,0.1-0.2,0.2-0.4c0.1-0.2,0.2-0.4,0.2-0.8l10.6-37.1c2.3-7.7,3.4-15.2,7.1-22.3l0,0l0,0
		c0.7-1.3,1.4-2.3,2.1-2.9c0.3-0.3,0.6-0.5,0.9-0.7c0.3-0.1,0.5-0.2,0.7-0.2l0.1,0l0,0l0,0c0.4,0.1,0.8,0.2,1,0.5c0.4,0.4,0.8,1,1,2
		c0.2,0.9,0.4,2.1,0.4,3.5c0,2.8-0.5,6.2-1.1,9.3c-0.6,3.2-1.4,6.1-1.8,8.1l0,0c-4.5,19-8.4,37.5-8.4,57c0,0.7-0.1,1.6-0.1,2.5
		c0,0.9,0.1,1.9,0.6,2.9c0.4,0.7,0.8,1.4,1.3,2.2c0.5,0.7,1.3,1.5,2.3,1.8l0,0c0,0,0,0,0,0c0,0,0,0,0,0h0c3.1,1.1,5.9,1.8,8.5,1.8
		c2.5,0,4.7-0.6,6.5-1.8c1.8-1.2,3.1-3.1,3.8-5.6l0,0l0.8-3l0,0c2.3-13.1,4.1-22.4,5.3-30c1.2-7.6,1.9-13.5,1.9-19.7
		C145.4,98.2,145.4,97.3,145.4,96.5z M37.5,92.7c-0.9,7.8-1.8,15.7-2.7,23.6c0,3,0.1,5.9-0.1,8.9c-0.1,0.9-0.1,1.8-0.2,2.7
		c0,0.5-0.1,0.9-0.1,1.4c0,0.2,0.1,0.8,0,0.8c-0.2,0.2-0.2-0.6-0.3-0.8c0-0.5-0.1-0.9-0.1-1.4c0-0.9,0-1.9,0-2.8
		c0-1.9,0.2-3.8,0.4-5.7c0.1-1,0.2-2.1,0.4-3.1c0-2.7-0.1-5.5,0.2-8.2c0.5-5.9,1.1-11.8,1.7-17.7c0.7-6.3,2.6-12.5,3.5-18.7
		c0.3-2.3,0.5-5.3,1.5-6.8C41.6,73.1,38.5,84,37.5,92.7z M89.9,80.9c0.9-4.3,1.2-8.8,0.8-13.2c-0.2-1.8-0.5-3.5-1.1-5.2
		c-0.2-0.6-0.5-1.2-0.9-1.6c0,0,0,0,0,0c-1.5-1.3-3.5-1.6-5.4-1.3c0.2-0.2,0.4-0.4,0.6-0.5c0.6-0.4,1.2-0.6,1.8-0.6
		c0.3,0,0.7,0.1,1.1,0.2l0,0c0.6,0.2,0.9,0.4,1.2,0.7c0.3,0.2,0.6,0.4,0.8,0.6c0.3,0.3,0.6,0.7,0.9,1.1c0.2,0.3,0.4,0.7,0.5,1.1
		c0.7,1.8,0.9,3.7,1,5.6C91.4,72.2,90.4,82.3,89.9,80.9z"/>
	<path class="st0" d="M479,140c-4-2-7.2-3.1-10.1-3.1c-2.1,0-3.9,0.6-5.6,1.6c-1.6,1.1-3,2.6-4.3,4.5l0,0l-8.3,13
		c-0.8,1.3-1.6,2.1-2.1,2.6c-0.3,0.3-0.5,0.4-0.7,0.5c-0.1,0.1-0.2,0.1-0.2,0.1c0,0-0.2-0.2-0.3-0.4c-0.2-0.4-0.3-1.1-0.4-1.9
		c-0.1-0.8-0.1-1.8-0.1-2.9c0-3.4,0.4-7.6,0.8-11l0,0l0,0c0.7-7.2,2.3-14.3,2.3-21.5c0-18.9,2.3-37.6,2.3-56.4v-3.4
		c0.2,0,0.3,0,0.5-0.1c1-0.1,2.3-0.1,3.7-0.2c2.1,0,4.5-0.1,6.5-0.3c1-0.1,1.9-0.3,2.7-0.6c0.4-0.1,0.8-0.3,1.1-0.5
		c0.3-0.2,0.7-0.5,0.9-0.9l0,0l0,0c0.2-0.3,0.3-0.7,0.3-1c0-0.5-0.2-0.9-0.5-1.3c-0.4-0.6-1-0.9-1.6-1.2c-1-0.5-2.1-0.8-3.1-1.1
		c-1-0.3-2-0.4-2.6-0.5l-7.6-1.7c-0.7-3.5-1.4-6.8-1.4-9.9c0-1-0.2-2-0.6-2.9c-0.6-1.3-1.6-2.4-2.9-3.2c-1.3-0.8-3-1.4-4.9-1.8l0,0
		l0,0c-2.7-0.6-5.8-0.8-8.8-1.1l0,0l0,0c-0.4,0-0.8,0-1.3,0c-1.9,0-3.5,0.3-4.8,1c-1.4,0.7-2.4,1.9-3,3.5l0,0
		c-0.4,0.9-0.8,2.1-1.1,3.5c-0.9,3.8-1.5,8.9-1.6,12.4l-10.3,0.2c-0.9,0-2.5-0.1-4-0.1c-0.8,0-1.5,0-2.1,0.1c-0.3,0-0.6,0.1-0.9,0.1
		c-0.3,0.1-0.5,0.1-0.8,0.3l-0.1,0.1l-0.1,0.1c-0.4,0.4-0.6,0.7-0.8,1.1c-0.2,0.4-0.3,0.8-0.3,1.3c0,0.5,0.2,0.9,0.4,1.3
		c0.5,0.7,1.1,1.1,1.9,1.5c1.3,0.6,3.1,1.1,5,1.4c2.9,0.6,6.1,1,8.6,1.4c1.2,0.2,2.3,0.5,3,0.7c0.2,0.1,0.4,0.2,0.5,0.2
		c0,13-1.1,23.3-2.3,32.8c-1.1,9.6-2.3,18.3-2.3,27.9c0,9.6,1.1,19.1,2.3,28.9c0.4,3.4,1.6,6.5,3.1,9.8c0.6,1.3,1.5,2.5,2.6,3.6
		c1.1,1.1,2.6,2,4.3,2.9l0,0l0,0c3.9,1.7,8.6,2.5,13.4,2.5c4.3,0,8.7-0.7,12.6-1.9c3.9-1.3,7.3-3.2,9.7-5.7l0,0
		c3.4-3.5,5.9-6.2,8.1-9.6c2.2-3.4,3.9-7.3,5.8-13.3l0.3-0.9L479,140z M442.6,142.8l0-0.1c0.2-1,0.4-2.1,0.7-3.2l-0.7,3.2
		C442.6,142.8,442.6,142.8,442.6,142.8C442.6,142.9,442.6,142.9,442.6,142.8z M446.4,164.4c-1.4,0.1-2.8-0.4-3.6-1.7
		c-0.2-0.3-0.3-0.6-0.4-0.8c-0.5-1.2-0.8-2.5-0.9-3.8c-0.4-4.1,0-8.3,0.7-12.4c0.1-0.9,0.3-1.7,0.4-2.5c-0.2,0.8-0.3,1.7-0.4,2.5
		c-0.6,3.8-0.6,7.7-0.1,11.6c0.2,1.2,0.4,2.4,0.8,3.5c0.6,1.6,2,2.6,3.7,2.7C449.7,163.6,451.2,164.1,446.4,164.4z"/>
	<path class="st0" d="M391,78.2L391,78.2L391,78.2c-0.3-2-0.6-3.7-1.2-5.2c-0.4-1.1-0.9-2.1-1.6-2.9c-1.1-1.3-2.5-2.2-4.3-3
		c-1.8-0.7-4.1-1.3-7-1.8l0,0l-5.3-0.8l0,0c-1-0.1-2-0.2-2.9-0.2c-2.3,0-4.3,0.5-5.9,1.5c-1.6,1.1-2.8,2.7-3.7,4.8l0,0l0,0
		c-1.2,3.1-1.6,5.9-2,8.6l0,0l0,0c-0.4,3.1-0.5,6-0.5,9c0,2.9,0.1,5.9,0.1,8.8c0,16.4-0.4,25.6-0.8,31.7c-0.4,6.1-0.8,9.3-0.8,13.8
		c0,2.6,0.1,5.5,0.5,9.7l0,0l0,0c0.4,4.5,1.6,8.9,3.1,13l0,0l0,0c0.5,1.3,1.5,2.4,2.6,3.4c1.8,1.5,4.1,2.6,6.6,3.4
		c2.5,0.8,5.2,1.2,7.7,1.2c2.2,0,4.3-0.3,6.1-1.2c1.2-0.6,2.2-1.4,3.1-2.5c1.5-1.9,2.6-4.3,3.5-7.1c1.2-4.2,1.8-9.4,2.2-14.7
		c0.4-5.3,0.4-10.9,0.6-16c0.4-15.3,0.6-26.4,0.6-34.4C391.6,85.1,391.2,80.1,391,78.2z M379.8,42.1L379.8,42.1
		C379.8,42.1,379.8,42.1,379.8,42.1L379.8,42.1z M358.7,46.8c0.7,1.9,1.9,3.7,3.6,5.2l0.7-0.8l-0.7,0.8c1.5,1.3,3.6,2.7,5.9,3.7
		c2.4,1.1,5,1.8,7.5,1.8c0.6,0,1.2,0,1.8-0.1l0,0c0,0,0,0,0,0c0,0,0,0,0,0v0c1.3-0.2,2.5-0.6,3.4-1.1c1.4-0.8,2.4-2,3-3.4
		c0.6-1.4,0.8-2.9,0.8-4.4c0-1.9-0.3-3.8-0.7-5.7h0c0,0,0,0,0,0c0,0,0,0,0,0l0,0c-0.2-1.1-0.5-2.4-1.1-3.6c-0.6-1.2-1.5-2.3-2.8-3.1
		l0,0c-2-1.2-4.6-2.3-7.3-3.1c-2.7-0.8-5.5-1.4-7.9-1.4c-1.6,0-3.1,0.2-4.4,0.9c-0.6,0.3-1.2,0.8-1.6,1.3c-0.4,0.6-0.7,1.2-0.9,2
		l0,0c0,0,0,0,0,0c0,0,0,0,0,0h0c-0.3,1.7-0.6,3.4-0.6,5.1C357.6,42.9,357.9,44.9,358.7,46.8z M379,40.4c0.4,0.2,0.7,0.6,0.9,1.1
		c0.2,0.5,0.3,1.1,0.4,1.6c0.5,3.4,0.2,6.9-0.1,10.3c0,0.2-0.1,0.3-0.1,0.4c-0.1,0.1-0.4,0-0.5-0.4c-0.1-0.2-0.1-0.5-0.1-0.8
		c0-1.7,0.2-3.5,0.2-5.2c0-1.7-0.2-3.5-0.7-5.1c-0.2-0.4-0.3-0.9-0.5-1.3c0-0.1-0.1-0.2,0-0.3C378.5,40.4,378.8,40.4,379,40.4z"/>
	<path class="st0" d="M579.7,76.7c-2.6-5.4-6.3-10.5-11.1-15.4l0,0c-4.7-4.7-10.2-8.1-16.3-10.2c-6.1-2.2-12.9-3.2-20.5-3.2
		c-1,0-2,0-3,0.1l0,0c-3.6,0.1-6.8,0.5-9.4,1.1c-4,1-7.1,2.6-9.3,5c-2.1,2.3-3.4,5.3-4.1,9.1c-3.1,1.3-5.4,3.1-7.1,5.1
		c-1.8,2.2-3,4.7-4,7.2l0,0l-2.3,6.6l0,0.1c-1.3,6.3-1.9,12.6-1.9,18.8c0,12.4,2.4,24.7,6.5,36.9l0,0l0,0c2,5.7,5.7,10.1,10.7,13.4
		c5.1,3.2,11.5,5.2,19,6.1l0,0c3.7,0.4,7.3,0.6,10.8,0.6c6.6,0,12.9-0.9,18.6-3.4c5.8-2.5,11.1-6.5,15.8-12.6h0c0,0,0,0,0,0
		c0,0,0,0,0,0l0,0c4.5-5.6,7.3-13.5,9-22.1c1.7-8.5,2.4-17.8,2.6-26.1l0,0v0C583.7,87.8,582.3,82.1,579.7,76.7z M529.4,61.1
		c0-0.5,0.1-1,0.4-1.6l0,0l0,0c0.4-0.9,1.1-1.7,2.1-2.2c1-0.5,2.2-0.9,3.5-0.9c1.3,0,2.6,0.3,3.8,0.9l0,0l0,0
		c1.6,0.8,4.1,2.2,6.6,4.1c1.9,1.5,3.8,3.2,5.2,4.9c-1.5,0.2-3,0.2-4.6,0.2c-4.4,0-9.1-0.6-12.6-1.3l0,0l0,0
		c-1.5-0.3-2.6-0.9-3.4-1.7C529.8,62.9,529.4,62,529.4,61.1z M559.2,118.3L559.2,118.3L559.2,118.3c-0.7,5.1-2.2,10.1-4.1,14.9
		c-1.6,3.5-4.4,7.1-7.5,9.8c-1.6,1.4-3.2,2.5-4.7,3.2c-1.6,0.8-3,1.2-4.3,1.2c-1.2,0-2.2-0.3-3-1.1c-0.8-0.8-1.5-2.1-1.9-4.2
		c-0.6-3.5-1.2-9.2-1.6-15.8c-0.4-6.6-0.7-14.2-0.7-21.7c0-6.3,0.2-12.4,0.6-17.8c0.4-4.9,1-9.2,1.8-12.3l20,1h0
		c1.2,0,2,0.2,2.6,0.6c0.6,0.4,1,0.8,1.3,1.5c1.1,3,2.2,5.6,2.6,8.1l0,0l0,0c0.7,4,1,7.9,1,11.8
		C561.3,104.5,560.4,111.4,559.2,118.3z M573.7,102.8c-0.6,7-2,13.9-4.1,20.6c-0.1,0.3-0.3,0.7-0.5,1.3c-0.4,3.4-0.9,7-2.3,10
		c-1.5-1.4,1.1-7.1,2.3-10c0.1-1.2,0.3-2.4,0.5-3.5c0.7-4.6,1.2-9.3,1.4-14c0.5-9.2,0.2-18.5-1.1-27.7c-0.1-0.5,0-1.3,0.4-1.5
		c0,0,0,0,0.1,0c0.6-0.2,1,0.6,1.2,1.1C573.9,86.7,574.4,94.8,573.7,102.8z"/>
	<g>
		<path class="st1" d="M620.9,60.5c-1.1-4.4-4.1-7.5-8-9.4c-4.4-2.2-9.5-3.1-14.3-4c-5.9-1.1-11.8-2-17.7-2.5
			c-12.2-1.1-24.5-1-36.7-0.5c-6.6,0.3-13.1,0.5-19.7,1c-6.1,0.5-12.1,1.4-17.8,3.7c-1,0.4-0.3,2,0.7,1.5c9.6-4,20.5-3.8,30.7-4.3
			c11-0.5,22.1-0.8,33.1-0.3c11,0.5,22,1.8,32.8,4.3c3.9,0.9,8.1,2,11.2,4.7c3.7,3.1,4.8,8,4.1,12.6c-0.7,4.9-3.3,9.6-7.6,12.1
			c-4,2.3-9.1,2.5-13.1,0.3c0.2-0.5,0.1-1.1,0-1.7c-0.2-0.6-0.4-1.3-0.5-1.9c-0.1-0.4-0.5-0.8-1-0.7c-0.4,0.1-0.8,0.5-0.7,1
			c0.2,0.6,0.3,1.1,0.5,1.7c0.1,0.3,0.2,0.5,0.2,0.8c0,0,0,0.1,0,0.1c0,0-0.1,0-0.1,0.1c-0.1,0.1-0.2,0.1-0.4,0.2
			c-0.2,0.1-0.5,0.2-0.7,0.4c-0.5,0.2-1,0.5-1.6,0.7c-0.4,0.2-0.6,0.8-0.4,1.1c0.2,0.4,0.7,0.6,1.1,0.4c0.6-0.2,1.2-0.5,1.7-0.7
			c0.1-0.1,0.3-0.1,0.4-0.2c7.8,4.8,17.8,1,21.9-6.9C621.2,69.8,622,64.9,620.9,60.5 M597.3,78.8L597.3,78.8
			C597.3,78.8,597.3,78.8,597.3,78.8C597.3,78.8,597.3,78.8,597.3,78.8 M597.3,78.8C597.3,78.8,597.3,78.8,597.3,78.8"/>
		<path class="st1" d="M503.3,42.8c-8.1-0.6-17.1-1.1-23.7,4.4c-2.6,2.1-5,5.4-4.6,8.9c0.3,3.3,3.2,4.8,6,5.6
			c0.1,0.4,0.4,0.7,0.6,1.1c0.3,0.5,0.6,1,0.9,1.5c0.2,0.4,0.7,0.6,1.1,0.4c0.4-0.2,0.6-0.7,0.4-1.1c-0.2-0.4-0.5-0.9-0.7-1.3
			c-0.1-0.1-0.2-0.3-0.2-0.4c0.1-0.1,0.2-0.2,0.2-0.3c0.6-0.3,1.2-0.6,1.8-0.8c0.4-0.2,0.6-0.8,0.4-1.1c-0.2-0.4-0.7-0.6-1.1-0.4
			c-0.5,0.2-1,0.4-1.6,0.7c-0.2,0.1-0.5,0.2-0.7,0.3c-2.7-0.7-5.7-2-5.3-5.4c0.4-3.3,3.1-6,5.8-7.6c6.2-3.8,13.8-3.3,20.7-2.7
			C504.2,44.6,504.3,42.8,503.3,42.8"/>
		<path class="st1" d="M520,80.9c-1,4.9-2.1,9.8-3.2,14.7c-1.3-0.8-3.1-1.5-3.5,0.3c-0.5,2.2,2.5,2.7,4,2.3c0.3-0.1,0.5-0.3,0.6-0.5
			c0.1-0.1,0.2-0.2,0.3-0.4c1.2-5.3,2.3-10.6,3.4-15.9C521.9,80.5,520.3,79.9,520,80.9"/>
		<path class="st1" d="M557.1,99.3c0-1.1-0.1-2.1-0.1-3.2c-0.1-4.1,0.1-8.2,0.4-12.3c0.1-1.1-1.6-1.2-1.7-0.1
			c-0.3,3.9-0.5,7.9-0.4,11.8c0,1,0,1.9,0.1,2.9c0,0.3-0.1,0.9,0,1.2l0,0c-0.2-0.1-0.4-0.2-0.5-0.2c-1.3-0.6-2.8-0.7-3.8,0.5
			c-0.3,0.4-0.1,1.2,0.4,1.3c1.5,0.4,3,0.6,4.5,0.7c0.6,0,0.9-0.5,0.9-0.9C557.2,100.5,557.2,99.9,557.1,99.3"/>
		<path class="st2" d="M485.9,53.8c3.9-22.7,40.1-29,61-26.6c0,0,53.1,5,52.4,34.8c-0.3,13.1-8,25.9-22.7,27.1
			c-12,1-19.5-6-30.6-9.2c-11.3-3.3-21.6,3.2-31.7,2.4c-13.3-1-26.7-8-28.5-21.4C485.5,58.4,485.6,56.1,485.9,53.8"/>
		<path class="st1" d="M509,58.1c2.7,0.2,3-4.1,0.3-4.3C506.6,53.7,506.3,57.9,509,58.1"/>
		<path class="st1" d="M527.1,57.9c2.7,0.2,3-4.1,0.3-4.3C524.7,53.4,524.4,57.7,527.1,57.9"/>
		<path class="st1" d="M524.7,61.5c-0.4-0.6-1.2-1-2-0.5c-3,1.8-7.1,1.7-9.8-0.2c-0.6-0.4-1.5-0.4-2,0.1c-0.3,0.3-0.5,0.7-0.4,1.1
			c0,0.4,0.2,0.7,0.5,0.9c1.7,1.2,3.9,1.9,6.1,2.1c2.5,0.2,5.1-0.4,7.2-1.6C525,62.8,525,62,524.7,61.5"/>
	</g>
	<path class="st0" d="M344.2,101.1c-1.9-14.1-7.5-22.8-17.2-26.5c-9.1-3.4-20.1-0.5-27.1,3.8c-4.6,2.9-8.3,6.3-11.6,9.9
		c1.6-10,2.6-22.8,3.3-32c0.2-2.2,0.3-4.3,0.5-6c0.3-4,0.3-8,0-11.8c-0.4-6.2-3-7.8-9.1-9.3c-5.2-1.3-8.7-1.1-11.2,0.5
		c-3,1.9-3.9,5.5-4.4,8c-2.5,13.1-4.2,29.1-5.9,44.6c-1.2,10.7-2.4,21.8-3.8,31.9c-1.2,7.9-3.9,34.2-2.9,40.4
		c0.9,5.6,3.5,6.8,8.9,7.8l3.1,0.3l0.2,0c6.9,0.1,10.6-0.5,13.2-2.4c2.8-2,3.9-5,4.8-9.6c6.2-31.8,16.8-54.9,28.2-61.9
		c1.4-0.8,2.5-1.2,3.3-1.2c1.3,0,1.9,0.5,2.2,0.9c1.2,1.4,1.6,4.5,1.1,8.5c-1.3,8.6-2.3,17.3-3.2,25.8c-0.8,7-2.1,13-3.1,17.8
		c-1.9,8.9-3.2,14.8,0.1,18.8c2.4,3,7,4.3,15.3,4.3h0.6c5.4,0,9.2-2.7,10.8-7.5C345.7,139.7,347.1,121.1,344.2,101.1z M265.4,141
		c-0.1,1.6-0.5,3.2-1.1,4.4c0.1-5.1,0.7-10.3,1.2-15.4c2.1-18.8,4.3-37.5,6.6-56.2L265.4,141z M299.6,32.5L299.6,32.5L299.6,32.5
		C299.6,32.5,299.6,32.5,299.6,32.5z"/>
</g>
</svg>
