<svg xmlns="http://www.w3.org/2000/svg" viewBox="0 0 260 100"><path d="M48,51.71c3.45-34.88,58.41-48.56,90.76-47.24,0,0,82.1,1.61,84.28,46.93,1,19.92-9.42,40.26-31.86,43.66-18.34,2.79-30.67-6.86-48-10.59-17.68-3.8-32.84,7.29-48.47,7.24-20.57-.06-41.9-9.13-46.09-29.24A35.34,35.34,0,0,1,48,51.71" fill="#e87b58"/><path d="M48,51.71c3.45-34.88,58.41-48.56,90.76-47.24,0,0,82.1,1.61,84.28,46.93,1,19.92-9.42,40.26-31.86,43.66-18.34,2.79-30.67-6.86-48-10.59-17.68-3.8-32.84,7.29-48.47,7.24-20.57-.06-41.9-9.13-46.09-29.24A35.34,35.34,0,0,1,48,51.71Z" fill="#e87b58"/><path d="M223,51.4s9-1.23,9,1.05.29,6.84-.57,8-4.22-1-8.67-.9" fill="#ffcb74"/><path d="M48.46,51.4s-9-1.23-9,1.05-.29,6.84.57,8,4.22-1,8.67-.9" fill="#ffcb74"/></svg>