<svg xmlns="http://www.w3.org/2000/svg" viewBox="0 0 640 200"><polygon points="368.33 174.62 368.33 174.62 368.33 174.62 368.33 174.62" fill="#023433"/><path d="M378.16,76.7h0a26,26,0,0,0-1.23-5.37,10.24,10.24,0,0,0-1.72-3,11,11,0,0,0-4.54-3.08,40.65,40.65,0,0,0-7.42-1.93h0l-5.63-.85h0a22.5,22.5,0,0,0-3.07-.22,11.13,11.13,0,0,0-6.26,1.61,10.42,10.42,0,0,0-3.86,5h0a39.09,39.09,0,0,0-2.06,9h0a74.2,74.2,0,0,0-.51,9.34c0,3.06.1,6.1.1,9.19,0,17.15-.42,26.66-.84,33s-.85,9.67-.85,14.35c0,2.67.14,5.77.5,10.13h0A51.69,51.69,0,0,0,344,167.49h0v0a9.08,9.08,0,0,0,2.78,3.53,21.46,21.46,0,0,0,7,3.53,28.18,28.18,0,0,0,8.16,1.29,14.76,14.76,0,0,0,6.42-1.25,10.06,10.06,0,0,0,3.28-2.61,20.65,20.65,0,0,0,3.64-7.43,74.08,74.08,0,0,0,2.33-15.33c.37-5.57.46-11.36.59-16.64.47-16,.63-27.54.63-35.87,0-12.9-.39-18-.64-20Z" fill="#023433"/><polygon points="521.54 159.17 521.54 159.17 521.54 159.17 521.54 159.17" fill="#023433"/><path d="M257.81,75.09a58.32,58.32,0,0,0-11.77-16h0a46,46,0,0,0-17.2-10.66,65.21,65.21,0,0,0-21.62-3.29c-1,0-2.1,0-3.18,0h0a52.59,52.59,0,0,0-10,1.19c-4.24,1-7.47,2.68-9.81,5.24A19.38,19.38,0,0,0,179.91,61a18.59,18.59,0,0,0-7.48,5.37,26.48,26.48,0,0,0-4.18,7.49v0l-2.43,6.88,0,.08a97.79,97.79,0,0,0-2,19.58c0,13,2.51,25.71,6.81,38.43h0a26.83,26.83,0,0,0,11.31,13.95c5.33,3.37,12.1,5.46,20,6.32h0a107.85,107.85,0,0,0,11.42.67,50.1,50.1,0,0,0,19.67-3.49,41.3,41.3,0,0,0,16.67-13.15h0v0h0c4.77-5.89,7.69-14.1,9.51-23A156.8,156.8,0,0,0,262,93h0A40.86,40.86,0,0,0,257.81,75.09Zm-71.4,64.58c-9.34-27.9.26-64.84,0-61.85-.24,2.74-6.31,29.05-.68,51.44,1.23,4.87,2.19,5.76,2.64,10.64C188.57,142.09,186.94,140.91,186.41,139.67Zm18.31-80.78a3.88,3.88,0,0,1,.39-1.64h0v0a4.89,4.89,0,0,1,2.26-2.33,8,8,0,0,1,3.74-.9,8.9,8.9,0,0,1,4,1h0a43.45,43.45,0,0,1,6.95,4.27,30.81,30.81,0,0,1,5.5,5.15,44.84,44.84,0,0,1-4.86.26,70.47,70.47,0,0,1-13.27-1.36h0a7,7,0,0,1-3.56-1.73A3.73,3.73,0,0,1,204.72,58.89Zm31.4,59.63h0v0a72.17,72.17,0,0,1-4.32,15.56,31.69,31.69,0,0,1-7.91,10.2,24.08,24.08,0,0,1-5,3.38,10.57,10.57,0,0,1-4.5,1.24,4.38,4.38,0,0,1-3.16-1.19,7.94,7.94,0,0,1-2-4.34c-.64-3.69-1.23-9.59-1.66-16.48s-.69-14.84-.69-22.6c0-6.55.19-13,.62-18.59A76.85,76.85,0,0,1,209.33,73L230.42,74h0a5.36,5.36,0,0,1,2.78.63,3.41,3.41,0,0,1,1.38,1.53,41.39,41.39,0,0,1,2.71,8.46v0h0a72.18,72.18,0,0,1,1,12.29A124,124,0,0,1,236.12,118.52Z" fill="#023433"/><path d="M152.13,95.77h0c-.12-3.26-.14-6.28-.14-9.09,0-2.11,0-4.1,0-6,0-6.57-.14-11.81-1.76-16.12a14.75,14.75,0,0,0-3.71-5.67,20.52,20.52,0,0,0-6.71-4h0c-5.26-2-10.74-3.8-16.39-3.8a23.77,23.77,0,0,0-11,2.63c-.88-.88-1.6-1.71-2.31-2.51a16.91,16.91,0,0,0-2.84-2.69,29.82,29.82,0,0,0-16.91-5.74,21.37,21.37,0,0,0-14.9,5.84h0c-2.52,2.39-4.14,5-6.06,7.14l-1.79,1.9-2.26-8.23h0a12.09,12.09,0,0,0-5-6.32,22.85,22.85,0,0,0-8.63-3.55,6.5,6.5,0,0,0-1.24-.11,6.85,6.85,0,0,0-3.06.73,13.68,13.68,0,0,0-4.9,4.61c-2.59,3.73-4.84,9.13-6.83,15.7-.26.85-.51,1.72-.76,2.61.46-4.45.89-8.9,1.21-13.32.23-3.27-4.76-3.8-5.61-.76-6.33,22.64-8.35,46.39-7.19,69.8.58,11.68.8,23.38,2.19,35,.44,3.62.34,7.79,2.9,10.49a6.65,6.65,0,0,0,1.74,2.43,9.3,9.3,0,0,0,4.77,2.07h0a61.31,61.31,0,0,0,9.27.9,21,21,0,0,0,4.78-.49,12.38,12.38,0,0,0,5.71-2.95,19.58,19.58,0,0,0,4.22-6h0a15,15,0,0,0,.6-1.38,5.09,5.09,0,0,0,.31-1.65,65.34,65.34,0,0,1,1.68-13A123.18,123.18,0,0,0,63.8,130.7h0c1.2-12.56,2.69-21.45,5.36-30.73C70.82,94.2,73,88.26,75.76,81.2a3.14,3.14,0,0,0,.41-.82l.51-1.48q1.11-2.75,2.36-5.75a50.86,50.86,0,0,1,3.65-6.35c1.2-1.79,4.23-5.44,6.53-3.41,1.12,1,1.27,3,1.14,4.91C89.28,74.77,88.23,81.62,87.51,88c-1.47,11.85-3.16,26-3.16,36.36a46.55,46.55,0,0,0,.78,9.57h0A5.49,5.49,0,0,0,87,136.84a8.17,8.17,0,0,0,3.42,1.66h0A32.49,32.49,0,0,0,98,139.62a12.1,12.1,0,0,0,3-.34,6.21,6.21,0,0,0,3.49-2.14,6.84,6.84,0,0,0,1.27-4.28v0s.07-.16.17-.39a2.71,2.71,0,0,0,.21-.79L117.31,93c2.42-8,3.62-15.85,7.51-23.27h0a11.06,11.06,0,0,1,2.16-3,4.19,4.19,0,0,1,1-.7,1.63,1.63,0,0,1,.69-.19h.17a2.05,2.05,0,0,1,1.1.51,4,4,0,0,1,1.1,2.06,14.4,14.4,0,0,1,.38,3.6,52.69,52.69,0,0,1-1.18,9.72c-.65,3.3-1.43,6.37-1.92,8.46h0c-4.8,19.83-8.83,39.15-8.83,59.39,0,.76-.1,1.69-.1,2.65a6.13,6.13,0,0,0,.65,3,21.27,21.27,0,0,0,1.38,2.27,5.21,5.21,0,0,0,2.42,1.91h0a26.49,26.49,0,0,0,9,1.82,12.07,12.07,0,0,0,6.87-1.88,10.05,10.05,0,0,0,4-5.8h0l.81-3.17v0c2.43-13.64,4.34-23.38,5.64-31.33a123.85,123.85,0,0,0,2-20.59C152.17,97.53,152.15,96.66,152.13,95.77Zm-113.86-4c-1,8.16-1.88,16.39-2.84,24.57,0,3.1.11,6.2-.13,9.3-.08.94-.15,1.89-.23,2.83,0,.47-.07,1-.06,1.42,0,.18.1.78,0,.88s-.26-.61-.28-.78c0-.5-.06-1-.07-1.49,0-1,0-2,0-3a56.63,56.63,0,0,1,.41-6c.13-1.08.25-2.16.38-3.24a84.13,84.13,0,0,1,.17-8.55c.54-6.17,1.13-12.34,1.82-18.5.73-6.52,2.72-13,3.71-19.51.36-2.37.48-5.55,1.56-7.05C42.61,71.41,39.34,82.71,38.27,91.78ZM93.61,79.54a44.48,44.48,0,0,0,.79-13.76,21.26,21.26,0,0,0-1.13-5.42,5.82,5.82,0,0,0-.92-1.72h0a6.84,6.84,0,0,0-5.65-1.31,5.76,5.76,0,0,1,.68-.56,3.36,3.36,0,0,1,1.92-.63,3.82,3.82,0,0,1,1.14.19h0a3,3,0,0,1,1.25.74,3.64,3.64,0,0,1,.86.61,5.13,5.13,0,0,1,.91,1.16A8,8,0,0,1,94,60a17.32,17.32,0,0,1,1,5.85C95.18,70.41,94.07,81,93.61,79.54Z" fill="#023433"/><path d="M290.37,36.25l.4,3.11a7.92,7.92,0,0,0,.74,3.27,9.77,9.77,0,0,0,3.37,3.84A17.88,17.88,0,0,0,300,48.81h0a50.88,50.88,0,0,0,11,2.31h0c1,.09,1.83.14,2.62.14a11.31,11.31,0,0,0,2.79-.3,5.42,5.42,0,0,0,3-1.85A9.62,9.62,0,0,0,321,45.78h0a30.13,30.13,0,0,0,1.55-8.17,9.76,9.76,0,0,0-.44-3,7,7,0,0,0-2.52-3.45A13.51,13.51,0,0,0,315,29.08a61,61,0,0,0-12.2-2.3h0c-1.73-.14-3.22-.22-4.53-.22a17.16,17.16,0,0,0-3.58.31,6.7,6.7,0,0,0-2,.77A4.57,4.57,0,0,0,290.69,30a8.91,8.91,0,0,0-.5,3.3,27.53,27.53,0,0,0,.18,3Z" fill="#023433"/><polygon points="314.99 29.08 314.99 29.08 314.99 29.08 314.99 29.08" fill="#023433"/><path d="M324.52,110.2c0-9.1-.91-18.61-2.31-33.74h0c-.4-4.43-1-8.48-2.38-11.7A11.85,11.85,0,0,0,317,60.65a9,9,0,0,0-4.53-2.18,66.83,66.83,0,0,0-11-1.43,13.21,13.21,0,0,0-5.64.93,5.48,5.48,0,0,0-1.94,1.54,6.24,6.24,0,0,0-1.11,2.35c-.38,1.46-1,2.91-1.52,4.46a22.37,22.37,0,0,0-1.31,5h0a291.29,291.29,0,0,0-2,33.53A291.15,291.15,0,0,0,289.57,135h0a185.32,185.32,0,0,1,1.27,18.59c0,4.38-.4,7.54-1.13,9.42a4.47,4.47,0,0,1-1.23,1.9,2.31,2.31,0,0,1-1.54.52h-.11a3.51,3.51,0,0,1-.91-.24,1.12,1.12,0,0,1-.4-.27,2.47,2.47,0,0,1-.51-1.1,40.53,40.53,0,0,1-.66-4.42c-.26-2.05-.62-4.69-1.32-8.06h0a15.89,15.89,0,0,0-1.15-3.67,6.06,6.06,0,0,0-1.46-2,7,7,0,0,0-3.44-1.48,31.42,31.42,0,0,0-5.06-.31c-2.57,0-5.38.59-8.11.86h0a5.21,5.21,0,0,0-3,1.47,4,4,0,0,0-1.17,2.78c0,6.92,1.22,13.92,5,20.37h0a14.83,14.83,0,0,0,4.22,4.59,18.1,18.1,0,0,0,6.07,2.72h0a51.3,51.3,0,0,0,12.37,1.46,62.6,62.6,0,0,0,16.58-2.31h0a16.86,16.86,0,0,0,7.81-4.48,20.19,20.19,0,0,0,4.57-8.46h0v0c2-7.34,4-14.45,5.22-21.6h0C323.61,127.93,324.52,119.29,324.52,110.2Zm-17.89,39.07a52.52,52.52,0,0,1-.56-9.06q0-16.59.12-33.19l1.07,39.61A4.77,4.77,0,0,1,306.63,149.27Z" fill="#023433"/><path d="M93.61,79.57l0,.15,0-.1Z" fill="#fff"/><path d="M471,141.18c-4.18-2.13-7.61-3.2-10.65-3.2a10.48,10.48,0,0,0-5.86,1.69,16.16,16.16,0,0,0-4.53,4.72h0L441.18,158a16.19,16.19,0,0,1-2.21,2.76,3.68,3.68,0,0,1-.69.52.57.57,0,0,1-.23.08,1.27,1.27,0,0,1-.27-.46,8.14,8.14,0,0,1-.44-2,27.89,27.89,0,0,1-.15-3.07,100.46,100.46,0,0,1,.88-11.46v0h0c.79-7.56,2.4-15,2.4-22.47,0-19.71,2.4-39.23,2.4-58.84V59.42l.52-.05c1-.1,2.41-.13,3.89-.17,2.23-.05,4.71-.09,6.82-.35a13.58,13.58,0,0,0,2.87-.59,5,5,0,0,0,1.17-.54,2.91,2.91,0,0,0,.94-.91h0v0a2.1,2.1,0,0,0,.32-1.08,2.16,2.16,0,0,0-.48-1.32,5.08,5.08,0,0,0-1.75-1.28A17.23,17.23,0,0,0,453.87,52c-1.08-.28-2.07-.47-2.73-.57l-8-1.81a52.93,52.93,0,0,1-1.43-10.36,6.85,6.85,0,0,0-.62-3A7.55,7.55,0,0,0,437.94,33,17,17,0,0,0,432.78,31h0a87.58,87.58,0,0,0-9.32-1.15h0c-.45,0-.89-.05-1.32-.05A10.56,10.56,0,0,0,417,30.93a6.76,6.76,0,0,0-3.12,3.65h0a20.09,20.09,0,0,0-1.16,3.64A74.79,74.79,0,0,0,411,51.13l-10.88.25c-1,0-2.67-.07-4.24-.07-.79,0-1.55,0-2.2.08a8.15,8.15,0,0,0-.92.13,2.34,2.34,0,0,0-.88.36l-.08,0-.07.07a5,5,0,0,0-.89,1.15,2.81,2.81,0,0,0-.36,1.32,2.57,2.57,0,0,0,.42,1.37,4.57,4.57,0,0,0,2,1.54,22.78,22.78,0,0,0,5.29,1.51c3,.59,6.48,1,9.12,1.47a21.92,21.92,0,0,1,3.14.73,3,3,0,0,1,.54.23,275.75,275.75,0,0,1-2.39,34.24c-1.2,10-2.41,19.1-2.41,29.1s1.21,19.94,2.41,30.12A33,33,0,0,0,411.92,165a12.21,12.21,0,0,0,2.76,3.78,17.89,17.89,0,0,0,4.58,3h0a36.55,36.55,0,0,0,14.16,2.61,43.75,43.75,0,0,0,13.28-2,24.22,24.22,0,0,0,10.19-5.95h0a64.85,64.85,0,0,0,8.53-10c2.27-3.51,4.11-7.65,6.12-13.92l.3-.93Zm-38.39,2.93,0-.1c.21-1.07.45-2.18.71-3.36l-.71,3.36,0,.15Zm4,22.49a4,4,0,0,1-3.81-1.73,7.3,7.3,0,0,1-.47-.86,12.36,12.36,0,0,1-.95-3.94,48.12,48.12,0,0,1,.72-12.89c.13-.89.28-1.78.47-2.66-.17.88-.32,1.77-.47,2.66a43.81,43.81,0,0,0-.09,12,17.37,17.37,0,0,0,.81,3.65,4.24,4.24,0,0,0,3.89,2.8C440.1,165.77,441.67,166.26,436.6,166.6Z" fill="#023433"/><path d="M371,39.88h0v0h0a13.57,13.57,0,0,0-1.15-3.72,7.68,7.68,0,0,0-3-3.27h0a37.7,37.7,0,0,0-7.7-3.28,29.42,29.42,0,0,0-8.34-1.44,10.39,10.39,0,0,0-4.6.91,5.15,5.15,0,0,0-1.7,1.38,4.64,4.64,0,0,0-.93,2.05h0a26.22,26.22,0,0,0-.59,5.29A16.74,16.74,0,0,0,344,44a14.18,14.18,0,0,0,3.85,5.45l.76-.85-.76.85a25.46,25.46,0,0,0,6.27,3.89,20.38,20.38,0,0,0,8,1.9,11.81,11.81,0,0,0,1.88-.14h0a10.86,10.86,0,0,0,3.62-1.16,7.22,7.22,0,0,0,3.18-3.51,11.52,11.52,0,0,0,.82-4.59A32.68,32.68,0,0,0,371,39.88Zm-4.21,11a.67.67,0,0,1-.13.41c-.16.16-.39,0-.5-.38a2.76,2.76,0,0,1-.08-.82c0-1.81.17-3.61.17-5.43a16.79,16.79,0,0,0-.71-5.29c-.16-.47-.35-.91-.49-1.39a1.1,1.1,0,0,1-.05-.35.41.41,0,0,1,.58-.33,1.9,1.9,0,0,1,.93,1.12,7,7,0,0,1,.39,1.69A49.12,49.12,0,0,1,366.75,50.91Z" fill="#023433"/><polygon points="366.33 39.07 366.33 39.07 366.33 39.07 366.33 39.07" fill="#023433"/><path d="M577.39,75.09a58.32,58.32,0,0,0-11.77-16h0a46,46,0,0,0-17.2-10.66,65.25,65.25,0,0,0-21.62-3.29c-1,0-2.11,0-3.18,0h0a52.58,52.58,0,0,0-10,1.19c-4.24,1-7.47,2.68-9.81,5.24A19.39,19.39,0,0,0,499.48,61,18.62,18.62,0,0,0,492,66.4a26.76,26.76,0,0,0-4.19,7.49v0l-2.43,6.88,0,.08a97.08,97.08,0,0,0-2,19.58c0,13,2.52,25.71,6.81,38.43h0a26.83,26.83,0,0,0,11.31,13.95c5.33,3.37,12.09,5.46,20,6.32h0a107.66,107.66,0,0,0,11.41.67,50.12,50.12,0,0,0,19.68-3.49A41.3,41.3,0,0,0,569.3,143.2h0l0,0h0c4.77-5.89,7.69-14.1,9.52-23A158.78,158.78,0,0,0,581.55,93h0A41,41,0,0,0,577.39,75.09ZM524.3,58.89a3.88,3.88,0,0,1,.39-1.64h0v0A5,5,0,0,1,527,54.89a8,8,0,0,1,3.75-.9,8.83,8.83,0,0,1,4,1h0a43.89,43.89,0,0,1,7,4.27,30.81,30.81,0,0,1,5.5,5.15,44.84,44.84,0,0,1-4.86.26,70.38,70.38,0,0,1-13.27-1.36h0a7,7,0,0,1-3.57-1.73A3.72,3.72,0,0,1,524.3,58.89Zm31.4,59.63h0v0a71.93,71.93,0,0,1-4.32,15.55,31.65,31.65,0,0,1-7.92,10.21,24,24,0,0,1-5,3.38,10.57,10.57,0,0,1-4.51,1.24,4.37,4.37,0,0,1-3.15-1.19,8,8,0,0,1-2-4.34c-.63-3.69-1.22-9.59-1.65-16.48s-.69-14.84-.69-22.6c0-6.54.19-13,.62-18.59A76.85,76.85,0,0,1,528.91,73L550,74h0a5.32,5.32,0,0,1,2.77.63,3.38,3.38,0,0,1,1.39,1.53,40.71,40.71,0,0,1,2.7,8.46v0h0a72.26,72.26,0,0,1,1,12.29A124,124,0,0,1,555.7,118.52Zm15.35-16.18a91.5,91.5,0,0,1-4.37,21.47c-.1.32-.29.77-.52,1.31-.44,3.59-.93,7.32-2.48,10.43-1.61-1.43,1.18-7.39,2.48-10.43.15-1.26.3-2.5.48-3.69q1.11-7.26,1.52-14.6A152.8,152.8,0,0,0,567,78c-.08-.57,0-1.32.46-1.53l.07,0c.62-.17,1.06.58,1.25,1.19A66.41,66.41,0,0,1,571.05,102.34Z" fill="#023433"/><path d="M620.82,58.19c-1.12-4.56-4.28-7.8-8.41-9.85-4.67-2.3-10-3.2-15.1-4.16q-9.27-1.77-18.7-2.6A304,304,0,0,0,539.84,41c-6.92.26-13.85.54-20.75,1.05-6.41.47-12.78,1.41-18.75,3.89-1.06.44-.27,2,.78,1.6,10.14-4.2,21.65-4,32.42-4.51,11.65-.53,23.32-.86,35-.34a195.8,195.8,0,0,1,34.6,4.48c4.15.94,8.52,2.14,11.87,4.88,3.91,3.2,5,8.33,4.38,13.17-.7,5.08-3.54,10-8.07,12.61a14.53,14.53,0,0,1-13.87.33,2.49,2.49,0,0,0,0-1.78l-.57-2a.89.89,0,0,0-1.75.34l.5,1.73c.08.28.16.55.23.83l0,.11-.1.06-.39.2-.78.37c-.54.25-1.08.48-1.64.69a.89.89,0,0,0-.41,1.19.92.92,0,0,0,1.19.4c.62-.23,1.23-.48,1.82-.76l.41-.2c8.2,5,18.77,1.07,23.08-7.18a20.33,20.33,0,0,0,1.82-14m-24.9,19.15h0m0,0h0"/><path d="M496.66,39.74c-8.5-.66-18-1.16-25,4.57-2.7,2.2-5.25,5.64-4.88,9.3.35,3.46,3.33,5,6.32,5.86a6.06,6.06,0,0,0,.58,1.1l.93,1.6a.89.89,0,0,0,1.6-.78L475.41,60l-.27-.46a1.18,1.18,0,0,0,.23-.27l1.93-.85a.89.89,0,0,0,.41-1.19.91.91,0,0,0-1.19-.41c-.55.23-1.1.46-1.64.71l-.78.34c-2.87-.74-6-2.08-5.56-5.63s3.31-6.22,6.09-7.92c6.57-4,14.55-3.41,21.89-2.84a.89.89,0,0,0,.14-1.78"/><path d="M514.37,79.56q-1.64,7.69-3.34,15.37c-1.36-.86-3.26-1.58-3.71.32-.56,2.32,2.67,2.78,4.22,2.43a.82.82,0,0,0,.62-.54.63.63,0,0,0,.28-.4q1.84-8.28,3.61-16.59c.23-1.11-1.44-1.71-1.68-.59"/><path d="M553.53,98.7c0-1.12-.07-2.23-.09-3.35q-.09-6.42.46-12.82a.89.89,0,0,0-1.78-.13q-.51,6.13-.46,12.3c0,1,0,2,.06,3,0,.34-.05.88,0,1.29h0a3.76,3.76,0,0,0-.55-.23c-1.4-.58-3-.78-4,.56a.89.89,0,0,0,.43,1.34,24.56,24.56,0,0,0,4.73.77.88.88,0,0,0,.92-1,2.52,2.52,0,0,0,.31-1.73"/><path d="M478.38,51.28c4.08-23.67,42.33-30.29,64.37-27.79,0,0,56,5.17,55.29,36.26C597.71,73.41,589.6,86.8,574.1,88c-12.68,1-20.63-6.21-32.29-9.62-11.89-3.48-22.81,3.36-33.49,2.55-14.05-1.07-28.19-8.32-30.05-22.27a24.29,24.29,0,0,1,.11-7.39" fill="#f5b228"/><path d="M502.71,55.75c2.86.21,3.19-4.24.33-4.44s-3.19,4.23-.33,4.44"/><path d="M521.83,55.49c2.86.21,3.19-4.23.33-4.44s-3.19,4.24-.33,4.44"/><path d="M519.27,59.26a1.48,1.48,0,0,0-2.07-.49,10,10,0,0,1-10.37-.17,1.69,1.69,0,0,0-2.09.06,1.38,1.38,0,0,0-.46,1.11,1.23,1.23,0,0,0,.52.93,13.11,13.11,0,0,0,6.39,2.16,13,13,0,0,0,7.59-1.71,1.32,1.32,0,0,0,.49-1.89"/></svg>