<?xml version="1.0" encoding="utf-8"?>
<!-- Generator: Adobe Illustrator 25.3.1, SVG Export Plug-In . SVG Version: 6.00 Build 0)  -->
<svg version="1.1" id="Layer_1" xmlns="http://www.w3.org/2000/svg" xmlns:xlink="http://www.w3.org/1999/xlink" x="0px" y="0px"
	 viewBox="0 0 806 767" style="enable-background:new 0 0 806 767;" xml:space="preserve">
<style type="text/css">
	.st0{fill:#9FC1EA;}
	.st1{fill:#FF7667;}
	.st2{fill:#FFD47B;}
	.st3{fill:#FFFFFF;}
	.st4{fill:#69BAC9;}
	.st5{fill:#8D1B1C;}
	.st6{fill:#426FC0;}
	.st7{fill-rule:evenodd;clip-rule:evenodd;fill:#FFFFFF;}
	.st8{fill-rule:evenodd;clip-rule:evenodd;fill:#3B6BBF;}
	.st9{fill-rule:evenodd;clip-rule:evenodd;fill:#9FC1EA;}
	.st10{fill:#FD4B3C;}
	.st11{fill:#FFD274;}
</style>
<g>
	<path class="st0" d="M0.88,708.87h146c0,0-6-12.3-15.9-11.8c-8.7,0.5-15,3.3-22.6,0.7c-6.9-2.4-22-28.6-40.6-26.7
		c-6.3,0.6-16.6,1.9-24.5,12.7c-4.3,5.8-8.8,12.5-21.6,9.3C9.88,690.17,1.78,695.87,0.88,708.87z"/>
	<g id="CHARACTER-1">
		<path class="st1" d="M196.68,156.57c0,0-25.6-19.9-54.2-12.9c-12.2,3-25,11-36.6,27.6c-3.1,4.4-15.6,29.5-6.6,54.3
			c6,16.4,21.3,32.8,55.4,42.8c0.8,0.2,1.7-0.2,2-1.1c0.2-0.8-0.2-1.7-1.1-2c-32.7-9.6-47.6-25.1-53.3-40.9
			c-8.5-23.5,3.3-47.2,6.2-51.4c11-15.8,23.1-23.4,34.7-26.3c27.2-6.7,51.5,12.3,51.5,12.3c0.7,0.5,1.7,0.4,2.2-0.3
			C197.58,158.07,197.38,157.07,196.68,156.57z"/>
		<g>
			<path class="st2" d="M178.98,229.57h-2.3c0,0-1.2,1.4-1.6,1.8c-6.8,8.4-32.1,38.6-63.2,201.2l40.3,13.1l41.5-142
				c0,0,6.7,10.7,24.2,9.2l49.2-30.3c0,0,20.8-31.3,10.2-51.2c0,0,36.9-36.3,57.1-56.1c8.2-8.1,12.7-19.2,12.4-30.7
				c-0.6-24.3-1.7-64.6-1.7-64.6l-44.6,0.3l-0.2,60.1l-58.9,50.4C241.48,190.77,246.58,230.07,178.98,229.57z"/>
			<path d="M193.78,304.47c0,0,1.3-7.8,2.3-13.8c0.2-1,0.9-1.7,1.9-1.8c1-0.1,1.9,0.4,2.3,1.3c3.1,6.6,7.5,17,7.2,22.4
				C207.48,312.57,198.88,310.57,193.78,304.47z"/>
			<path d="M277.38,231.37c0,0-3.3-4.8-6.1-8.9c-0.6-0.9-0.5-2.1,0.1-2.9c0.7-0.8,1.8-1.1,2.8-0.6c3.3,1.4,7.1,3.4,10.2,5.7
				L277.38,231.37z"/>
		</g>
		<g>
			<path class="st3" d="M113.18,432.47h-1.1c0,0-13.1,50.1-9.6,56.2c-1.2,2.6,10.2,10.4,11.7,10c2.9-0.7,0.6-16.3-2.1-16.2
				c0,0,12.4-0.8,11.7-2.2l16.7,3.6c0,0,10.1-38.2,9.7-38.9"/>
			<g transform="matrix(0.592595,0.805501,-0.897838,0.660526,1573.55,-373.849)">
				<path d="M-171.88,1523.05c0.7,1.4,1.9,2.8,4.4,2.8s4.6-1.8,4.6-4.1c0-0.6-0.6-1.2-1.3-1.2s-1.3,0.5-1.3,1.2c0,1-0.9,1.8-2,1.8
					c-1.2,0-1.7-0.8-2-1.5c-0.3-0.6-1.1-0.8-1.7-0.5C-171.88,1521.75-172.18,1522.45-171.88,1523.05z"/>
			</g>
			<g transform="matrix(0.592595,0.805501,-0.897838,0.660526,1573.55,-373.849)">
				<path d="M-163.28,1514.05c0-2.2-1.7-4.3-4.2-4.4c-2.7-0.2-3.8,1-4.2,2.2c-0.2,0.6,0.2,1.2,0.9,1.4c0.7,0.2,1.4-0.2,1.6-0.8
					c0.1-0.4,0.6-0.6,1.5-0.5c1.1,0.1,1.8,1.1,1.8,2.1c0,0.6,0.6,1.2,1.3,1.2C-163.78,1515.25-163.28,1514.65-163.28,1514.05z"/>
			</g>
			<g transform="matrix(0.592595,0.805501,-0.897838,0.660526,1587.89,-367.547)">
				<path d="M-177.88,1527.05c0.8,1.2,2.3,2.1,4,2.1c0.7,0,1.3-0.5,1.3-1.2s-0.6-1.1-1.3-1.1c-0.7,0-1.4-0.4-1.7-0.9
					c-0.4-0.6-1.1-0.7-1.8-0.4C-178.08,1525.75-178.28,1526.45-177.88,1527.05z"/>
			</g>
			<g transform="matrix(0.592595,0.805501,-0.897838,0.660526,1587.89,-367.547)">
				<path d="M-173.88,1529.05c2.5,0,4.6-1.8,4.6-4.1v-8c0-2.3-2.1-4.1-4.6-4.1c-0.7,0-1.3,0.5-1.3,1.2s0.6,1.2,1.3,1.2
					c1.1,0,2,0.8,2,1.8v8c0,1-0.9,1.8-2,1.8c-0.7,0-1.3,0.5-1.3,1.1S-174.68,1529.05-173.88,1529.05z"/>
			</g>
			<g transform="matrix(0.592595,0.805501,-0.897838,0.660526,1587.89,-367.547)">
				<path d="M-173.88,1512.95c-2.5,0-4.6,1.8-4.6,4.1v3.6c0,0.6,0.6,1.2,1.3,1.2s1.3-0.5,1.3-1.2v-3.6c0-1,0.9-1.8,2-1.8
					c0.7,0,1.3-0.5,1.3-1.2S-173.18,1512.95-173.88,1512.95z"/>
			</g>
			<g transform="matrix(0.592595,0.805501,-0.897838,0.660526,1602.23,-361.244)">
				<path d="M-180.38,1516.25c-2.5,0-4.6,1.8-4.6,4.1v8c0,2.3,2,4.1,4.6,4.1c0.7,0,1.3-0.5,1.3-1.2s-0.6-1.1-1.3-1.1
					c-1.1,0-2-0.8-2-1.8v-8c0-1,0.9-1.8,2-1.8c0.7,0,1.3-0.5,1.3-1.2C-179.08,1516.75-179.68,1516.25-180.38,1516.25z"/>
			</g>
			<g transform="matrix(0.592595,0.805501,-0.897838,0.660526,1602.23,-361.244)">
				<path d="M-180.38,1532.45c2.5,0,4.6-1.8,4.6-4.1v-8c0-2.3-2.1-4.1-4.6-4.1c-0.7,0-1.3,0.5-1.3,1.2c0,0.6,0.6,1.2,1.3,1.2
					c1.1,0,2,0.8,2,1.8v8c0,1-0.9,1.8-2,1.8c-0.7,0-1.3,0.5-1.3,1.1S-181.08,1532.45-180.38,1532.45z"/>
			</g>
			<g transform="matrix(0.511994,0.695942,-0.874546,0.64339,1661.24,-230.7)">
				<path d="M-365.44,1531.96l0.3,5.3c0,0.6-0.6,1.2-1.4,1.2c-0.8,0-1.5-0.5-1.5-1.1l-0.3-5.3l0,0c0-1,0.6-2.8,1.9-4.1
					c1-1,2.3-1.7,3.9-1.8c0.8-0.1,1.5,0.4,1.6,1.1s-0.5,1.2-1.3,1.3c-1,0.1-1.7,0.7-2.2,1.4
					C-365.14,1530.56-365.44,1531.36-365.44,1531.96z"/>
			</g>
			<g transform="matrix(0.511994,0.695942,-0.874546,0.64339,1661.24,-230.7)">
				<path d="M-361.54,1528.36c-0.2,0-0.5,0-0.8,0c-0.8,0.1-1.5-0.4-1.6-1.1c-0.1-0.6,0.5-1.2,1.3-1.3c1.8-0.1,2.8,0.1,3.4,0.7
					c0.4,0.4,0.7,1,0.7,1.9v8.6c0,2.1-2.1,3.8-4.8,3.8c-2.7,0-4.8-1.7-4.8-3.8c0-0.7,0.7-1.2,1.5-1.2c0.8,0,1.5,0.5,1.5,1.2
					c0,0.8,0.8,1.4,1.8,1.4s1.8-0.6,1.8-1.4v-8.6C-361.54,1528.56-361.54,1528.46-361.54,1528.36z"/>
			</g>
			<path d="M115.38,493.77c0-0.4-0.5-4.5-4.8-11.6c-0.4-0.6-0.2-1.4,0.4-1.8c0.6-0.4,1.4-0.2,1.8,0.4c5,8.3,5.1,12.8,5.1,12.8v0.1
				c-0.1,3.6-1.5,5-2.8,5.6c-1.1,0.6-2.4,0.6-3.6,0c-3.5-1.7-6.1-3.9-8-6c-3.1-3.4-4.3-8.2-3.3-12.7c3.1-13.5,11.7-48.8,11.7-48.8
				l2,0.7c0,0-8.1,35.2-11.2,48.7c-0.8,3.7,0.2,7.6,2.7,10.4c1.7,1.9,4.1,3.8,7.2,5.4c0.4,0.2,0.9,0.2,1.3,0
				C114.78,496.77,115.28,495.77,115.38,493.77z"/>
			<path d="M123.68,478.07c-0.8-0.8-1.5-1.5-1.9-2.3c-0.9-1.6-1-3.2-0.3-4.6c0.8-1.6,1.9-2.5,3-2.8c1.3-0.4,2.8,0,3.8,0.9
				s1.7,2.2,1.7,3.6c0,2-0.9,3.7-2.1,5.1c0.7,0.4,1.4,0.7,2.2,1.1c0.7,0.3,1,1,0.7,1.7s-1,1-1.7,0.7c-1.2-0.5-2.3-1.1-3.2-1.7
				c-0.7,0.5-1.5,1-2.3,1.4c-4.8,2.4-10.7,3.2-10.7,3.2c-0.7,0.1-1.3-0.4-1.4-1.1c-0.1-0.7,0.4-1.3,1.1-1.4c0,0,5.4-0.7,9.8-2.9
				C122.88,478.57,123.28,478.37,123.68,478.07z M125.78,476.47c1-1,1.6-2.2,1.7-3.7c0-0.6-0.3-1.1-0.8-1.5c-0.4-0.3-1-0.6-1.5-0.4
				c-0.5,0.1-1,0.6-1.3,1.4c-0.4,0.9-0.1,2,0.7,3C124.88,475.67,125.28,476.07,125.78,476.47z"/>
			<path d="M149.88,444.97l-12.6,51.9c-0.2,0.7,0.2,1.4,0.9,1.6c0.7,0.2,1.4-0.2,1.6-0.9l12.4-51.7L149.88,444.97z"/>
		</g>
		<g>
			<g transform="matrix(0.864632,0.0195409,-0.0211597,0.936258,191.4,4.29742)">
				<path d="M170.41,31.11c-0.1-0.4,0-0.9,0.3-1.2c0.5-0.5,1-0.5,1.5-0.4c0.2,0.1,0.7,0.2,1,0.9c0,0.1,0.1,0.6,0.2,1.6
					c0.4,7.4,1.8,45.1,1.8,45.1l-2.9,0.1c0,0-1.4-37.7-1.8-45.1C170.41,31.61,170.41,31.21,170.41,31.11z M171.11,32.01
					c0.3,0.1,0.5,0.2,0.8,0.1C171.61,32.11,171.41,32.11,171.11,32.01z M172.01,32.11L172.01,32.11L172.01,32.11L172.01,32.11z
					 M172.11,32.11L172.11,32.11L172.11,32.11L172.11,32.11z M172.21,32.11c0.2-0.1,0.5-0.2,0.7-0.4
					C172.71,31.91,172.41,32.01,172.21,32.11z"/>
			</g>
			<path d="M300.78,80.17h2.5c0,0-0.9-21.4-0.9-29.8c0-2.6,1.8-4.9,4.4-5.4c2.2-0.4,4.8-0.8,6.6-0.4c0.7,0.2,1.4,0.4,1.5,1
				s0,1.2-0.7,1.9c-1,1-2.8,2.1-5.9,3.4c-0.6,0.3-1,1-0.7,1.6s1,1,1.6,0.7c3.6-1.4,5.7-2.8,6.8-4c1.4-1.5,1.6-3,1.3-4.2
				c-0.4-1.5-1.6-2.5-3.5-2.9c-2.1-0.4-5-0.1-7.6,0.4c-3.8,0.7-6.4,4-6.4,7.9C299.98,58.67,300.78,80.07,300.78,80.17L300.78,80.17z
				"/>
			<path d="M323.88,59.77c-0.6-0.8-1.4-1.6-2.1-2.3c-4-3.7-9.1-6-9.1-6c-0.6-0.3-0.9-1-0.7-1.7c0.3-0.6,1-0.9,1.7-0.7
				c0,0,5.5,2.4,9.8,6.5c1,1,2,2,2.8,3.1c1.3-0.4,2.7-0.7,3.8-1.2c0.6-0.3,1.4,0,1.7,0.7c0.3,0.6,0,1.4-0.7,1.7
				c-1.1,0.4-2.3,0.7-3.5,1.1c0.8,1.6,1.2,3.4,1.1,5.2c-0.1,1.9-0.9,3.1-2,3.7c-1.6,1-3.8,0.8-5.2-0.5c-1.5-1.3-2.3-3.8-0.3-7.1
				C321.88,61.17,322.78,60.37,323.88,59.77z M325.28,61.87c-0.7,0.4-1.4,0.9-1.9,1.7c-1.1,1.8-1,3.2-0.2,4c0.6,0.5,1.5,0.7,2.2,0.3
				c0.5-0.3,0.7-0.9,0.8-1.7C326.28,64.57,325.88,63.17,325.28,61.87z"/>
			<g transform="matrix(1.12189,0,0,1.43652,-196.771,-169.43)">
				<path d="M449.69,154.8c0.8,0.8,1.7,1.6,3.6,1.4c2.4-0.2,3.9-1.8,3.9-4.3c0-0.5-0.5-0.9-1.1-0.9s-1.1,0.4-1.1,0.9
					c0,1.5-0.6,2.5-1.9,2.6c-0.9,0.1-1.2-0.4-1.5-0.8c-0.4-0.4-1.1-0.4-1.6-0.1C449.39,153.9,449.29,154.5,449.69,154.8z"/>
			</g>
			<g transform="matrix(1.12189,0,0,1.43652,-196.771,-169.43)">
				<path d="M450.29,144.3l0.2,3.9c0,0.5-0.5,0.9-1.1,0.9s-1.1-0.4-1.2-0.8l-0.2-3.9l0,0c0-2.6,2.1-4.5,4.6-4.5c2.4,0,4.6,2,4.6,4.5
					v3.6c0,0.5-0.5,0.9-1.1,0.9s-1.1-0.4-1.1-0.9v-3.6c0-0.8-0.3-1.5-0.8-2.1c-0.4-0.4-0.9-0.7-1.5-0.7s-1.1,0.3-1.5,0.7
					C450.59,142.7,450.29,143.5,450.29,144.3z"/>
			</g>
			<g transform="matrix(1.12189,0,0,1.43652,-181.23,-169.547)">
				<path d="M446.09,156.3c2.4,0,4.5-1.7,4.5-4.3v-7.6c0-2.6-2.1-4.5-4.6-4.5c-2.4,0-4.6,2-4.6,4.5l-0.1,4.2c0,0.5,0.5,0.9,1.1,0.9
					s1.1-0.4,1.1-0.9l0.1-4.2l0,0c0-0.8,0.3-1.5,0.8-2.1c0.4-0.4,0.9-0.7,1.5-0.7s1.1,0.3,1.5,0.7c0.5,0.5,0.8,1.3,0.8,2.1v7.6
					c0,1.4-0.9,2.6-2.2,2.6c-0.6,0-1.1,0.4-1.1,0.9S445.49,156.3,446.09,156.3z"/>
			</g>
			<g transform="matrix(1.12189,0,0,1.43652,-165.689,-169.664)">
				<path d="M444.09,144.4c0-2.6-2.1-4.5-4.6-4.5c-2.4,0-4.6,2-4.6,4.5v7.6c0,2.6,2.1,4.5,4.6,4.5c2.4,0,4.6-2,4.6-4.5V144.4z
					 M441.79,144.4v7.6c0,0.8-0.3,1.5-0.8,2.1c-0.4,0.4-0.9,0.7-1.5,0.7s-1.1-0.3-1.5-0.7c-0.5-0.5-0.8-1.3-0.8-2.1v-7.6
					c0-0.8,0.3-1.5,0.8-2.1c0.4-0.4,0.9-0.7,1.5-0.7s1.1,0.3,1.5,0.7C441.49,142.8,441.79,143.5,441.79,144.4z"/>
			</g>
			<g transform="matrix(1.12189,0,0,1.43652,-150.148,-169.781)">
				<path d="M437.49,144.4c0-2.6-2.1-4.5-4.6-4.5c-2.4,0-4.6,2-4.6,4.5v7.6c0,2.6,2.1,4.5,4.6,4.5c2.4,0,4.6-2,4.6-4.5V144.4z
					 M435.29,144.4v7.6c0,0.8-0.3,1.5-0.8,2.1c-0.4,0.4-0.9,0.7-1.5,0.7s-1.1-0.3-1.5-0.7c-0.5-0.5-0.8-1.3-0.8-2.1v-7.6
					c0-0.8,0.3-1.5,0.8-2.1c0.4-0.4,0.9-0.7,1.5-0.7s1.1,0.3,1.5,0.7C434.99,142.8,435.29,143.6,435.29,144.4z"/>
			</g>
		</g>
		<g>
			<path d="M176.68,229.57h3.3c0,0,15.5-16,26.7-22.3c0.6-0.4,0.8-1.1,0.5-1.8c-0.3-0.6-1.1-0.8-1.8-0.5
				c-12.6,7.2-19.8,14.9-26.7,22.4C178.08,227.87,176.68,229.57,176.68,229.57z"/>
			<path d="M196.88,177.57l7.8,28.9c0.2,0.7,0.9,1.1,1.6,0.9c0.7-0.2,1.1-0.9,0.9-1.6l-7.8-28.9c-0.2-0.7-0.9-1.1-1.6-0.9
				C197.08,176.17,196.68,176.87,196.88,177.57z"/>
			<g transform="matrix(1,0,0,1,0.776233,2.47589)">
				<path d="M240.88,188.17l-7.4,4.4c-0.6,0.4-0.8,1.1-0.5,1.8c0.4,0.6,1.1,0.8,1.8,0.5l6.2-3.4L240.88,188.17z"/>
			</g>
			<path d="M237.18,199.57l-7.6-14.3c-0.3-0.6-1.1-0.9-1.7-0.5c-0.6,0.3-0.9,1.1-0.5,1.7l7.6,14.3c0.3,0.6,1.1,0.9,1.7,0.5
				C237.28,200.97,237.48,200.17,237.18,199.57z"/>
			<path d="M211.38,188.77c5.8,1,10.7,0,16.3-2.1c4.9-1.8,7.7-6.8,6.7-11.9c-1.5-7.6-3.8-14.8-6.5-21.9c-0.3-0.7-1-1-1.7-0.7
				s-1,1-0.7,1.7c2.7,6.9,4.9,14.1,6.4,21.5c0.7,3.8-1.4,7.6-5.1,9c-5.1,1.9-9.7,2.8-15,1.9c-0.7-0.1-1.4,0.4-1.5,1.1
				C210.28,187.97,210.68,188.67,211.38,188.77z"/>
			<g transform="matrix(0.750969,0,0,1.05127,278.608,-32.7492)">
				<path d="M-83.08,196.97c-0.2,1,0.4,2.6,2.5,3.5c1.2,0.5,3,0.8,5.5,0.6c0.9-0.1,1.5-0.7,1.3-1.3c-0.1-0.6-1-1.1-1.8-1
					c-3.4,0.4-4.5-0.8-4.4-1.5c0.1-0.6-0.5-1.2-1.4-1.3C-82.18,195.97-82.98,196.37-83.08,196.97z"/>
			</g>
			<g transform="matrix(0.750969,0,0,1.05127,278.608,-32.7492)">
				<path d="M-75.08,201.07c2.8-0.3,3.9-1.9,3.8-3.4c0-1-0.7-2-1.5-2.4c-0.9-0.5-4-1.2-6.4-0.9c-2,0.2-3.6,1.1-3.9,2.7
					c-0.1,0.6,0.5,1.2,1.4,1.3c0.9,0.1,1.7-0.4,1.8-1c0.1-0.7,1.1-0.8,2-0.8c1.3,0,2.7,0.2,3.1,0.5c0.2,0.1,0.3,0.4,0.3,0.7
					c0,0.5-0.2,1-1.1,1.1c-0.9,0.1-1.5,0.7-1.3,1.3C-76.78,200.77-75.98,201.17-75.08,201.07z"/>
			</g>
			<path d="M200.68,167.57c0,0-2.9-0.9-5.3-0.4c-1.9,0.4-3.5,1.6-3.7,4.3c-0.1,1.6,0.4,3.4,1.9,4.7c1.4,1.2,3.6,2.1,7.1,1.9
				c0.7,0,1.2-0.6,1.1-1.3c0-0.7-0.6-1.2-1.3-1.1c-4.9,0.3-6.6-2.1-6.5-4c0.1-0.7,0.2-1.2,0.6-1.5c0.5-0.5,1.3-0.7,2.1-0.7
				c1.6-0.1,3.1,0.4,3.1,0.4c0.6,0.2,1.3-0.2,1.5-0.8C201.68,168.47,201.38,167.77,200.68,167.57z"/>
		</g>
		<g>
			<path class="st1" d="M217.58,311.77l50.7-29.7c0,0,108-10.1,107.6,200.3l10.1,241.6l-86.8-7.2l-32.4-262.5l-66.3,244.3
				l-72.5,16.2C127.98,714.77,148.48,349.57,217.58,311.77z"/>
			<g>
				<path class="st4" d="M280.48,282.87c7.4,1.1,13.6,3.2,17.6,5.1l14.8,24.5l0,0c0.1,0.2,0.3,0.5,0.3,0.8v0.1
					c0.1,0.3,0.1,0.6,0.1,0.9v0.1c0,0.7-0.2,1.3-0.5,1.8s-0.7,1-1.3,1.3l0,0c-0.2,0.1-0.5,0.3-0.8,0.3h-0.1
					c-0.3,0.1-0.6,0.1-0.9,0.1h-0.1h-44c-1.3,0-2.6-0.7-3.2-1.9c-0.7-1.2-0.6-2.6,0.1-3.7L280.48,282.87z M303.18,310.67l-15.5-25.6
					l-15.5,25.6H303.18z"/>
				<g transform="matrix(1.23741,-0.337024,0.32016,1.17549,-579.215,255.958)">
					<path class="st4" d="M648,274.01h-34.3c-1.6,0-2.9,1.4-2.9,3c0,1.7,1.3,3,2.9,3H648c1.6,0,2.9-1.4,2.9-3
						S649.6,274.01,648,274.01z"/>
				</g>
				<g transform="matrix(1.23741,-0.337024,0.32016,1.17549,-579.215,255.958)">
					<path class="st4" d="M630.8,253.01l-14.7,25.6c-0.8,1.4-2.6,1.9-4,1s-1.8-2.7-1-4.2l17.1-29.9c0.5-0.9,1.5-1.5,2.5-1.5
						s1.9,0.6,2.5,1.5l17.2,29.9c0.8,1.4,0.4,3.3-1,4.2s-3.1,0.4-3.9-1L630.8,253.01z"/>
				</g>
				<g transform="matrix(1.10535,-0.650357,0.617814,1.05004,-815.355,722.939)">
					<path class="st4" d="M875.2,169.75h-34.3c-1.6,0-2.9,1.4-2.9,3c0,1.7,1.3,3,2.9,3h34.3c1.6,0,2.9-1.4,2.9-3
						C878,171.15,876.8,169.75,875.2,169.75z"/>
				</g>
				<g transform="matrix(1.10535,-0.650357,0.617814,1.05004,-815.355,722.939)">
					<path class="st4" d="M859.1,146.55l-15.8,27.8c-0.8,1.4-2.6,1.9-4,1s-1.8-2.7-1-4.2l17.3-30.6c0.4-0.8,1.8-1.5,2.6-1.6
						c0.8-0.1,1.9,0,3,0.9c1.8,1.4,2.7,3.7,2.7,3.7c0.3,0.3,0.8,1.6,1,2l12.7,25.9c0.7,1.5,0.2,3.3-1.2,4.1
						c-1.4,0.8-3.1,0.2-3.9-1.3l-12.4-25.3L859.1,146.55z"/>
				</g>
				<path class="st4" d="M258.28,287.97l-8.7,19.7v0.1c-0.1,0.3-0.3,0.5-0.5,0.7l-0.1,0.1c-0.2,0.2-0.4,0.4-0.6,0.6l0,0
					c-0.5,0.4-1.1,0.6-1.8,0.6c-0.6,0.1-1.2,0-1.9-0.3l0,0c-0.3-0.1-0.5-0.3-0.7-0.5l-0.1-0.1c-0.2-0.2-0.4-0.4-0.6-0.6l0,0
					l-5.7-8.2l6.4-3.7l1.6,2.3l1.9-4.3L258.28,287.97z"/>
				<path class="st4" d="M172.58,397.37l29.4,27.3l0,0c0.2,0.2,0.4,0.4,0.6,0.7l0.1,0.1c0.1,0.3,0.3,0.5,0.3,0.8v0.1
					c0.2,0.6,0.2,1.3,0,1.9c-0.1,0.6-0.4,1.2-0.9,1.7l0,0c-0.2,0.2-0.4,0.4-0.7,0.6l-0.1,0.1c-0.3,0.1-0.5,0.3-0.8,0.3h-0.1
					l-38.8,11.1c0.5-2.4,1.2-5.2,1.9-8.2l28.7-8.3l-21.8-20.3C171.18,402.07,172.08,399.37,172.58,397.37z"/>
				<g transform="matrix(-1.1208,-0.623357,0.592165,-1.06471,1940.91,2919.31)">
					<path class="st4" d="M2110.91,1109.75l17.2,29.9c0.8,1.4,2.6,1.9,3.9,1c1.4-0.9,1.8-2.7,1-4.2l-17.2-29.9
						c-0.8-1.4-2.6-1.9-3.9-1C2110.51,1106.45,2110.11,1108.25,2110.91,1109.75z"/>
				</g>
				<g transform="matrix(-1.1208,-0.623357,0.592165,-1.06471,1940.91,2919.31)">
					<path class="st4" d="M2130.51,1134.95h-34.3c-1.6,0-2.9,1.4-2.9,3c0,1.7,1.3,3,2.9,3h34.3c1.6,0,2.9-1.4,2.9-3
						S2132.11,1134.95,2130.51,1134.95z"/>
				</g>
				<g transform="matrix(-1.1208,-0.623357,0.592165,-1.06471,1940.91,2919.31)">
					<path class="st4" d="M2098.71,1139.55l17.1-29.9c0.8-1.4,0.4-3.3-1-4.2c-1.4-0.9-3.1-0.4-4,1l-17.1,29.9
						c-0.8,1.4-0.4,3.3,1,4.2C2096.11,1141.45,2097.81,1140.95,2098.71,1139.55z"/>
				</g>
				<path class="st4" d="M356.48,355.07c-5.5,5.3-12.1,11.7-18.5,17.9c-0.2,0.2-0.5,0.4-0.7,0.6h-0.1c-0.3,0.2-0.6,0.3-0.9,0.4
					c-0.6,0.2-1.3,0.1-1.8,0c-0.6-0.2-1.1-0.5-1.6-0.9c-0.2-0.2-0.5-0.5-0.6-0.8l0,0c-0.2-0.3-0.3-0.5-0.3-0.8l-11.6-40.9v-0.1
					c-0.1-0.3-0.1-0.6-0.1-0.9v-0.2c0-0.3,0-0.6,0.1-0.9v-0.1c0.2-0.6,0.5-1.2,0.9-1.6s1-0.8,1.6-1h0.1c0.3-0.1,0.6-0.1,0.9-0.1h0.1
					h0.1c0.3,0,0.6,0,0.9,0.1h0.1l20.1,5.8c1.5,2.4,3.3,5.6,4.9,8.9l-20.9-5.7l8.2,28.6c5.7-5.6,11.3-11,16.1-15.5
					C354.68,350.37,355.68,353.07,356.48,355.07z"/>
				<g transform="matrix(-1.12084,-0.623269,0.592082,-1.06476,2087.48,2938.42)">
					<path class="st4" d="M2151.93,1113.89h29.2c1.6,0,2.9,1.4,2.9,3c0,1.7-1.3,3-2.9,3h-34.3c-1,0-2-0.6-2.5-1.5
						c-0.5-1-0.5-2.1,0-3.1l17.1-29.9c0.8-1.4,2.6-1.9,4-1c1.4,0.9,1.8,2.7,1,4.2L2151.93,1113.89z"/>
				</g>
				<g transform="matrix(-1.12084,-0.623269,0.592082,-1.06476,2087.48,2938.42)">
					<path class="st4" d="M2161.53,1088.69l17.2,29.9c0.8,1.4,2.6,1.9,3.9,1c1.4-0.9,1.8-2.7,1-4.2l-17.2-29.9
						c-0.8-1.4-2.6-1.9-3.9-1C2161.13,1085.39,2160.73,1087.19,2161.53,1088.69z"/>
				</g>
				<path class="st4" d="M268.38,468.27l4.8-23.2l0.1-0.3l0.1-0.3l0.1-0.2l0.1-0.3l0.2-0.3l0.2-0.2l0.2-0.2c0,0,0,0,0.1-0.1
					c0.4-0.5,1-0.8,1.5-1h0.1c0.6-0.2,1.2-0.2,1.8-0.1l0.3,0.1l0.3,0.1l0.2,0.1l0.3,0.1l0.3,0.2l0.2,0.2l0.2,0.2c0,0,0,0,0.1,0
					l32.2,29.9l0.2,0.2l0.2,0.2l0.1,0.2l0.2,0.2l0.1,0.3l0.1,0.3l0.1,0.2c0,0,0,0,0,0.1c0.2,0.6,0.2,1.2,0,1.8v0.1
					c-0.1,0.6-0.4,1.1-0.9,1.6l-0.2,0.2l-0.2,0.2l-0.2,0.1l-0.2,0.2l-0.3,0.1l-0.3,0.1l-0.2,0.1c0,0,0,0-0.1,0l-39,11.3
					L268.38,468.27z M272.98,482.27l28.7-8.2l-22.6-21L272.98,482.27z"/>
				<path class="st4" d="M375.38,457.47l-24.7,22.3c-1,0.9-2.3,1.1-3.5,0.8c-1.2-0.4-2.2-1.4-2.5-2.6l-10.3-41.3v-0.1
					c-0.1-0.3-0.1-0.6-0.1-0.9v-0.2c0-0.3,0.1-0.6,0.1-0.9v-0.1c0.2-0.6,0.5-1.2,1-1.6c0.4-0.4,1-0.7,1.6-0.9h0.1
					c0.3-0.1,0.6-0.1,0.9-0.1h0.2c0.3,0,0.6,0.1,0.9,0.1h0.1l35.5,10.8L375.38,457.47z M350.38,470.27l22.3-19.8l-29.5-9.1
					L350.38,470.27z"/>
				<path class="st4" d="M365.28,382.37c0.5,2.1,1.1,4.6,1.7,7.2l-5.2,1.7l6.8,5.9c0.9,4.7,1.7,9,2.1,11.7l-18.7-16.3l0,0
					c-0.2-0.2-0.4-0.4-0.6-0.7l-0.1-0.1c-0.2-0.3-0.3-0.5-0.4-0.8v-0.1c-0.2-0.6-0.2-1.3-0.1-1.9c0.1-0.6,0.4-1.2,0.8-1.7l0,0
					c0.2-0.2,0.4-0.4,0.7-0.6l0.1-0.1c0.2-0.2,0.5-0.3,0.8-0.4h0.1L365.28,382.37z"/>
				<path class="st4" d="M275.48,525.27l6.6-8.7l0,0c0.2-0.2,0.4-0.4,0.6-0.6l0.1-0.1c0.2-0.2,0.5-0.3,0.8-0.4l0,0l0,0
					c0.6-0.2,1.2-0.3,1.9-0.2c0.6,0.1,1.2,0.3,1.7,0.7l0,0c0.2,0.2,0.4,0.4,0.6,0.6l0.1,0.1c0.2,0.2,0.3,0.5,0.4,0.8v0.1l15.5,39.6
					c0.1,0.3,0.2,0.5,0.2,0.8v0.1c0,0.3,0,0.7,0,1c-0.1,0.6-0.3,1.2-0.7,1.7l0,0c-0.4,0.5-0.9,0.9-1.4,1.1c-0.3,0.1-0.6,0.2-0.9,0.3
					h-0.1c-0.3,0-0.6,0-0.9,0l-20.4-2.2l-0.9-7.5l16.1,1.8l-10.9-27.8l-7.2,9.4L275.48,525.27z"/>
				<g transform="matrix(0.68513,1.08414,-1.02989,0.650848,1540.85,-539.827)">
					<path class="st4" d="M248.27,1329.81l-14.5-25.3c-0.8-1.4-0.4-3.3,1-4.2s3.1-0.4,3.9,1l17.2,29.9c0.5,0.9,0.6,2.1,0,3.1
						c-0.5,0.9-1.5,1.5-2.5,1.5h-34.3c-1.6,0-2.9-1.4-2.9-3c0-1.7,1.3-3,2.9-3H248.27z"/>
				</g>
				<g transform="matrix(0.68513,1.08414,-1.02989,0.650848,1540.85,-539.827)">
					<path class="st4" d="M221.47,1334.41l17.1-29.9c0.8-1.4,0.4-3.3-1-4.2s-3.1-0.4-4,1l-17.1,29.9c-0.8,1.4-0.4,3.3,1,4.2
						S220.67,1335.81,221.47,1334.41z"/>
				</g>
				<path class="st4" d="M377.68,526.87l0.4,8.9l-7.8,5.7l8.2,3.5l0.3,8.2l-17.4-7.4h-0.1c-0.3-0.1-0.5-0.3-0.7-0.4l-0.1-0.1
					c-0.2-0.2-0.4-0.4-0.6-0.6l0,0c-0.4-0.5-0.6-1.1-0.7-1.7c-0.1-0.6,0-1.2,0.3-1.9l0,0c0.1-0.3,0.3-0.5,0.4-0.8l0.1-0.1
					c0.2-0.2,0.4-0.4,0.6-0.6l0,0L377.68,526.87z"/>
				<path class="st4" d="M382.68,645.37l-30.4,6.5h-0.1c-0.3,0.1-0.6,0.1-0.9,0.1h-0.2c-0.3,0-0.6-0.1-0.9-0.2h-0.1
					c-0.6-0.2-1.1-0.6-1.6-1c-0.4-0.5-0.7-1-0.8-1.7v-0.1c-0.1-0.3-0.1-0.6-0.1-0.9v-0.2c0-0.3,0.1-0.6,0.2-0.9l0,0l13.9-40.1
					c0.1-0.3,0.2-0.5,0.4-0.8l0.1-0.1c0.2-0.3,0.4-0.5,0.6-0.7c0.5-0.4,1-0.7,1.6-0.8l0,0c0.6-0.1,1.2-0.1,1.8,0.1
					c0.3,0.1,0.6,0.2,0.9,0.4l0.1,0.1c0.2,0.2,0.5,0.4,0.7,0.6l13.5,14.3l0.5,11.3l-15.2-16.1l-9.8,28.2l25.2-5.4L382.68,645.37z"/>
				<path class="st4" d="M290.68,648.57l27.6-14c0.3-0.1,0.5-0.2,0.8-0.3h0.1c0.3-0.1,0.6-0.1,1-0.1c0.6,0,1.2,0.2,1.8,0.5l0,0
					c0.5,0.3,1,0.8,1.3,1.3c0.2,0.3,0.3,0.6,0.4,0.9v0.1c0.1,0.3,0.1,0.6,0.1,0.9l-0.6,42.5c0,1.3-0.8,2.5-1.9,3.2
					c-1.2,0.6-2.6,0.6-3.7-0.1l-24.4-15.2l-1.2-9.4l23.9,14.9l0.4-29.9l-24.6,12.5L290.68,648.57z"/>
				<path class="st4" d="M282.88,585.07l33,22.1c0.2,0.2,0.5,0.3,0.7,0.6l0.1,0.1c0.2,0.2,0.4,0.5,0.5,0.8c0.3,0.6,0.4,1.2,0.4,1.8
					l0,0c0,0.6-0.2,1.2-0.5,1.8c-0.2,0.3-0.4,0.5-0.6,0.8l-0.1,0.1c-0.2,0.2-0.5,0.4-0.7,0.5l-27.2,14.8l-1-7.9l19.4-10.6
					l-22.6-15.1L282.88,585.07z"/>
				<path class="st4" d="M296.08,692.47c0.2,0,0.3,0.1,0.5,0.1h0.1l40.6,12.5c0.3,0.1,0.5,0.2,0.8,0.3l0.1,0.1
					c0.3,0.2,0.5,0.4,0.8,0.6c0.4,0.5,0.7,1,0.9,1.6l0,0c0.1,0.6,0.1,1.2,0,1.8c-0.1,0.3-0.2,0.6-0.4,0.9l-0.1,0.1
					c-0.2,0.3-0.3,0.5-0.5,0.7l-8,8.1l-9.6-0.8l8.1-8.1l-28.6-8.8l3.9,15.5l-5.5-0.5L296.08,692.47z"/>
				<path class="st4" d="M384.58,692.17l-24.9,21.3c-0.2,0.2-0.5,0.3-0.7,0.5h-0.1c-0.3,0.1-0.6,0.2-0.9,0.3
					c-0.6,0.1-1.3,0.1-1.8-0.1l0,0c-0.6-0.2-1.1-0.5-1.5-1c-0.2-0.2-0.4-0.5-0.6-0.8v-0.1c-0.1-0.3-0.2-0.5-0.3-0.8l-9.5-41.4v-0.1
					c-0.1-0.3-0.1-0.6-0.1-0.9v-0.2c0-0.3,0.1-0.6,0.2-0.9v-0.1c0.2-0.6,0.6-1.2,1-1.6c0.5-0.4,1-0.7,1.7-0.9h0.1
					c0.3-0.1,0.6-0.1,0.9-0.1h0.2c0.3,0,0.6,0.1,0.9,0.2h0.1l35,11.6L384.58,692.17z M352.88,674.77l6.6,29.1l22.7-19.4
					L352.88,674.77z"/>
				<g transform="matrix(-0.438251,1.20528,-1.14497,-0.416322,3017.64,251.042)">
					<path class="st4" d="M905.8,1982.03l-14.7,25.6c-0.8,1.4-2.6,1.9-4,1s-1.8-2.7-1-4.2l17.1-29.9c0.5-0.9,1.5-1.5,2.5-1.5
						s1.9,0.6,2.5,1.5l17.2,29.9c0.8,1.4,0.4,3.3-1,4.2c-1.4,0.9-3.1,0.4-3.9-1L905.8,1982.03z"/>
				</g>
				<g transform="matrix(-0.438251,1.20528,-1.14497,-0.416322,3017.64,251.042)">
					<path class="st4" d="M923,2003.03h-34.3c-1.6,0-2.9,1.4-2.9,3c0,1.7,1.3,3,2.9,3H923c1.6,0,2.9-1.4,2.9-3
						C925.9,2004.33,924.6,2003.03,923,2003.03z"/>
				</g>
				<path class="st4" d="M260.68,476.17l-31.9,1.2c-0.3,0-0.6,0-0.9-0.1h-0.1c-0.3-0.1-0.6-0.2-0.9-0.3c-0.6-0.3-1-0.7-1.4-1.2l0,0
					c-0.3-0.5-0.5-1.1-0.6-1.7c0-0.3,0-0.6,0.1-1v-0.1c0.1-0.3,0.2-0.6,0.3-0.8l18.3-38.3l0,0c0.1-0.3,0.3-0.5,0.5-0.7l0.1-0.1
					c0.2-0.2,0.4-0.4,0.7-0.6l0,0c0.5-0.4,1.2-0.6,1.8-0.6s1.2,0.1,1.8,0.4l0,0c0.3,0.1,0.5,0.3,0.7,0.5l0.1,0.1
					c0.2,0.2,0.4,0.4,0.6,0.7l0,0l15.8,24l-2.6,9.5l-15.8-24l-12.9,26.9l28.1-1L260.68,476.17z"/>
				<g transform="matrix(-0.427569,-1.20911,1.14861,-0.406175,456.55,3118.97)">
					<path class="st4" d="M2008.98,503.71l17.2,29.9c0.8,1.4,2.6,1.9,3.9,1c1.4-0.9,1.8-2.7,1-4.2l-17.2-29.9
						c-0.8-1.4-2.6-1.9-3.9-1C2008.58,500.41,2008.18,502.21,2008.98,503.71z"/>
				</g>
				<g transform="matrix(-0.427569,-1.20911,1.14861,-0.406175,456.55,3118.97)">
					<path class="st4" d="M1999.38,528.91h29.2c1.6,0,2.9,1.4,2.9,3c0,1.7-1.3,3-2.9,3h-34.3c-1,0-2-0.6-2.5-1.5
						c-0.5-1-0.5-2.1,0-3.1l17.1-29.9c0.8-1.4,2.6-1.9,4-1s1.8,2.7,1,4.2L1999.38,528.91z"/>
				</g>
				<path class="st4" d="M153.08,487.97l24.4,32.1c0.8,1.1,1,2.5,0.4,3.7c-0.5,1.2-1.7,2.1-3,2.2l-28.4,3.4l1.3-8.3l19.8-1.8
					l-16.1-21.9L153.08,487.97z"/>
				<g transform="matrix(-1.04525,-0.743114,0.70593,-0.992944,1674.6,3245.22)">
					<path class="st4" d="M2159.66,1095.28c-0.5-0.9-1.5-1.5-2.5-1.5s-1.9,0.6-2.5,1.5l-17.1,29.9c-0.5,0.9-0.6,2.1,0,3.1
						c0.5,0.9,1.5,1.5,2.5,1.5h34.3c1,0,2-0.6,2.5-1.5c0.5-1,0.5-2.1,0-3.1L2159.66,1095.28z M2157.16,1102.68l-12,21h24.1
						L2157.16,1102.68z"/>
				</g>
				<path class="st4" d="M227.78,597.77l-11.7,18.2c-0.2,0.2-0.3,0.5-0.5,0.7l-0.1,0.1c-0.2,0.2-0.5,0.4-0.8,0.6
					c-0.6,0.3-1.2,0.4-1.8,0.4l0,0c-0.6,0-1.2-0.2-1.8-0.5c-0.3-0.2-0.5-0.4-0.8-0.6l-0.1-0.1c-0.2-0.2-0.4-0.4-0.5-0.7l-21-36.9
					c-0.7-1.2-0.6-2.6,0-3.7c0.7-1.1,1.9-1.8,3.3-1.8l42.1,1.1L227.78,597.77z M213.18,606.87l16.1-25.1l-30.9-0.8L213.18,606.87z"
					/>
				<g transform="matrix(1.28006,-0.0787385,0.0747986,1.21601,-592.497,417.707)">
					<path class="st4" d="M587.41,194.6l17.2,29.9c0.8,1.4,2.6,1.9,3.9,1c1.4-0.9,1.8-2.7,1-4.2l-17.2-29.9c-0.8-1.4-2.6-1.9-3.9-1
						C587.01,191.3,586.61,193.2,587.41,194.6z"/>
				</g>
				<g transform="matrix(1.28006,-0.0787385,0.0747986,1.21601,-592.497,417.707)">
					<path class="st4" d="M577.81,219.9l29.2,0c1.6,0,2.9,1.4,2.9,3c0,1.7-1.3,3-2.9,3l-34.3,0c-1,0-2-0.6-2.5-1.5
						c-0.5-1-0.5-2.1,0-3.1l17.1-29.9c0.8-1.4,2.6-1.9,4-1s1.8,2.7,1,4.2L577.81,219.9z"/>
				</g>
				<path class="st4" d="M209.08,666.77l-2,7.5l-22.9,1.6l14.6,23l-8,1.7l-16-26.1c-0.2-0.2-0.3-0.5-0.4-0.8v-0.1
					c-0.1-0.3-0.1-0.6-0.2-1c0-0.6,0.1-1.3,0.4-1.8l0,0c0.3-0.5,0.7-1,1.2-1.4c0.3-0.2,0.6-0.3,0.9-0.4h0.1c0.3-0.1,0.6-0.1,0.9-0.2
					L209.08,666.77z"/>
				<g transform="matrix(-0.680783,-1.08687,1.03249,-0.646718,771.529,3596.04)">
					<path class="st4" d="M2207.07,837.39h-34.3c-1.6,0-2.9,1.4-2.9,3c0,1.7,1.3,3,2.9,3h34.3c1.6,0,2.9-1.4,2.9-3
						C2209.87,838.79,2208.67,837.39,2207.07,837.39z"/>
				</g>
				<path class="st4" d="M129.78,687.77l30.3-0.5c2,0,3.7,1.6,3.7,3.6s-1.6,3.7-3.6,3.7l-31,0.5
					C129.38,692.97,129.58,690.57,129.78,687.77z M132.58,653.87l0.9-1.8c0.9-1.8,3.1-2.6,5-1.6c1.8,0.9,2.6,3.1,1.6,5l-9.2,18.2
					C131.38,667.77,131.88,661.17,132.58,653.87z"/>
				<path class="st4" d="M142.18,563.77l21.3-5.8h0.1c0.3-0.1,0.6-0.1,0.9-0.1h0.1h0.1c0.3,0,0.6,0.1,0.9,0.1h0.1
					c0.6,0.2,1.2,0.5,1.6,1c0.4,0.4,0.8,1,0.9,1.6l0,0c0.1,0.3,0.1,0.6,0.1,0.9v0.2c0,0.3-0.1,0.6-0.1,0.9v0.1l-12.1,42.3
					c-0.4,1.3-1.4,2.3-2.7,2.6s-2.7-0.1-3.6-1.1l-11.1-11.9l1.1-9.6l10.9,11.7l8.5-29.7l-17.8,4.9L142.18,563.77z"/>
			</g>
			<path class="st4" d="M196.68,334.97l8.6,42.3v0.1c0.1,0.3,0.1,0.6,0.1,0.9v0.2c0,0.3-0.1,0.6-0.2,0.8v0.1
				c-0.2,0.6-0.6,1.1-1.1,1.6c-0.5,0.4-1,0.7-1.7,0.8h-0.1c-0.3,0.1-0.6,0.1-0.9,0.1h-0.2c-0.3,0-0.6-0.1-0.9-0.2h-0.1l-20.7-7.4
				c0.9-2.4,1.7-4.7,2.5-6.9l14.5,5.2l-5.5-26.8C193.38,340.87,195.28,337.47,196.68,334.97z"/>
			<path class="st5" d="M266.78,455.57c0,0,7.8-24.8,15.2-48.7c0.5-1.7,2.3-2.8,4.1-2.4c1.8,0.4,2.9,2.1,2.7,3.9
				c-6.5,42.9-15.3,101-15.3,101L266.78,455.57z"/>
		</g>
		<g>
			<path class="st6" d="M186.58,755.97l11.5-56.9l2.5-0.6l-11.1,59.5c-0.2,0.8-0.9,1.4-1.7,1.3l-6.2-0.5c-0.8-0.1-1.4-0.7-1.4-1.4
				l-1.7-20.1l-65.1,20.8c-0.5,0.2-1.1,0-1.5-0.3c-0.4-0.4-0.6-0.9-0.5-1.5c2-9.9,11.7-15.3,14.8-16.8l1.9-24.6l3-0.6l-1.8,26.4
				c0,0.6-0.4,1.1-1,1.4c0,0-9.6,3.9-13,12.2l64.1-20.5c0.5-0.1,1-0.1,1.4,0.2s0.7,0.7,0.7,1.2l1.7,20.7L186.58,755.97z"/>
			<g transform="matrix(1,0,0,1,-1.38968,-16.0721)">
				<path class="st6" d="M321.08,747.67l-2.1,26.5c0,0.4-0.3,0.9-0.6,1.1c-0.4,0.3-0.8,0.4-1.3,0.3l-9.7-1.9
					c-0.7-0.1-1.2-0.7-1.3-1.3l-5.7-39.9l3.3,0.4l5.4,37.9l6.8,1.3l2.2-26.9c0-0.5,0.3-1,0.8-1.2c0.4-0.3,1-0.3,1.4-0.1l77.7,33.9
					c-0.3-3.1-2-9.1-9.4-13.9c-0.4-0.3-0.7-0.7-0.7-1.1l-3.7-23.1l3.2,0.3l3.6,21.7c11.9,8.1,10.3,18.8,10.3,18.8
					c-0.1,0.5-0.4,0.9-0.8,1.2c-0.4,0.2-1,0.3-1.4,0.1L321.08,747.67z"/>
			</g>
		</g>
		<g>
			<path class="st6" d="M193.38,156.77c-0.5,4.3,0.3,7.6,1.6,10.5c1.2-0.3,2.4-0.4,3.4-0.2c-0.8-5.2-0.6-9.8,1.3-13.5
				C197.08,154.17,195.08,155.27,193.38,156.77z"/>
			<path class="st6" d="M193.48,156.87c0,0-9.9-18.4-1.7-21.3c0,0,7.3-1.2,5,16.1c0,0,4.1-17.3,10.3-14.6c1,0.4,3.1,3.1-0.2,8.5
				c-1.4,2.2-3.4,5.3-7.2,8.2L193.48,156.87z"/>
		</g>
		<g>
			<path class="st1" d="M216.78,149.67c0,0,0.5,10.9-15.5,16.8c-0.8,0.3-1.2,1.2-0.9,2s1.2,1.2,2,0.9c18.6-6.9,17.6-20,17.6-20
				c-0.1-0.9-0.8-1.5-1.7-1.5C217.38,148.07,216.68,148.77,216.78,149.67z"/>
			<path class="st1" d="M224.28,150.97c-2.2-3.9-6.9-5.8-11.4-4.5c-4.3,1.3-12.8,6.8-12.8,6.8l6.3-7.1c0,0,0.7-1.2,5.6-2.7
				c6.6-2,13.6,1.5,16,8c0.2,0.4,0.3,0.7,0.3,0.7c0.2,0.5,0.1,1-0.1,1.4c-0.3,0.4-0.7,0.7-1.2,0.7c-4.9,0.6-9.6-3.5-9.6-3.5
				c-0.7-0.6-0.7-1.6-0.2-2.2c0.6-0.7,1.6-0.7,2.2-0.2C219.38,148.37,221.58,150.27,224.28,150.97z"/>
		</g>
	</g>
	<g>
		<path class="st7" d="M674.78,423.27h-265.9v314.3c0,2.7,1.1,5.1,2.9,6.9c1.8,1.8,4.2,2.9,6.9,2.9h246.2c2.7,0,5.1-1.1,6.9-2.9
			c1.8-1.8,2.9-4.2,2.9-6.9v-314.3H674.78z M464.88,476.77c19.7-19.7,46.9-31.9,76.9-31.9c30,0,57.2,12.2,76.9,31.9
			c19.7,19.7,31.9,46.9,31.9,76.9s-12.2,57.2-31.9,76.9c-19.7,19.7-46.9,31.9-76.9,31.9c-30,0-57.2-12.2-76.9-31.9
			c-19.7-19.7-31.9-46.9-31.9-76.9C433.08,523.67,445.18,496.47,464.88,476.77z"/>
		<path class="st7" d="M463.78,403.87c1.3,0,2.4,1.1,2.4,2.4c0,1.3-1.1,2.4-2.4,2.4h-44.8c-1.3,0-2.4-1.1-2.4-2.4
			c0-1.3,1.1-2.4,2.4-2.4H463.78L463.78,403.87z M664.98,377.17h-246.2c-2.7,0-5.1,1.1-6.9,2.9c-1.8,1.8-2.9,4.2-2.9,6.9v31.4h265.9
			v-31.4c0-2.7-1.1-5.1-2.9-6.9C670.08,378.27,667.68,377.17,664.98,377.17L664.98,377.17z M463.78,398.97h-44.8
			c-1.3,0-2.4-1.1-2.4-2.4c0-1.3,1.1-2.4,2.4-2.4h44.8c1.3,0,2.4,1.1,2.4,2.4C466.28,397.87,465.18,398.97,463.78,398.97
			L463.78,398.97z M463.78,389.17h-44.8c-1.3,0-2.4-1.1-2.4-2.4c0-1.3,1.1-2.4,2.4-2.4h44.8c1.3,0,2.4,1.1,2.4,2.4
			C466.28,388.07,465.18,389.17,463.78,389.17L463.78,389.17z M526.48,398.07c0-3.8,1.6-7.3,4.1-9.8s6-4.1,9.8-4.1s7.3,1.6,9.8,4.1
			s4.1,6,4.1,9.8s-1.6,7.3-4.1,9.8s-6,4.1-9.8,4.1s-7.3-1.6-9.8-4.1C527.98,405.37,526.48,401.87,526.48,398.07L526.48,398.07z
			 M570.28,401.07c0-0.6,0.2-1.1,0.6-1.5s0.9-0.6,1.5-0.6h5.4c0.6,0,1.1,0.2,1.5,0.6c0.4,0.4,0.6,0.9,0.6,1.5v5.2
			c0,0.6-0.2,1.1-0.6,1.5s-0.9,0.6-1.5,0.6h-5.4c-0.6,0-1.1-0.2-1.5-0.6c-0.4-0.4-0.6-0.9-0.6-1.5V401.07L570.28,401.07z
			 M582.98,401.07c0-0.6,0.2-1.1,0.6-1.5s0.9-0.6,1.5-0.6h5.4c0.6,0,1.1,0.2,1.5,0.6c0.4,0.4,0.6,0.9,0.6,1.5v5.2
			c0,0.6-0.2,1.1-0.6,1.5s-0.9,0.6-1.5,0.6h-5.4c-0.6,0-1.1-0.2-1.5-0.6c-0.4-0.4-0.6-0.9-0.6-1.5V401.07L582.98,401.07z
			 M595.88,401.07c0-0.6,0.2-1.1,0.6-1.5s0.9-0.6,1.5-0.6h5.4c0.6,0,1.1,0.2,1.5,0.6c0.4,0.4,0.6,0.9,0.6,1.5v5.2
			c0,0.6-0.2,1.1-0.6,1.5s-0.9,0.6-1.5,0.6h-5.4c-0.6,0-1.1-0.2-1.5-0.6c-0.4-0.4-0.6-0.9-0.6-1.5V401.07L595.88,401.07z
			 M608.88,399.57c0.4-0.4,0.9-0.6,1.5-0.6h5.4c0.6,0,1.1,0.2,1.5,0.6c0.4,0.4,0.6,0.9,0.6,1.5v5.2c0,0.6-0.2,1.1-0.6,1.5
			s-0.9,0.6-1.5,0.6h-5.4c-0.6,0-1.1-0.2-1.5-0.6c-0.4-0.4-0.6-0.9-0.6-1.5v-5.2C608.28,400.47,608.48,399.97,608.88,399.57z"/>
		<path class="st7" d="M541.78,449.77c-28.7,0-54.7,11.6-73.5,30.4c-18.8,18.8-30.4,44.8-30.4,73.5s11.6,54.7,30.4,73.5
			s44.8,30.4,73.5,30.4s54.7-11.6,73.5-30.4c18.8-18.8,30.4-44.8,30.4-73.5s-11.6-54.7-30.4-73.5
			C596.48,461.37,570.48,449.77,541.78,449.77L541.78,449.77z M485.38,497.27c14.4-14.4,34.4-23.4,56.4-23.4
			c17.2,0,33.2,5.5,46.2,14.8v-0.1l1.7,1.3c3,2.3,5.8,4.7,8.5,7.3c4.8,4.8,8.9,10.1,12.3,15.9c5.2,8.8,8.8,18.8,10.3,29.4l0.3,2.1
			h-0.1c0.3,3,0.5,6,0.5,9c0,22-8.9,42-23.4,56.4c-14.4,14.4-34.4,23.4-56.4,23.4s-42-8.9-56.4-23.4c-14.4-14.4-23.4-34.4-23.4-56.4
			S470.98,511.77,485.38,497.27z"/>
		<path class="st7" d="M530.08,398.07c0,2.8,1.1,5.4,3,7.3c1.9,1.9,4.4,3,7.3,3c2.8,0,5.4-1.1,7.3-3s3-4.4,3-7.3
			c0-2.8-1.1-5.4-3-7.3c-1.7-1.7-4-2.8-6.5-3v6.1c0,0.7-0.5,1.2-1.2,1.2s-1.2-0.5-1.2-1.2v-6c-2.1,0.4-4.1,1.4-5.5,2.9
			C531.28,392.67,530.08,395.17,530.08,398.07z"/>
		<path class="st7" d="M541.78,478.77c-20.7,0-39.4,8.4-53,21.9c-13.6,13.6-21.9,32.3-21.9,53c0,2.9,0.2,5.8,0.5,8.6
			c1.9,8,9.1,14,17.7,14c8.7,0,16-6.1,17.8-14.2h2.2c1.8,8.1,9.1,14.2,17.8,14.2c8.7,0,16-6.1,17.8-14.2h2.2
			c1.8,8.1,9.1,14.2,17.8,14.2c8.7,0,16-6.1,17.8-14.2h2.2c1.8,8.1,9.1,14.2,17.8,14.2c8.6,0,15.8-6,17.7-14
			c0.3-2.8,0.5-5.7,0.5-8.6c0-3.4-0.2-6.8-0.7-10c-8.7-2.1-16.3-7-21.7-13.7c-5.7-7-9.2-16-9.2-25.7c0-2.1,0.2-4.2,0.5-6.2
			c0.2-1.5,0.5-3,0.9-4.4C574.08,484.27,558.58,478.77,541.78,478.77z"/>
		<path class="st8" d="M418.68,372.27h246.2c4,0,7.7,1.7,10.4,4.3c2.7,2.7,4.3,6.3,4.3,10.4v350.6c0,4-1.7,7.7-4.3,10.4
			c-2.7,2.7-6.3,4.3-10.4,4.3h-246.2c-4,0-7.7-1.7-10.4-4.3c-2.7-2.7-4.3-6.3-4.3-10.4v-350.6c0-4,1.6-7.7,4.3-10.4
			C410.98,373.97,414.68,372.27,418.68,372.27L418.68,372.27z M664.98,377.17L664.98,377.17h-246.2c-2.7,0-5.1,1.1-6.9,2.9
			c-1.8,1.8-2.9,4.2-2.9,6.9v350.6c0,2.7,1.1,5.1,2.9,6.9c1.8,1.8,4.2,2.9,6.9,2.9h246.2c2.7,0,5.1-1.1,6.9-2.9
			c1.8-1.8,2.9-4.2,2.9-6.9v-350.6c0-2.7-1.1-5.1-2.9-6.9C670.08,378.27,667.68,377.17,664.98,377.17z"/>
		<path class="st8" d="M541.78,444.87c30,0,57.2,12.2,76.9,31.9c19.7,19.7,31.9,46.9,31.9,76.9s-12.2,57.2-31.9,76.9
			c-19.7,19.7-46.9,31.9-76.9,31.9c-30,0-57.2-12.2-76.9-31.9c-19.7-19.7-31.9-46.9-31.9-76.9s12.2-57.2,31.9-76.9
			S511.78,444.87,541.78,444.87L541.78,444.87z M615.28,480.27L615.28,480.27c-18.8-18.8-44.8-30.4-73.5-30.4s-54.7,11.6-73.5,30.4
			c-18.8,18.8-30.4,44.8-30.4,73.5s11.6,54.7,30.4,73.5s44.8,30.4,73.5,30.4s54.7-11.6,73.5-30.4c18.8-18.8,30.4-44.8,30.4-73.5
			C645.78,524.97,634.08,499.07,615.28,480.27z"/>
		<path class="st9" d="M618.28,541.67c-17.5-3.5-30.6-18.9-30.6-37.4c0-4,0.6-7.9,1.8-11.5
			C604.48,504.47,615.18,521.87,618.28,541.67z"/>
		<path class="st9" d="M617.78,544.07c-9.4-1.9-17.6-7-23.4-14.1c-5.7-7-9.2-16-9.2-25.7c0-2.1,0.2-4.2,0.5-6.2
			c0.3-2.1,0.8-4.1,1.4-6.1l1.1-3.3l2.8,2.2c7.9,6.2,14.6,13.8,19.7,22.5c5,8.5,8.5,17.9,10,28l0.5,3.4L617.78,544.07L617.78,544.07
			z M598.08,526.87L598.08,526.87c4.4,5.4,10.3,9.4,17.1,11.5c-1.7-8.1-4.7-15.7-8.8-22.7c-4.2-7.1-9.5-13.4-15.6-18.7
			c-0.1,0.6-0.2,1.2-0.3,1.8c-0.3,1.8-0.4,3.6-0.4,5.5C589.98,512.77,593.08,520.67,598.08,526.87z"/>
		<path class="st8" d="M577.78,400.87h-5.4c-0.1,0-0.1,0-0.2,0.1c0,0-0.1,0.1-0.1,0.2v5.2c0,0.1,0,0.1,0.1,0.2c0,0,0.1,0.1,0.2,0.1
			h5.4c0.1,0,0.1,0,0.2-0.1c0,0,0.1-0.1,0.1-0.2v-5.2c0-0.1,0-0.1-0.1-0.2C577.88,400.87,577.78,400.87,577.78,400.87z"/>
		<path class="st8" d="M572.28,398.97h5.4c0.6,0,1.1,0.2,1.5,0.6c0.4,0.4,0.6,0.9,0.6,1.5v5.2c0,0.6-0.2,1.1-0.6,1.5
			s-0.9,0.6-1.5,0.6h-5.4c-0.6,0-1.1-0.2-1.5-0.6c-0.4-0.4-0.6-0.9-0.6-1.5v-5.2c0-0.6,0.2-1.1,0.6-1.5
			C571.18,399.27,571.78,398.97,572.28,398.97z"/>
		<path class="st8" d="M585.08,398.97h5.4c0.6,0,1.1,0.2,1.5,0.6c0.4,0.4,0.6,0.9,0.6,1.5v5.2c0,0.6-0.2,1.1-0.6,1.5
			s-0.9,0.6-1.5,0.6h-5.4c-0.6,0-1.1-0.2-1.5-0.6c-0.4-0.4-0.6-0.9-0.6-1.5v-5.2c0-0.6,0.2-1.1,0.6-1.5
			C583.98,399.27,584.48,398.97,585.08,398.97z"/>
		<path class="st8" d="M597.98,398.97h5.4c0.6,0,1.1,0.2,1.5,0.6c0.4,0.4,0.6,0.9,0.6,1.5v5.2c0,0.6-0.2,1.1-0.6,1.5
			s-0.9,0.6-1.5,0.6h-5.4c-0.6,0-1.1-0.2-1.5-0.6c-0.4-0.4-0.6-0.9-0.6-1.5v-5.2c0-0.6,0.2-1.1,0.6-1.5
			C596.88,399.27,597.38,398.97,597.98,398.97z"/>
		<path class="st8" d="M610.38,398.97h5.4c0.6,0,1.1,0.2,1.5,0.6c0.4,0.4,0.6,0.9,0.6,1.5v5.2c0,0.6-0.2,1.1-0.6,1.5
			s-0.9,0.6-1.5,0.6h-5.4c-0.6,0-1.1-0.2-1.5-0.6c-0.4-0.4-0.6-0.9-0.6-1.5v-5.2c0-0.6,0.2-1.1,0.6-1.5
			C609.28,399.27,609.78,398.97,610.38,398.97z"/>
		<path class="st8" d="M550.18,388.17c-2.5-2.5-6-4.1-9.8-4.1s-7.3,1.6-9.8,4.1s-4.1,6-4.1,9.8s1.6,7.3,4.1,9.8s6,4.1,9.8,4.1
			s7.3-1.6,9.8-4.1s4.1-6,4.1-9.8S552.78,390.67,550.18,388.17z M547.58,405.27c-1.9,1.9-4.4,3-7.3,3c-2.8,0-5.4-1.1-7.3-3
			s-3-4.4-3-7.3c0-2.8,1.1-5.4,3-7.3c1.5-1.5,3.4-2.5,5.5-2.9v6c0,0.7,0.5,1.2,1.2,1.2s1.2-0.5,1.2-1.2v-6.1c2.5,0.2,4.8,1.3,6.5,3
			c1.9,1.9,3,4.4,3,7.3C550.68,400.87,549.48,403.47,547.58,405.27z"/>
		<path class="st9" d="M464.88,562.07h2.4c1.8,8.1,9.1,14.2,17.8,14.2c8.7,0,16-6.1,17.8-14.2h2.2c1.8,8.1,9.1,14.2,17.8,14.2
			c8.7,0,16-6.1,17.8-14.2h2.2c1.8,8.1,9.1,14.2,17.8,14.2c8.7,0,16-6.1,17.8-14.2h2.2c1.8,8.1,9.1,14.2,17.8,14.2s16-6.1,17.8-14.2
			h2.4c-4.2,38.8-37,69-76.9,69C501.88,631.07,469.08,600.87,464.88,562.07z"/>
		<rect x="407.88" y="418.37" class="st8" width="269.4" height="4.9"/>
		<path class="st8" d="M541.78,473.97c22,0,42,8.9,56.4,23.4c14.4,14.4,23.4,34.4,23.4,56.4s-8.9,42-23.4,56.4
			c-14.4,14.4-34.4,23.4-56.4,23.4s-42-8.9-56.4-23.4c-14.4-14.4-23.4-34.4-23.4-56.4s8.9-42,23.4-56.4
			C499.88,482.87,519.78,473.97,541.78,473.97L541.78,473.97z M594.78,500.77L594.78,500.77c-13.6-13.6-32.3-21.9-53-21.9
			s-39.4,8.4-53,21.9c-13.6,13.6-21.9,32.3-21.9,53s8.4,39.4,21.9,53c13.6,13.6,32.3,21.9,53,21.9s39.4-8.4,53-21.9
			c13.6-13.6,21.9-32.3,21.9-53C616.78,533.07,608.38,514.27,594.78,500.77z"/>
		<path class="st8" d="M419.08,389.17c-1.3,0-2.4-1.1-2.4-2.4c0-1.3,1.1-2.4,2.4-2.4h44.8c1.3,0,2.4,1.1,2.4,2.4
			c0,1.3-1.1,2.4-2.4,2.4H419.08z"/>
		<path class="st8" d="M419.08,398.97c-1.3,0-2.4-1.1-2.4-2.4c0-1.3,1.1-2.4,2.4-2.4h44.8c1.3,0,2.4,1.1,2.4,2.4
			c0,1.3-1.1,2.4-2.4,2.4H419.08z"/>
		<path class="st8" d="M419.08,408.77c-1.3,0-2.4-1.1-2.4-2.4c0-1.3,1.1-2.4,2.4-2.4h44.8c1.3,0,2.4,1.1,2.4,2.4
			c0,1.3-1.1,2.4-2.4,2.4H419.08z"/>
	</g>
	<g>
		<g id="BACKGROUND">
			<path class="st0" d="M645.78,715.87h160.6c0,0-0.3-6.8-8.8-11.8c-4.2-2.5-9.1-3.7-14-3.4c-2.3,0.1-5.4,0.1-8.8-0.3
				c-6.6-0.8-12.5-4.8-15.8-10.6c-3.9-6.9-12-16.6-26.5-15.8c-6,0.3-13.9,3-31.2,22.5c0,0-11.4,11.4-30,7.7
				C671.28,704.17,650.88,702.47,645.78,715.87z"/>
		</g>
	</g>
	<g id="PRINKLES" transform="matrix(1,0,0,1,319.065,-136.885)">
		<path class="st10" d="M56.68,454.27l6.2,10.3l5.7-2.4l-6.9-11.7L56.68,454.27z M105.38,446.07l-5,12.2l5,4.1l7.9-10L105.38,446.07
			z M75.48,437.27l5.9,15.9l6.3-0.7l-2.6-18.1L75.48,437.27z"/>
		<path class="st10" d="M355.08,452.07l-8.3,14.5l3.9,4.2l9.5-12.5L355.08,452.07z M378.28,456.07l-11.1,14.4l4.9,5.2l13.6-15.2
			L378.28,456.07z"/>
		<path class="st10" d="M-38.22,152.87l6.8,14.2l5.9-2.5l-6.3-16.3L-38.22,152.87z M-18.22,136.67l0.5,17.7l6.9,1.1l3.1-18.4
			L-18.22,136.67z"/>
		<path class="st11" d="M436.38,505.87l2-5.2c0.3-0.8,1.2-1.2,2-0.9s1.2,1.2,0.9,2l-2.3,6l6.1-2.1c0.8-0.3,1.7,0.2,2,1s-0.1,1.7-1,2
			l-5.8,2l5.5,2.7c0.8,0.4,1.1,1.3,0.7,2.1s-1.3,1.1-2.1,0.7l-5.5-2.7l2,5.8c0.3,0.8-0.2,1.7-1,2s-1.7-0.2-2-1l-1.8-5.3l-2,5.2
			c-0.3,0.8-1.2,1.2-2,0.9s-1.2-1.2-0.9-2l2.3-6l-6.1,2.1c-0.8,0.3-1.7-0.2-2-1s0.2-1.7,1-2l5.8-2l-5.5-2.7
			c-0.8-0.4-1.1-1.3-0.7-2.1s1.3-1.1,2.1-0.7l5.5,2.7l-2-5.8c-0.3-0.8,0.2-1.7,1-2s1.7,0.2,2,1L436.38,505.87z"/>
		<path class="st10" d="M187.98,278.77l0.1-5.6c0-0.9,0.7-1.6,1.6-1.5c0.9,0,1.6,0.7,1.5,1.6l-0.1,6.5l5-4.1
			c0.7-0.6,1.7-0.4,2.2,0.2c0.5,0.7,0.4,1.7-0.2,2.2l-4.7,3.8l6.1,0.6c0.9,0.1,1.5,0.9,1.4,1.7c-0.1,0.9-0.9,1.5-1.7,1.4l-6.1-0.6
			l3.8,4.7c0.5,0.7,0.4,1.7-0.2,2.2c-0.7,0.5-1.7,0.4-2.2-0.2l-3.5-4.3l-0.1,5.6c0,0.9-0.7,1.6-1.6,1.5c-0.9,0-1.6-0.7-1.5-1.6
			l0.1-6.5l-5,4.1c-0.7,0.6-1.7,0.4-2.2-0.2c-0.5-0.7-0.4-1.7,0.2-2.2l4.7-3.8l-6.1-0.6c-0.9-0.1-1.5-0.9-1.4-1.7
			c0.1-0.9,0.9-1.5,1.7-1.4l6.1,0.6l-3.8-4.7c-0.5-0.7-0.4-1.7,0.2-2.2c0.7-0.5,1.7-0.4,2.2,0.2L187.98,278.77z"/>
		<path class="st10" d="M-308.22,467.47l0.1-5.6c0-0.9,0.7-1.6,1.6-1.5c0.9,0,1.6,0.7,1.5,1.6l-0.1,6.5l5-4.1
			c0.7-0.6,1.7-0.4,2.2,0.2c0.5,0.7,0.4,1.7-0.2,2.2l-4.7,3.8l6.1,0.6c0.9,0.1,1.5,0.9,1.4,1.7c-0.1,0.9-0.9,1.5-1.7,1.4l-6.1-0.6
			l3.8,4.7c0.5,0.7,0.4,1.7-0.2,2.2c-0.7,0.5-1.7,0.4-2.2-0.2l-3.5-4.3l-0.1,5.6c0,0.9-0.7,1.6-1.6,1.5c-0.9,0-1.6-0.7-1.5-1.6
			l0.1-6.5l-5,4.1c-0.7,0.5-1.7,0.4-2.2-0.2s-0.4-1.7,0.2-2.2l4.7-3.8l-6.1-0.6c-0.9-0.1-1.5-0.9-1.4-1.7c0.1-0.9,0.9-1.5,1.7-1.4
			l6.1,0.6l-3.8-4.7c-0.5-0.7-0.4-1.7,0.2-2.2c0.7-0.5,1.7-0.4,2.2,0.2L-308.22,467.47z"/>
		<path class="st11" d="M-199.42,203.17l0.1-5.6c0-0.9,0.7-1.6,1.6-1.5c0.9,0,1.6,0.7,1.5,1.6l-0.1,6.5l5-4.1
			c0.7-0.5,1.7-0.4,2.2,0.2c0.5,0.7,0.4,1.7-0.2,2.2l-4.7,3.8l6.1,0.6c0.9,0.1,1.5,0.9,1.4,1.7c-0.1,0.9-0.9,1.5-1.7,1.4l-6.1-0.6
			l3.8,4.7c0.5,0.7,0.4,1.7-0.2,2.2c-0.7,0.5-1.7,0.4-2.2-0.2l-3.5-4.3l-0.1,5.6c0,0.9-0.7,1.6-1.6,1.5c-0.9,0-1.6-0.7-1.5-1.6
			l0.1-6.5l-5,4.1c-0.7,0.6-1.7,0.4-2.2-0.2c-0.5-0.7-0.4-1.7,0.2-2.2l4.7-3.8l-6.1-0.6c-0.9-0.1-1.5-0.9-1.4-1.7
			c0.1-0.9,0.9-1.5,1.7-1.4l6.1,0.6l-3.8-4.7c-0.5-0.7-0.4-1.7,0.2-2.2c0.7-0.5,1.7-0.4,2.2,0.2L-199.42,203.17z"/>
	</g>
</g>
</svg>
