<?xml version="1.0" encoding="utf-8"?>
<!-- Generator: Adobe Illustrator 21.0.2, SVG Export Plug-In . SVG Version: 6.00 Build 0)  -->
<svg version="1.1" id="Layer_1" xmlns:serif="http://www.serif.com/"
	 xmlns="http://www.w3.org/2000/svg" xmlns:xlink="http://www.w3.org/1999/xlink" x="0px" y="0px" viewBox="0 0 1920 1080"
	 style="enable-background:new 0 0 1920 1080;" xml:space="preserve">
<style type="text/css">
	.st0{fill:#FFD274;}
	.st1{fill:#A52929;}
	.st2{fill:#69BAC9;}
	.st3{fill:#FFFFFF;}
	.st4{fill:#FF7867;}
	.st5{fill:#668DDB;}
	.st6{fill:#3768BE;}
	.st7{fill:#E0755E;}
	.st8{fill:#A52929;fill-opacity:0.86;}
	.st9{fill:#FF7766;}
	.st10{fill:#FF7B6B;}
	.st11{fill:#DE735A;}
	.st12{fill:none;stroke:#0D2E3A;stroke-width:6;stroke-linecap:round;stroke-linejoin:round;stroke-miterlimit:2.2866;}
	.st13{fill:none;stroke:#0F303C;stroke-width:6;stroke-linecap:round;stroke-linejoin:round;stroke-miterlimit:2.2866;}
	.st14{fill:none;stroke:#668DDB;stroke-width:6;stroke-linecap:round;stroke-linejoin:round;stroke-miterlimit:2.2866;}
	.st15{fill:#FDDB81;}
	.st16{fill:#FD4C3D;}
</style>
<g id="SIGN">
	<g>
		<path class="st0" d="M815,174L815,174c0.9-0.6,17.5-11.5,43.5-22.2c26-10.7,61.4-21.2,99.8-21.2c17.3,0,35.2,2.1,53.2,7.3
			c18,5.2,36.1,13.4,53.7,25.6c1.6,1.1,3.8,0.7,4.9-0.9c1.1-1.6,0.7-3.8-0.9-4.9c-18.3-12.7-37.1-21.2-55.8-26.6
			c-18.7-5.4-37.3-7.6-55.1-7.6c-40.3,0-77,11.1-103.7,22.2c-26.7,11.1-43.3,22.2-43.4,22.3c-1.6,1.1-2,3.2-1,4.9
			C811.2,174.6,813.4,175.1,815,174L815,174z"/>
		<path class="st0" d="M832.7,231.3c11.7-6.3,29.9-15.1,52.3-22.3c22.4-7.2,48.8-12.8,76.9-12.8c29.5,0,60.7,6.1,91.1,23
			c1.7,0.9,3.8,0.3,4.8-1.4c0.9-1.7,0.3-3.8-1.4-4.8c-31.6-17.6-64.1-23.9-94.5-23.9c-29,0-56.2,5.8-79,13.1
			c-22.9,7.4-41.5,16.3-53.4,22.8c-1.7,0.9-2.3,3-1.4,4.7C828.8,231.6,831,232.2,832.7,231.3L832.7,231.3z"/>
	</g>
	<g transform="matrix(-0.770279,-0.178278,-0.257926,1.11441,2505.63,138.586)">
		<path class="st1" d="M1770.9,298.5c0-1.3-1.5-2.3-3.3-2.3h-6.6c-1.8,0-3.3,1-3.3,2.3V428c0,1.3,1.5,2.3,3.3,2.3h6.6
			c1.8,0,3.3-1,3.3-2.3V298.5z"/>
	</g>
	<g transform="matrix(0.765613,-0.197356,0.285527,1.10766,150.538,181.221)">
		<path class="st1" d="M821.6,132.3c0-1.3-1.5-2.3-3.3-2.3h-6.6c-1.8,0-3.3,1-3.3,2.3v129.5c0,1.3,1.5,2.3,3.3,2.3h6.6
			c1.8,0,3.3-1,3.3-2.3V132.3z"/>
	</g>
</g>
<g id="BIRD-2" serif:id="BIRD 2">
	<path class="st2" d="M665,190.6c0,0,5.5-10.7,13.8-5.8c0,0,3.4-2.4,5.1-3.6c0.1-0.1,0.3-0.1,0.4,0c0.1,0.1,0.2,0.3,0.1,0.4
		c-0.6,1.9-1.7,5.5-1.7,5.5s7.4,18.7-3.9,32.3c-3.3,3.9-23,23.8-41.6,3.3c-1-1.1-1.4-2.5-1.2-3.9c0.4-2.8,1.5-7.4,4.7-10.1l6.1,3.6
		c-2.3-2.6-4.6-5.2-6.1-8.4c0,0-4.5-18.1,8.3-30.9c0.2-0.2,0.6-0.3,0.9-0.3c0.3,0.1,0.6,0.3,0.8,0.5
		C652.5,177.1,659,188.8,665,190.6z"/>
	<path class="st3" d="M640.2,191.2c1.5,3.2,5,9.7,9.9,13.4c0.5,0.4,0.5,1,0.2,1.5c-0.4,0.5-1,0.5-1.5,0.2c-3.9-3-6.9-7.7-8.9-11.2
		C639.9,193.7,640,192.4,640.2,191.2z M642.4,182.7c0.7,1.9,4.5,11.4,10.5,16.5c0.4,0.4,0.5,1,0.1,1.5c-0.4,0.4-1,0.5-1.5,0.1
		c-4.9-4.2-8.5-11.3-10.1-15.1C641.6,184.7,642,183.7,642.4,182.7z M646.4,175.8c0,0,0,0.1,0.1,0.1c0,0,3.6,11.2,10.3,17.1
		c0.4,0.4,0.5,1.1,0.1,1.5c-0.4,0.4-1.1,0.5-1.5,0.1c-5.6-5-9.2-13.5-10.5-16.7C645.5,177.1,646,176.4,646.4,175.8z"/>
	<path d="M665,190.6l1.1-1.8c0,0,2.2,1.3,4.1,1.6c0.6,0.1,1,0.6,0.9,1.2c-0.1,0.6-0.6,1-1.2,0.9C667.9,192.1,665,190.6,665,190.6z"
		/>
	<path d="M641.2,209.1c0,0,5.5,8.1,13.9,9.9c0.6,0.1,1.2,0.1,1.4-0.5c0.3-0.5,0.1-1.3-0.5-1.4c-6.7-2-9.4-4.9-9.4-4.9L641.2,209.1z"
		/>
</g>
<g id="BIRD-1" transform="matrix(-1,0,0,1,2672.39,179.726)" serif:id="BIRD 1">
	<path class="st2" d="M1448.8,105.6c0,0,5.5-10.7,13.8-5.8c0,0,3.4-2.4,5.1-3.6c0.1-0.1,0.3-0.1,0.4,0s0.2,0.3,0.1,0.4
		c-0.6,1.9-1.7,5.5-1.7,5.5s7.4,18.7-3.9,32.3c-3.3,3.9-23,23.8-41.6,3.3c-1-1.1-1.4-2.5-1.2-3.9c0.4-2.8,1.5-7.4,4.7-10.1l6.1,3.6
		c-2.3-2.6-4.6-5.2-6.1-8.4c0,0-4.5-18.1,8.3-30.9c0.2-0.2,0.6-0.3,0.9-0.3c0.3,0.1,0.6,0.3,0.8,0.5
		C1436.4,92.1,1442.8,103.8,1448.8,105.6z"/>
	<path class="st3" d="M1424,106.2c1.5,3.2,5,9.7,9.9,13.4c0.5,0.4,0.5,1,0.2,1.5c-0.4,0.5-1,0.5-1.5,0.2c-3.9-3-6.9-7.7-8.9-11.2
		C1423.7,108.7,1423.9,107.5,1424,106.2z M1426.2,97.8c0.7,1.9,4.5,11.4,10.5,16.5c0.4,0.4,0.5,1,0.1,1.5c-0.4,0.4-1,0.5-1.5,0.1
		c-4.9-4.2-8.5-11.3-10.1-15.1C1425.5,99.7,1425.8,98.7,1426.2,97.8z M1430.3,90.8c0,0,0,0.1,0.1,0.1c0,0,3.6,11.2,10.3,17.1
		c0.4,0.4,0.5,1.1,0.1,1.5c-0.4,0.4-1.1,0.5-1.5,0.1c-5.6-5-9.2-13.5-10.5-16.7C1429.3,92.1,1429.8,91.4,1430.3,90.8z"/>
	<path d="M1448.8,105.6l1.1-1.8c0,0,2.2,1.3,4.1,1.6c0.6,0.1,1,0.6,0.9,1.2c-0.1,0.6-0.6,1-1.2,0.9
		C1451.7,107.2,1448.8,105.6,1448.8,105.6z"/>
	<path d="M1425.1,124.1c0,0,5.5,8.1,13.9,9.9c0.6,0.1,1.2,0.1,1.4-0.5c0.3-0.5,0.1-1.3-0.5-1.4c-6.7-2-9.4-4.9-9.4-4.9L1425.1,124.1
		z"/>
</g>
<g id="MAN">
	<g>
		<g transform="matrix(0.965995,0,0,1,23.9851,-4.29377)">
			<path class="st4" d="M575.1,716.5l0.3-40.2h3.3l-0.3,41c0,0.5-0.3,1-0.7,1.3c0,0-10.2,6.8-12.7,16.2
				c22.3-10.3,37.2-14.1,57.7-14.8c13.8-0.5,27.5,2.8,42.1,8.3l-1.3-51.9l3.3-0.1l1.4,54.3c0,0.5-0.2,1-0.7,1.3
				c-0.5,0.3-1,0.4-1.5,0.2c-15.1-5.8-29-9.5-43.1-8.9c-20.9,0.8-35.9,4.8-59.3,15.9c-0.5,0.2-1.2,0.2-1.6-0.1
				c-0.5-0.3-0.8-0.9-0.7-1.4C562,727,572.3,718.6,575.1,716.5z"/>
		</g>
		<path class="st4" d="M977.8,922.5c-1.6-3.5-6.7-11-22.2-13.9c-0.6-0.1-1.1-0.6-1.2-1.2l-12.5-54.6l3.1-0.9l12.3,53.9
			c22.2,4.6,24.4,18.1,24.4,18.1c0.1,0.5,0,0.9-0.3,1.3c-0.3,0.4-0.7,0.6-1.2,0.6H871.2c-0.7,0-1.4-0.5-1.5-1.2L857.4,878l2.9-0.9
			l12.1,45.4H977.8z"/>
	</g>
	<g>
		<path class="st5" d="M579.7,672H668V513.4l119.4,79l70,285.6l87.5-26.1l-60.3-328l-127.7-83.5c0,0-56-28.9-105.7-54.5
			c-15.9-8.2-34.9-7.5-50.2,2c-15.2,9.4-24.4,26.1-24.2,44C578,528.1,579.7,672,579.7,672z"/>
		<path class="st6" d="M809.7,474.8l2.7,1.7l-13.4,21.4l7.1,5.7l14.2-21.8l2.6,1.7l-15.2,23.3c-0.2,0.4-0.6,0.6-1.1,0.7
			c-0.4,0.1-0.9,0-1.2-0.3l-9.6-7.7c-0.6-0.5-0.8-1.4-0.4-2.1L809.7,474.8L809.7,474.8z"/>
		<path class="st6" d="M602.3,389.2c-0.5-0.3-1.2-0.2-1.7,0.1c-18.2,13.6-19.6,29.1-19.6,29.1c-0.1,0.6,0.2,1.1,0.7,1.5
			c0.5,0.3,1.1,0.4,1.6,0.1c0.4-0.2,0.9-0.2,1.6-0.2c0.9,0.1,2,0.2,3.1,0.5c5.6,1.4,12.9,4.8,12.9,4.8c0.4,0.2,0.8,0.2,1.2,0.1
			c0.4-0.1,0.7-0.4,0.9-0.8c5-10.8,15.7-18.9,15.7-18.9c0.3-0.3,0.6-0.6,0.6-1.1c0.1-0.4-0.1-0.9-0.3-1.2
			C611.7,394,602.3,389.2,602.3,389.2z M601.8,392.5c-12.4,9.5-16.1,19.8-17.1,24.1c1.2,0,2.6,0.2,4.2,0.6c4.3,1.1,9.6,3.3,12.1,4.4
			c4.3-8.5,11.8-15.2,14.7-17.7C610.2,397.7,604,393.8,601.8,392.5z"/>
		<path class="st6" d="M579.6,657.8l0-3.2H668v3.2h-22.6V672h-3.2v-14.3h-3.9V672h-3.2v-14.3h-36.5V672h-3.2v-14.3H579.6z"/>
		<path class="st6" d="M942.3,837.6l0.6,3.1l-29,8.2l4.4,10.7l-3.1,0.9l-4.4-10.7l-2.4,0.7l3.8,10.9l-3,0.9l-3.8-10.9l-30.3,8.6
			l3.6,11.3l-3,0.9l-3.6-11.3l-17.6,5l-0.8-3.1L942.3,837.6z"/>
		<path class="st6" d="M881.5,705.8c-0.4,0.1-0.8,0.3-1,0.7c-0.2,0.3-0.3,0.8-0.2,1.2l5.1,25.9c0.1,0.4,0.3,0.8,0.7,1
			c0.4,0.2,0.8,0.3,1.2,0.2l24.9-5.1c0.4-0.1,0.8-0.3,1-0.7c0.2-0.4,0.3-0.8,0.2-1.2l-5.4-25.5c-0.2-0.8-1-1.4-1.8-1.2L881.5,705.8z
			 M883.6,708.6l4.4,22.8l21.8-4.5l-4.7-22.4L883.6,708.6z"/>
	</g>
	<g>
		<path class="st7" d="M871.4,507.8c3.1,17.6,17.3,72,62.3,65.1c15.4-2.4,42.6-15.8,40.7-71c-2-59.1-3.2-100.4-9.4-145.9
			c-0.9-7-3.4-13.7-6.4-17.6c-2.8-3.7-6.2-2.9-4.9,2.3c-6.1-7.3-12.9-7-10.9-1.5c0,0-8.4-3.4-5.3,4.8c0,0-7.2-1.9-4.6,4.6
			c2.3,5.8,0.9,26.3-0.2,27.4c-1.5,1.5-2.2-5.7-7.6-9.9c-1.7-1.3-4.7-2.2-4.6,5c0,0-4.7,76.2-14.2,125.3L871.4,507.8z"/>
		<path class="st1" d="M942,387.1c-0.8-1.6-1.8-3.2-2.8-4.5c-1.5-2-3.3-3.6-5.2-5.1c-0.1-0.1-2-1.4-2-1.4c0.7,0.4,1.1-0.6,1.2-1.4
			c0.2,0.2,1.9,1.2,2,1.3c2.1,1.6,4,3.3,5.6,5.4c0.9,1.2,1.8,2.5,2.6,3.9c2.4-2.8,6-4.9,9.6-5.3c0.5-0.1,1,0.3,1.1,0.9
			c0.1,0.5-0.3,1-0.9,1.1c-3.4,0.4-6.8,2.4-8.9,5.3c0.4,1.1,0.8,2.2,0.9,3.2c0.1,0.7-0.1,2.4-0.6,3.4c-0.3,0.5-0.7,0.8-1.2,1
			c-0.5,0.1-1,0.1-1.7-0.4c-0.9-0.6-1.3-1.7-1.2-2.8c0.1-1.3,0.7-2.9,1.1-3.7C941.7,387.7,941.8,387.4,942,387.1z M942.9,389.4
			c-0.3,0.7-0.6,1.5-0.6,2.3c0,0.5,0,0.9,0.4,1.1c0,0,0.1,0,0.1,0.1c0.1-0.1,0.1-0.2,0.2-0.3c0.2-0.6,0.3-1.5,0.2-1.9
			C943.2,390.3,943.1,389.9,942.9,389.4z"/>
		<path class="st8" d="M937.6,344l-0.6-2.4c0,0,5.6,8.2,7.3,25.2c0.1,0.7-0.4,1.4-1.2,1.5c-0.7,0.1-1.4-0.4-1.5-1.2
			c-1.1-14.2-5.8-23.7-6.1-23.4L937.6,344z"/>
		<path class="st8" d="M943,335.9c-0.6,0.8-0.5,2-0.1,3.3l-1.2-0.4c0,0,7,13.7,7.3,27.3c0,0.7,0.6,1.3,1.3,1.3
			c0.7,0,1.3-0.6,1.3-1.3C951.3,349.8,943,335.9,943,335.9z"/>
		<path class="st8" d="M953.5,337.8c-0.1,0.5,0,1.5,0.2,2.9c-0.8-1.3-1.9-2.2-3-3c0,0,6,18.6,6.5,28.4c0,0.7,0.7,1.3,1.4,1.2
			c0.7,0,1.3-0.7,1.2-1.4C959.4,356.5,953.5,337.8,953.5,337.8z"/>
		<path class="st1" d="M899.9,498.5c0,0,0.3,9.5,0.7,20.9c0,1.1,0.9,2,2,2c1.1,0,2-0.8,2.1-1.9c0.9-12.4,1.7-23.1,1.7-23.1
			L899.9,498.5z"/>
	</g>
	<g>
		<path class="st7" d="M827.4,371.2l5-7.5c0,0-0.2-0.3-0.6-0.8c-5.1-6.7-5.3-16-0.5-22.9c6.8-9.8,17.8-21.2,30.6-17.3
			c0,0,20.4,7.9,13.8,27.6l-0.8,3.6c0,0,7.5,3.7,0.8,9.8c0,0-5.3,4.7-9.6,1.9l-2.4,24.4C863.8,390,836.5,395.8,827.4,371.2z"/>
		<path class="st1" d="M832.5,363.6l-1.6,2.4c0,0,2.2,1.8,3.6,2.7c4,2.5,9.9,4.5,18.5,4.3c0.9,0,1.6-0.8,1.5-1.6
			c0-0.9-0.8-1.6-1.6-1.5c-7.7,0.2-13.1-1.6-16.7-3.8C834.8,365.3,832.5,363.6,832.5,363.6z"/>
		<path class="st1" d="M874.9,354l0.8-3.2c0,0-1.3-0.4-2.1-0.4c-1.9-0.1-4.5,0.6-8.3,3.2c-0.7,0.5-0.9,1.5-0.4,2.2
			c0.5,0.7,1.5,0.9,2.2,0.4c3-2,4.9-2.7,6.4-2.7C874.2,353.6,874.9,354,874.9,354z"/>
		<path class="st1" d="M862.9,367.2l2.9,2.2l0.5-3.8l-1.4-0.8c-0.6-0.6-1.6-0.5-2.2,0.1C862.2,365.6,862.2,366.6,862.9,367.2z"/>
		<g transform="matrix(0.877769,0,0,0.781535,141.425,146.712)">
			<path class="st1" d="M802.4,261.1c-1.8,1.3-3.1,4.1-1.6,6.2c1,1.4,2.5,1.9,4.1,1.9c2.1,0,4.4-1,5.8-1.7c0.6-0.3,0.9-1.1,0.6-1.8
				c-0.3-0.7-1-1-1.6-0.7c-1.2,0.6-3.1,1.4-4.8,1.5c-0.9,0-1.7-0.1-2.2-0.9c-0.2-0.3-0.2-0.6-0.1-0.9c0.2-0.5,0.6-1,1.1-1.3
				c0.6-0.4,0.7-1.2,0.4-1.9C803.7,260.8,802.9,260.7,802.4,261.1z"/>
			<path class="st1" d="M810.7,267.4c3.5-1.8,3.1-5.5,1.7-7c-1-1-2.5-1.4-4.1-1.4c-2.2,0.1-4.6,1-5.9,2c-0.6,0.4-0.7,1.2-0.4,1.9
				c0.4,0.6,1.1,0.8,1.7,0.4c1.1-0.8,3-1.5,4.7-1.5c0.9,0,1.8,0.1,2.4,0.7c0.5,0.6,0.3,1.8-1.1,2.5c-0.6,0.3-0.9,1.1-0.6,1.8
				C809.4,267.4,810.1,267.7,810.7,267.4z"/>
		</g>
	</g>
	<g>
		<path d="M777.6,362.1c0,0,17.5-2.9,49.7,10.8c0.3,0.1,1,0.5,1,0.5l-0.8-2.2l0.5-0.8c0,0-0.5-0.2-0.7-0.3
			c-33.4-14.3-50.3-11.1-50.3-11.1c-0.9,0.2-1.4,1-1.2,1.9C775.9,361.7,776.8,362.3,777.6,362.1z"/>
		<path d="M864.1,386.8l-0.3,3.2c0,0,0.4,0.2,0.6,0.2c7.7,3.2,29.4,14.6,48.9,45.6c0.3,0.5,1,1.6,1,1.6l0.6-5.2c0,0-0.3-0.4-0.6-0.7
			c-20.2-30.7-42.1-41.6-49.4-44.6C864.7,387,864.1,386.8,864.1,386.8z"/>
		<path d="M760.1,440.3l9.8-5.6c0.7-0.5,0.8-1.5,0.3-2.2c-0.5-0.7-1.4-1.5-2.1-0.9l-10.4,6L760.1,440.3z"/>
		<path d="M763.1,406.1l8.4,43.8l3.7,2.4l-9-46.8c-0.2-0.9-1-1.4-1.9-1.2C763.5,404.4,762.9,405.3,763.1,406.1z"/>
		<path d="M860.4,468.5l6.9,44l5.7,3.8l-9.6-48.3c-0.2-0.9-1-1.4-1.8-1.3C860.8,466.8,860.2,467.6,860.4,468.5z"/>
		<path d="M859.2,507.2l1.4-39.5c5.4,14.7,7.9,31.4,10.6,47.3C867.2,512.4,863.2,509.9,859.2,507.2z"/>
	</g>
	<g>
		<path class="st7" d="M825.6,238.8c-69.5,45.5-101,68.8-156.9,131.5c-14.1,15.8-17.3,38.6-8.1,57.7c1.9,4,4.4,8.1,7.4,12.3
			c0,0,0,0,0,0c15.9,22.2,46.3,28.3,69.6,14c12.1-7.4,22.7-14,22.7-14l-29.7-33.5l111.2-110.5c0,0,8.8-5.5,9.5,2.1
			c0,0,7.3-0.3,6.1-11.5c0,0,7.5-5.3,3.1-13.2c0,0,4.4-9.4-3.1-15.9c0,0,0.5-9-8.9-11.7c0,0-10.4-3.5-20.7,0L825.6,238.8z"/>
		<path class="st1" d="M730.2,406.3l2.1,2.4l-17.9,16.2c-0.6,0.6-1.6,0.5-2.2-0.1c-0.6-0.6-0.5-1.6,0.1-2.2L730.2,406.3z"/>
		<path class="st1" d="M857.4,287.3c-1.9-3.4-5.6-4.6-9.4-4.9c-6.6-0.5-13.4,1.8-13.4,1.8c-0.8,0.3-1.7-0.2-2-1
			c-0.3-0.8,0.2-1.7,1-2c0,0,7.5-2.5,14.7-1.9c4.4,0.3,8.7,1.9,11.3,5.5c-0.8,0.9-2.1,2.1-2.1,2.1V287.3z M860.3,273.9
			c-12.4-9.1-28.8-2.1-28.8-2.1c-0.8,0.3-1.7,0-2.1-0.8c-0.3-0.8,0-1.7,0.8-2.1c0,0,17.5-7.3,31.2,2
			C861.3,271.7,860.9,273.2,860.3,273.9z M857.4,258c-15.7-6.5-31,1.7-31,1.7c-0.8,0.4-1.7,0.1-2.1-0.7c-0.4-0.8-0.1-1.7,0.6-2.1
			c0,0,15.6-8.3,32-2.5C857.1,255.2,857.6,257,857.4,258z M826.9,243.3c0.2,0.8,0.7,2.5,0.9,3l-7.2,2.8c-0.8,0.3-1.7-0.1-2.1-0.9
			c-0.3-0.8,0.1-1.7,0.9-2.1L826.9,243.3z"/>
	</g>
</g>
<g id="GIRL">
	<g>
		<path class="st1" d="M1032.6,295.3c-0.2,1.8-1,3.5-2.3,4.8c-1,1-2.2,1.6-3.3,0.7c-0.7-0.6-1.8-4.9-2.2-6.6c0,0-1.3-4.2,1.7-8.5
			c0,0-5.8-4.2-0.4-10.5c0,0-3.4-7,2.5-11.1c0,0-4.1-6.8,6.2-13.4c3-2,12.1-10,28.8,1.1l46,30.7l-29.7,46.6c0,0-39.5-38.1-42.9-38.7
			C1037,290.3,1033.3,288.3,1032.6,295.3z"/>
		<path d="M1024.6,283.4c2.3-2.4,6.5-6.1,11.9-6.2c3.5,0,7.2,1.1,11.3,5.4c0.7,0.7,0.9,1.6,0.2,2.3c-0.7,0.7-1.9,0.7-2.6-0.1
			c-3.1-3.3-6.1-4.6-8.8-4.5c-4.5,0.1-8.3,3.5-10.1,5.5C1025,284.8,1024.9,284.2,1024.6,283.4z M1025.2,271.9
			c0.1,1.6,0.2,1.9,0.9,3.2c0,0,3.4-3.7,6.6-5c3.7-1.5,8.8-1.7,15.4,1.5c0.9,0.4,2,0.1,2.5-0.9c0.4-0.9-0.1-1.5-1-2
			c-7.9-3.8-13.6-2.9-18-1.2C1029,268.6,1025.2,271.9,1025.2,271.9z M1027.9,261.3c0.1,1.6,0.2,1.1,0.7,2.7c0,0,0.4-0.2,0.5-0.3
			c4-3.2,12.5-8,22.9-2.8c0.9,0.5,1.8,0.3,2.2-0.6c0.5-0.9-0.1-1.4-1-1.8c-11-5.4-19.6-1-24.7,2.5
			C1028.3,261,1027.9,261.3,1027.9,261.3z"/>
	</g>
	<g>
		<path class="st1" d="M918,427.8c0,0-1.1-67.6,9.8-74.2c0,0,3.8-0.8,4.6,6.2c0,0,13.5-21.5,22.1-24.8c1.3-0.5,5.4-1.2,4.4,3.6
			c0,0,5.2-1.8,5.8,4.8c0,0,5.9,0.1,5,6.3c0,0,5.7,1.8,2.5,8.3c0,0-13.3,22.6-4.2,72L918,427.8z"/>
		<path d="M969.7,349.7c0.3,0,1.5,0.4,2.2,1.6c-2.1,1.7-8.3,7.5-16.9,21.9c-0.4,0.6-1.2,0.8-1.8,0.5c-0.6-0.4-0.8-1.2-0.5-1.8
			C960.8,358.4,966.9,352.1,969.7,349.7z M931.6,356.4c0.4,0.9,0.7,2.4,0.8,3.4c-2.5,4-3.6,8.5-3.6,8.5c-0.2,0.7-0.9,1.1-1.6,0.9
			c-0.7-0.2-1.1-0.9-0.9-1.6c0,0,1.6-6.1,5-10.8C931.3,356.8,931.6,356.5,931.6,356.4z M964.6,343.4c0.4,0,1.8,0.1,2.9,0.8
			c-2.7,2.7-13.3,13.4-19.6,23.9c-0.4,0.6-1.2,0.8-1.8,0.5c-0.6-0.4-0.8-1.2-0.5-1.8C951.4,357.1,960.7,347.3,964.6,343.4z
			 M958.9,338.5c0.5-0.1,2.7-0.5,3.6,0.5c-3.8,2.9-13.4,11.4-20.8,25.4c-0.3,0.6-1.1,0.9-1.8,0.5c-0.6-0.3-0.9-1.1-0.5-1.8
			C945.9,350.7,954.2,342.5,958.9,338.5z"/>
	</g>
	<g>
		<path class="st1" d="M1087.3,350.5c0,0-20.9,72.5-112.5,92.2c0,0,6.8-28.2,45.4-50.2l-0.9-23.5c0,0-12.2,3.8-12.4-7.5
			c-0.1-3.2,3.2-4.5,5.6-5.6c0,0,5.4,10.8,15.5,6.4c4-1.8,11.4-11.9,12.8-28.5c0,0,6,2.3,6.6-2.5c0,0,3.8,9.5,6.7,16.7
			c1.9,4.7,0.6,10.1-3.2,13.5l2.4,7.8C1053.3,369.4,1071.9,347.6,1087.3,350.5z"/>
		<path d="M1042.2,352.8c-0.9,0.4-1.8,1-2.4,1.8c-0.7,1-1,2.1-0.3,3.3c0.5,1,1.5,1.6,2.6,1.7c1.4,0.2,3.1-0.2,4.1-0.9
			c0.5-0.3,0.6-1,0.3-1.5c-0.3-0.5-1-0.6-1.5-0.3c-0.5,0.4-1.4,0.6-2.2,0.6c-0.6,0-1.3-0.2-1.6-0.7c-0.2-0.4-0.1-0.7,0.2-1
			c0.4-0.5,1-0.9,1.6-1.2c0.5-0.2,0.8-0.9,0.5-1.4C1043.4,352.8,1042.8,352.5,1042.2,352.8z"/>
		<path d="M1046.2,358.7c0.5-0.3,1.3-0.9,1.8-1.6c0.7-0.9,1-2,0.4-3.2c-0.4-0.8-1.1-1.3-2.1-1.6c-1.2-0.3-2.7-0.2-4,0.4
			c-0.5,0.2-0.8,0.9-0.5,1.4c0.2,0.5,0.9,0.8,1.4,0.5c0.8-0.4,1.8-0.5,2.6-0.3c0.3,0.1,0.6,0.2,0.8,0.5c0.2,0.4,0,0.7-0.2,0.9
			c-0.4,0.5-0.9,0.9-1.3,1.1c-0.5,0.3-0.6,1-0.3,1.5C1045.1,358.9,1045.7,359,1046.2,358.7z"/>
		<path d="M1050.9,361.7l0.7,2.2c-3.1,2.9-8.7,6.9-15.8,7.2c-0.6,0-1.1-0.4-1.1-1c0-0.6,0.4-1.1,1-1.1
			C1042.8,368.7,1048.2,364.4,1050.9,361.7z"/>
		<path d="M1054.6,373.6l-1.3-4.3c0,0,0.7-0.7,1.6-1.7l1.7,5.3c0.2,0.6-0.1,1.1-0.7,1.3C1055.3,374.5,1054.7,374.2,1054.6,373.6z"/>
		<path d="M1009.1,345c-4.5,1.8-9.7,2.3-14.5,1.8c-10.4-1.3-19.7-7.6-26.6-15.3c-5-5.5-8.8-12.1-15.3-16c-8.9-5.4-18.5-1.6-27.9-0.1
			c-16.2,2.5-34.7-0.9-43.4-16.4c-2.3-4.1-3.6-8.8-3.8-13.5c-0.2-5.7,1.2-11.4,3.7-16.5c7.7-15.8,26.7-26.5,44.1-20.7
			c8.3,2.8,15.2,8.8,20.4,15.6c4.7,6.1,7.8,13.1,11.3,19.8c1.7,3.2,3.5,7.6,6.9,9.4c3.9,2,7.6-1.4,10.3-3.9
			c4.9-4.6,10.5-9.9,17.5-10.7c7.9-0.9,13.4,5.4,17,11.7c6.5,11.3,9,22.9,9.8,35.5c1.8-1.2,3.9-2.3,6.3-3.2c0,0,17.9-4.8,22.5,9
			c0,0-0.3,5.6-6.6,2.5c0,0,0.9,25.4-15.4,29.3c-2.7,0.7-8.2,1.2-13.7-6.9C1011.7,356.4,1009.3,351.4,1009.1,345z"/>
	</g>
	<g>
		<g>
			<g>
				<path class="st5" d="M1200.6,681.8v35.5c0,0.4,0.2,0.8,0.4,1c0.3,0.3,0.7,0.4,1,0.4c0,0,0.6,0,1.8-0.1
					c3.6-0.1,12.1-0.4,22.8-0.4c13.4,0,30.4,0.4,45.2,2c7.4,0.8,14.4,1.9,20.1,3.4c5.7,1.5,10.2,3.4,12.7,5.6
					c0.3,0.3,0.7,0.4,1.1,0.3c0.4-0.1,0.8-0.3,1-0.6c0.1-0.2,0.9-1.4,0.9-3.5c0-1.9-0.7-4.5-3-7.3c-2.3-2.8-6.1-5.9-12.4-9.1
					l-0.6,1.3h1.4v-54.1c0-0.8-0.6-1.4-1.4-1.4c-0.8,0-1.4,0.6-1.4,1.4l0,54.1c0,0.5,0.3,1,0.8,1.3c6.1,3.1,9.6,6,11.5,8.4
					c1.9,2.4,2.3,4.2,2.3,5.5c0,0.7-0.1,1.2-0.3,1.6c-0.1,0.2-0.1,0.3-0.2,0.4l0,0.1l0,0l0.7,0.5l-0.7-0.5l0,0l0.7,0.5l-0.7-0.5
					l1.2,0.8l0.9-1.1c-3.1-2.7-7.9-4.6-13.9-6.2c-8.9-2.3-20.3-3.7-32.1-4.5c-11.8-0.8-23.8-1-34-1c-14.3,0-24.7,0.5-24.8,0.5
					l0.1,1.4h1.4v-35.5c0-0.8-0.6-1.4-1.4-1.4C1201.3,680.4,1200.6,681,1200.6,681.8L1200.6,681.8z"/>
			</g>
			<path class="st5" d="M934.1,916.8l8.8-37.6c1.2,0.2,2.2,0.5,3.1,0.7l-9,38.6c-0.1,0.6-0.7,1.1-1.3,1.2c0,0-7.9,1.2-15.5,5.3
				c-4.3,2.3-8.5,5.4-11.2,9.7h108.9l7.1-34.2l3,0.6l-7.3,35.5c-0.2,0.7-0.8,1.3-1.6,1.3H906.3c-0.5,0-1-0.3-1.3-0.7
				c-0.3-0.4-0.3-1-0.1-1.5c2.8-6.2,8.2-10.5,13.8-13.5C925.1,918.8,931.6,917.3,934.1,916.8z"/>
		</g>
		<path class="st9" d="M1290.2,655V463.2c0-21.4-10.8-41.4-28.8-53.2c-17.9-11.7-40.6-13.6-60.2-5c-39.7,17.4-86.1,39.1-86.1,39.1
			c-0.8,0.3-1.7,0-2.1-0.8c-0.3-0.8,0-1.7,0.8-2.1c0,0,46.4-21.7,86.1-39.1c20.6-9,44.4-7,63.2,5.3c18.8,12.3,30.2,33.3,30.2,55.8
			v192.9c0,0.3,0,1.2,0,1.2s-0.8,0.2-1.2,0.3l-89.8,25.6c-0.5,0.1-2,0.5-2,0.5s0-1.5,0-2l-6.4-159.8l-78.3,41.7l-87.3,336
			c-0.1,0.4-0.4,1.3-0.4,1.3s-1.1-0.1-1.5-0.2l-81.9-21.4l-1.6-0.3c-2.3-2.1,33.7-191.3,46.2-289.9
			c13.6-106.7,56.8-112.6,57.3-112.1c0.9-0.1,1.6,0.6,1.7,1.4c0.1,0.9-0.6,1.6-1.4,1.7c0,0-12.8,5.1-23.2,18.1
			c-10.9,13.6-23.3,39.8-30,90.5c-13.1,99.7-34.9,200-46.8,288l79,20.7l87.1-335.2c0.1-0.4,0.4-0.8,0.8-1l81.1-43.2
			c0.5-0.3,1.1-0.2,1.5,0c0.5,0.3,0.8,0.8,0.8,1.3l6.4,160.3L1290.2,655z"/>
		<g>
			<path class="st10" d="M1024.9,609.9c3-3.5,3.9-8.6,2.2-14.6c-2-7.4-7.9-16.4-16.7-24.1c-4-3.5-8.2-6.3-12.2-8.5l-1.3,7.7
				c2.9,1.7,5.8,3.9,8.7,6.4c7.5,6.6,12.7,14.1,14.4,20.5c0.9,3.2,1,6-0.7,7.8c-1.6,1.8-4.4,2.1-7.7,1.7c-5.7-0.8-12.6-4-19.3-9.2
				l-1.4,8.1c6.9,4.7,13.9,7.6,19.7,8.3C1016.9,614.9,1021.9,613.3,1024.9,609.9z"/>
			<path class="st10" d="M1038.2,628.5c-4-2.3-9.2-2.1-14.8,0.7c-6.9,3.5-14.5,11-20.3,21.2c-5.8,10.1-8.4,20.6-7.9,28.2
				c0.4,6.2,2.9,10.8,6.9,13.1c4,2.3,9.2,2.1,14.8-0.7c6.9-3.5,14.5-11,20.3-21.2c5.8-10.1,8.4-20.6,7.9-28.2
				C1044.7,635.4,1042.2,630.8,1038.2,628.5z M1030.7,666.2c-5,8.7-11.3,15.3-17.2,18.2c-3,1.5-5.7,2.1-7.8,0.9
				c-2.1-1.2-3-3.9-3.2-7.2c-0.4-6.6,2-15.4,7-24.1s11.3-15.3,17.2-18.2c3-1.5,5.7-2.1,7.8-0.9c2.1,1.2,3,3.9,3.2,7.2
				C1038.1,648.7,1035.7,657.5,1030.7,666.2z"/>
			<path class="st10" d="M1272.7,475.6c-3.4-3.1-8.6-3.9-14.6-2.4c-7.4,1.9-16.4,7.7-24.1,16.3l-0.2,0.2c-7.8,8.7-12.5,18.4-13.6,26
				c-0.9,6.2,0.6,11.2,4,14.3c3.4,3.1,8.6,3.9,14.6,2.4c7.5-2,16.5-7.8,24.3-16.5s12.5-18.4,13.6-26
				C1277.6,483.7,1276.2,478.7,1272.7,475.6z M1269.4,488.8c-0.9,6.5-5.2,14.7-11.8,22.1c-6.6,7.5-14.3,12.6-20.6,14.3
				c-3.2,0.8-6,0.9-7.8-0.7c-1.8-1.6-2.1-4.4-1.6-7.7c0.9-6.5,5.2-14.7,11.8-22.1c6.6-7.5,14.3-12.6,20.6-14.3
				c3.2-0.8,6-0.9,7.8,0.7C1269.6,482.8,1269.9,485.6,1269.4,488.8z"/>
			<path class="st10" d="M1225.8,452.5c7.5,1.9,18.2,1.2,29.2-2.6c11-3.8,19.9-10,24.5-16.1c1.1-1.5,2-2.9,2.6-4.4
				c-4.3-6.9-10.6-14.4-19.8-20.2c-6.1,0-13.1,1.1-20.3,3.6c-11,3.8-19.9,10-24.5,16.1c-3.8,5-4.9,10.1-3.4,14.4
				C1215.7,447.6,1219.8,450.9,1225.8,452.5z M1223.5,433.3c4-5.3,11.6-10.3,21.1-13.6c9.4-3.3,18.6-4.1,25-2.4
				c3.2,0.8,5.7,2.1,6.5,4.4c0.8,2.3-0.3,4.9-2.3,7.5c-4,5.3-11.6,10.3-21.1,13.6c-9.4,3.3-18.6,4.1-25,2.4
				c-3.2-0.8-5.7-2.1-6.5-4.4C1220.4,438.5,1221.5,436,1223.5,433.3z"/>
			<path class="st10" d="M1016,519.5c8.5,8,18,13,25.6,14.3c6.1,1,11.2-0.3,14.4-3.6c3.1-3.4,4.2-8.5,2.7-14.6
				c-1.8-7.5-7.3-16.7-15.9-24.7c-2.7-2.5-5.5-4.8-8.4-6.7c-1.9,1.3-3.9,2.9-6,4.9c3.1,1.9,6.3,4.4,9.3,7.2
				c7.3,6.8,12.2,14.6,13.7,21c0.8,3.2,0.7,6-0.9,7.8c-1.7,1.8-4.5,2-7.7,1.4c-6.5-1.1-14.5-5.5-21.8-12.4c-2.3-2.2-4.4-4.5-6.3-6.8
				c-1.2,2.2-2.4,4.6-3.6,7.2C1012.7,516.2,1014.3,517.9,1016,519.5z"/>
			<path class="st10" d="M1188.4,437.1c5.7-2.5,9.2-6.4,10-10.9c0.8-4.5-1.2-9.4-5.7-13.7c-1.2-1.1-2.6-2.3-4.2-3.3l-8.1,3.7
				c2.9,1.5,5.3,3.1,7.2,4.9c2.4,2.3,3.9,4.6,3.5,7c-0.4,2.4-2.7,4.1-5.7,5.4c-6,2.7-15.2,3.4-25,1.7c-4.9-0.8-9.4-2.2-13.2-3.9
				l-8.5,3.9c5.5,3.2,12.5,5.9,20.5,7.2C1170.6,441.3,1181.3,440.2,1188.4,437.1z"/>
			<path class="st10" d="M1039.5,551.1c-6.2,0.9-10.7,3.7-12.7,7.9c-2,4.2-1.3,9.4,2,14.8c4.1,6.6,12.4,13.7,23.1,18.8
				c10.7,5.1,21.5,6.9,29.2,5.9c6.2-0.9,10.7-3.7,12.7-7.9c2-4.2,1.3-9.4-2-14.8c-4.1-6.6-12.4-13.7-23.1-18.8l-0.3-0.1
				C1057.8,551.8,1047.2,550,1039.5,551.1z M1065.6,563.6c9.2,4.3,16.4,10.3,19.9,16c1.8,2.9,2.6,5.5,1.6,7.7c-1,2.2-3.7,3.2-7,3.7
				c-6.6,0.9-15.8-0.9-25-5.2l-0.2-0.1c-9.1-4.3-16.3-10.2-19.7-15.9c-1.8-2.9-2.6-5.5-1.6-7.7c1-2.2,3.7-3.2,7-3.7
				C1047.2,557.4,1056.3,559.3,1065.6,563.6z"/>
			<path class="st10" d="M1264.9,553.6c-2.6,11.4-2,22.1,0.7,29.3c2.2,5.8,6,9.5,10.4,10.5s9.4-0.7,13.9-5c0.4-0.4,0.8-0.8,1.2-1.2
				l-0.1-12.9c-1.8,3.6-4,6.6-6.2,8.8c-2.4,2.3-4.8,3.7-7.2,3.2c-2.4-0.5-4-2.9-5.2-5.9c-2.4-6.2-2.6-15.3-0.4-25.1
				c2.2-9.8,6.3-17.9,11.1-22.5c2.4-2.3,4.8-3.7,7.2-3.2c0.2,0,0.3,0.1,0.5,0.1l0-7.5c-4.2-0.5-8.6,1.3-12.8,5.2
				C1272.5,532.7,1267.5,542.2,1264.9,553.6z"/>
			<path class="st10" d="M1101.1,460.3c-4.6-0.6-9.3,1.6-13.4,6.4c-5,5.9-9.2,15.8-10.6,27.4c-1.4,11.6,0.1,22.2,3.6,29.1
				c2.8,5.6,6.9,8.9,11.4,9.4c4.6,0.6,9.3-1.6,13.4-6.4c5-5.9,9.2-15.8,10.6-27.4c1.4-11.6-0.1-22.2-3.6-29.1
				C1109.8,464.2,1105.7,460.9,1101.1,460.3z M1108.9,497.7l0,0.2c-1.2,9.9-4.6,18.5-8.9,23.5c-2.2,2.5-4.4,4.2-6.9,3.9
				c-2.4-0.3-4.2-2.5-5.7-5.4c-2.9-5.9-4.1-15-2.9-24.9c1.2-9.9,4.6-18.5,8.9-23.5c2.2-2.5,4.4-4.2,6.9-3.9c2.4,0.3,4.2,2.5,5.7,5.4
				C1108.9,478.9,1110,487.9,1108.9,497.7z"/>
			<path class="st10" d="M1213.2,652.6c-3.6,0.6-7.6,1.9-11.7,4l0.4,8.2c4.4-2.6,8.7-4.3,12.5-4.9c3.3-0.5,6.1-0.3,7.7,1.5
				c1.7,1.8,1.6,4.6,0.8,7.8c-0.7,3-2.3,6.3-4.4,9.7l9.9-2.9c0.7-1.7,1.3-3.4,1.7-4.9c1.5-6,0.6-11.2-2.5-14.6
				C1224.4,653.1,1219.3,651.7,1213.2,652.6z"/>
			<path class="st10" d="M1159.7,512.2c-5.1-3.5-10.3-4.4-14.6-2.7c-4.3,1.7-7.3,6-8.6,12.1c-1.5,7.2-0.4,17.3,3.5,27.6l6.6-3.5
				c-3.1-8.5-4-16.7-2.8-22.6c0.7-3.2,1.9-5.8,4.1-6.7s4.9,0.1,7.6,2c4.5,3.1,9,8.7,12.6,15.8l6.5-3.5
				C1170.4,522.3,1165,515.8,1159.7,512.2z"/>
			<path class="st10" d="M1204.8,499.7c2.9-3.6,3.5-8.8,1.7-14.7c-2.3-7.4-8.6-16.1-17.7-23.4c-9.1-7.3-18.9-11.6-26.6-12.3
				c-6.2-0.6-11.2,1.1-14,4.7c-2.9,3.6-3.5,8.8-1.6,14.7c2.3,7.3,8.5,16,17.4,23.3l0.2,0.2c9.1,7.3,18.9,11.6,26.6,12.3
				C1196.9,505,1201.9,503.3,1204.8,499.7z M1199,495.1c-1.5,1.9-4.3,2.3-7.6,2c-6.6-0.6-14.9-4.4-22.7-10.7l-0.2-0.1
				c-7.7-6.2-13.1-13.5-15.1-19.8c-1-3.2-1.2-6,0.4-7.9c1.5-1.9,4.3-2.3,7.6-2c6.6,0.6,14.9,4.4,22.7,10.7
				c7.8,6.3,13.3,13.6,15.2,19.9C1200.4,490.4,1200.6,493.2,1199,495.1z"/>
			<path class="st10" d="M1214.4,563.1c-5.6-2.8-10.8-2.9-14.8-0.6c-0.8,0.5-1.5,1-2.2,1.6l1.6,36.2c0.6,1.2,1.2,2.3,1.9,3.5
				c5.9,10.1,13.6,17.6,20.5,21c5.6,2.8,10.8,2.9,14.8,0.6c4-2.3,6.4-6.9,6.8-13.2c0.5-7.7-2.2-18.1-8.1-28.2
				C1229,574,1221.3,566.5,1214.4,563.1z M1235.6,611.8c-0.2,3.3-1,6-3.1,7.2c-2.1,1.2-4.9,0.6-7.8-0.8c-5.9-2.9-12.3-9.5-17.4-18.1
				c-5-8.6-7.5-17.5-7.1-24c0.2-3.3,1-6,3.1-7.2c2.1-1.2,4.9-0.6,7.8,0.9c5.9,2.9,12.2,9.4,17.2,17.9l0.1,0.2
				C1233.5,596.4,1236,605.3,1235.6,611.8z"/>
			<path class="st10" d="M1291.5,641.2c-7.3,6.6-15.2,10.8-21.7,11.8c-3.3,0.5-6.1,0.3-7.7-1.5c-1.7-1.8-1.6-4.6-0.8-7.8
				c1.6-6.4,6.6-14.1,14-20.8c5.3-4.8,10.9-8.4,16-10.4l0-7.8c-6.6,2.1-14.1,6.5-21,12.8c-8.6,7.9-14.3,17-16.2,24.5
				c-1.5,6-0.6,11.2,2.5,14.6c3.1,3.4,8.2,4.8,14.3,3.8c6.1-0.9,13.5-4.2,20.6-9.6L1291.5,641.2z"/>
			<path class="st10" d="M1074.4,613.8c-4.5,1.1-8.1,5.1-10.1,11.3c-2.4,7.6-2.5,18.8,0.6,30.7c3.1,11.9,8.5,21.7,14.3,27.2
				c1.3,1.3,2.7,2.3,4,3.1l2-7.6c-0.3-0.3-0.6-0.5-0.9-0.8c-5-4.8-9.6-13.4-12.2-23.7c-2.6-10.3-2.8-20.1-0.7-26.7
				c1-3.3,2.5-5.8,4.9-6.4s4.8,0.9,7.3,3.2c4.2,4,8.1,10.7,10.8,18.9l3.1-11.8c-2.6-5.2-5.7-9.4-8.8-12.4
				C1083.9,614.4,1078.9,612.7,1074.4,613.8z"/>
			<path class="st10" d="M1015.8,805.6L1015.8,805.6c2.6-3.9,2.8-9.1,0.5-14.8c-2.9-7.2-9.7-15.4-19.3-22.1
				c-9.6-6.6-19.8-10.2-27.5-10.3c-1.4,0-2.6,0.1-3.9,0.2l-1.3,7.9c1.4-0.6,3.1-0.7,5-0.7c6.6,0.1,15.2,3.3,23.4,9
				c8.2,5.7,14.2,12.6,16.7,18.7c1.2,3.1,1.6,5.9,0.2,7.9c-1.4,2-4.1,2.6-7.4,2.6c-6.6-0.1-15.2-3.3-23.4-9
				c-7.8-5.4-13.6-11.9-16.3-17.8l-1.8,11c3.5,4.5,8.2,9,13.9,12.9c9.6,6.6,19.8,10.2,27.5,10.3
				C1008.4,811.4,1013.2,809.4,1015.8,805.6z"/>
			<path class="st10" d="M995.1,735.2c6-1.6,10.1-5,11.5-9.3c1.5-4.4,0.2-9.5-3.6-14.4c-4.7-6.1-13.7-12.1-24.7-15.8
				c-0.7-0.2-1.4-0.4-2.1-0.7l-1.2,7.4c0.3,0.1,0.7,0.2,1,0.3c9.5,3.1,17.2,8.1,21.3,13.3c2,2.6,3.2,5.2,2.4,7.5
				c-0.8,2.3-3.2,3.7-6.4,4.5c-5.8,1.6-13.8,1.2-22.3-1.2l-1.2,7.3C979.4,736.8,988.6,737,995.1,735.2z"/>
			<path class="st10" d="M980,827.9c-7.2-0.8-17,1.2-26.8,6l-1.5,9.2c1-0.6,2.1-1.2,3.2-1.8c8.8-4.6,17.8-6.8,24.3-6.1
				c3.3,0.3,5.9,1.3,7.1,3.4c1.1,2.2,0.4,4.9-1.2,7.8c-3.2,5.8-10,11.9-18.8,16.6c-6.6,3.5-13.2,5.5-18.9,6.1l-1.2,7.5
				c6.9-0.3,15.3-2.7,23.6-7c10.4-5.4,18.2-12.8,21.9-19.5c3-5.5,3.4-10.7,1.3-14.8C990.7,831.1,986.2,828.5,980,827.9z"/>
			<path class="st10" d="M1031.6,828.7c-4.6,0-9,2.8-12.5,8c-4.3,6.4-7.1,16.8-7.1,28.5c0,11.7,2.9,22,7.1,28.5
				c0.4,0.6,0.8,1.1,1.2,1.6l8.4,1.9l0.9-3.5c-1.6-0.7-3-2.3-4.3-4.2c-3.6-5.5-5.9-14.4-5.9-24.4c0-10,2.3-18.9,5.9-24.4
				c1.8-2.8,3.9-4.7,6.3-4.7c2.4,0,4.5,1.9,6.3,4.7c1.3,2,2.5,4.5,3.4,7.3l2.9-11.2c-0.1-0.1-0.1-0.2-0.2-0.2
				C1040.7,831.5,1036.2,828.7,1031.6,828.7z"/>
			<path class="st10" d="M1050.3,714.3c-4.6-0.6-9.3,1.7-13.4,6.4c-5,5.9-9.1,15.8-10.6,27.4c-1.4,11.6,0.2,22.2,3.6,29.1
				c2.8,5.5,6.8,8.8,11.3,9.4l0.1,0c4.6,0.6,9.3-1.7,13.4-6.4c5-5.9,9.1-15.8,10.6-27.4s-0.2-22.2-3.6-29.1
				C1058.9,718.1,1054.9,714.8,1050.3,714.3z M1058,751.9c-1.2,9.9-4.5,18.5-8.8,23.5c-2.2,2.5-4.4,4.2-6.9,3.9l-0.1,0
				c-2.4-0.3-4.2-2.5-5.7-5.4c-3-5.9-4.1-15-2.9-24.9c1.2-9.9,4.5-18.5,8.8-23.5c2.2-2.5,4.4-4.2,6.9-3.9c2.4,0.3,4.2,2.4,5.7,5.4
				C1058.1,732.9,1059.3,742,1058,751.9z"/>
		</g>
	</g>
	<g>
		<path class="st0" d="M917.7,427.2l53.9,2.8l2.6,11.1c0,0,75.7-7,113-90.9l15.9,3.4l-23.3-25l29.5-46.5c0,0,106.3,78.7,108.4,123.5
			c0,0,0,0.5,0.1,1.4c0.3,13-6,25.4-16.7,32.8c-10.7,7.4-24.5,8.9-36.6,4c-19.4-7.9-45.7-18.7-45.7-18.7s4.9,11,3.9,16.3l-78.8,42.1
			c0,0-16.8-2.7-27-18c0,0,13.1,53.2-20.7,92.6c-9.7,11.3-25.3,15.6-39.4,10.9c-11.4-3.9-22.8-14.5-27.8-40
			C929.1,528.8,915.6,471.7,917.7,427.2z"/>
		<path class="st11" d="M985.2,519.1c0-0.3-0.1-1.1-0.2-1.9c-1.2-10.9-10.7-76.1-10.7-76.1l3.7-0.5c0,0,9.5,65.3,10.7,76.2
			c0.1,1.2,0.2,2,0.2,2.4c0,0.3,0,0.6-0.1,0.7c-0.2,0.8-0.8,1.1-1.1,1.2c-0.4,0.2-0.9,0.2-1.4,0
			C985.5,520.7,985.1,519.9,985.2,519.1z M986.5,517.6c0.4-0.1,0.8-0.1,1.2,0.1C987.3,517.5,986.9,517.5,986.5,517.6z"/>
		<path class="st11" d="M1103.3,353.4l-6.2-1.1l68.5,71.1c0.7,0.7,1.9,0.8,2.6,0.1c0.7-0.7,0.8-1.9,0-2.6L1103.3,353.4z"/>
		<path class="st11" d="M1118.3,424.7c-3.9-9.7-9.3-18.6-9.3-18.6c-0.5-0.9-0.2-2,0.6-2.5c0.9-0.5,2-0.2,2.5,0.6
			c0,0,6.7,11.1,10.8,22.3L1118.3,424.7z"/>
	</g>
</g>
<g id="PLANTS-LEFT" serif:id="PLANTS LEFT">
	<path class="st5" d="M715.3,810.7c0,0,11.7-27.2,33.3-32c0,0,2.5,16.5-3.9,40c0,0,16.3-10.9,25.3-8c0,0-0.3,15.8-11.3,29.9
		c0,0-10.7-25.7-42.4-12.9C716.4,827.7,716,812.6,715.3,810.7z"/>
	<path class="st5" d="M500.6,882.5c0,0-24.2-15.2-32.2-58.6c0,0,4-0.8,12.5,3.2c0,0-11.2-20.6-6.1-42.4c0,0,18.3,5.2,34,27.5
		C508.8,812.1,493.7,849.1,500.6,882.5z"/>
	<path class="st12" d="M500.6,882.5h269.4c0,0-4.1-77.5-53.7-54.8c-0.5-24.9-5.6-53.9-21-76.2c-6.5-9.4-15.4-17.1-26-23.3
		c-25.3-14.9-65.9-15.3-103.3,7.4C532.7,755.9,493.3,812.4,500.6,882.5z"/>
	<path class="st13" d="M812.8,918.1l-49.7,0.1c0,0,3-18.6,19.7-19.9C789.1,897.7,804.1,903.1,812.8,918.1z"/>
	<g>
		<path class="st14" d="M595.1,778.7c0,0,16.8,42.3,30.2,116.2"/>
		<path class="st5" d="M604.5,806.6c0,0-4.8-16.8,5.8-22C610.2,784.6,616.5,794.7,604.5,806.6z"/>
		<g transform="matrix(1.11564,0,0,1.50942,-77.8546,-769.725)">
			<path class="st5" d="M610.6,1044.3c0,0-12.2-1.6-15.8-9.7C594.9,1033.6,608.9,1035.5,610.6,1044.3z"/>
		</g>
		<g transform="matrix(1.11564,0,0,1.50942,-57.1119,-704.422)">
			<path class="st5" d="M601.8,1023.9c0,0-12.2-1.6-15.8-9.7C586.1,1013.2,600.1,1015.1,601.8,1023.9z"/>
		</g>
		<g transform="matrix(-0.835971,0.738789,0.999555,1.13104,-236.412,-636.323)">
			<path class="st5" d="M305.3,1106.8c0,0-12.2-1.6-15.8-9.7C289.7,1096,303.6,1098,305.3,1106.8z"/>
		</g>
		<g transform="matrix(0.945857,-0.324583,0.324583,0.945857,-447.935,276.854)">
			<path class="st15" d="M824,792.8v8.7c0,0.4,0.3,0.6,0.6,0.6s0.6-0.3,0.6-0.6v-8.6c1.4,0.1,2.9,0.3,4.4,0.7v7.9
				c0,0.4,0.3,0.6,0.6,0.6c0.4,0,0.6-0.3,0.6-0.6v-7.5c1.2,0.4,2.4,0.9,3.6,1.5c0.3,1.4,0.5,2.8,0.5,4.3c0,8.4-5.1,15.2-11.4,15.2
				c-6.3,0-11.4-6.8-11.4-15.2c0-1.2,0.1-2.4,0.3-3.5c1.2-0.7,2.4-1.3,3.8-1.9v7.1c0,0.4,0.3,0.6,0.6,0.6s0.6-0.3,0.6-0.6v-7.6
				c0.8-0.3,1.7-0.5,2.6-0.7v5.5c0,0.4,0.3,0.6,0.6,0.6s0.6-0.3,0.6-0.6V793C822.2,792.9,823.1,792.8,824,792.8z"/>
		</g>
	</g>
	<g>
		<g>
			<path class="st5" d="M510.6,772c0,0,34,46.8,60.5,116.6c0.3,0.8,1.2,1.2,2,0.9c0.8-0.3,1.2-1.2,0.9-2
				c-26.7-70.2-60.9-117.3-60.9-117.3c-0.5-0.7-1.5-0.9-2.2-0.3C510.3,770.3,510.1,771.3,510.6,772z"/>
			<path class="st5" d="M542.9,820.8c0-1-0.8-2.5-1-3.5c-0.5-2.4-0.9-4.9-0.8-7.3c0.1-3.8,1.3-7.3,3.3-10.5c0.1-0.2,1.7-2.9,2.2-2.6
				c1.3,0.7,1.5,4.9,1.7,6.1c0.7,6.1-0.5,12.8-4.8,17.3"/>
			<path class="st5" d="M541.9,819.8c-0.2,0.2-1.1,0.1-1.4,0.1c-1.3,0-2.7-0.2-4-0.4c-4.2-0.7-8.4-1.7-11.9-4.2
				c-0.7-0.5-1.4-1.1-2.1-1.7c-0.4-0.4-2.3-2-2.2-2.7c0.1-0.5,1.5-0.5,1.8-0.5c1.9-0.1,3.9,0.3,5.7,0.7c1.8,0.4,3.5,1.1,5.1,1.8
				c2.6,1.1,5.1,2.7,7.1,4.7"/>
			<path class="st5" d="M557.7,852.9c-0.1,0.2-1.4,0-1.5,0c-1.7-0.1-3.3-0.5-4.9-0.9c-4.3-1.1-8.9-2.8-12.1-5.9
				c-1.2-1.2-2.3-2.6-3.2-4.1c-0.1-0.2-0.7-1.1-0.6-1.3c0.4-0.5,2.6,0.2,3,0.3c0.6,0.2,1.3,0.3,1.9,0.5c1.2,0.4,2.3,0.8,3.5,1.2
				c1.9,0.8,3.8,1.7,5.6,2.8c2.6,1.5,5.2,3.2,7.2,5.4"/>
			<path class="st5" d="M557.4,850c0.1-0.8-0.3-1.9-0.3-2.7c0-2.2,0.2-4.4,0.6-6.5c0.4-1.9,0.9-3.7,1.6-5.4c0.8-1.9,1.8-3.7,3-5.3
				c0.1-0.2,1-1.5,1.3-1.3c0.6,0.3,0.8,2,0.9,2.5c0.1,0.6,0.2,1.2,0.3,1.8c0.1,1.1,0.1,2.2,0.1,3.2c-0.2,4.5-1.4,9.2-3.8,13.1
				c-0.6,1.1-1.7,3-3,3.5"/>
		</g>
		<path class="st15" d="M505.7,749.5c1.5-0.3,3-0.4,4.7-0.3c0.8,0.8,1.5,1.6,2.1,2.6c5.3,7.4,5.1,16.7-0.4,20.6
			c-5.5,4-14.4,1.2-19.7-6.2c-0.8-1.2-1.5-2.4-2.1-3.6c0.7-1.3,1.4-2.7,2.4-4.1l3.4,4.7c0.4,0.5,1.1,0.6,1.6,0.3
			c0.5-0.4,0.6-1.1,0.3-1.6l-3.8-5.3c0.7-0.8,1.5-1.6,2.3-2.4l5.1,7.1c0.4,0.5,1.1,0.6,1.6,0.3c0.5-0.4,0.6-1.1,0.3-1.6l-5.2-7.2
			c1.5-1.1,3.2-2,5.1-2.6l3.8,5.3c0.4,0.5,1.1,0.6,1.6,0.3c0.5-0.4,0.6-1.1,0.3-1.6L505.7,749.5z"/>
	</g>
	<g transform="matrix(-1,0,0,1,1457.03,-36.4245)">
		<g>
			<path class="st5" d="M720,789.2c0,0,9.5,13.7,22.4,36.4c0.3,0.5,0.9,1.9,0.9,1.9l1.2-4.8l-0.7-1.3l-21.3-34.1
				c-0.5-0.7-1.5-0.9-2.2-0.3C719.7,787.5,719.5,788.5,720,789.2z"/>
			<g transform="matrix(0.878131,0,0,0.918501,31.9742,65.9527)">
				<path class="st5" d="M797.3,805.6c0-1-0.8-2.5-1-3.5c-0.5-2.4-0.9-4.9-0.8-7.3c0.1-3.8,1.3-7.3,3.3-10.5
					c0.1-0.2,1.7-2.9,2.2-2.6c1.3,0.7,1.5,4.9,1.7,6.1c0.7,6.1-0.5,12.8-4.8,17.3"/>
			</g>
			<g transform="matrix(1,0,0,1,-34.0734,-59.252)">
				<path class="st5" d="M767.4,865c-0.2,0.2-1.1,0.1-1.4,0.1c-1.3,0-2.7-0.2-4-0.4c-4.2-0.7-8.4-1.7-11.9-4.2
					c-0.7-0.5-1.4-1.1-2.1-1.7c-0.4-0.4-2.3-2-2.2-2.7c0.1-0.5,1.5-0.5,1.8-0.5c1.9-0.1,3.9,0.3,5.7,0.7c1.8,0.4,3.5,1.1,5.1,1.8
					c2.6,1.1,5.1,2.7,7.1,4.7"/>
			</g>
			<g transform="matrix(0.860924,0,0,0.870304,35.7153,116.51)">
				<path class="st5" d="M820,809.4c-0.1,0.2-1.4,0-1.5,0c-1.7-0.1-3.3-0.5-4.9-0.9c-4.3-1.1-8.9-2.8-12.1-5.9
					c-1.2-1.2-2.3-2.6-3.2-4.1c-0.1-0.2-0.7-1.1-0.6-1.3c0.4-0.5,2.6,0.2,3,0.3c0.6,0.2,1.3,0.3,1.9,0.5c1.2,0.4,2.3,0.8,3.5,1.2
					c1.9,0.8,3.8,1.7,5.6,2.8c2.6,1.5,5.2,3.2,7.2,5.4"/>
			</g>
			<g transform="matrix(1.07121,0,0,0.842477,-96.9069,153.588)">
				<path class="st5" d="M779.7,784.3c0.1-0.8-0.3-1.9-0.3-2.7c0-2.2,0.2-4.4,0.6-6.5c0.4-1.9,0.9-3.7,1.6-5.4
					c0.8-1.9,1.8-3.7,3-5.3c0.1-0.2,1-1.5,1.3-1.3c0.6,0.3,0.8,2,0.9,2.5c0.1,0.6,0.2,1.2,0.3,1.8c0.1,1.1,0.1,2.2,0.1,3.2
					c-0.2,4.5-1.4,9.2-3.8,13.1c-0.6,1.1-1.7,3-3,3.5"/>
			</g>
		</g>
		<path class="st15" d="M715.1,766.8c1.5-0.3,3-0.4,4.7-0.3c0.8,0.8,1.5,1.6,2.1,2.6c5.3,7.4,5.1,16.7-0.4,20.6
			c-5.5,4-14.4,1.2-19.7-6.2c-0.8-1.2-1.5-2.4-2.1-3.6c0.7-1.3,1.4-2.7,2.4-4.1l3.4,4.7c0.4,0.5,1.1,0.6,1.6,0.3
			c0.5-0.4,0.6-1.1,0.3-1.6l-3.8-5.3c0.7-0.8,1.5-1.6,2.3-2.4l5.1,7.1c0.4,0.5,1.1,0.6,1.6,0.3c0.5-0.4,0.6-1.1,0.3-1.6l-5.2-7.2
			c1.5-1.1,3.2-2,5.1-2.6l3.8,5.3c0.4,0.5,1.1,0.6,1.6,0.3c0.5-0.4,0.6-1.1,0.3-1.6L715.1,766.8z"/>
	</g>
</g>
<g id="PLANTS-RIGHT" serif:id="PLANTS RIGHT">
	<path class="st5" d="M1162.1,825.8c0,0-14.2-24.6-12.7-41.3c0,0,9,2.5,15.8,12.3c0,0-8-33.4-3-47.1c0,0,14.6,6.7,21.7,22.7
		c0,0-9.7,28.9-10.6,56.9L1162.1,825.8z"/>
	<g transform="matrix(-1,0,0,1,2674.11,3.00053)">
		<path class="st12" d="M1283.9,885l274,1.6c0,0-7.4-83-56.9-60.2c-0.5-24.9-5.6-53.9-21-76.2c-6.5-9.4-14.8-17.7-25.4-23.9
			c-25.3-14.9-66.5-14.7-103.9,8C1317.4,754.4,1276.6,814.9,1283.9,885z"/>
	</g>
	<g transform="matrix(1,0,0,1,-8.03969,14.1388)">
		<path class="st5" d="M1354.3,881.5c0,0,27.1-46.3,60.3-44c0,0,0.1,10.9-11.1,25.5c0,0,7.9-5.5,21.7-4.9c0,0-1.5,10.1-15.1,24.8
			L1354.3,881.5z"/>
	</g>
	<g transform="matrix(-0.976721,-0.214515,-0.214515,0.976721,2999.64,210.33)">
		<g transform="matrix(0.878131,0,0,0.918501,43.3575,78.6647)">
			<path class="st5" d="M1614.6,949.7c0-1-0.8-2.5-1-3.5c-0.5-2.4-0.9-4.9-0.8-7.3c0.1-3.8,1.3-7.3,3.3-10.5
				c0.1-0.2,1.7-2.9,2.2-2.6c1.3,0.7,1.5,4.9,1.7,6.1c0.7,6.1-0.5,12.8-4.8,17.3"/>
		</g>
		<g transform="matrix(-0.976721,-0.214515,-0.214515,0.976721,2974.93,438.033)">
			<path class="st14" d="M1393.4,802.7c0,0-48.8,34-68.1,94.3"/>
		</g>
		<path class="st15" d="M1438.1,905.2c1.5-0.3,3-0.4,4.7-0.3c0.8,0.8,1.5,1.6,2.1,2.6c5.3,7.4,5.1,16.7-0.4,20.6
			c-5.5,4-14.4,1.2-19.7-6.2c-0.8-1.2-1.5-2.4-2.1-3.6c0.7-1.3,1.4-2.7,2.4-4.1l3.4,4.7c0.4,0.5,1.1,0.6,1.6,0.3
			c0.5-0.4,0.6-1.1,0.3-1.6l-3.8-5.3c0.7-0.8,1.5-1.6,2.3-2.4l5.1,7.1c0.4,0.5,1.1,0.6,1.6,0.3c0.5-0.4,0.6-1.1,0.3-1.6l-5.2-7.2
			c1.5-1.1,3.2-2,5.1-2.6l3.8,5.3c0.4,0.5,1.1,0.6,1.6,0.3c0.5-0.4,0.6-1.1,0.3-1.6L1438.1,905.2z"/>
		<g transform="matrix(1,0,0,1,-27.9675,-48.814)">
			<path class="st5" d="M1487.5,998.5c-0.2,0.2-1.1,0.1-1.4,0.1c-1.3,0-2.7-0.2-4-0.4c-4.2-0.7-8.4-1.7-11.9-4.2
				c-0.7-0.5-1.4-1.1-2.1-1.7c-0.4-0.4-2.3-2-2.2-2.7c0.1-0.5,1.5-0.5,1.8-0.5c1.9-0.1,3.9,0.3,5.7,0.7c1.8,0.4,3.5,1.1,5.1,1.8
				c2.6,1.1,5.1,2.7,7.1,4.7"/>
		</g>
		<g transform="matrix(0.860924,0,0,0.870304,55.9304,156.411)">
			<path class="st5" d="M1648.8,946.8c-0.1,0.2-1.4,0-1.5,0c-1.7-0.1-3.3-0.5-4.9-0.9c-4.3-1.1-8.9-2.8-12.1-5.9
				c-1.2-1.2-2.3-2.6-3.2-4.1c-0.1-0.2-0.7-1.1-0.6-1.3c0.4-0.5,2.6,0.2,3,0.3c0.6,0.2,1.3,0.3,1.9,0.5c1.2,0.4,2.3,0.8,3.5,1.2
				c1.9,0.8,3.8,1.7,5.6,2.8c2.6,1.5,5.2,3.2,7.2,5.4"/>
		</g>
		<g transform="matrix(1.07121,0,0,0.842477,-72.1323,195.392)">
			<path class="st5" d="M1443.7,925.1c0.1-0.8-0.3-1.9-0.3-2.7c0-2.2,0.2-4.4,0.6-6.5c0.4-1.9,0.9-3.7,1.6-5.4
				c0.8-1.9,1.8-3.7,3-5.3c0.1-0.2,1-1.5,1.3-1.3c0.6,0.3,0.8,2,0.9,2.5c0.1,0.6,0.2,1.2,0.3,1.8c0.1,1.1,0.1,2.2,0.1,3.2
				c-0.2,4.5-1.4,9.2-3.8,13.1c-0.6,1.1-1.7,3-3,3.5"/>
		</g>
	</g>
	<g transform="matrix(1,0,0,1,1092.25,-13.2349)">
		<g transform="matrix(0.973557,-0.228446,0.228446,0.973557,-422.922,225.393)">
			<path class="st5" d="M313,691.5c0,0-4.8-16.8,5.8-22C318.8,669.5,325.1,679.6,313,691.5z"/>
		</g>
		<g transform="matrix(1.03923,-0.40577,0.548992,1.40604,-950.773,-302.977)">
			<path class="st5" d="M458.4,937.2c0,0-12.2-1.6-15.8-9.7C442.7,926.5,456.7,928.4,458.4,937.2z"/>
		</g>
		<g transform="matrix(1.11564,0,0,1.50942,-133.231,-672.822)">
			<path class="st5" d="M171.3,1018.1c0,0-12.2-1.6-15.8-9.7C155.6,1007.4,169.6,1009.3,171.3,1018.1z"/>
		</g>
		<g transform="matrix(-0.835971,0.738789,0.999555,1.13104,-307.908,-601.206)">
			<path class="st5" d="M623.2,890c0,0-12.2-1.6-15.8-9.7C607.6,879.2,621.6,881.2,623.2,890z"/>
		</g>
		<g transform="matrix(1,0,0,1,-1092.25,13.2349)">
			<path class="st14" d="M1110.5,789.4c0,0,43.6,38.2,54.6,107.7"/>
		</g>
		<g transform="matrix(0.692901,-0.721033,0.721033,0.692901,-983.407,962.032)">
			<path class="st15" d="M808.3,595v8.7c0,0.4,0.3,0.6,0.6,0.6c0.4,0,0.6-0.3,0.6-0.6v-8.6c1.4,0.1,2.9,0.3,4.4,0.7v7.9
				c0,0.4,0.3,0.6,0.6,0.6s0.6-0.3,0.6-0.6v-7.5c1.2,0.4,2.4,0.9,3.6,1.5c0.3,1.4,0.5,2.8,0.5,4.3c0,8.4-5.1,15.2-11.4,15.2
				c-6.3,0-11.4-6.8-11.4-15.2c0-1.2,0.1-2.4,0.3-3.5c1.2-0.7,2.4-1.3,3.8-1.9v7.1c0,0.4,0.3,0.6,0.6,0.6c0.4,0,0.6-0.3,0.6-0.6
				v-7.6c0.8-0.3,1.7-0.5,2.6-0.7v5.5c0,0.4,0.3,0.6,0.6,0.6c0.4,0,0.6-0.3,0.6-0.6v-5.7C806.5,595.1,807.4,595,808.3,595z"/>
		</g>
	</g>
</g>
<g id="PRINKLES">
	<path class="st16" d="M721.3,251.1l7.4-8.3l12.4,18.4l-7.7,6.2L721.3,251.1z M740.7,225.4l12.4,16.9l7.5-5.5l-12.1-19.7
		L740.7,225.4z"/>
	<path class="st16" d="M1136.6,203.6l20.7-17.5l4.8,9.7l-20.7,15L1136.6,203.6z M1112.7,190.3l11.6-22.1l8.2,7.3l-11.9,17.3
		L1112.7,190.3z"/>
</g>
<g>
	<path class="st6" d="M883.9,194.2c-3.1,1.2-1.4-2.7-13.9-14.2c-1.1-1-7.9-7.1-9.4-6.5c-1.1,0.4,1.1,5.2,1.4,6.1
		c4.9,12.7,8.5,16.6,9.4,18.9c0.2,0.6-0.7,0.7-1.1,0.9l-4.2,1.6c-1.1,0.4-2.2,1.8-8.6-15.1c-8.5-22.3-5.9-22.4-5.1-22.7l3.6-1.4
		c1.7-0.7,6.5,1.6,21,14c0.2,0.2,0.7,0.7,1.1,0.5c0.5-0.2-0.4-2.1-0.6-2.7c-3.2-8.4-8.4-15.1-8.8-16.1c-0.2-0.6,0.8-0.9,1.7-1.2
		l3.4-1.3c1-0.4,2.8-2,11.4,20.3c6.5,16.9,4.8,16.6,3.7,17L883.9,194.2z"/>
	<path class="st6" d="M907.1,187.7c-9.4,2.5-14.9-3.3-17.1-11.4c-3.2-12,0-27.2,8.7-29.5c8.7-2.3,19,9.3,22.2,21.3
		c2.2,8.1,0.3,15.8-9.2,18.4L907.1,187.7z M913.1,169.1c-2.8-10.3-9.2-15.5-12.4-14.7c-3.1,0.8-6.2,8.6-3.4,18.9
		c1.5,5.5,5,6.8,9.9,5.5S914.6,174.6,913.1,169.1z"/>
	<path class="st6" d="M937.5,180.3c-0.9,0.1-2.7,2.4-4.9-11.5c-1.7-10.6-0.7-17.8-1-19.5c-0.2-1.4-0.1-2.3-1.3-2.1
		c-3.4,0.5-8.5,7-9.3,7.1c-0.4,0.1-0.6,0.3-0.9-1c-0.2-1.5,0.1-7.6,0.6-9.1c0.3-1,6.5-3.7,12.9-4.8c7.7-1.2,14.8-0.3,15.2,2
		c0.3,2.1-1.3,7-1.8,7.1c-0.8,0.1-3.4-3.5-6.8-3c-2.9,0.5-1.9,9.7-1.2,14.1c2,12.3,5.6,17.9,5.7,18.7c0.2,1.1-1.6,1.1-2.2,1.2
		L937.5,180.3z"/>
	<path class="st6" d="M959,180.6c-1.2-0.1-2.7,0.7-1.5-17.4c1.7-23.8,4.1-22.8,4.9-22.7l5.2,0.4c0.6,0,1.8,0,1.8,0.9
		c0,0.5-3.1,8.4-3.8,17.7c-0.9,12.3,1,20.5,1,21.1c0,0.5-0.3,0.5-0.8,0.5l-1-0.1L959,180.6z"/>
	<path class="st6" d="M972.4,162.3c1.4-10.4,8.8-20.9,20.5-19.3c4.2,0.6,10.3,3.2,9.6,8.4c-0.4,2.8-2.5,4.1-5.5,3.7
		c-2-0.3,1.3-4.4-4.8-5.2c-7-1-10.9,5.8-11.8,11.8c-1.3,9.1,4.5,13.7,8.6,14.3c7.8,1.1,9.4-5.8,9.9-5.8c0.7,0.1,0.5,4,0.5,4.5
		c-1,7.1-7,10.5-13.7,9.5C974.8,182.5,971.1,172,972.4,162.3z"/>
	<path class="st6" d="M1003.1,186.1c-2.5-0.5-1.4-2,0.7-11.6c1.5-6.3,9.3-27.4,10.6-27.1l18.5,4.4c0.6,0.1,2.3,0.4,2.1,1.3
		c-0.1,0.4-4.7,6.2-5.3,6.1c-0.8-0.2-1.7-2.7-6.3-3.8c-3.2-0.8-7.1,0.3-8.2,4.8c-0.2,1-0.5,2.7,0.9,3c1.5,0.4,5.4-1.1,9.3-0.1
		c0.6,0.1,2.1,0.7,1.9,1.5c0,0-4.5,7.1-5,6.9c-0.5-0.1-2-1.5-3.9-1.9c-2.4-0.6-6.3,0.3-7.4,5c-0.9,3.8,0.4,7,4.4,7.9
		c4.7,1.1,8.3-1.3,9.4-1c0.7,0.2,2,8.9,1.8,9.3c-0.2,0.9-1.3,0.4-1.9,0.3L1003.1,186.1z"/>
</g>
</svg>
