<?xml version="1.0" encoding="utf-8"?>
<!-- Generator: Adobe Illustrator 21.0.2, SVG Export Plug-In . SVG Version: 6.00 Build 0)  -->
<svg version="1.1" id="Layer_1" xmlns:serif="http://www.serif.com/"
	 xmlns="http://www.w3.org/2000/svg" xmlns:xlink="http://www.w3.org/1999/xlink" x="0px" y="0px" viewBox="0 0 1920 1080"
	 style="enable-background:new 0 0 1920 1080;" xml:space="preserve">
<style type="text/css">
	.st0{fill:#A8C1F2;}
	.st1{fill:#69BAC9;}
	.st2{fill:#FFD274;}
	.st3{fill:#FFFFFF;}
	.st4{fill:#EF7B58;}
	.st5{fill:#6D92DD;}
	.st6{fill:#426FC0;}
	.st7{fill:none;}
	.st8{fill:#FC5344;}
	.st9{opacity:0.21;}
	.st10{opacity:0.95;}
</style>
<path class="st0" d="M606.1,894.8l307.8-1.5c0,0-3.4-19.3-35.6-16.2c-10.4,1-16.2-7.7-26.6-20.2c-9.5-11.3-36.1-42.4-80.4-14.6
	c-7.7,4.8-25.8,10.1-39.6,0.9c-9.9-6.6-42.9-38.2-68,0.8c-5,7.7-12.9,21.3-27.4,25.6C623.5,873.4,603.3,876.5,606.1,894.8z"/>
<path class="st0" d="M1168.6,884.5l249.2-0.3c0,0-13.1-34.2-44.8-26.5c-10.3,2.5-20.2,9.5-34.9-14.9c-5-8.2-36.2-32-64.9-13.3
	c-14.6,9.5-30.4,36.3-53.8,30.3C1197,854,1171.6,866,1168.6,884.5z"/>
<g>
	<path class="st1" d="M908,194.8l4.7-5.3l10,10.4l-3.3,4.5L908,194.8z"/>
	<path class="st1" d="M921.8,182.1l7.8,11.1l4.9-2.3l-6.8-14.7L921.8,182.1z"/>
	<path class="st1" d="M936.3,173.3l5,14.2l5.5,0.6l-2.3-17.3L936.3,173.3z"/>
	<path class="st1" d="M1062.4,197.3l4.3,3.6l11.4-12.3l-5.2-5.1L1062.4,197.3z"/>
	<path class="st1" d="M1072.8,206.2l2.8,5.5l16.4-6.9l-4.2-8.9L1072.8,206.2z"/>
	<path class="st1" d="M1078,222.4l-0.4-5.2l16.3-1.1l-0.8,8L1078,222.4L1078,222.4z"/>
</g>
<g id="CHARACTER-2" serif:id="CHARACTER 2">
	<g>
		<g transform="matrix(0.898638,0,0,1,156.892,-1.42681)">
			<path class="st1" d="M952,938.1l4.7-46.9l4.7,0.3l-6,48.4c-0.1,0.8-0.8,1.4-1.8,1.4h-99.3c-0.5,0-0.9-0.2-1.3-0.5
				c-0.3-0.3-0.5-0.7-0.5-1.2c0,0,0.2-4.9,4.3-9.1c2.5-2.6,6.4-4.9,12.5-5.7l-0.5-34c0,0,2.3-1.4,3.3-1.4s1.7,0.7,1.7,1.6l-1,35.2
				c0,0.8-0.7,1.5-1.6,1.5c-5.9,0.5-9.5,2.5-11.7,4.8c-1.9,2-2.8,4.1-3.1,5.5H952V938.1z"/>
		</g>
		<g transform="matrix(-0.898638,0,0,1,3080.14,-7.81381)">
			<path class="st1" d="M2104.3,927.8c-6.2,0.8-10.1,3.1-12.5,5.7c-4.1,4.2-4.3,9.1-4.3,9.1c0,0.4,0.2,0.8,0.5,1.2
				c0.3,0.3,0.8,0.5,1.3,0.5h99.3c0.9,0,1.7-0.6,1.8-1.4l8.5-45.1h-3.4l-8.4,43.4h-95.7c0.4-1.4,1.2-3.6,3.1-5.5
				c2.2-2.3,5.9-4.3,11.7-4.8c0.9-0.1,1.6-0.7,1.6-1.5l1-35.2c0-0.9-0.7-1.6-1.7-1.6s-1.8,0.7-1.8,1.5L2104.3,927.8z"/>
		</g>
	</g>
	<g transform="matrix(1,0,0,1,33.4727,-36.2017)">
		<path class="st2" d="M969.7,465.4c0.6-15.6,6-23.4,12.3-27.2c9.9-6,22.2-2,22.2-2c0.8,0.3,1.3,1.2,1,2s-1.2,1.3-2,1
			c0,0-10.8-3.6-19.5,1.7c-5.9,3.6-10.7,11.2-10.8,26.5c0,0.5-0.3,1-0.7,1.3s-0.9,0.4-1.4,0.2c-7.2-2.4-16.6-0.1-25.3,5.7
			c-20.8,13.9-37.5,47.7-12.7,87.9c0.5,0.7,0.2,1.7-0.5,2.2s-1.7,0.2-2.2-0.5c-26.1-42.1-8.2-77.6,13.6-92.2
			C952.5,466.1,962,463.7,969.7,465.4z"/>
	</g>
	<g>
		<g transform="matrix(-0.730426,0.379838,-0.379838,-0.730426,3086.25,1830.66)">
			<g transform="matrix(1,0,0,1,-5.53877,-6.5581)">
				<path class="st3" d="M1250,2281.9c0-6.9,5.6-12.5,12.5-12.5s12.5,5.6,12.5,12.5c0,2.6,2.1,4.7,4.7,4.7s4.7-2.1,4.7-4.7
					c0-12.1-9.8-21.9-21.9-21.9s-21.9,9.8-21.9,21.9c0,2.6,2.1,4.7,4.7,4.7S1250,2284.5,1250,2281.9z"/>
			</g>
			<g transform="matrix(1,0,0,1,-5.53877,-6.5581)">
				<path class="st3" d="M1275,2281.9c0,6.9-5.6,12.5-12.5,12.5s-12.5-5.6-12.5-12.5c0-2.6-2.1-4.7-4.7-4.7s-4.7,2.1-4.7,4.7
					c0,12.1,9.8,21.9,21.9,21.9s21.9-9.8,21.9-21.9c0-2.6-2.1-4.7-4.7-4.7C1277.1,2277.2,1275,2279.3,1275,2281.9z"/>
			</g>
			<path class="st3" d="M1274.5,2284.4l25.5,5.6c2.5,0.5,5-1.1,5.6-3.6s-1.1-5-3.6-5.6l-25.5-5.6c-2.5-0.6-5,1-5.6,3.6
				C1270.4,2281.4,1272,2283.9,1274.5,2284.4z"/>
			<path class="st3" d="M1290,2292.9l4-17.4c0.6-2.5-1-5-3.5-5.6s-5,1-5.6,3.5l-4,17.4c-0.6,2.5,1,5,3.5,5.6
				S1289.4,2295.4,1290,2292.9z"/>
		</g>
	</g>
	<g transform="matrix(-1,0,0,1,2817.09,7.22012)">
		<g transform="matrix(0.592595,0.805501,-0.897838,0.660526,1573.55,-373.849)">
			<path class="st4" d="M856.7,535.1c0.3,0.6,0.7,1.3,1.8,1.3c0.9,0,1.7-0.7,1.7-1.5s0.7-1.4,1.6-1.4c0.9,0,1.6,0.6,1.6,1.4
				c0,2.4-2.2,4.4-4.9,4.4c-2.6,0-3.9-1.5-4.6-2.9c-0.4-0.7,0-1.6,0.8-1.9C855.4,534.1,856.3,534.4,856.7,535.1z"/>
		</g>
		<g transform="matrix(0.592595,0.805501,-0.897838,0.660526,1573.55,-373.849)">
			<path class="st4" d="M859.9,527.2c0-0.9-0.5-1.8-1.5-1.9c-0.7,0-1.1,0-1.2,0.3c-0.2,0.8-1.1,1.2-2,1c-0.8-0.2-1.3-1-1.1-1.8
				c0.4-1.2,1.6-2.6,4.5-2.4c2.6,0.2,4.4,2.3,4.4,4.7c0,0.8-0.7,1.4-1.6,1.4S859.9,528,859.9,527.2z"/>
		</g>
		<g transform="matrix(0.592595,0.805501,-0.897838,0.660526,1587.89,-367.547)">
			<path class="st4" d="M850.6,538.9c0.3,0.5,0.8,0.8,1.5,0.8c0.9,0,1.7-0.7,1.7-1.5v-8c0-0.8-0.8-1.5-1.7-1.5s-1.7,0.7-1.7,1.5v3.6
				c0,0.8-0.7,1.4-1.6,1.4s-1.6-0.6-1.6-1.4v-3.6c0-2.4,2.2-4.4,4.9-4.4s4.9,2,4.9,4.4v8c0,2.4-2.2,4.4-4.9,4.4
				c-1.8,0-3.4-0.9-4.2-2.2c-0.4-0.7-0.2-1.5,0.6-1.9C849.2,538,850.1,538.2,850.6,538.9z"/>
		</g>
		<g transform="matrix(0.592595,0.805501,-0.897838,0.660526,1602.23,-361.244)">
			<path class="st4" d="M845.6,532c-0.9,0-1.7,0.7-1.7,1.5v8c0,0.8,0.8,1.5,1.7,1.5s1.6,0.6,1.6,1.4c0,0.8-0.7,1.4-1.6,1.4
				c-2.7,0-4.9-2-4.9-4.4v-8c0-2.4,2.2-4.4,4.9-4.4c0.9,0,1.6,0.6,1.6,1.4C847.2,531.3,846.5,532,845.6,532z"/>
		</g>
		<g transform="matrix(0.592595,0.805501,-0.897838,0.660526,1602.23,-361.244)">
			<path class="st4" d="M845.6,543c0.9,0,1.7-0.7,1.7-1.5v-8c0-0.8-0.8-1.5-1.7-1.5s-1.6-0.6-1.6-1.4c0-0.8,0.7-1.4,1.6-1.4
				c2.7,0,4.9,2,4.9,4.4v8c0,2.4-2.2,4.4-4.9,4.4c-0.9,0-1.6-0.6-1.6-1.4C844.1,543.7,844.8,543,845.6,543z"/>
		</g>
		<g transform="matrix(0.511994,0.695942,-0.874546,0.64339,1661.24,-230.7)">
			<path class="st4" d="M825.6,515.5L825.6,515.5v8.6c0,0.6-0.7,1.2-1.5,1.2c-1,0-1.8,0.7-1.8,1.5s0.8,1.5,1.8,1.5
				c2.8,0,5.1-1.8,5.1-4.1v-8.6c0-1.1-0.3-1.7-0.8-2.1c-0.6-0.6-1.7-0.9-3.7-0.8c-1,0.1-1.7,0.8-1.6,1.6c0.1,0.8,1,1.4,2,1.3
				C825.3,515.6,825.5,515.6,825.6,515.5z"/>
		</g>
		<g transform="matrix(0.511994,0.695942,-0.874546,0.64339,1661.24,-230.7)">
			<path class="st4" d="M822.4,518.9c0-0.5,0.3-1.4,0.8-2.1c0.4-0.6,1-1.2,1.9-1.2c1-0.1,1.7-0.8,1.6-1.6c-0.1-0.8-1-1.4-2-1.3
				c-1.7,0.1-3.1,0.9-4.1,1.9c-1.3,1.4-2,3.2-2,4.3c0,0,0,0,0,0.1l0.3,5.3c0,2.2,2.3,4,5.1,4c1,0,1.8-0.7,1.8-1.5s-0.8-1.5-1.8-1.5
				c-0.8,0-1.5-0.5-1.5-1.2c0,0,0,0,0-0.1L822.4,518.9z"/>
		</g>
		<path class="st4" d="M1622.3,652.4c1.2-1.4,1.9-3.1,1.9-5c0-1.5-0.7-2.9-1.8-3.8c-1.1-0.9-2.7-1.3-4.1-0.9
			c-1.2,0.3-2.3,1.2-3.1,2.9c-0.7,1.5-0.6,3.2,0.3,4.9c0.4,0.7,0.9,1.4,1.7,2.1c-0.3,0.2-0.6,0.3-0.9,0.5c-4.4,2.2-9.8,2.9-9.8,2.9
			c-0.9,0.1-1.5,0.9-1.4,1.8c0.1,0.9,0.9,1.5,1.8,1.4c0,0,6-0.8,10.8-3.2c0.8-0.4,1.5-0.8,2.2-1.3c0.9,0.6,2,1.1,3.1,1.6
			c0.8,0.3,1.7,0,2.1-0.8c0.3-0.8,0-1.7-0.8-2.1C1623.5,653,1622.9,652.7,1622.3,652.4z M1619.7,650.7c-0.4-0.3-0.7-0.7-1-1
			c-0.7-0.9-1.1-1.9-0.7-2.7c0.3-0.7,0.7-1.1,1.1-1.2c0.4-0.1,0.9,0.1,1.2,0.3c0.4,0.3,0.7,0.8,0.7,1.3
			C1621.1,648.7,1620.5,649.8,1619.7,650.7z"/>
		<g transform="matrix(3.82179,0,0,3.42253,-2735.04,-3101.42)">
			<path class="st4" d="M1156,1051.7l-12.8,50.8c-0.1,0.2-0.3,0.4-0.5,0.3s-0.3-0.3-0.3-0.6l12.8-50.9L1156,1051.7z"/>
		</g>
		<path class="st4" d="M1609.1,668.4c-0.1,1.9-0.5,2.7-1.2,3.1c-0.3,0.2-0.7,0.2-1.1,0c-3-1.4-5.2-3.3-6.9-5.1
			c-2.6-2.8-3.6-6.8-2.7-10.5c8.2-32.3,43.5-169,43.5-169l-3.1-0.8c0,0-35.3,136.7-43.5,169c-1.2,4.8,0.1,9.8,3.4,13.4
			c1.9,2,4.5,4.1,7.9,5.8c1.2,0.6,2.6,0.6,3.8,0c1.3-0.6,2.8-2.1,2.9-5.9v-0.1c0,0-0.2-4.6-5.2-12.9c-0.4-0.7-1.4-1-2.2-0.5
			c-0.7,0.5-1,1.4-0.5,2.2C1608.6,663.9,1609,667.9,1609.1,668.4z"/>
	</g>
	<g>
		<path class="st5" d="M1086.5,374.6l-40.4-33.8l-39.2,45.7l36.8,26.2c0,0-9.2,24.8,13.8,51.1l47.8,29c0,0,19.3-6.3,21.1-12.2
			l3.7,25.8l49.3-13c0,0-9.2-33.9-15.1-55.8c-3.2-11.7-10.1-22.1-19.7-29.5c-9.4-7.3-19.8-15.3-19.8-15.3s-18.1,18.3-33.6,8.5
			C1086.9,398.4,1076,386.7,1086.5,374.6z"/>
		<g>
			<g transform="matrix(1.34488,0,0,1.34488,-677.674,-286.877)">
				<path class="st6" d="M1296.3,516.7c6,0,10.8,4.9,10.8,10.8s-4.9,10.8-10.8,10.8c-1.5,0-2.7,1.2-2.7,2.7s1.2,2.7,2.7,2.7
					c9,0,16.3-7.3,16.3-16.3s-7.3-16.3-16.3-16.3c-1.5,0-2.7,1.2-2.7,2.7C1293.6,515.5,1294.8,516.7,1296.3,516.7z"/>
			</g>
			<g transform="matrix(1.34488,0,0,1.34488,-677.674,-286.877)">
				<path class="st6" d="M1296.3,538.4c-6,0-10.8-4.9-10.8-10.8s4.9-10.8,10.8-10.8c1.5,0,2.7-1.2,2.7-2.7s-1.2-2.7-2.7-2.7
					c-9,0-16.3,7.3-16.3,16.3s7.3,16.3,16.3,16.3c1.5,0,2.7-1.2,2.7-2.7C1299.1,539.6,1297.9,538.4,1296.3,538.4z"/>
			</g>
			<path class="st6" d="M1078,472c0.9-11.2,10.4-20.1,21.9-20.1c12.1,0,21.9,9.8,21.9,21.9c0,5.7-2.2,10.9-5.7,14.8
				c-2.1,1.1-4.3,2-6.6,2.6c0,0-2.4-1.4-5.8-3.4c6.2-1.7,10.8-7.3,10.8-14.1c0-8-6.5-14.6-14.6-14.6c-8,0-14.6,6.5-14.6,14.6
				c0,1.2,0.1,2.3,0.4,3.4C1081.9,474.9,1078.9,472.9,1078,472z M1165.6,442.2l2,7.5c-0.5-0.1-0.6-0.5-1.1-0.5
				c-8,0-14.6,6.5-14.6,14.6c0,8,6.5,14.6,14.6,14.6c3.4,0,5.4-0.9,7.9-2.9l2.3,7.5c-3.3,2-6.1,2.7-10.2,2.7
				c-12.1,0-21.9-9.8-21.9-21.9C1144.5,451.8,1153.8,442.5,1165.6,442.2z M1125.8,393.3c2.7,1.9,5.5,4.1,8.5,6.5
				c-0.6-0.1-1.3-0.1-1.9-0.1c-8,0-14.6,6.5-14.6,14.6c0,8,6.5,14.6,14.6,14.6c8,0,14.6-6.5,14.6-14.6c0-1.4-0.2-2.7-0.6-4
				c2.6,2.3,5.1,4.7,7.7,7c-1.5,10.7-10.7,18.9-21.7,18.9c-12.1,0-21.9-9.8-21.9-21.9c0-5.5,2.1-10.6,5.5-14.5c3.3-2,6-4.2,7.6-5.6
				C1124.2,393.8,1125,393.5,1125.8,393.3z M1026.8,363.7c3.2,3.8,5.1,8.7,5.1,14c0,7.9-5.3,14.4-11.6,18.3l-6.5-4.6
				c5.7-2,10.7-7.3,10.7-13.6c0-3.1-1-6-2.7-8.4L1026.8,363.7z M1053,346.5l5.8,4.8c-3.7,2.6-6,6.9-6,11.8c0,8,6.5,14.6,14.6,14.6
				c5.8,0,10.8-3.4,13.1-8.2l5.8,4.8l0,0c-0.4,0.6-0.8,1.2-1.2,1.8c-4,5.4-10.4,9-17.7,9c-12.1,0-21.9-9.8-21.9-21.9
				C1045.4,356.5,1048.4,350.6,1053,346.5z"/>
		</g>
		<path class="st6" d="M1043.8,412.5c1.7-3.9,3.7-7.7,6.6-12.1c0.4-0.6,0.3-1.3-0.1-1.9c-0.4-0.5-1.2-0.7-1.8-0.5
			c-6.2,2.6-16,6.7-16,6.7L1043.8,412.5z"/>
	</g>
	<g>
		<g transform="matrix(1,0,0,1,-2.35474,-9.49676)">
			<path class="st6" d="M1055.9,468.4l50.5,28.9c0,0,27.9,7.7,52.8,121c13,59.2,25.1,147.2,31.9,278l-84.7,3.4l-48-264l-35.3,264
				l-83.2-0.8C939.9,898.9,890.3,455.6,1055.9,468.4z"/>
		</g>
		<path d="M1039.4,574.8c-0.1-0.9,0.5-1.8,1.4-2s1.8,0.4,2.1,1.3c5.9,23.4,13.1,52.1,13.1,52.1l-5.5,33.7
			C1050.5,659.9,1043.9,609,1039.4,574.8z"/>
	</g>
	<g>
		<path class="st4" d="M1093.2,330.9c0,0-5,14.7-7.5,21.8c-1.4,4-0.4,8.4,2.6,11.4c0.4,0.4,0.8,0.7,1.2,1c4.6,3.5,12.3,4.7,18.8,3.4
			c0.7-0.1,1.1-0.8,0.9-1.4c-0.1-0.7-0.8-1.1-1.4-0.9c-5.8,1.2-12.7,0.2-16.8-2.9c-0.3-0.2-0.6-0.5-0.9-0.8c-2.3-2.3-3.1-5.8-2-8.9
			c2.4-7.1,7.4-21.8,7.4-21.8c0.2-0.6-0.1-1.3-0.8-1.5C1094.1,329.9,1093.4,330.2,1093.2,330.9z"/>
		<path class="st4" d="M1091.5,365.1l-4,10.4c-0.2,0.6,0.1,1.3,0.7,1.6c0.6,0.2,1.3-0.1,1.6-0.7l4-10.4c0.2-0.6-0.1-1.3-0.7-1.6
			C1092.4,364.1,1091.7,364.4,1091.5,365.1z"/>
		<path class="st4" d="M1122.9,356.2l-7.7,29.5c-0.2,0.6,0.2,1.3,0.9,1.5c0.6,0.2,1.3-0.2,1.5-0.9l7.7-29.5c0.2-0.6-0.2-1.3-0.9-1.5
			C1123.8,355.2,1123.1,355.6,1122.9,356.2z"/>
		<path class="st4" d="M1122.4,357.4c0,0,2.6,0.1,5-0.6c1.6-0.5,3.2-1.4,4-2.9c0.5-1,0.8-2.3,0.4-3.9c-0.3-1.4-1.9-3.8-4.6-4.2
			c-1.6-0.2-3.7,0.3-6.1,2.5c-0.5,0.5-0.5,1.2-0.1,1.7c0.5,0.5,1.2,0.5,1.7,0.1c1.6-1.5,3-2.1,4.1-1.9c1.5,0.2,2.4,1.5,2.5,2.3
			c0.2,0.9,0.1,1.7-0.2,2.3c-0.5,0.9-1.5,1.4-2.5,1.7c-2,0.6-4.2,0.5-4.2,0.5c-0.7,0-1.2,0.5-1.3,1.1
			C1121.2,356.8,1121.7,357.4,1122.4,357.4z"/>
		<path class="st4" d="M1115.5,387l7.6,7.4c0.8-0.7,1.4-1.3,1.9-1.7l-7.7-7.5c-0.5-0.5-1.1-0.5-1.6,0
			C1115.2,385.7,1115,386.6,1115.5,387z"/>
	</g>
	<path class="st7" d="M1116.4,386.1l8.8,8.4"/>
	<g>
		<path class="st2" d="M1110.9,336.2c-9.8,2.6-17.5-4.2-17.5-4.2c-0.5-0.4-0.5-1.2-0.1-1.7s1.2-0.5,1.7-0.1c0,0,7.5,6.6,16.7,3.2
			c0.4-0.1,0.8-0.1,1.2,0.2c0.3,0.3,0.5,0.7,0.5,1.1c0,0-0.6,2.1,0.2,4.4c2.4,6.8,9.7,7.8,9.7,7.8c-1.4,0.8-2.3,1.6-2.5,2.3
			c0,0-3.1,0-5.7-2.2c-2.4-2-3.5-4.9-3.9-7.5C1111,338.2,1110.9,337,1110.9,336.2z"/>
		<path class="st2" d="M1092.8,330.4c2.7-6,9.5-9.1,15.8-7.2c7.9,2.3,17.7,7.4,21.5,18.2c4.3,0.3,19.2,2,27.3,13.5
			c3.9,5.5,6.2,13.2,5.1,24.1c7.9,0.1,38.6,2.6,51.5,31.7c2.9,6.5,8,26.3-6.4,49.1c5.6,3.4,25,16.7,27.8,39.1
			c1.4,11.2-1.4,24.7-12.2,40.4c-5.7,8.3-14.8,13.9-25.5,16.8c-0.8,0.2-1.7-0.3-1.9-1.1c-0.2-0.8,0.3-1.7,1.1-1.9
			c9.9-2.7,18.4-7.8,23.7-15.5c10.3-14.9,13-27.6,11.7-38.2c-3-24.7-27.6-37.5-27.6-37.5c-0.4-0.2-0.7-0.6-0.8-1
			c-0.1-0.4,0-0.9,0.2-1.3c14.6-22,9.8-41.2,7.1-47.4c-14.1-31.6-50.4-29.8-50.4-29.8c-0.5,0-0.9-0.2-1.2-0.5
			c-0.3-0.3-0.5-0.8-0.4-1.3c1.5-10.8-0.6-18.4-4.3-23.7c-8.6-12.3-25.9-12.2-25.9-12.2c-0.7,0-1.3-0.5-1.5-1.1
			c-3.1-10.3-12.4-15-19.7-17.1c-4.8-1.4-10,0.9-12.1,5.5L1092.8,330.4z M1092.8,330.4L1092.8,330.4L1092.8,330.4z"/>
		<path class="st2" d="M1147.3,552l-7.2-4.1l1.5,4l6.5,3.4L1147.3,552z"/>
	</g>
	<g>
		<path class="st8" d="M1047.5,458.6l1.6-6.7l67,36.7l-6.6,2.6L1047.5,458.6z"/>
		<g transform="matrix(1.08882,0.0374514,-0.0413493,1.20215,-105.01,-271.032)">
			<path class="st8" d="M1114.4,578.5c2.5,3.8,1.3,9.1-2.6,11.7c-4,2.6-9.2,1.6-11.7-2.2s-1.3-9.1,2.6-11.7
				C1106.6,573.6,1111.8,574.6,1114.4,578.5z"/>
		</g>
	</g>
	<g>
		<path class="st4" d="M1014.5,377.9c0,0-16.1-17.2-27.7-29.6c-6.6-7.1-10-16.7-9.1-26.4c2.9-33,9.3-106.1,9.3-106.1
			c0.1-0.8-0.5-1.5-1.3-1.5c-0.8-0.1-1.5,0.5-1.5,1.3c0,0-6.4,73-9.3,106.1c-0.9,10.5,2.7,20.9,9.9,28.6
			c11.6,12.4,27.7,29.6,27.7,29.6L1014.5,377.9z"/>
		<g>
			<polygon class="st2" points="1052.5,238.6 1053.4,234.8 949.6,209.6 947.8,217 1051.6,242.3 1053.4,234.8 1052.5,238.6 
				1053.4,234.8 949.6,209.6 947.8,217 1051.6,242.3 1053.4,234.8 			"/>
		</g>
		<polygon class="st3" points="985.4,218.1 985,225.9 987,229.3 989.5,229.3 991.7,227.7 993.6,229.5 996.5,229.7 998.5,227.3 
			1000.9,230 1004.3,229.5 1006.4,225.2 1009.1,234 1020.6,236.4 1021.5,227 1018.6,223.8 1014.9,222.8 1013.4,222.7 1013.7,218.6 
					"/>
		<g transform="matrix(1.04192,0.0541314,-0.0653092,1.25708,-50.8609,-226.7)">
			<path class="st4" d="M1017.2,304.5c-2.4,0-4.6,1.9-4.6,4.3l0,7.1c0,2.4,2.1,4.3,4.6,4.3c0.8,0,1.4-0.5,1.4-1.1s-0.6-1.1-1.4-1.1
				c-1.1,0-1.8-1-1.8-2.1l0-7.1c0-1.1,0.7-2.1,1.8-2.1c0.8,0,1.4-0.5,1.4-1.1C1018.6,305,1018,304.5,1017.2,304.5z"/>
		</g>
		<g transform="matrix(1.04192,0.0541314,-0.0653092,1.25708,-50.8609,-226.7)">
			<path class="st4" d="M1017.2,320.4c2.4,0,4.6-1.9,4.6-4.3l0-7.1c0-2.4-2.1-4.3-4.6-4.3c-0.8,0-1.4,0.5-1.4,1.1s0.6,1.1,1.4,1.1
				c1.1,0,1.8,1,1.8,2.1l0,7.1c0,1.1-0.7,2.1-1.8,2.1c-0.8,0-1.4,0.5-1.4,1.1C1015.8,319.9,1016.4,320.4,1017.2,320.4z"/>
		</g>
		<g transform="matrix(1.0708,0.0556318,-0.0659527,1.26946,-80.5861,-234.779)">
			<path class="st4" d="M1024.3,306.2c-2.4,0-4.5,1.9-4.5,4.3v7.1c0,2.4,2.1,4.3,4.5,4.3c0.7,0,1.3-0.5,1.3-1.1s-0.6-1.1-1.3-1.1
				c-1.1,0-1.9-1-1.9-2.1v-7.1c0-1.1,0.8-2.1,1.9-2.1c0.7,0,1.3-0.5,1.3-1.1C1025.6,306.7,1025,306.2,1024.3,306.2z"/>
		</g>
		<g transform="matrix(1.0708,0.0556318,-0.0659527,1.26946,-80.5861,-234.779)">
			<path class="st4" d="M1024.3,322c2.4,0,4.5-1.9,4.5-4.3v-7.1c0-2.4-2.1-4.3-4.5-4.3c-0.7,0-1.3,0.5-1.3,1.1s0.6,1.1,1.3,1.1
				c1.1,0,1.9,1,1.9,2.1v7.1c0,1.1-0.8,2.1-1.9,2.1c-0.7,0-1.3,0.5-1.3,1.1C1023,321.5,1023.6,322,1024.3,322z"/>
		</g>
		<g transform="matrix(1.10048,0.0571737,-0.0689371,1.32691,-110.117,-262.68)">
			<path class="st4" d="M1031.2,312.3c-2.4,0-4.5,1.9-4.5,4.3v7.1c0,2.4,2.1,4.3,4.5,4.3c0.7,0,1.3-0.5,1.3-1.1s-0.6-1.1-1.3-1.1
				c-1.1,0-1.9-1-1.9-2.1v-7.1c0-1.1,0.8-2.1,1.9-2.1c0.7,0,1.3-0.5,1.3-1.1C1032.5,312.8,1031.9,312.3,1031.2,312.3z"/>
		</g>
		<g transform="matrix(1.10048,0.0571737,-0.0689371,1.32691,-110.117,-262.68)">
			<path class="st4" d="M1031.2,328c2.4,0,4.5-1.9,4.5-4.3v-7.1c0-2.4-2.1-4.3-4.5-4.3c-0.7,0-1.3,0.5-1.3,1.1s0.6,1.1,1.3,1.1
				c1.1,0,1.9,1,1.9,2.1v7.1c0,1.1-0.8,2.1-1.9,2.1c-0.7,0-1.3,0.5-1.3,1.1C1029.9,327.5,1030.5,328,1031.2,328z"/>
		</g>
		<path class="st4" d="M1006.2,229c-0.6-0.6-1-1.1-1.3-1.5c0-0.1-0.1-0.1-0.1-0.2c-0.6-1.4-0.1-3.1,1.2-3.9c2.9-1.9,6.7-2.1,9.8-1.7
			c4,0.5,7,3.8,6.9,7.8l-1,89.3l24.3,22l-1.9,2.1l-24.8-22.4c-0.3-0.3-0.5-0.7-0.5-1.1c0,0,0.8-70.3,1-90c0-2.5-1.9-4.7-4.4-5
			s-5.6-0.2-8,1.3c-0.1,0.1-0.2,0.2-0.2,0.4c0.7,1.1,2.6,2.5,7.7,4.2c0.7,0.2,1.1,1,0.9,1.7c-0.2,0.7-0.9,1.2-1.6,1l-7.3-1.3
			c-1.2,0.7-4.6,2.9-7.3,5.9c-0.2,0.2-0.3,0.4-0.5,0.6c1.2,1.6,1.9,3.4,2,4.7c0.3,3.5-0.8,5.2-2,5.9c-0.9,0.5-2,0.6-2.9,0.2
			c-1.3-0.5-2.5-1.7-2.7-3.2c-0.4-2.6,0.4-5.2,1.9-7.5c-1.1-0.9-2.5-1.5-4.2-1.6c-0.8-0.1-1.4-0.7-1.3-1.5c0.1-0.8,0.7-1.4,1.5-1.3
			c2.3,0.2,4.2,1,5.7,2.2c0.1-0.1,0.2-0.3,0.4-0.4C1001.3,231.7,1006.2,229,1006.2,229L1006.2,229z M997.6,240.7
			c-0.8,1.5-1.3,3.1-1,4.8c0.1,0.4,0.3,0.7,0.6,0.8c0.2,0.1,0.5,0.2,0.7,0.1c0.2-0.1,0.3-0.4,0.5-0.7c0.2-0.6,0.3-1.4,0.2-2.5
			C998.5,242.5,998.2,241.6,997.6,240.7z"/>
		<g transform="matrix(1.13099,0.0587584,-0.0742677,1.42951,-139.474,-310.457)">
			<path class="st4" d="M1042.3,330.2v-4.3c0-2.4-2.1-4.2-4.5-4.2c-0.7,0-1.3,0.4-1.3,1s0.6,1,1.3,1c1.2,0,2,1,2,2.2v4.3
				c0,0.5,0.6,1,1.3,1S1042.3,330.7,1042.3,330.2z"/>
		</g>
		<g transform="matrix(1.13099,0.0587584,-0.0742677,1.42951,-139.474,-310.457)">
			<path class="st4" d="M1037.9,321.7c-2.4,0-4.5,1.8-4.5,4.2v5.8c0,0.5,0.6,1,1.3,1c0.7,0,1.3-0.4,1.3-1v-5.8c0-1.2,0.8-2.2,2-2.2
				c0.7,0,1.3-0.4,1.3-1S1038.6,321.7,1037.9,321.7z"/>
		</g>
		<polygon class="st2" points="949.7,209.5 942.3,211.6 947.8,217.1 		"/>
	</g>
	<g transform="matrix(1.11526,0,0,1.11526,-195.353,-78.0164)">
		<g transform="matrix(1.27253,0.291558,-0.231543,1.01059,-309.443,-504.217)">
			<path d="M1252.6,511.4c0.6,0,1.1,0.4,1.6,1c0.8,1,1.3,2.7,1.3,4.6c0,1.9-0.5,3.6-1.3,4.6c-0.4,0.6-1,1-1.6,1
				c-0.5,0-0.8,0.5-0.8,1c0,0.6,0.4,1,0.8,1c1,0,2-0.6,2.8-1.6c1-1.4,1.7-3.6,1.7-6.1s-0.7-4.7-1.7-6.1c-0.8-1-1.7-1.6-2.8-1.6
				c-0.5,0-0.8,0.5-0.8,1C1251.8,511,1252.1,511.4,1252.6,511.4z"/>
		</g>
		<g transform="matrix(1.27253,0.291558,-0.231543,1.01059,-309.443,-504.217)">
			<path d="M1252.6,522.5c-0.6,0-1.1-0.4-1.6-1c-0.8-1-1.3-2.7-1.3-4.6c0-1.9,0.5-3.6,1.3-4.6c0.4-0.6,1-1,1.6-1
				c0.5,0,0.8-0.5,0.8-1c0-0.6-0.4-1-0.8-1c-1,0-2,0.6-2.8,1.6c-1,1.4-1.7,3.6-1.7,6.1s0.7,4.7,1.7,6.1c0.8,1,1.8,1.6,2.8,1.6
				c0.5,0,0.8-0.5,0.8-1C1253.4,523,1253.1,522.5,1252.6,522.5z"/>
		</g>
		<g transform="matrix(1.17078,0.268247,-0.231543,1.01059,-161.7,-474.57)">
			<path d="M1224.5,513.3c0.6,0,1.1,0.4,1.5,0.9c0.8,1,1.3,2.7,1.3,4.6c0,1.9-0.5,3.6-1.3,4.6c-0.4,0.6-0.9,0.9-1.5,0.9
				c-0.5,0-0.9,0.5-0.9,1c0,0.6,0.4,1,0.9,1c1.1,0,2.1-0.6,2.9-1.6c1-1.4,1.7-3.5,1.7-6s-0.7-4.7-1.7-6c-0.8-1-1.8-1.6-2.9-1.6
				c-0.5,0-0.9,0.5-0.9,1C1223.6,512.8,1224,513.3,1224.5,513.3z"/>
		</g>
		<g transform="matrix(1.17078,0.268247,-0.231543,1.01059,-161.7,-474.57)">
			<path d="M1224.5,524.4c-0.6,0-1.1-0.4-1.5-0.9c-0.8-1-1.3-2.7-1.3-4.6c0-1.9,0.5-3.6,1.3-4.6c0.4-0.6,0.9-0.9,1.5-0.9
				c0.5,0,0.9-0.5,0.9-1c0-0.6-0.4-1-0.9-1c-1.1,0-2.1,0.6-2.9,1.6c-1,1.4-1.7,3.5-1.7,6s0.7,4.7,1.7,6c0.8,1,1.8,1.6,2.9,1.6
				c0.5,0,0.9-0.5,0.9-1C1225.4,524.9,1225,524.4,1224.5,524.4z"/>
		</g>
		<path d="M1155.7,380.6l3.7,1.4c0.6,0.2,1.2-0.1,1.4-0.6c0.2-0.6-0.1-1.2-0.6-1.4l-3.7-1.4c-0.6-0.2-1.2,0.1-1.4,0.6
			C1154.8,379.8,1155.1,380.4,1155.7,380.6z"/>
	</g>
</g>
<g id="CLOUDS" class="st9">
	<g>
		<path class="st0" d="M749.6,343.8l120.3,0.8c0.9,0,1.6-0.7,1.6-1.6s-0.7-1.6-1.6-1.6l-120.3-0.8c-0.9,0-1.6,0.7-1.6,1.6
			C748.1,343.1,748.8,343.8,749.6,343.8z"/>
		<path class="st0" d="M787.6,323.5c0.7-1.8,2.2-5.4,2.9-6.5c3.3-5.5,7.7-10.5,13.5-13.5c6.9-3.6,15.3-5.3,23-3.6
			c5.4,1.2,11,5.8,13.8,11.1c11.5-3.3,22.7,6.5,27.9,17.3c1.1,2.2,2.7,5.6,3.4,8.9c0.5,2.4,0.5,4.8-0.4,6.8
			c-0.4,0.8-1.3,1.1-2.1,0.8c-0.8-0.4-1.1-1.3-0.8-2.1c0.6-1.4,0.5-3.1,0.2-4.8c-0.6-3-2.1-6.1-3.1-8.1c-4.5-9.3-14-18.1-23.8-15.7
			c0.8,2.6,0.9,5.3,0,7.8c-0.8,2.2-2.4,4.3-5.1,6c-2.1,1.3-4.7,1.4-6.4,0.3c-1.2-0.8-2.1-2.2-2-4.4c0.1-3.1,1.8-5.9,4.1-8
			c1.7-1.5,3.4-2.7,5.1-3.5c-2.4-4.3-7-8.1-11.5-9.1c-6.9-1.6-14.6,0-20.8,3.3c-5.2,2.8-9.2,7.3-12.2,12.3c-0.8,1.3-2.2,5.4-3,7.1
			c-0.5,0.9-1.1,1.4-1.4,1.5c-0.3,0.1-0.7,0.2-1.3,0s-2.7-1.9-2.9-2c-2.2-1.3-4.8-1.9-7.3-1.9c-5.9-0.1-14.1,2.6-19.7,7.3
			c-3.6,3-6.2,6.9-6.4,11.4c0,0.9-0.8,1.6-1.6,1.5c-0.9,0-1.6-0.8-1.5-1.6c0.2-5.4,3.2-10.1,7.5-13.7c6.3-5.2,15.3-8.2,21.8-8.1
			c3.1,0.1,6.2,0.8,8.8,2.4C786.2,322.6,786.9,323.1,787.6,323.5z M839,315.1c-1.4,0.7-2.9,1.7-4.3,2.9c-1.7,1.5-3,3.5-3.1,5.7
			c0,0.8,0.1,1.3,0.6,1.6c0.8,0.5,1.9,0.3,2.9-0.3c2-1.2,3.2-2.7,3.8-4.4C839.6,318.9,839.5,317,839,315.1z"/>
	</g>
	<g class="st10">
		<path class="st0" d="M1251.9,442.4c0.5-1,1-2,1.5-2.7c6.1-10.1,17.5-19.1,29.2-21.3c15-2.8,30.2,4.8,37.9,17.8
			c2,3.4,3.5,7.2,4.3,11c0.1,0.7,0.3,1.4,0.3,2c1.5-1.2,3.1-2.1,4.8-2.8c6.2-2.4,13.5-2,19.4,1.1c8.7,4.6,12.9,12.9,13.5,22.3
			c0.1,0.9-0.6,1.6-1.5,1.7s-1.6-0.6-1.7-1.5c-0.5-8.3-4.1-15.6-11.8-19.7c-5.1-2.7-11.4-3.1-16.8-1c-1.6,0.6-3.1,1.6-4.5,2.7
			c-0.1,0.1-1.5,1.7-1.7,2c-0.7,0.8-1.6,0.5-1.6,0.5c-0.2-0.1-1.1-0.3-1.2-1.4c0-0.3,0-1.8,0-1.9c0-1.2-0.2-2.3-0.4-3.4
			c-0.7-3.5-2.1-7-3.9-10c-7-11.8-20.9-18.8-34.6-16.3c-10.9,2-21.4,10.5-27.1,19.9c-0.3,0.5-0.6,1-0.9,1.6c3.9,1.1,7.1,4.5,7.1,8.7
			c0,5.2-6.1,6.4-9.6,3.7c-2.1-1.6-2.8-4-2.6-6.6c0.1-1.1,0.3-2.2,0.6-3.3c-2.3,0.1-4.6,0.8-6.7,1.9c-4.9,2.5-9.2,7.1-12.1,11
			c-1.8,2.5-3.4,5.2-4.4,8.1c0,0.1-0.3,1.1-0.5,1.6c0.1,0.3,0.2,0.6,0.2,0.9c-0.1,0.9-0.8,1.5-1.7,1.4c-0.9-0.1-1.5-0.6-1.7-1.6
			c-0.1-0.4,0-0.9,0.1-1.4c0.2-0.8,0.5-1.8,0.6-2c1.1-3.2,2.8-6.2,4.8-8.9c3.2-4.3,7.9-9.2,13.2-12
			C1245.5,443,1248.7,442.2,1251.9,442.4z M1225.8,467.3L1225.8,467.3L1225.8,467.3z M1253.9,445.8c-0.4,1-0.6,2.1-0.7,3.2
			c-0.1,1.5,0.2,2.9,1.4,3.8c0.9,0.7,2.1,0.9,3.1,0.6c0.8-0.2,1.4-0.8,1.4-1.8C1259,448.7,1256.6,446.5,1253.9,445.8z"/>
		<path class="st0" d="M1361.2,468.2l-135.6-0.9c-0.9,0-1.6,0.7-1.6,1.6s0.7,1.6,1.6,1.6l135.6,0.9c0.9,0,1.6-0.7,1.6-1.6
			C1362.8,468.9,1362,468.2,1361.2,468.2z"/>
	</g>
</g>
</svg>
