<?xml version="1.0" encoding="utf-8"?>
<!-- Generator: Adobe Illustrator 25.3.1, SVG Export Plug-In . SVG Version: 6.00 Build 0)  -->
<svg version="1.1" id="Layer_1" xmlns="http://www.w3.org/2000/svg" xmlns:xlink="http://www.w3.org/1999/xlink" x="0px" y="0px"
	 viewBox="0 0 260 70" style="enable-background:new 0 0 260 70;" xml:space="preserve">
<style type="text/css">
	.st0{fill:#333333;}
	.st1{fill:#E50013;}
</style>
<g>
	<g>
		<g>
			<path class="st0" d="M96.45,24.87v4.22h-2.82v-2.17H72.8v2.17h-2.82v-4.22H96.45z M84.46,14.42c0.48,0.06,0.75,0.17,0.75,0.38
				c0,0.15-0.21,0.38-0.6,0.67v0.59h11.72v2.05H70.1v-2.05h11.72v-1.85L84.46,14.42z M93.07,27.94v1.96H84.7
				c-0.06,0.03-0.12,0.06-0.15,0.06c0.84,0.79,1.47,1.55,1.95,2.28c2.04-0.64,3.84-1.32,5.4-2.02l1.8,1.79
				c0.12,0.12,0.18,0.26,0.18,0.41c0,0.15-0.27,0.2-0.81,0.2c-1.38,0.41-2.76,0.82-4.17,1.17c1.44,1.32,2.67,2.25,3.69,2.79
				c0.99,0.61,2.43,1.17,4.35,1.67l-2.01,2.29c-1.65-0.73-3.15-1.55-4.46-2.46c-0.96-0.7-1.89-1.49-2.79-2.4
				c0.06,0.59,0.12,1.17,0.12,1.76c0,0.97-0.21,1.82-0.57,2.52c-0.3,0.61-0.78,1.02-1.38,1.23c-0.72,0.23-2.19,0.38-4.38,0.38
				c-0.12-1.14-0.36-2.11-0.72-2.87c0.9,0.06,1.59,0.12,2.13,0.12c1.05,0,1.68-0.15,1.92-0.41c0.27-0.29,0.42-0.62,0.42-0.97
				c0-0.7-0.06-1.35-0.18-1.93c-1.92,1.29-3.81,2.34-5.72,3.13c-2.01,0.82-4.41,1.52-7.23,2.14l-1.98-1.96
				c3.33-0.64,6.24-1.35,8.69-2.22c1.77-0.59,3.69-1.52,5.73-2.79c-0.03-0.03-0.06-0.05-0.06-0.11c-0.15-0.26-0.3-0.53-0.45-0.79
				c-1.71,0.97-3.39,1.73-5.07,2.31c-1.74,0.62-3.84,1.14-6.27,1.55l-1.89-1.81c2.91-0.44,5.43-0.97,7.55-1.58
				c1.44-0.38,2.97-0.97,4.62-1.73c-0.27-0.24-0.51-0.47-0.72-0.64c-1.05,0.41-2.07,0.76-3.06,1.05c-1.74,0.5-3.84,0.94-6.26,1.29
				l-1.77-1.72c2.91-0.35,5.43-0.76,7.56-1.29c0.51-0.12,1.05-0.24,1.59-0.41h-6.81v-1.96H93.07z M94.36,19.04v4.92H71.99v-4.92
				H94.36z M91.78,20.97H74.54V22h17.24V20.97z"/>
			<path class="st0" d="M105.32,31.92c0.24,0.06,0.36,0.18,0.36,0.38c0,0.21-0.18,0.44-0.48,0.68c-0.48,2.34-1.05,4.36-1.74,6.06
				l-2.49-0.79c0.42-0.82,0.81-1.72,1.11-2.72c0.36-1.29,0.66-2.69,0.9-4.24L105.32,31.92z M108.65,15.44
				c0.27,0.15,0.42,0.26,0.42,0.38c0,0.24-0.18,0.41-0.48,0.59l-2.94,3.6c0.69,0.47,1.35,0.94,1.98,1.37l2.25-3.04l1.92,1.23
				c0.21,0.12,0.33,0.29,0.33,0.5c0,0.18-0.21,0.26-0.6,0.32l-5.1,6.38c1.2-0.12,2.37-0.24,3.51-0.35c-0.24-0.7-0.51-1.37-0.75-2.02
				l2.34-0.44c0.6,1.43,1.05,2.78,1.41,4.07v-8.79h6.08v-4.8l2.28,0.18c0.42,0.03,0.66,0.11,0.66,0.29c0,0.15-0.18,0.38-0.48,0.68
				v3.66h6.21v14.53h-2.46v-1.47h-3.75v8.46h-2.46v-8.46h-3.62v1.47h-2.46v-4.16l-1.98,0.41c-0.15-0.53-0.3-1.08-0.42-1.61
				c-0.51,0.09-1.05,0.18-1.59,0.24v12.12h-2.46v-11.8c-1.2,0.17-2.55,0.32-3.99,0.47c-0.21,0.32-0.39,0.47-0.57,0.47
				c-0.18,0-0.3-0.12-0.3-0.41l-0.54-2.34c0.84-0.03,1.65-0.09,2.46-0.15l2.73-3.75c-1.56-1.08-3.23-2.14-5.07-3.19l1.53-1.85
				c0.36,0.21,0.69,0.41,1.02,0.62l2.97-4.39L108.65,15.44z M113.41,37.9l-2.37,0.47c-0.45-2.4-0.99-4.6-1.62-6.65l2.34-0.44
				C112.51,33.57,113.05,35.79,113.41,37.9z M119.02,24.64v-3.19h-3.62v3.19H119.02z M119.02,30.11v-3.42h-3.62v3.42H119.02z
				 M121.48,24.64h3.75v-3.19h-3.75V24.64z M125.23,30.11v-3.42h-3.75v3.42H125.23z"/>
			<path class="st0" d="M138.96,15.35c0.27,0.12,0.42,0.24,0.42,0.35c0,0.24-0.18,0.41-0.48,0.59l-2.73,3.63
				c0.63,0.41,1.23,0.79,1.83,1.17l1.5-2.29l1.8,1.14c0,0.03,0.03,0.03,0.06,0.03c0.78-0.76,1.41-1.5,1.89-2.25
				c0.54-0.82,1.05-1.91,1.53-3.28l1.71,0.53c0.18,0.06,0.27,0.18,0.27,0.29c0,0.11-0.21,0.2-0.57,0.32
				c-0.24,0.64-0.48,1.26-0.72,1.78c0.66,0.41,1.26,0.79,1.77,1.2l-1.17,1.26c-0.48-0.32-0.96-0.64-1.44-0.94
				c-0.57,0.88-1.2,1.64-1.86,2.31l-1.2-0.76c-0.06,0.18-0.21,0.26-0.42,0.29l-4.23,5.77c0.93-0.06,1.86-0.15,2.76-0.26
				c-0.15-0.44-0.3-0.85-0.42-1.26l1.98-0.47c0.54,1.46,0.96,2.9,1.2,4.25l-2.01,0.32c-0.06-0.27-0.12-0.53-0.18-0.79
				c-0.42,0.06-0.87,0.12-1.35,0.18v12.3h-2.34v-12c-0.9,0.11-1.83,0.2-2.82,0.32c-0.18,0.32-0.39,0.47-0.57,0.47
				c-0.18,0-0.27-0.12-0.27-0.38l-0.54-2.37c0.63-0.03,1.26-0.06,1.89-0.12l2.52-3.78c-1.62-1.11-3.08-2.05-4.4-2.84l1.29-1.61
				c0.24,0.14,0.51,0.29,0.75,0.41l2.76-4.42L138.96,15.35z M135.63,31.19c0.3,0.06,0.48,0.15,0.48,0.29c0,0.15-0.12,0.29-0.36,0.47
				c-0.12,2.2-0.24,3.81-0.39,4.86c-0.15,0.79-0.33,1.55-0.54,2.34l-2.37-0.47c0.3-0.88,0.51-1.64,0.63-2.28
				c0.21-1.11,0.36-2.9,0.45-5.36L135.63,31.19z M142.52,36.87l-2.22,0.47c-0.3-2.11-0.63-4.07-1.05-5.85l2.22-0.44
				C141.95,33.07,142.31,35,142.52,36.87z M152.48,21.44c-0.06-2.05-0.09-4.39-0.09-7l2.28,0.41c0.24,0.06,0.39,0.15,0.39,0.3
				c0,0.18-0.15,0.44-0.45,0.79c0,2.05,0,3.89,0.03,5.5h5v1.82h-4.98c0.06,3.57,0.18,6,0.36,7.26c0.09,0.85,0.21,1.64,0.39,2.37
				c0.24-0.59,0.45-1.2,0.63-1.84c0.48-1.64,0.87-3.54,1.14-5.74l2.13,0.7c0.21,0.06,0.33,0.18,0.33,0.35c0,0.15-0.18,0.3-0.48,0.44
				c-0.42,2.34-0.84,4.19-1.32,5.56c-0.48,1.35-0.99,2.52-1.59,3.54c0.03,0.12,0.06,0.2,0.09,0.26c0.42,1.17,0.78,1.73,1.08,1.73
				c0.15,0,0.42-0.68,0.81-2.05l1.74,1.38c-0.93,2.35-1.71,3.54-2.34,3.54c-0.51,0-1.02-0.29-1.55-0.85
				c-0.48-0.47-0.93-1.11-1.32-1.93c-0.81,0.91-1.8,1.85-2.97,2.78l-1.77-1.49c1.05-0.76,1.92-1.43,2.64-2.14
				c0.45-0.44,0.87-0.94,1.23-1.47c-0.45-1.46-0.78-3.13-0.99-5.01c-0.18-1.43-0.3-3.89-0.39-7.41h-2.7v2.29h2.34v1.84h-2.34v1.7
				h2.34v1.84h-2.34v1.58h2.34v1.84h-2.34v1.61c0.78-0.18,1.56-0.35,2.34-0.59v1.73c-1.92,0.59-4.89,1.32-8.9,2.28
				c-0.18,0.24-0.33,0.35-0.48,0.35c-0.15,0-0.24-0.11-0.24-0.35l-0.45-2.05c0.9-0.12,1.74-0.23,2.58-0.35v-2.52h-2.22v-1.85h2.22
				v-1.7h-2.22v-1.84h2.22v-1.7h-2.22v-1.84h2.22v-2.29h-3.06v-1.82H152.48z M151.27,14.97c0.18,0.06,0.27,0.18,0.27,0.29
				c0,0.11-0.21,0.2-0.57,0.32c-0.24,0.82-0.54,1.52-0.84,2.17c0.81,0.64,1.53,1.29,2.13,1.96l-1.17,1.26
				c-0.6-0.59-1.2-1.11-1.83-1.64c-0.48,0.76-0.96,1.4-1.47,1.99l-1.62-1.02c0.81-0.82,1.47-1.67,1.98-2.52
				c0.48-0.82,0.96-1.93,1.41-3.34L151.27,14.97z M147.68,36.41V23.26h-1.05v13.38C146.99,36.58,147.32,36.49,147.68,36.41z
				 M159.4,19.83l-1.77,1.03c-0.81-1.23-1.71-2.49-2.69-3.78l1.89-0.91C157.78,17.43,158.65,18.66,159.4,19.83z"/>
			<path class="st0" d="M171.36,15.44c0.27,0.15,0.42,0.26,0.42,0.38c0,0.24-0.15,0.41-0.45,0.59l-3.24,3.92
				c0.6,0.44,1.2,0.88,1.8,1.29l2.01-3.04l1.92,1.23c0.18,0.12,0.3,0.29,0.3,0.5c0,0.17-0.21,0.26-0.57,0.32l-4.94,6.97
				c1.14-0.11,2.28-0.26,3.39-0.44c-0.24-0.59-0.51-1.18-0.78-1.73l1.83-0.35c2.49-3.34,4.35-6.88,5.55-10.63l2.58,0.59
				c0.36,0.06,0.57,0.18,0.57,0.35c0,0.27-0.27,0.5-0.81,0.68c-0.48,1.2-0.99,2.37-1.53,3.51v0.26h4.17l2.04-4.57l2.31,0.47
				c0.42,0.06,0.63,0.2,0.63,0.44c0,0.23-0.24,0.44-0.72,0.67l-1.44,2.99h4.74v2.29h-5.03v3.43h4.44v2.16h-4.44v3.46h4.44v2.16
				h-4.44v3.43h5.03v2.29h-11.72v1.73h-2.58V24.28c-0.48,0.76-0.93,1.47-1.41,2.17l-1.68-0.85c0.78,1.58,1.32,3.1,1.68,4.51
				l-2.22,0.47c-0.15-0.47-0.3-0.97-0.45-1.47c-0.45,0.09-0.93,0.18-1.41,0.24v11.42h-2.58V29.79c-1.08,0.18-2.25,0.38-3.54,0.56
				c-0.18,0.32-0.39,0.47-0.57,0.47c-0.18,0-0.27-0.12-0.27-0.38l-0.54-2.37c0.66-0.06,1.29-0.12,1.92-0.18l2.91-4.42
				c-1.62-1.26-3.12-2.35-4.5-3.28l1.29-1.61c0.3,0.18,0.57,0.35,0.81,0.5l3.18-4.63L171.36,15.44z M168.06,32.34
				c0.21,0.03,0.33,0.12,0.33,0.29c0,0.24-0.18,0.47-0.48,0.7c-0.42,2.34-0.96,4.37-1.62,6.06l-2.37-0.79
				c0.42-0.82,0.75-1.7,1.05-2.7c0.36-1.23,0.63-2.64,0.84-4.19L168.06,32.34z M176,38.37l-2.34,0.44c-0.48-2.4-1.08-4.6-1.77-6.62
				l2.33-0.47C175.05,34.03,175.64,36.26,176,38.37z M183.62,22.12h-4.23v3.43h4.23V22.12z M183.62,27.71h-4.23v3.46h4.23V27.71z
				 M183.62,36.76v-3.43h-4.23v3.43H183.62z"/>
			<path class="st0" d="M206.07,16.99c-0.85,0.35-1.65,0.62-2.46,0.85v5.18h4.68v2.4h-3.9c1.08,1.99,2.37,3.63,3.9,4.92l-2.1,2.17
				c-0.96-1.23-1.83-2.61-2.58-4.1v12.36h-2.58V29.41c-0.27,0.79-0.51,1.43-0.75,1.96c-0.66,1.47-1.56,3.02-2.64,4.6l-2.34-2.08
				c1.17-1.29,2.19-2.69,3.06-4.22c0.48-0.88,1.08-2.29,1.77-4.25h-4.26v-2.4h5.16v-4.51c-1.05,0.26-2.1,0.47-3.15,0.61l-1.77-2.4
				c1.98-0.11,3.66-0.35,5.04-0.73c1.26-0.24,2.82-0.76,4.68-1.55l1.92,1.85c0.12,0.11,0.18,0.26,0.18,0.44
				c0,0.18-0.12,0.24-0.33,0.24l-0.75-0.15C206.61,16.82,206.37,16.88,206.07,16.99z M219.29,14.65c0.48,0.06,0.72,0.18,0.72,0.38
				c0,0.15-0.18,0.38-0.48,0.67v14.52c1.05-0.29,2.07-0.61,3.06-0.91v2.52l-3.06,0.85v8.08h-2.7v-7.35l-6.77,1.84
				c-0.3,0.62-0.6,0.91-0.84,0.91c-0.18,0-0.3-0.15-0.42-0.47l-0.96-2.61c3-0.58,6-1.32,9-2.14V14.45L219.29,14.65z M214.61,27.71
				l-1.86,1.73c-1.38-1.41-2.69-2.55-3.99-3.43l1.74-1.61C211.91,25.34,213.29,26.42,214.61,27.71z M215.33,20.51l-1.89,1.72
				c-1.44-1.37-2.85-2.49-4.22-3.31l1.76-1.61C212.49,18.19,213.92,19.28,215.33,20.51z"/>
			<path class="st0" d="M231.91,19.04v-5.04l2.91,0.32c0.33,0.06,0.51,0.18,0.51,0.35c0,0.23-0.24,0.5-0.72,0.79v3.57h3.42v2.49
				h-3.42v6.23c1.25-0.53,2.48-1.05,3.75-1.64v2.52l-3.75,1.61v7.41c0,1.17-0.33,2.02-0.99,2.58c-0.54,0.56-1.95,0.85-4.17,0.85
				l-1.05-2.61h2.25c0.78,0,1.2-0.41,1.26-1.26v-5.79l-3.03,1.32c-0.3,0.64-0.57,0.94-0.81,0.94c-0.18,0-0.33-0.15-0.45-0.5
				l-0.96-2.6c1.74-0.53,3.51-1.12,5.25-1.76v-7.29h-4.56v-2.49H231.91z M244.56,18.34v-4.33l2.46,0.18
				c0.48,0.06,0.72,0.18,0.72,0.38c0,0.17-0.18,0.41-0.48,0.7v3.07h6.09v2.4h-6.09v4.69h3.45c0.3-0.2,0.48-0.32,0.54-0.32
				c0.18,0,0.39,0.09,0.6,0.26l1.35,1.26c0.18,0.18,0.27,0.35,0.27,0.53c0,0.17-0.27,0.41-0.81,0.67c-1.23,3.54-2.61,6.18-4.11,7.9
				c1.56,1.17,3.57,2.31,5.97,3.43l-2.1,2.17c-2.34-1.23-4.29-2.49-5.79-3.75c-1.89,1.46-4.38,2.7-7.44,3.63l-1.77-2.28
				c2.01-0.47,3.63-0.97,4.89-1.55c0.93-0.44,1.77-0.94,2.49-1.49c-0.36-0.35-0.66-0.7-0.93-1.06c-1.44-1.7-2.46-4.07-3.06-7.12
				h-1.41v-2.28h5.16v-4.69h-5.72v-2.4H244.56z M246.06,33.57c0.18,0.23,0.36,0.41,0.57,0.59c0.09-0.12,0.18-0.24,0.27-0.35
				c1.05-1.32,2.04-3.34,2.94-6.09h-6.65C243.72,30.17,244.68,32.13,246.06,33.57z"/>
		</g>
	</g>
	<g>
		<path class="st0" d="M81.33,57.82h-2.43l-0.96-2.38H73.5l-0.91,2.38h-2.37l4.31-10.48h2.36L81.33,57.82z M77.21,53.68l-1.53-3.89
			l-1.49,3.89H77.21z"/>
		<path class="st0" d="M81.75,55.66l2.13-0.31c0.09,0.39,0.27,0.69,0.55,0.89c0.28,0.2,0.66,0.3,1.16,0.3c0.55,0,0.96-0.1,1.24-0.29
			c0.18-0.13,0.28-0.31,0.28-0.53c0-0.15-0.05-0.28-0.15-0.38c-0.11-0.1-0.34-0.18-0.71-0.26c-1.71-0.36-2.8-0.69-3.25-0.98
			c-0.64-0.41-0.95-0.98-0.95-1.71c0-0.66,0.28-1.21,0.82-1.66c0.55-0.45,1.4-0.67,2.55-0.67c1.1,0,1.91,0.17,2.44,0.51
			c0.53,0.34,0.9,0.84,1.1,1.5l-2,0.35c-0.09-0.3-0.25-0.52-0.49-0.68c-0.24-0.16-0.58-0.24-1.02-0.24c-0.56,0-0.96,0.08-1.2,0.22
			c-0.16,0.1-0.24,0.24-0.24,0.41c0,0.14,0.07,0.26,0.21,0.36c0.19,0.14,0.85,0.32,1.98,0.57c1.13,0.24,1.92,0.54,2.37,0.89
			c0.44,0.36,0.66,0.86,0.66,1.5c0,0.69-0.31,1.29-0.92,1.79C87.7,57.74,86.79,58,85.59,58c-1.09,0-1.96-0.21-2.59-0.63
			C82.36,56.95,81.94,56.38,81.75,55.66z"/>
		<path class="st0" d="M91.1,49.2v-1.86h2.12v1.86H91.1z M91.1,57.82v-7.6h2.12v7.6H91.1z"/>
		<path class="st0" d="M96.98,52.55l-1.93-0.33c0.22-0.73,0.59-1.28,1.12-1.63c0.53-0.36,1.31-0.53,2.36-0.53
			c0.94,0,1.65,0.11,2.11,0.32c0.46,0.21,0.79,0.48,0.98,0.81c0.19,0.33,0.28,0.92,0.28,1.8l-0.02,2.35c0,0.67,0.03,1.16,0.1,1.48
			c0.07,0.31,0.2,0.65,0.38,1.02h-2.1c-0.06-0.13-0.12-0.33-0.2-0.59c-0.04-0.12-0.06-0.2-0.08-0.24c-0.36,0.33-0.75,0.58-1.16,0.75
			C98.41,57.91,97.97,58,97.5,58c-0.82,0-1.48-0.21-1.95-0.64c-0.48-0.42-0.71-0.96-0.71-1.61c0-0.43,0.11-0.81,0.32-1.15
			c0.22-0.34,0.52-0.59,0.91-0.77c0.39-0.18,0.95-0.34,1.69-0.47c0.99-0.18,1.68-0.34,2.06-0.49v-0.2c0-0.38-0.1-0.66-0.3-0.83
			c-0.2-0.16-0.58-0.25-1.14-0.25c-0.38,0-0.67,0.07-0.88,0.21C97.28,51.95,97.11,52.19,96.98,52.55z M99.82,54.18
			c-0.27,0.08-0.7,0.19-1.29,0.31c-0.59,0.12-0.98,0.23-1.16,0.35c-0.28,0.18-0.41,0.42-0.41,0.71c0,0.28,0.11,0.53,0.33,0.73
			c0.22,0.2,0.5,0.31,0.84,0.31c0.38,0,0.75-0.12,1.1-0.36c0.26-0.18,0.42-0.4,0.51-0.66c0.05-0.17,0.08-0.5,0.08-0.98V54.18z"/>
		<path class="st0" d="M107.67,50.23v1.6h-1.45v3.06c0,0.62,0.02,0.98,0.04,1.08c0.02,0.1,0.09,0.18,0.19,0.25
			c0.1,0.07,0.22,0.1,0.36,0.1c0.2,0,0.48-0.06,0.86-0.19l0.18,1.56c-0.49,0.2-1.05,0.3-1.68,0.3c-0.38,0-0.73-0.06-1.04-0.18
			c-0.3-0.12-0.53-0.28-0.68-0.47c-0.14-0.19-0.24-0.45-0.3-0.78c-0.04-0.24-0.07-0.71-0.07-1.42v-3.31h-0.97v-1.6h0.97v-1.51
			l2.13-1.17v2.68H107.67z"/>
		<path class="st0" d="M109.14,49.2v-1.86h2.12v1.86H109.14z M109.14,57.82v-7.6h2.12v7.6H109.14z"/>
		<path class="st0" d="M120.43,52.47l-2.09,0.36c-0.07-0.4-0.23-0.69-0.48-0.9c-0.25-0.2-0.57-0.3-0.97-0.3
			c-0.53,0-0.95,0.17-1.26,0.52c-0.32,0.35-0.47,0.93-0.47,1.74c0,0.9,0.16,1.54,0.48,1.91c0.32,0.37,0.75,0.56,1.28,0.56
			c0.4,0,0.74-0.11,0.99-0.32c0.26-0.22,0.44-0.59,0.54-1.12l2.08,0.34c-0.22,0.91-0.63,1.59-1.24,2.05
			c-0.61,0.46-1.44,0.69-2.47,0.69c-1.17,0-2.11-0.35-2.8-1.05c-0.7-0.7-1.05-1.67-1.05-2.91c0-1.26,0.35-2.23,1.05-2.93
			c0.7-0.7,1.64-1.05,2.84-1.05c0.98,0,1.75,0.2,2.33,0.6C119.76,51.05,120.18,51.66,120.43,52.47z"/>
		<path class="st0" d="M126.36,57.82V47.34h7.59v1.77h-5.35v2.48h4.62v1.78h-4.62v4.46H126.36z"/>
		<path class="st0" d="M135.77,49.2v-1.86h2.12v1.86H135.77z M135.77,57.82v-7.6h2.12v7.6H135.77z"/>
		<path class="st0" d="M139.98,57.82V47.34h2.12v3.77c0.66-0.71,1.43-1.06,2.32-1.06c0.98,0,1.78,0.34,2.43,1.01
			c0.64,0.67,0.96,1.63,0.96,2.88c0,1.3-0.33,2.3-0.98,3c-0.65,0.7-1.44,1.05-2.37,1.05c-0.46,0-0.91-0.11-1.36-0.33
			c-0.44-0.22-0.83-0.54-1.15-0.96v1.12H139.98z M142.09,53.86c0,0.79,0.13,1.37,0.39,1.74c0.37,0.53,0.86,0.8,1.47,0.8
			c0.47,0,0.86-0.19,1.2-0.57c0.33-0.38,0.49-0.97,0.49-1.79c0-0.87-0.16-1.49-0.5-1.88c-0.33-0.38-0.76-0.58-1.28-0.58
			c-0.51,0-0.93,0.19-1.27,0.56C142.25,52.53,142.09,53.1,142.09,53.86z"/>
		<path class="st0" d="M154.16,55.41l2.12,0.34c-0.27,0.73-0.7,1.3-1.29,1.68c-0.59,0.38-1.32,0.57-2.2,0.57
			c-1.4,0-2.43-0.43-3.1-1.29c-0.53-0.69-0.79-1.57-0.79-2.62c0-1.26,0.34-2.24,1.04-2.96c0.7-0.71,1.57-1.07,2.64-1.07
			c1.19,0,2.13,0.37,2.82,1.12c0.69,0.75,1.02,1.89,0.99,3.43h-5.32c0.02,0.6,0.19,1.06,0.52,1.39c0.32,0.33,0.73,0.5,1.22,0.5
			c0.33,0,0.61-0.09,0.84-0.26C153.87,56.06,154.04,55.79,154.16,55.41z M154.28,53.38c-0.02-0.58-0.17-1.03-0.48-1.33
			c-0.3-0.3-0.67-0.46-1.1-0.46c-0.46,0-0.85,0.16-1.15,0.48c-0.3,0.32-0.45,0.75-0.44,1.3H154.28z"/>
		<path class="st0" d="M160.15,57.82h-2.12v-7.6H160v1.08c0.34-0.51,0.64-0.85,0.91-1.01c0.27-0.16,0.57-0.24,0.92-0.24
			c0.48,0,0.95,0.13,1.4,0.38l-0.66,1.75c-0.35-0.22-0.69-0.33-1-0.33c-0.3,0-0.55,0.08-0.75,0.23c-0.21,0.16-0.37,0.43-0.49,0.84
			c-0.12,0.4-0.18,1.25-0.18,2.55V57.82z"/>
		<path class="st0" d="M175.53,53.97l2.17,0.65c-0.33,1.14-0.88,1.99-1.66,2.55c-0.77,0.55-1.75,0.83-2.94,0.83
			c-1.47,0-2.68-0.47-3.62-1.43c-0.95-0.95-1.42-2.25-1.42-3.9c0-1.74,0.48-3.1,1.43-4.07c0.95-0.96,2.2-1.45,3.75-1.45
			c1.35,0,2.45,0.38,3.3,1.14c0.5,0.45,0.88,1.09,1.14,1.93l-2.21,0.5c-0.13-0.54-0.4-0.97-0.82-1.28
			c-0.41-0.32-0.92-0.48-1.51-0.48c-0.82,0-1.48,0.28-2,0.84c-0.51,0.56-0.77,1.46-0.77,2.71c0,1.32,0.25,2.27,0.75,2.83
			c0.5,0.56,1.16,0.84,1.96,0.84c0.59,0,1.1-0.18,1.53-0.53C175.04,55.3,175.34,54.74,175.53,53.97z"/>
		<path class="st0" d="M179.11,53.92c0-0.67,0.17-1.31,0.52-1.94c0.35-0.62,0.84-1.1,1.48-1.43c0.64-0.33,1.35-0.5,2.13-0.5
			c1.21,0,2.21,0.37,2.98,1.12c0.77,0.75,1.16,1.69,1.16,2.83c0,1.15-0.39,2.1-1.17,2.86c-0.78,0.75-1.77,1.13-2.96,1.13
			c-0.74,0-1.44-0.16-2.1-0.47c-0.66-0.32-1.17-0.78-1.52-1.38C179.28,55.53,179.11,54.79,179.11,53.92z M181.28,54.03
			c0,0.75,0.19,1.33,0.57,1.73c0.38,0.4,0.84,0.6,1.4,0.6c0.55,0,1.02-0.2,1.39-0.6c0.37-0.4,0.56-0.98,0.56-1.75
			c0-0.74-0.19-1.31-0.56-1.71c-0.38-0.4-0.84-0.6-1.39-0.6c-0.55,0-1.02,0.2-1.4,0.6C181.47,52.7,181.28,53.27,181.28,54.03z"/>
		<path class="st0" d="M191.08,57.82h-2.12v-7.6h1.97v1.08c0.34-0.51,0.64-0.85,0.91-1.01c0.27-0.16,0.57-0.24,0.92-0.24
			c0.48,0,0.95,0.13,1.4,0.38l-0.66,1.75c-0.36-0.22-0.69-0.33-0.99-0.33c-0.3,0-0.55,0.08-0.76,0.23c-0.2,0.16-0.37,0.43-0.49,0.84
			c-0.12,0.4-0.18,1.25-0.18,2.55V57.82z"/>
		<path class="st0" d="M195,50.23h1.98v1.12c0.25-0.38,0.6-0.69,1.04-0.93c0.44-0.24,0.92-0.36,1.45-0.36
			c0.93,0,1.73,0.35,2.37,1.04c0.65,0.69,0.98,1.66,0.98,2.89c0,1.27-0.33,2.25-0.98,2.96c-0.65,0.7-1.45,1.05-2.38,1.05
			c-0.44,0-0.84-0.08-1.2-0.25c-0.36-0.17-0.74-0.45-1.14-0.86v3.83H195V50.23z M197.1,53.9c0,0.85,0.18,1.48,0.54,1.89
			c0.36,0.41,0.79,0.61,1.3,0.61c0.49,0,0.9-0.19,1.23-0.56c0.33-0.37,0.49-0.99,0.49-1.84c0-0.8-0.17-1.39-0.51-1.78
			c-0.34-0.39-0.75-0.58-1.25-0.58c-0.52,0-0.95,0.19-1.29,0.57C197.27,52.59,197.1,53.15,197.1,53.9z"/>
		<path class="st0" d="M204.02,53.92c0-0.67,0.17-1.31,0.52-1.94c0.35-0.62,0.84-1.1,1.47-1.43c0.64-0.33,1.35-0.5,2.13-0.5
			c1.21,0,2.21,0.37,2.98,1.12c0.77,0.75,1.16,1.69,1.16,2.83c0,1.15-0.39,2.1-1.17,2.86c-0.78,0.75-1.77,1.13-2.96,1.13
			c-0.74,0-1.44-0.16-2.11-0.47c-0.66-0.32-1.17-0.78-1.52-1.38C204.19,55.53,204.02,54.79,204.02,53.92z M206.19,54.03
			c0,0.75,0.19,1.33,0.57,1.73c0.37,0.4,0.84,0.6,1.4,0.6c0.55,0,1.01-0.2,1.39-0.6c0.38-0.4,0.56-0.98,0.56-1.75
			c0-0.74-0.19-1.31-0.56-1.71c-0.38-0.4-0.84-0.6-1.39-0.6c-0.55,0-1.02,0.2-1.4,0.6C206.38,52.7,206.19,53.27,206.19,54.03z"/>
		<path class="st0" d="M215.98,57.82h-2.12v-7.6h1.97v1.08c0.34-0.51,0.64-0.85,0.91-1.01c0.27-0.16,0.57-0.24,0.92-0.24
			c0.48,0,0.95,0.13,1.4,0.38l-0.66,1.75c-0.36-0.22-0.69-0.33-1-0.33c-0.3,0-0.55,0.08-0.76,0.23c-0.2,0.16-0.37,0.43-0.49,0.84
			c-0.11,0.4-0.17,1.25-0.17,2.55V57.82z"/>
		<path class="st0" d="M221.56,52.55l-1.93-0.33c0.22-0.73,0.59-1.28,1.12-1.63c0.53-0.36,1.31-0.53,2.36-0.53
			c0.94,0,1.65,0.11,2.11,0.32c0.46,0.21,0.79,0.48,0.98,0.81c0.19,0.33,0.29,0.92,0.29,1.8l-0.02,2.35c0,0.67,0.03,1.16,0.1,1.48
			c0.07,0.31,0.2,0.65,0.38,1.02h-2.1c-0.06-0.13-0.12-0.33-0.21-0.59c-0.04-0.12-0.06-0.2-0.08-0.24
			c-0.36,0.33-0.75,0.58-1.16,0.75c-0.41,0.17-0.85,0.25-1.32,0.25c-0.82,0-1.48-0.21-1.95-0.64c-0.48-0.42-0.71-0.96-0.71-1.61
			c0-0.43,0.11-0.81,0.33-1.15c0.22-0.34,0.52-0.59,0.91-0.77c0.39-0.18,0.95-0.34,1.69-0.47c0.99-0.18,1.68-0.34,2.06-0.49v-0.2
			c0-0.38-0.1-0.66-0.3-0.83c-0.2-0.16-0.58-0.25-1.14-0.25c-0.37,0-0.67,0.07-0.88,0.21C221.86,51.95,221.68,52.19,221.56,52.55z
			 M224.39,54.18c-0.27,0.08-0.7,0.19-1.29,0.31c-0.59,0.12-0.98,0.23-1.16,0.35c-0.28,0.18-0.41,0.42-0.41,0.71
			c0,0.28,0.11,0.53,0.33,0.73c0.22,0.2,0.5,0.31,0.85,0.31c0.38,0,0.75-0.12,1.1-0.36c0.25-0.18,0.42-0.4,0.51-0.66
			c0.05-0.17,0.08-0.5,0.08-0.98V54.18z"/>
		<path class="st0" d="M232.25,50.23v1.6h-1.45v3.06c0,0.62,0.02,0.98,0.04,1.08c0.02,0.1,0.09,0.18,0.19,0.25
			c0.1,0.07,0.22,0.1,0.36,0.1c0.2,0,0.48-0.06,0.86-0.19l0.18,1.56c-0.49,0.2-1.05,0.3-1.68,0.3c-0.38,0-0.73-0.06-1.04-0.18
			c-0.3-0.12-0.53-0.28-0.67-0.47c-0.14-0.19-0.24-0.45-0.3-0.78c-0.04-0.24-0.07-0.71-0.07-1.42v-3.31h-0.97v-1.6h0.97v-1.51
			l2.13-1.17v2.68H232.25z"/>
		<path class="st0" d="M233.72,49.2v-1.86h2.12v1.86H233.72z M233.72,57.82v-7.6h2.12v7.6H233.72z"/>
		<path class="st0" d="M237.52,53.92c0-0.67,0.17-1.31,0.52-1.94c0.35-0.62,0.84-1.1,1.47-1.43c0.64-0.33,1.35-0.5,2.13-0.5
			c1.21,0,2.21,0.37,2.98,1.12c0.77,0.75,1.16,1.69,1.16,2.83c0,1.15-0.39,2.1-1.17,2.86c-0.78,0.75-1.77,1.13-2.96,1.13
			c-0.74,0-1.44-0.16-2.11-0.47c-0.66-0.32-1.17-0.78-1.52-1.38C237.69,55.53,237.52,54.79,237.52,53.92z M239.69,54.03
			c0,0.75,0.19,1.33,0.57,1.73c0.38,0.4,0.84,0.6,1.4,0.6c0.55,0,1.02-0.2,1.39-0.6c0.38-0.4,0.56-0.98,0.56-1.75
			c0-0.74-0.19-1.31-0.56-1.71c-0.37-0.4-0.84-0.6-1.39-0.6c-0.55,0-1.02,0.2-1.4,0.6C239.88,52.7,239.69,53.27,239.69,54.03z"/>
		<path class="st0" d="M254.75,57.82h-2.12v-3.88c0-0.82-0.04-1.35-0.14-1.59c-0.09-0.24-0.24-0.43-0.44-0.56
			c-0.2-0.13-0.45-0.2-0.74-0.2c-0.37,0-0.7,0.1-0.99,0.29c-0.29,0.19-0.49,0.44-0.6,0.76c-0.11,0.32-0.16,0.9-0.16,1.75v3.44h-2.12
			v-7.6h1.97v1.12c0.7-0.86,1.58-1.29,2.64-1.29c0.47,0,0.9,0.08,1.28,0.24c0.39,0.16,0.68,0.36,0.88,0.61
			c0.2,0.25,0.34,0.53,0.42,0.85c0.08,0.32,0.12,0.77,0.12,1.35V57.82z"/>
	</g>
</g>
<g>
	<path class="st1" d="M32.63,44.94v-5.94c-2.45,0.48-4.65,0.82-6.27,0.97c-5.85,0.57-4.75-7.84-1.83-6.95
		c1.72,0.53,4.7,0.84,8.1,0.7V19.21c-1.15,1.2-16.4,17.1-24.67,25.73H32.63z M4.88,33.71L33.07,5H4.88V33.71z M41.41,5l0,27.28
		c3.95-1.21,7.59-3.27,9.78-6.53V5H41.41z M41.41,44.94h9.78V32.38c-2.25,1.73-5.87,3.23-9.78,4.44V44.94z"/>
	<g>
		<g>
			<path class="st0" d="M22.59,49.85v2.16h1.57v10.97h-1.57v1.68l0.1,0h7.29v-1.68h-1.89c0,0,0,0,0,0c0-0.01-0.01-0.03-0.01-0.04
				v-4.86h3.99v1.27h0.02l-0.01,0.01h1.57v-4.43h-1.58v1.14h-3.99v-4.06h4.95c0,0.03,0.01,0.06,0.01,0.1v1.34h1.28l0.3,0
				c0,0,0,0,0,0h0.33v-3.59H22.71L22.59,49.85z"/>
			<path class="st0" d="M19.22,62.98c-0.01-0.01-0.01-0.01-0.02-0.01c-0.01-0.01-0.06-0.07-0.12-0.17l-0.39-0.9l-0.63-1.39
				l-4.6-10.73H11.4l-0.97,2.51l-2.64,6.49c-0.5,1.23-0.84,2.05-1.01,2.47c-0.38,0.88-0.62,1.4-0.67,1.5
				c-0.07,0.12-0.12,0.19-0.16,0.22c-0.01,0-0.02,0.01-0.03,0.01H4.75v1.68h5.3l0.04,0v-1.68h-1.6c0-0.01,0-0.02,0-0.03
				c-0.01-0.1,0.15-0.71,0.48-1.61l0.36-0.98h4.74l0.78,1.99c0.13,0.3,0.19,0.52,0.2,0.63h-1.53v1.68h7.04v-1.68H19.22z
				 M11.71,58.54c-0.6,0-1.15-0.01-1.65-0.02l1.58-3.97l1.65,3.97C12.8,58.53,12.28,58.54,11.71,58.54z"/>
		</g>
		<path class="st0" d="M50.45,50.34L50.45,50.34c-0.72-0.24-1.38-0.41-1.97-0.52c-0.75-0.14-1.59-0.21-2.51-0.21
			c-2.7,0-4.85,0.69-6.39,2.1c-1.52,1.4-2.29,3.24-2.29,5.44c0,1.28,0.26,2.48,0.77,3.58c0.34,0.74,0.83,1.42,1.46,2.04
			c0.63,0.63,1.4,1.14,2.3,1.52c1.15,0.47,2.46,0.7,3.92,0.7c1.02,0,1.89-0.08,2.59-0.25c0.71-0.18,1.49-0.49,2.35-0.94l0.21-0.14
			v-1.88l-0.5,0.25c-0.63,0.32-1.22,0.54-1.74,0.68c-0.58,0.15-1.21,0.22-1.87,0.22c-1.01,0-1.5-0.16-2.18-0.46
			c-0.49-0.22-0.99-0.58-1.5-1.08c-0.49-0.49-0.89-1.11-1.2-1.88c-0.3-0.76-0.46-1.66-0.46-2.71c0-1.73,0.45-3.02,1.33-3.94
			c0.88-0.92,1.69-1.38,3.2-1.39c0.85,0,1.52,0.11,2.03,0.32c0.47,0.19,0.9,0.48,1.29,0.86v1.99h2.05v-3.99L50.45,50.34z"/>
	</g>
</g>
</svg>
