<?xml version="1.0" encoding="utf-8"?>
<!-- Generator: Adobe Illustrator 25.3.1, SVG Export Plug-In . SVG Version: 6.00 Build 0)  -->
<svg version="1.1" id="Layer_1" xmlns="http://www.w3.org/2000/svg" xmlns:xlink="http://www.w3.org/1999/xlink" x="0px" y="0px"
	 viewBox="0 0 806 767" style="enable-background:new 0 0 806 767;" xml:space="preserve">
<style type="text/css">
	.st0{fill:#9FC1EA;}
	.st1{fill:#FF7667;}
	.st2{fill:#FFD47B;}
	.st3{fill:#69BAC9;}
	.st4{fill:#8D1B1C;}
	.st5{fill:#426FC0;}
	.st6{fill:#FFFFFF;}
	.st7{fill:#3B6BBF;}
	.st8{fill:#FD4B3C;}
	.st9{fill:#FFD274;}
</style>
<path class="st0" d="M-0.23,709.03h146c0,0-6-12.3-15.9-11.8c-8.7,0.5-15,3.3-22.6,0.7c-6.9-2.4-22-28.6-40.6-26.7
	c-6.3,0.6-16.6,1.9-24.5,12.7c-4.3,5.8-8.8,12.5-21.6,9.3C8.77,690.33,0.67,696.03-0.23,709.03z"/>
<g id="CHARACTER-1">
	<path class="st1" d="M195.57,156.73c0,0-25.6-19.9-54.2-12.9c-12.2,3-25,11-36.6,27.6c-3.1,4.4-15.6,29.5-6.6,54.3
		c6,16.4,21.3,32.8,55.4,42.8c0.8,0.2,1.7-0.2,2-1.1c0.2-0.8-0.2-1.7-1.1-2c-32.7-9.6-47.6-25.1-53.3-40.9
		c-8.5-23.5,3.3-47.2,6.2-51.4c11-15.8,23.1-23.4,34.7-26.3c27.2-6.7,51.5,12.3,51.5,12.3c0.7,0.5,1.7,0.4,2.2-0.3
		C196.47,158.23,196.27,157.23,195.57,156.73z"/>
	<g>
		<path class="st2" d="M177.87,229.73h-2.3c0,0-1.2,1.4-1.6,1.8c-6.8,8.4-32.1,38.6-63.2,201.2l40.3,13.1l41.5-142
			c0,0,6.7,10.7,24.2,9.2l49.2-30.3c0,0,20.8-31.3,10.2-51.2c0,0,36.9-36.3,57.1-56.1c8.2-8.1,12.7-19.2,12.4-30.7
			c-0.6-24.3-1.7-64.6-1.7-64.6l-44.6,0.3l-0.2,60.1l-58.9,50.4C240.37,190.93,245.47,230.23,177.87,229.73z"/>
		<path d="M192.67,304.63c0,0,1.3-7.8,2.3-13.8c0.2-1,0.9-1.7,1.9-1.8c1-0.1,1.9,0.4,2.3,1.3c3.1,6.6,7.5,17,7.2,22.4
			C206.37,312.73,197.77,310.73,192.67,304.63z"/>
		<path d="M276.27,231.53c0,0-3.3-4.8-6.1-8.9c-0.6-0.9-0.5-2.1,0.1-2.9c0.7-0.8,1.8-1.1,2.8-0.6c3.3,1.4,7.1,3.4,10.2,5.7
			L276.27,231.53z"/>
	</g>
	<g>
		<g transform="matrix(0.592595,0.805501,-0.897838,0.660526,1573.55,-373.849)">
			<path d="M-172.42,1523.94c0.7,1.4,1.9,2.8,4.4,2.8s4.6-1.8,4.6-4.1c0-0.6-0.6-1.2-1.3-1.2s-1.3,0.5-1.3,1.2c0,1-0.9,1.8-2,1.8
				c-1.2,0-1.7-0.8-2-1.5c-0.3-0.6-1.1-0.8-1.7-0.5C-172.42,1522.64-172.72,1523.34-172.42,1523.94z"/>
		</g>
		<g transform="matrix(0.592595,0.805501,-0.897838,0.660526,1573.55,-373.849)">
			<path d="M-163.82,1514.94c0-2.2-1.7-4.3-4.2-4.4c-2.7-0.2-3.8,1-4.2,2.2c-0.2,0.6,0.2,1.2,0.9,1.4c0.7,0.2,1.4-0.2,1.6-0.8
				c0.1-0.4,0.6-0.6,1.5-0.5c1.1,0.1,1.8,1.1,1.8,2.1c0,0.6,0.6,1.2,1.3,1.2C-164.32,1516.14-163.82,1515.54-163.82,1514.94z"/>
		</g>
		<g transform="matrix(0.592595,0.805501,-0.897838,0.660526,1587.89,-367.547)">
			<path d="M-178.42,1527.94c0.8,1.2,2.3,2.1,4,2.1c0.7,0,1.3-0.5,1.3-1.2s-0.6-1.1-1.3-1.1c-0.7,0-1.4-0.4-1.7-0.9
				c-0.4-0.6-1.1-0.7-1.8-0.4C-178.62,1526.64-178.82,1527.34-178.42,1527.94z"/>
		</g>
		<g transform="matrix(0.592595,0.805501,-0.897838,0.660526,1587.89,-367.547)">
			<path d="M-174.42,1529.94c2.5,0,4.6-1.8,4.6-4.1v-8c0-2.3-2.1-4.1-4.6-4.1c-0.7,0-1.3,0.5-1.3,1.2s0.6,1.2,1.3,1.2
				c1.1,0,2,0.8,2,1.8v8c0,1-0.9,1.8-2,1.8c-0.7,0-1.3,0.5-1.3,1.1S-175.22,1529.94-174.42,1529.94z"/>
		</g>
		<g transform="matrix(0.592595,0.805501,-0.897838,0.660526,1587.89,-367.547)">
			<path d="M-174.42,1513.84c-2.5,0-4.6,1.8-4.6,4.1v3.6c0,0.6,0.6,1.2,1.3,1.2s1.3-0.5,1.3-1.2v-3.6c0-1,0.9-1.8,2-1.8
				c0.7,0,1.3-0.5,1.3-1.2S-173.72,1513.84-174.42,1513.84z"/>
		</g>
		<g transform="matrix(0.592595,0.805501,-0.897838,0.660526,1602.23,-361.244)">
			<path d="M-180.92,1517.14c-2.5,0-4.6,1.8-4.6,4.1v8c0,2.3,2,4.1,4.6,4.1c0.7,0,1.3-0.5,1.3-1.2s-0.6-1.1-1.3-1.1
				c-1.1,0-2-0.8-2-1.8v-8c0-1,0.9-1.8,2-1.8c0.7,0,1.3-0.5,1.3-1.2C-179.62,1517.64-180.22,1517.14-180.92,1517.14z"/>
		</g>
		<g transform="matrix(0.592595,0.805501,-0.897838,0.660526,1602.23,-361.244)">
			<path d="M-180.92,1533.34c2.5,0,4.6-1.8,4.6-4.1v-8c0-2.3-2.1-4.1-4.6-4.1c-0.7,0-1.3,0.5-1.3,1.2c0,0.6,0.6,1.2,1.3,1.2
				c1.1,0,2,0.8,2,1.8v8c0,1-0.9,1.8-2,1.8c-0.7,0-1.3,0.5-1.3,1.1S-181.62,1533.34-180.92,1533.34z"/>
		</g>
		<g transform="matrix(0.511994,0.695942,-0.874546,0.64339,1661.24,-230.7)">
			<path d="M-366.06,1532.87l0.3,5.3c0,0.6-0.6,1.2-1.4,1.2s-1.5-0.5-1.5-1.1l-0.3-5.3l0,0c0-1,0.6-2.8,1.9-4.1c1-1,2.3-1.7,3.9-1.8
				c0.8-0.1,1.5,0.4,1.6,1.1s-0.5,1.2-1.3,1.3c-1,0.1-1.7,0.7-2.2,1.4C-365.76,1531.47-366.06,1532.27-366.06,1532.87z"/>
		</g>
		<g transform="matrix(0.511994,0.695942,-0.874546,0.64339,1661.24,-230.7)">
			<path d="M-362.16,1529.27c-0.2,0-0.5,0-0.8,0c-0.8,0.1-1.5-0.4-1.6-1.1c-0.1-0.6,0.5-1.2,1.3-1.3c1.8-0.1,2.8,0.1,3.4,0.7
				c0.4,0.4,0.7,1,0.7,1.9v8.6c0,2.1-2.1,3.8-4.8,3.8c-2.7,0-4.8-1.7-4.8-3.8c0-0.7,0.7-1.2,1.5-1.2c0.8,0,1.5,0.5,1.5,1.2
				c0,0.8,0.8,1.4,1.8,1.4s1.8-0.6,1.8-1.4v-8.6C-362.16,1529.47-362.16,1529.37-362.16,1529.27z"/>
		</g>
		<path d="M114.27,493.93c0-0.4-0.5-4.5-4.8-11.6c-0.4-0.6-0.2-1.4,0.4-1.8c0.6-0.4,1.4-0.2,1.8,0.4c5,8.3,5.1,12.8,5.1,12.8v0.1
			c-0.1,3.6-1.5,5-2.8,5.6c-1.1,0.6-2.4,0.6-3.6,0c-3.5-1.7-6.1-3.9-8-6c-3.1-3.4-4.3-8.2-3.3-12.7c3.1-13.5,11.7-48.8,11.7-48.8
			l2,0.7c0,0-8.1,35.2-11.2,48.7c-0.8,3.7,0.2,7.6,2.7,10.4c1.7,1.9,4.1,3.8,7.2,5.4c0.4,0.2,0.9,0.2,1.3,0
			C113.67,496.93,114.17,495.93,114.27,493.93z"/>
		<path d="M122.57,478.23c-0.8-0.8-1.5-1.5-1.9-2.3c-0.9-1.6-1-3.2-0.3-4.6c0.8-1.6,1.9-2.5,3-2.8c1.3-0.4,2.8,0,3.8,0.9
			s1.7,2.2,1.7,3.6c0,2-0.9,3.7-2.1,5.1c0.7,0.4,1.4,0.7,2.2,1.1c0.7,0.3,1,1,0.7,1.7s-1,1-1.7,0.7c-1.2-0.5-2.3-1.1-3.2-1.7
			c-0.7,0.5-1.5,1-2.3,1.4c-4.8,2.4-10.7,3.2-10.7,3.2c-0.7,0.1-1.3-0.4-1.4-1.1c-0.1-0.7,0.4-1.3,1.1-1.4c0,0,5.4-0.7,9.8-2.9
			C121.77,478.73,122.17,478.53,122.57,478.23z M124.67,476.63c1-1,1.6-2.2,1.7-3.7c0-0.6-0.3-1.1-0.8-1.5c-0.4-0.3-1-0.6-1.5-0.4
			c-0.5,0.1-1,0.6-1.3,1.4c-0.4,0.9-0.1,2,0.7,3C123.77,475.83,124.17,476.23,124.67,476.63z"/>
		<path d="M148.77,445.13l-12.6,51.9c-0.2,0.7,0.2,1.4,0.9,1.6c0.7,0.2,1.4-0.2,1.6-0.9l12.4-51.7L148.77,445.13z"/>
	</g>
	<g>
		<g transform="matrix(0.864632,0.0195409,-0.0211597,0.936258,191.4,4.29742)">
			<path d="M169.12,31.3c-0.1-0.4,0-0.9,0.3-1.2c0.5-0.5,1-0.5,1.5-0.4c0.2,0.1,0.7,0.2,1,0.9c0,0.1,0.1,0.6,0.2,1.6
				c0.4,7.4,1.8,45.1,1.8,45.1l-2.9,0.1c0,0-1.4-37.7-1.8-45.1C169.12,31.8,169.12,31.4,169.12,31.3z M169.82,32.2
				c0.3,0.1,0.5,0.2,0.8,0.1C170.32,32.3,170.12,32.3,169.82,32.2z M170.72,32.3L170.72,32.3L170.72,32.3L170.72,32.3z M170.82,32.3
				L170.82,32.3L170.82,32.3L170.82,32.3z M170.92,32.3c0.2-0.1,0.5-0.2,0.7-0.4C171.42,32.1,171.12,32.2,170.92,32.3z"/>
		</g>
		<path d="M299.67,80.33h2.5c0,0-0.9-21.4-0.9-29.8c0-2.6,1.8-4.9,4.4-5.4c2.2-0.4,4.8-0.8,6.6-0.4c0.7,0.2,1.4,0.4,1.5,1
			s0,1.2-0.7,1.9c-1,1-2.8,2.1-5.9,3.4c-0.6,0.3-1,1-0.7,1.6s1,1,1.6,0.7c3.6-1.4,5.7-2.8,6.8-4c1.4-1.5,1.6-3,1.3-4.2
			c-0.4-1.5-1.6-2.5-3.5-2.9c-2.1-0.4-5-0.1-7.6,0.4c-3.8,0.7-6.4,4-6.4,7.9C298.87,58.83,299.67,80.23,299.67,80.33L299.67,80.33z"
			/>
		<path d="M322.77,59.93c-0.6-0.8-1.4-1.6-2.1-2.3c-4-3.7-9.1-6-9.1-6c-0.6-0.3-0.9-1-0.7-1.7c0.3-0.6,1-0.9,1.7-0.7
			c0,0,5.5,2.4,9.8,6.5c1,1,2,2,2.8,3.1c1.3-0.4,2.7-0.7,3.8-1.2c0.6-0.3,1.4,0,1.7,0.7c0.3,0.6,0,1.4-0.7,1.7
			c-1.1,0.4-2.3,0.7-3.5,1.1c0.8,1.6,1.2,3.4,1.1,5.2c-0.1,1.9-0.9,3.1-2,3.7c-1.6,1-3.8,0.8-5.2-0.5c-1.5-1.3-2.3-3.8-0.3-7.1
			C320.77,61.33,321.67,60.53,322.77,59.93z M324.17,62.03c-0.7,0.4-1.4,0.9-1.9,1.7c-1.1,1.8-1,3.2-0.2,4c0.6,0.5,1.5,0.7,2.2,0.3
			c0.5-0.3,0.7-0.9,0.8-1.7C325.17,64.73,324.77,63.33,324.17,62.03z"/>
		<g transform="matrix(1.12189,0,0,1.43652,-196.771,-169.43)">
			<path d="M448.69,154.91c0.8,0.8,1.7,1.6,3.6,1.4c2.4-0.2,3.9-1.8,3.9-4.3c0-0.5-0.5-0.9-1.1-0.9s-1.1,0.4-1.1,0.9
				c0,1.5-0.6,2.5-1.9,2.6c-0.9,0.1-1.2-0.4-1.5-0.8c-0.4-0.4-1.1-0.4-1.6-0.1C448.39,154.01,448.29,154.61,448.69,154.91z"/>
		</g>
		<g transform="matrix(1.12189,0,0,1.43652,-196.771,-169.43)">
			<path d="M449.29,144.41l0.2,3.9c0,0.5-0.5,0.9-1.1,0.9s-1.1-0.4-1.2-0.8l-0.2-3.9l0,0c0-2.6,2.1-4.5,4.6-4.5c2.4,0,4.6,2,4.6,4.5
				v3.6c0,0.5-0.5,0.9-1.1,0.9s-1.1-0.4-1.1-0.9v-3.6c0-0.8-0.3-1.5-0.8-2.1c-0.4-0.4-0.9-0.7-1.5-0.7s-1.1,0.3-1.5,0.7
				C449.59,142.81,449.29,143.61,449.29,144.41z"/>
		</g>
		<g transform="matrix(1.12189,0,0,1.43652,-181.23,-169.547)">
			<path d="M445.09,156.41c2.4,0,4.5-1.7,4.5-4.3v-7.6c0-2.6-2.1-4.5-4.6-4.5c-2.4,0-4.6,2-4.6,4.5l-0.1,4.2c0,0.5,0.5,0.9,1.1,0.9
				s1.1-0.4,1.1-0.9l0.1-4.2l0,0c0-0.8,0.3-1.5,0.8-2.1c0.4-0.4,0.9-0.7,1.5-0.7s1.1,0.3,1.5,0.7c0.5,0.5,0.8,1.3,0.8,2.1v7.6
				c0,1.4-0.9,2.6-2.2,2.6c-0.6,0-1.1,0.4-1.1,0.9S444.49,156.41,445.09,156.41z"/>
		</g>
		<g transform="matrix(1.12189,0,0,1.43652,-165.689,-169.664)">
			<path d="M443.09,144.51c0-2.6-2.1-4.5-4.6-4.5c-2.4,0-4.6,2-4.6,4.5v7.6c0,2.6,2.1,4.5,4.6,4.5c2.4,0,4.6-2,4.6-4.5V144.51z
				 M440.79,144.51v7.6c0,0.8-0.3,1.5-0.8,2.1c-0.4,0.4-0.9,0.7-1.5,0.7s-1.1-0.3-1.5-0.7c-0.5-0.5-0.8-1.3-0.8-2.1v-7.6
				c0-0.8,0.3-1.5,0.8-2.1c0.4-0.4,0.9-0.7,1.5-0.7s1.1,0.3,1.5,0.7C440.49,142.91,440.79,143.61,440.79,144.51z"/>
		</g>
		<g transform="matrix(1.12189,0,0,1.43652,-150.148,-169.781)">
			<path d="M436.49,144.51c0-2.6-2.1-4.5-4.6-4.5c-2.4,0-4.6,2-4.6,4.5v7.6c0,2.6,2.1,4.5,4.6,4.5c2.4,0,4.6-2,4.6-4.5V144.51z
				 M434.29,144.51v7.6c0,0.8-0.3,1.5-0.8,2.1c-0.4,0.4-0.9,0.7-1.5,0.7s-1.1-0.3-1.5-0.7c-0.5-0.5-0.8-1.3-0.8-2.1v-7.6
				c0-0.8,0.3-1.5,0.8-2.1c0.4-0.4,0.9-0.7,1.5-0.7s1.1,0.3,1.5,0.7C433.99,142.91,434.29,143.71,434.29,144.51z"/>
		</g>
	</g>
	<g>
		<path d="M175.57,229.73h3.3c0,0,15.5-16,26.7-22.3c0.6-0.4,0.8-1.1,0.5-1.8c-0.3-0.6-1.1-0.8-1.8-0.5
			c-12.6,7.2-19.8,14.9-26.7,22.4C176.97,228.03,175.57,229.73,175.57,229.73z"/>
		<path d="M195.77,177.73l7.8,28.9c0.2,0.7,0.9,1.1,1.6,0.9c0.7-0.2,1.1-0.9,0.9-1.6l-7.8-28.9c-0.2-0.7-0.9-1.1-1.6-0.9
			C195.97,176.33,195.57,177.03,195.77,177.73z"/>
		<g transform="matrix(1,0,0,1,0.776233,2.47589)">
			<path d="M239.77,188.33l-7.4,4.4c-0.6,0.4-0.8,1.1-0.5,1.8c0.4,0.6,1.1,0.8,1.8,0.5l6.2-3.4L239.77,188.33z"/>
		</g>
		<path d="M236.07,199.73l-7.6-14.3c-0.3-0.6-1.1-0.9-1.7-0.5c-0.6,0.3-0.9,1.1-0.5,1.7l7.6,14.3c0.3,0.6,1.1,0.9,1.7,0.5
			C236.17,201.13,236.37,200.33,236.07,199.73z"/>
		<path d="M210.27,188.93c5.8,1,10.7,0,16.3-2.1c4.9-1.8,7.7-6.8,6.7-11.9c-1.5-7.6-3.8-14.8-6.5-21.9c-0.3-0.7-1-1-1.7-0.7
			s-1,1-0.7,1.7c2.7,6.9,4.9,14.1,6.4,21.5c0.7,3.8-1.4,7.6-5.1,9c-5.1,1.9-9.7,2.8-15,1.9c-0.7-0.1-1.4,0.4-1.5,1.1
			C209.17,188.13,209.57,188.83,210.27,188.93z"/>
		<g transform="matrix(0.750969,0,0,1.05127,278.608,-32.7492)">
			<path d="M-84.56,197.12c-0.2,1,0.4,2.6,2.5,3.5c1.2,0.5,3,0.8,5.5,0.6c0.9-0.1,1.5-0.7,1.3-1.3c-0.1-0.6-1-1.1-1.8-1
				c-3.4,0.4-4.5-0.8-4.4-1.5c0.1-0.6-0.5-1.2-1.4-1.3C-83.66,196.12-84.46,196.52-84.56,197.12z"/>
		</g>
		<g transform="matrix(0.750969,0,0,1.05127,278.608,-32.7492)">
			<path d="M-76.56,201.22c2.8-0.3,3.9-1.9,3.8-3.4c0-1-0.7-2-1.5-2.4c-0.9-0.5-4-1.2-6.4-0.9c-2,0.2-3.6,1.1-3.9,2.7
				c-0.1,0.6,0.5,1.2,1.4,1.3c0.9,0.1,1.7-0.4,1.8-1c0.1-0.7,1.1-0.8,2-0.8c1.3,0,2.7,0.2,3.1,0.5c0.2,0.1,0.3,0.4,0.3,0.7
				c0,0.5-0.2,1-1.1,1.1c-0.9,0.1-1.5,0.7-1.3,1.3C-78.26,200.92-77.46,201.32-76.56,201.22z"/>
		</g>
		<path d="M199.57,167.73c0,0-2.9-0.9-5.3-0.4c-1.9,0.4-3.5,1.6-3.7,4.3c-0.1,1.6,0.4,3.4,1.9,4.7c1.4,1.2,3.6,2.1,7.1,1.9
			c0.7,0,1.2-0.6,1.1-1.3c0-0.7-0.6-1.2-1.3-1.1c-4.9,0.3-6.6-2.1-6.5-4c0.1-0.7,0.2-1.2,0.6-1.5c0.5-0.5,1.3-0.7,2.1-0.7
			c1.6-0.1,3.1,0.4,3.1,0.4c0.6,0.2,1.3-0.2,1.5-0.8C200.57,168.63,200.27,167.93,199.57,167.73z"/>
	</g>
	<g>
		<path class="st1" d="M216.47,311.93l50.7-29.7c0,0,108-10.1,107.6,200.3l10.1,241.6l-86.8-7.2l-32.4-262.5l-66.3,244.3l-72.5,16.2
			C126.87,714.93,147.37,349.73,216.47,311.93z"/>
		<g>
			<path class="st3" d="M279.37,283.03c7.4,1.1,13.6,3.2,17.6,5.1l14.8,24.5l0,0c0.1,0.2,0.3,0.5,0.3,0.8v0.1
				c0.1,0.3,0.1,0.6,0.1,0.9v0.1c0,0.7-0.2,1.3-0.5,1.8s-0.7,1-1.3,1.3l0,0c-0.2,0.1-0.5,0.3-0.8,0.3h-0.1c-0.3,0.1-0.6,0.1-0.9,0.1
				h-0.1h-44c-1.3,0-2.6-0.7-3.2-1.9c-0.7-1.2-0.6-2.6,0.1-3.7L279.37,283.03z M302.07,310.83l-15.5-25.6l-15.5,25.6H302.07z"/>
			<g transform="matrix(1.23741,-0.337024,0.32016,1.17549,-579.215,255.958)">
				<path class="st3" d="M647.13,273.89h-34.3c-1.6,0-2.9,1.4-2.9,3c0,1.7,1.3,3,2.9,3h34.3c1.6,0,2.9-1.4,2.9-3
					S648.73,273.89,647.13,273.89z"/>
			</g>
			<g transform="matrix(1.23741,-0.337024,0.32016,1.17549,-579.215,255.958)">
				<path class="st3" d="M629.93,252.89l-14.7,25.6c-0.8,1.4-2.6,1.9-4,1s-1.8-2.7-1-4.2l17.1-29.9c0.5-0.9,1.5-1.5,2.5-1.5
					s1.9,0.6,2.5,1.5l17.2,29.9c0.8,1.4,0.4,3.3-1,4.2s-3.1,0.4-3.9-1L629.93,252.89z"/>
			</g>
			<g transform="matrix(1.10535,-0.650357,0.617814,1.05004,-815.355,722.939)">
				<path class="st3" d="M874.38,169.4h-34.3c-1.6,0-2.9,1.4-2.9,3c0,1.7,1.3,3,2.9,3h34.3c1.6,0,2.9-1.4,2.9-3
					C877.18,170.8,875.98,169.4,874.38,169.4z"/>
			</g>
			<g transform="matrix(1.10535,-0.650357,0.617814,1.05004,-815.355,722.939)">
				<path class="st3" d="M858.28,146.2l-15.8,27.8c-0.8,1.4-2.6,1.9-4,1s-1.8-2.7-1-4.2l17.3-30.6c0.4-0.8,1.8-1.5,2.6-1.6
					c0.8-0.1,1.9,0,3,0.9c1.8,1.4,2.7,3.7,2.7,3.7c0.3,0.3,0.8,1.6,1,2l12.7,25.9c0.7,1.5,0.2,3.3-1.2,4.1c-1.4,0.8-3.1,0.2-3.9-1.3
					l-12.4-25.3L858.28,146.2z"/>
			</g>
			<path class="st3" d="M257.17,288.13l-8.7,19.7v0.1c-0.1,0.3-0.3,0.5-0.5,0.7l-0.1,0.1c-0.2,0.2-0.4,0.4-0.6,0.6l0,0
				c-0.5,0.4-1.1,0.6-1.8,0.6c-0.6,0.1-1.2,0-1.9-0.3l0,0c-0.3-0.1-0.5-0.3-0.7-0.5l-0.1-0.1c-0.2-0.2-0.4-0.4-0.6-0.6l0,0l-5.7-8.2
				l6.4-3.7l1.6,2.3l1.9-4.3L257.17,288.13z"/>
			<path class="st3" d="M171.47,397.53l29.4,27.3l0,0c0.2,0.2,0.4,0.4,0.6,0.7l0.1,0.1c0.1,0.3,0.3,0.5,0.3,0.8v0.1
				c0.2,0.6,0.2,1.3,0,1.9c-0.1,0.6-0.4,1.2-0.9,1.7l0,0c-0.2,0.2-0.4,0.4-0.7,0.6l-0.1,0.1c-0.3,0.1-0.5,0.3-0.8,0.3h-0.1
				l-38.8,11.1c0.5-2.4,1.2-5.2,1.9-8.2l28.7-8.3l-21.8-20.3C170.07,402.23,170.97,399.53,171.47,397.53z"/>
			<g transform="matrix(-1.1208,-0.623357,0.592165,-1.06471,1940.91,2919.31)">
				<path class="st3" d="M2111.62,1109.19l17.2,29.9c0.8,1.4,2.6,1.9,3.9,1c1.4-0.9,1.8-2.7,1-4.2l-17.2-29.9
					c-0.8-1.4-2.6-1.9-3.9-1C2111.22,1105.89,2110.82,1107.69,2111.62,1109.19z"/>
			</g>
			<g transform="matrix(-1.1208,-0.623357,0.592165,-1.06471,1940.91,2919.31)">
				<path class="st3" d="M2131.22,1134.39h-34.3c-1.6,0-2.9,1.4-2.9,3c0,1.7,1.3,3,2.9,3h34.3c1.6,0,2.9-1.4,2.9-3
					S2132.82,1134.39,2131.22,1134.39z"/>
			</g>
			<g transform="matrix(-1.1208,-0.623357,0.592165,-1.06471,1940.91,2919.31)">
				<path class="st3" d="M2099.42,1138.99l17.1-29.9c0.8-1.4,0.4-3.3-1-4.2c-1.4-0.9-3.1-0.4-4,1l-17.1,29.9c-0.8,1.4-0.4,3.3,1,4.2
					C2096.82,1140.89,2098.52,1140.39,2099.42,1138.99z"/>
			</g>
			<path class="st3" d="M355.37,355.23c-5.5,5.3-12.1,11.7-18.5,17.9c-0.2,0.2-0.5,0.4-0.7,0.6h-0.1c-0.3,0.2-0.6,0.3-0.9,0.4
				c-0.6,0.2-1.3,0.1-1.8,0c-0.6-0.2-1.1-0.5-1.6-0.9c-0.2-0.2-0.5-0.5-0.6-0.8l0,0c-0.2-0.3-0.3-0.5-0.3-0.8l-11.6-40.9v-0.1
				c-0.1-0.3-0.1-0.6-0.1-0.9v-0.2c0-0.3,0-0.6,0.1-0.9v-0.1c0.2-0.6,0.5-1.2,0.9-1.6s1-0.8,1.6-1h0.1c0.3-0.1,0.6-0.1,0.9-0.1h0.1
				h0.1c0.3,0,0.6,0,0.9,0.1h0.1l20.1,5.8c1.5,2.4,3.3,5.6,4.9,8.9l-20.9-5.7l8.2,28.6c5.7-5.6,11.3-11,16.1-15.5
				C353.57,350.53,354.57,353.23,355.37,355.23z"/>
			<g transform="matrix(-1.12084,-0.623269,0.592082,-1.06476,2087.48,2938.42)">
				<path class="st3" d="M2152.63,1113.33h29.2c1.6,0,2.9,1.4,2.9,3c0,1.7-1.3,3-2.9,3h-34.3c-1,0-2-0.6-2.5-1.5
					c-0.5-1-0.5-2.1,0-3.1l17.1-29.9c0.8-1.4,2.6-1.9,4-1c1.4,0.9,1.8,2.7,1,4.2L2152.63,1113.33z"/>
			</g>
			<g transform="matrix(-1.12084,-0.623269,0.592082,-1.06476,2087.48,2938.42)">
				<path class="st3" d="M2162.23,1088.13l17.2,29.9c0.8,1.4,2.6,1.9,3.9,1c1.4-0.9,1.8-2.7,1-4.2l-17.2-29.9
					c-0.8-1.4-2.6-1.9-3.9-1C2161.83,1084.83,2161.43,1086.63,2162.23,1088.13z"/>
			</g>
			<path class="st3" d="M267.27,468.43l4.8-23.2l0.1-0.3l0.1-0.3l0.1-0.2l0.1-0.3l0.2-0.3l0.2-0.2l0.2-0.2c0,0,0,0,0.1-0.1
				c0.4-0.5,1-0.8,1.5-1h0.1c0.6-0.2,1.2-0.2,1.8-0.1l0.3,0.1l0.3,0.1l0.2,0.1l0.3,0.1l0.3,0.2l0.2,0.2l0.2,0.2c0,0,0,0,0.1,0
				l32.2,29.9l0.2,0.2l0.2,0.2l0.1,0.2l0.2,0.2l0.1,0.3l0.1,0.3l0.1,0.2c0,0,0,0,0,0.1c0.2,0.6,0.2,1.2,0,1.8v0.1
				c-0.1,0.6-0.4,1.1-0.9,1.6l-0.2,0.2l-0.2,0.2l-0.2,0.1l-0.2,0.2l-0.3,0.1l-0.3,0.1l-0.2,0.1c0,0,0,0-0.1,0l-39,11.3
				L267.27,468.43z M271.87,482.43l28.7-8.2l-22.6-21L271.87,482.43z"/>
			<path class="st3" d="M374.27,457.63l-24.7,22.3c-1,0.9-2.3,1.1-3.5,0.8c-1.2-0.4-2.2-1.4-2.5-2.6l-10.3-41.3v-0.1
				c-0.1-0.3-0.1-0.6-0.1-0.9v-0.2c0-0.3,0.1-0.6,0.1-0.9v-0.1c0.2-0.6,0.5-1.2,1-1.6c0.4-0.4,1-0.7,1.6-0.9h0.1
				c0.3-0.1,0.6-0.1,0.9-0.1h0.2c0.3,0,0.6,0.1,0.9,0.1h0.1l35.5,10.8L374.27,457.63z M349.27,470.43l22.3-19.8l-29.5-9.1
				L349.27,470.43z"/>
			<path class="st3" d="M364.17,382.53c0.5,2.1,1.1,4.6,1.7,7.2l-5.2,1.7l6.8,5.9c0.9,4.7,1.7,9,2.1,11.7l-18.7-16.3l0,0
				c-0.2-0.2-0.4-0.4-0.6-0.7l-0.1-0.1c-0.2-0.3-0.3-0.5-0.4-0.8v-0.1c-0.2-0.6-0.2-1.3-0.1-1.9c0.1-0.6,0.4-1.2,0.8-1.7l0,0
				c0.2-0.2,0.4-0.4,0.7-0.6l0.1-0.1c0.2-0.2,0.5-0.3,0.8-0.4h0.1L364.17,382.53z"/>
			<path class="st3" d="M274.37,525.43l6.6-8.7l0,0c0.2-0.2,0.4-0.4,0.6-0.6l0.1-0.1c0.2-0.2,0.5-0.3,0.8-0.4l0,0l0,0
				c0.6-0.2,1.2-0.3,1.9-0.2c0.6,0.1,1.2,0.3,1.7,0.7l0,0c0.2,0.2,0.4,0.4,0.6,0.6l0.1,0.1c0.2,0.2,0.3,0.5,0.4,0.8v0.1l15.5,39.6
				c0.1,0.3,0.2,0.5,0.2,0.8v0.1c0,0.3,0,0.7,0,1c-0.1,0.6-0.3,1.2-0.7,1.7l0,0c-0.4,0.5-0.9,0.9-1.4,1.1c-0.3,0.1-0.6,0.2-0.9,0.3
				h-0.1c-0.3,0-0.6,0-0.9,0l-20.4-2.2l-0.9-7.5l16.1,1.8l-10.9-27.8l-7.2,9.4L274.37,525.43z"/>
			<g transform="matrix(0.68513,1.08414,-1.02989,0.650848,1540.85,-539.827)">
				<path class="st3" d="M247.91,1330.65l-14.5-25.3c-0.8-1.4-0.4-3.3,1-4.2s3.1-0.4,3.9,1l17.2,29.9c0.5,0.9,0.6,2.1,0,3.1
					c-0.5,0.9-1.5,1.5-2.5,1.5h-34.3c-1.6,0-2.9-1.4-2.9-3c0-1.7,1.3-3,2.9-3H247.91z"/>
			</g>
			<g transform="matrix(0.68513,1.08414,-1.02989,0.650848,1540.85,-539.827)">
				<path class="st3" d="M221.11,1335.25l17.1-29.9c0.8-1.4,0.4-3.3-1-4.2s-3.1-0.4-4,1l-17.1,29.9c-0.8,1.4-0.4,3.3,1,4.2
					S220.31,1336.65,221.11,1335.25z"/>
			</g>
			<path class="st3" d="M376.57,527.03l0.4,8.9l-7.8,5.7l8.2,3.5l0.3,8.2l-17.4-7.4h-0.1c-0.3-0.1-0.5-0.3-0.7-0.4l-0.1-0.1
				c-0.2-0.2-0.4-0.4-0.6-0.6l0,0c-0.4-0.5-0.6-1.1-0.7-1.7c-0.1-0.6,0-1.2,0.3-1.9l0,0c0.1-0.3,0.3-0.5,0.4-0.8l0.1-0.1
				c0.2-0.2,0.4-0.4,0.6-0.6l0,0L376.57,527.03z"/>
			<path class="st3" d="M381.57,645.53l-30.4,6.5h-0.1c-0.3,0.1-0.6,0.1-0.9,0.1h-0.2c-0.3,0-0.6-0.1-0.9-0.2h-0.1
				c-0.6-0.2-1.1-0.6-1.6-1c-0.4-0.5-0.7-1-0.8-1.7v-0.1c-0.1-0.3-0.1-0.6-0.1-0.9v-0.2c0-0.3,0.1-0.6,0.2-0.9l0,0l13.9-40.1
				c0.1-0.3,0.2-0.5,0.4-0.8l0.1-0.1c0.2-0.3,0.4-0.5,0.6-0.7c0.5-0.4,1-0.7,1.6-0.8l0,0c0.6-0.1,1.2-0.1,1.8,0.1
				c0.3,0.1,0.6,0.2,0.9,0.4l0.1,0.1c0.2,0.2,0.5,0.4,0.7,0.6l13.5,14.3l0.5,11.3l-15.2-16.1l-9.8,28.2l25.2-5.4L381.57,645.53z"/>
			<path class="st3" d="M289.57,648.73l27.6-14c0.3-0.1,0.5-0.2,0.8-0.3h0.1c0.3-0.1,0.6-0.1,1-0.1c0.6,0,1.2,0.2,1.8,0.5l0,0
				c0.5,0.3,1,0.8,1.3,1.3c0.2,0.3,0.3,0.6,0.4,0.9v0.1c0.1,0.3,0.1,0.6,0.1,0.9l-0.6,42.5c0,1.3-0.8,2.5-1.9,3.2
				c-1.2,0.6-2.6,0.6-3.7-0.1l-24.4-15.2l-1.2-9.4l23.9,14.9l0.4-29.9l-24.6,12.5L289.57,648.73z"/>
			<path class="st3" d="M281.77,585.23l33,22.1c0.2,0.2,0.5,0.3,0.7,0.6l0.1,0.1c0.2,0.2,0.4,0.5,0.5,0.8c0.3,0.6,0.4,1.2,0.4,1.8
				l0,0c0,0.6-0.2,1.2-0.5,1.8c-0.2,0.3-0.4,0.5-0.6,0.8l-0.1,0.1c-0.2,0.2-0.5,0.4-0.7,0.5l-27.2,14.8l-1-7.9l19.4-10.6l-22.6-15.1
				L281.77,585.23z"/>
			<path class="st3" d="M294.97,692.63c0.2,0,0.3,0.1,0.5,0.1h0.1l40.6,12.5c0.3,0.1,0.5,0.2,0.8,0.3l0.1,0.1
				c0.3,0.2,0.5,0.4,0.8,0.6c0.4,0.5,0.7,1,0.9,1.6l0,0c0.1,0.6,0.1,1.2,0,1.8c-0.1,0.3-0.2,0.6-0.4,0.9l-0.1,0.1
				c-0.2,0.3-0.3,0.5-0.5,0.7l-8,8.1l-9.6-0.8l8.1-8.1l-28.6-8.8l3.9,15.5l-5.5-0.5L294.97,692.63z"/>
			<path class="st3" d="M383.47,692.33l-24.9,21.3c-0.2,0.2-0.5,0.3-0.7,0.5h-0.1c-0.3,0.1-0.6,0.2-0.9,0.3
				c-0.6,0.1-1.3,0.1-1.8-0.1l0,0c-0.6-0.2-1.1-0.5-1.5-1c-0.2-0.2-0.4-0.5-0.6-0.8v-0.1c-0.1-0.3-0.2-0.5-0.3-0.8l-9.5-41.4v-0.1
				c-0.1-0.3-0.1-0.6-0.1-0.9v-0.2c0-0.3,0.1-0.6,0.2-0.9v-0.1c0.2-0.6,0.6-1.2,1-1.6c0.5-0.4,1-0.7,1.7-0.9h0.1
				c0.3-0.1,0.6-0.1,0.9-0.1h0.2c0.3,0,0.6,0.1,0.9,0.2h0.1l35,11.6L383.47,692.33z M351.77,674.93l6.6,29.1l22.7-19.4
				L351.77,674.93z"/>
			<g transform="matrix(-0.438251,1.20528,-1.14497,-0.416322,3017.64,251.042)">
				<path class="st3" d="M906.21,1982.85l-14.7,25.6c-0.8,1.4-2.6,1.9-4,1s-1.8-2.7-1-4.2l17.1-29.9c0.5-0.9,1.5-1.5,2.5-1.5
					s1.9,0.6,2.5,1.5l17.2,29.9c0.8,1.4,0.4,3.3-1,4.2c-1.4,0.9-3.1,0.4-3.9-1L906.21,1982.85z"/>
			</g>
			<g transform="matrix(-0.438251,1.20528,-1.14497,-0.416322,3017.64,251.042)">
				<path class="st3" d="M923.41,2003.85h-34.3c-1.6,0-2.9,1.4-2.9,3c0,1.7,1.3,3,2.9,3h34.3c1.6,0,2.9-1.4,2.9-3
					C926.31,2005.15,925.01,2003.85,923.41,2003.85z"/>
			</g>
			<path class="st3" d="M259.57,476.33l-31.9,1.2c-0.3,0-0.6,0-0.9-0.1h-0.1c-0.3-0.1-0.6-0.2-0.9-0.3c-0.6-0.3-1-0.7-1.4-1.2l0,0
				c-0.3-0.5-0.5-1.1-0.6-1.7c0-0.3,0-0.6,0.1-1v-0.1c0.1-0.3,0.2-0.6,0.3-0.8l18.3-38.3l0,0c0.1-0.3,0.3-0.5,0.5-0.7l0.1-0.1
				c0.2-0.2,0.4-0.4,0.7-0.6l0,0c0.5-0.4,1.2-0.6,1.8-0.6s1.2,0.1,1.8,0.4l0,0c0.3,0.1,0.5,0.3,0.7,0.5l0.1,0.1
				c0.2,0.2,0.4,0.4,0.6,0.7l0,0l15.8,24l-2.6,9.5l-15.8-24l-12.9,26.9l28.1-1L259.57,476.33z"/>
			<g transform="matrix(-0.427569,-1.20911,1.14861,-0.406175,456.55,3118.97)">
				<path class="st3" d="M2009.16,502.81l17.2,29.9c0.8,1.4,2.6,1.9,3.9,1c1.4-0.9,1.8-2.7,1-4.2l-17.2-29.9c-0.8-1.4-2.6-1.9-3.9-1
					C2008.76,499.51,2008.36,501.31,2009.16,502.81z"/>
			</g>
			<g transform="matrix(-0.427569,-1.20911,1.14861,-0.406175,456.55,3118.97)">
				<path class="st3" d="M1999.56,528.01h29.2c1.6,0,2.9,1.4,2.9,3c0,1.7-1.3,3-2.9,3h-34.3c-1,0-2-0.6-2.5-1.5
					c-0.5-1-0.5-2.1,0-3.1l17.1-29.9c0.8-1.4,2.6-1.9,4-1s1.8,2.7,1,4.2L1999.56,528.01z"/>
			</g>
			<path class="st3" d="M151.97,488.13l24.4,32.1c0.8,1.1,1,2.5,0.4,3.7c-0.5,1.2-1.7,2.1-3,2.2l-28.4,3.4l1.3-8.3l19.8-1.8
				l-16.1-21.9L151.97,488.13z"/>
			<g transform="matrix(-1.04525,-0.743114,0.70593,-0.992944,1674.6,3245.22)">
				<path class="st3" d="M2160.3,1094.65c-0.5-0.9-1.5-1.5-2.5-1.5s-1.9,0.6-2.5,1.5l-17.1,29.9c-0.5,0.9-0.6,2.1,0,3.1
					c0.5,0.9,1.5,1.5,2.5,1.5h34.3c1,0,2-0.6,2.5-1.5c0.5-1,0.5-2.1,0-3.1L2160.3,1094.65z M2157.8,1102.05l-12,21h24.1
					L2157.8,1102.05z"/>
			</g>
			<path class="st3" d="M226.67,597.93l-11.7,18.2c-0.2,0.2-0.3,0.5-0.5,0.7l-0.1,0.1c-0.2,0.2-0.5,0.4-0.8,0.6
				c-0.6,0.3-1.2,0.4-1.8,0.4l0,0c-0.6,0-1.2-0.2-1.8-0.5c-0.3-0.2-0.5-0.4-0.8-0.6l-0.1-0.1c-0.2-0.2-0.4-0.4-0.5-0.7l-21-36.9
				c-0.7-1.2-0.6-2.6,0-3.7c0.7-1.1,1.9-1.8,3.3-1.8l42.1,1.1L226.67,597.93z M212.07,607.03l16.1-25.1l-30.9-0.8L212.07,607.03z"/>
			<g transform="matrix(1.28006,-0.0787385,0.0747986,1.21601,-592.497,417.707)">
				<path class="st3" d="M586.53,194.67l17.2,29.9c0.8,1.4,2.6,1.9,3.9,1c1.4-0.9,1.8-2.7,1-4.2l-17.2-29.9c-0.8-1.4-2.6-1.9-3.9-1
					C586.13,191.37,585.73,193.27,586.53,194.67z"/>
			</g>
			<g transform="matrix(1.28006,-0.0787385,0.0747986,1.21601,-592.497,417.707)">
				<path class="st3" d="M576.93,219.97h29.2c1.6,0,2.9,1.4,2.9,3c0,1.7-1.3,3-2.9,3l-34.3,0c-1,0-2-0.6-2.5-1.5
					c-0.5-1-0.5-2.1,0-3.1l17.1-29.9c0.8-1.4,2.6-1.9,4-1s1.8,2.7,1,4.2L576.93,219.97z"/>
			</g>
			<path class="st3" d="M207.97,666.93l-2,7.5l-22.9,1.6l14.6,23l-8,1.7l-16-26.1c-0.2-0.2-0.3-0.5-0.4-0.8v-0.1
				c-0.1-0.3-0.1-0.6-0.2-1c0-0.6,0.1-1.3,0.4-1.8l0,0c0.3-0.5,0.7-1,1.2-1.4c0.3-0.2,0.6-0.3,0.9-0.4h0.1c0.3-0.1,0.6-0.1,0.9-0.2
				L207.97,666.93z"/>
			<g transform="matrix(-0.680783,-1.08687,1.03249,-0.646718,771.529,3596.04)">
				<path class="st3" d="M2207.43,836.55h-34.3c-1.6,0-2.9,1.4-2.9,3c0,1.7,1.3,3,2.9,3h34.3c1.6,0,2.9-1.4,2.9-3
					C2210.23,837.95,2209.03,836.55,2207.43,836.55z"/>
			</g>
			<path class="st3" d="M128.67,687.93l30.3-0.5c2,0,3.7,1.6,3.7,3.6s-1.6,3.7-3.6,3.7l-31,0.5
				C128.27,693.13,128.47,690.73,128.67,687.93z M131.47,654.03l0.9-1.8c0.9-1.8,3.1-2.6,5-1.6c1.8,0.9,2.6,3.1,1.6,5l-9.2,18.2
				C130.27,667.93,130.77,661.33,131.47,654.03z"/>
			<path class="st3" d="M141.07,563.93l21.3-5.8h0.1c0.3-0.1,0.6-0.1,0.9-0.1h0.1h0.1c0.3,0,0.6,0.1,0.9,0.1h0.1
				c0.6,0.2,1.2,0.5,1.6,1c0.4,0.4,0.8,1,0.9,1.6l0,0c0.1,0.3,0.1,0.6,0.1,0.9v0.2c0,0.3-0.1,0.6-0.1,0.9v0.1l-12.1,42.3
				c-0.4,1.3-1.4,2.3-2.7,2.6s-2.7-0.1-3.6-1.1l-11.1-11.9l1.1-9.6l10.9,11.7l8.5-29.7l-17.8,4.9L141.07,563.93z"/>
		</g>
		<path class="st3" d="M195.57,335.13l8.6,42.3v0.1c0.1,0.3,0.1,0.6,0.1,0.9v0.2c0,0.3-0.1,0.6-0.2,0.8v0.1
			c-0.2,0.6-0.6,1.1-1.1,1.6c-0.5,0.4-1,0.7-1.7,0.8h-0.1c-0.3,0.1-0.6,0.1-0.9,0.1h-0.2c-0.3,0-0.6-0.1-0.9-0.2h-0.1l-20.7-7.4
			c0.9-2.4,1.7-4.7,2.5-6.9l14.5,5.2l-5.5-26.8C192.27,341.03,194.17,337.63,195.57,335.13z"/>
		<path class="st4" d="M265.67,455.73c0,0,7.8-24.8,15.2-48.7c0.5-1.7,2.3-2.8,4.1-2.4c1.8,0.4,2.9,2.1,2.7,3.9
			c-6.5,42.9-15.3,101-15.3,101L265.67,455.73z"/>
	</g>
	<g>
		<path class="st5" d="M185.47,756.13l11.5-56.9l2.5-0.6l-11.1,59.5c-0.2,0.8-0.9,1.4-1.7,1.3l-6.2-0.5c-0.8-0.1-1.4-0.7-1.4-1.4
			l-1.7-20.1l-65.1,20.8c-0.5,0.2-1.1,0-1.5-0.3c-0.4-0.4-0.6-0.9-0.5-1.5c2-9.9,11.7-15.3,14.8-16.8l1.9-24.6l3-0.6l-1.8,26.4
			c0,0.6-0.4,1.1-1,1.4c0,0-9.6,3.9-13,12.2l64.1-20.5c0.5-0.1,1-0.1,1.4,0.2s0.7,0.7,0.7,1.2l1.7,20.7L185.47,756.13z"/>
		<g transform="matrix(1,0,0,1,-1.38968,-16.0721)">
			<path class="st5" d="M319.97,747.83l-2.1,26.5c0,0.4-0.3,0.9-0.6,1.1c-0.4,0.3-0.8,0.4-1.3,0.3l-9.7-1.9
				c-0.7-0.1-1.2-0.7-1.3-1.3l-5.7-39.9l3.3,0.4l5.4,37.9l6.8,1.3l2.2-26.9c0-0.5,0.3-1,0.8-1.2c0.4-0.3,1-0.3,1.4-0.1l77.7,33.9
				c-0.3-3.1-2-9.1-9.4-13.9c-0.4-0.3-0.7-0.7-0.7-1.1l-3.7-23.1l3.2,0.3l3.6,21.7c11.9,8.1,10.3,18.8,10.3,18.8
				c-0.1,0.5-0.4,0.9-0.8,1.2c-0.4,0.2-1,0.3-1.4,0.1L319.97,747.83z"/>
		</g>
	</g>
	<g>
		<path class="st5" d="M192.27,156.93c-0.5,4.3,0.3,7.6,1.6,10.5c1.2-0.3,2.4-0.4,3.4-0.2c-0.8-5.2-0.6-9.8,1.3-13.5
			C195.97,154.33,193.97,155.43,192.27,156.93z"/>
		<path class="st5" d="M192.37,157.03c0,0-9.9-18.4-1.7-21.3c0,0,7.3-1.2,5,16.1c0,0,4.1-17.3,10.3-14.6c1,0.4,3.1,3.1-0.2,8.5
			c-1.4,2.2-3.4,5.3-7.2,8.2L192.37,157.03z"/>
	</g>
	<g>
		<path class="st1" d="M215.67,149.83c0,0,0.5,10.9-15.5,16.8c-0.8,0.3-1.2,1.2-0.9,2s1.2,1.2,2,0.9c18.6-6.9,17.6-20,17.6-20
			c-0.1-0.9-0.8-1.5-1.7-1.5C216.27,148.23,215.57,148.93,215.67,149.83z"/>
		<path class="st1" d="M223.17,151.13c-2.2-3.9-6.9-5.8-11.4-4.5c-4.3,1.3-12.8,6.8-12.8,6.8l6.3-7.1c0,0,0.7-1.2,5.6-2.7
			c6.6-2,13.6,1.5,16,8c0.2,0.4,0.3,0.7,0.3,0.7c0.2,0.5,0.1,1-0.1,1.4c-0.3,0.4-0.7,0.7-1.2,0.7c-4.9,0.6-9.6-3.5-9.6-3.5
			c-0.7-0.6-0.7-1.6-0.2-2.2c0.6-0.7,1.6-0.7,2.2-0.2C218.27,148.53,220.47,150.43,223.17,151.13z"/>
	</g>
</g>
<g>
	<path class="st6" d="M673.67,423.43h-265.9v314.3c0,2.7,1.1,5.1,2.9,6.9c1.8,1.8,4.2,2.9,6.9,2.9h246.2c2.7,0,5.1-1.1,6.9-2.9
		c1.8-1.8,2.9-4.2,2.9-6.9L673.67,423.43L673.67,423.43z M463.77,476.93c19.7-19.7,46.9-31.9,76.9-31.9s57.2,12.2,76.9,31.9
		c19.7,19.7,31.9,46.9,31.9,76.9s-12.2,57.2-31.9,76.9c-19.7,19.7-46.9,31.9-76.9,31.9s-57.2-12.2-76.9-31.9
		c-19.7-19.7-31.9-46.9-31.9-76.9C431.97,523.83,444.07,496.63,463.77,476.93z"/>
	<path class="st6" d="M462.67,404.03c1.3,0,2.4,1.1,2.4,2.4c0,1.3-1.1,2.4-2.4,2.4h-44.8c-1.3,0-2.4-1.1-2.4-2.4
		c0-1.3,1.1-2.4,2.4-2.4H462.67L462.67,404.03z M663.87,377.33h-246.2c-2.7,0-5.1,1.1-6.9,2.9c-1.8,1.8-2.9,4.2-2.9,6.9v31.4h265.9
		v-31.4c0-2.7-1.1-5.1-2.9-6.9C668.97,378.43,666.57,377.33,663.87,377.33L663.87,377.33z M462.67,399.13h-44.8
		c-1.3,0-2.4-1.1-2.4-2.4c0-1.3,1.1-2.4,2.4-2.4h44.8c1.3,0,2.4,1.1,2.4,2.4C465.17,398.03,464.07,399.13,462.67,399.13
		L462.67,399.13z M462.67,389.33h-44.8c-1.3,0-2.4-1.1-2.4-2.4c0-1.3,1.1-2.4,2.4-2.4h44.8c1.3,0,2.4,1.1,2.4,2.4
		C465.17,388.23,464.07,389.33,462.67,389.33L462.67,389.33z M525.37,398.23c0-3.8,1.6-7.3,4.1-9.8s6-4.1,9.8-4.1s7.3,1.6,9.8,4.1
		s4.1,6,4.1,9.8s-1.6,7.3-4.1,9.8s-6,4.1-9.8,4.1s-7.3-1.6-9.8-4.1C526.87,405.53,525.37,402.03,525.37,398.23L525.37,398.23z
		 M569.17,401.23c0-0.6,0.2-1.1,0.6-1.5s0.9-0.6,1.5-0.6h5.4c0.6,0,1.1,0.2,1.5,0.6c0.4,0.4,0.6,0.9,0.6,1.5v5.2
		c0,0.6-0.2,1.1-0.6,1.5s-0.9,0.6-1.5,0.6h-5.4c-0.6,0-1.1-0.2-1.5-0.6c-0.4-0.4-0.6-0.9-0.6-1.5V401.23L569.17,401.23z
		 M581.87,401.23c0-0.6,0.2-1.1,0.6-1.5s0.9-0.6,1.5-0.6h5.4c0.6,0,1.1,0.2,1.5,0.6c0.4,0.4,0.6,0.9,0.6,1.5v5.2
		c0,0.6-0.2,1.1-0.6,1.5s-0.9,0.6-1.5,0.6h-5.4c-0.6,0-1.1-0.2-1.5-0.6c-0.4-0.4-0.6-0.9-0.6-1.5V401.23L581.87,401.23z
		 M594.77,401.23c0-0.6,0.2-1.1,0.6-1.5s0.9-0.6,1.5-0.6h5.4c0.6,0,1.1,0.2,1.5,0.6c0.4,0.4,0.6,0.9,0.6,1.5v5.2
		c0,0.6-0.2,1.1-0.6,1.5s-0.9,0.6-1.5,0.6h-5.4c-0.6,0-1.1-0.2-1.5-0.6c-0.4-0.4-0.6-0.9-0.6-1.5V401.23L594.77,401.23z
		 M607.77,399.73c0.4-0.4,0.9-0.6,1.5-0.6h5.4c0.6,0,1.1,0.2,1.5,0.6c0.4,0.4,0.6,0.9,0.6,1.5v5.2c0,0.6-0.2,1.1-0.6,1.5
		s-0.9,0.6-1.5,0.6h-5.4c-0.6,0-1.1-0.2-1.5-0.6c-0.4-0.4-0.6-0.9-0.6-1.5v-5.2C607.17,400.63,607.37,400.13,607.77,399.73z"/>
	<path class="st6" d="M540.67,449.93c-28.7,0-54.7,11.6-73.5,30.4c-18.8,18.8-30.4,44.8-30.4,73.5s11.6,54.7,30.4,73.5
		s44.8,30.4,73.5,30.4s54.7-11.6,73.5-30.4c18.8-18.8,30.4-44.8,30.4-73.5s-11.6-54.7-30.4-73.5
		C595.37,461.53,569.37,449.93,540.67,449.93L540.67,449.93z M484.27,497.43c14.4-14.4,34.4-23.4,56.4-23.4
		c17.2,0,33.2,5.5,46.2,14.8v-0.1l1.7,1.3c3,2.3,5.8,4.7,8.5,7.3c4.8,4.8,8.9,10.1,12.3,15.9c5.2,8.8,8.8,18.8,10.3,29.4l0.3,2.1
		h-0.1c0.3,3,0.5,6,0.5,9c0,22-8.9,42-23.4,56.4c-14.4,14.4-34.4,23.4-56.4,23.4s-42-8.9-56.4-23.4c-14.4-14.4-23.4-34.4-23.4-56.4
		S469.87,511.93,484.27,497.43z"/>
	<path class="st6" d="M528.97,398.23c0,2.8,1.1,5.4,3,7.3c1.9,1.9,4.4,3,7.3,3c2.8,0,5.4-1.1,7.3-3s3-4.4,3-7.3c0-2.8-1.1-5.4-3-7.3
		c-1.7-1.7-4-2.8-6.5-3v6.1c0,0.7-0.5,1.2-1.2,1.2s-1.2-0.5-1.2-1.2v-6c-2.1,0.4-4.1,1.4-5.5,2.9
		C530.17,392.83,528.97,395.33,528.97,398.23z"/>
	<path class="st6" d="M540.67,478.93c-20.7,0-39.4,8.4-53,21.9c-13.6,13.6-21.9,32.3-21.9,53c0,2.9,0.2,5.8,0.5,8.6
		c1.9,8,9.1,14,17.7,14c8.7,0,16-6.1,17.8-14.2h2.2c1.8,8.1,9.1,14.2,17.8,14.2c8.7,0,16-6.1,17.8-14.2h2.2
		c1.8,8.1,9.1,14.2,17.8,14.2c8.7,0,16-6.1,17.8-14.2h2.2c1.8,8.1,9.1,14.2,17.8,14.2c8.6,0,15.8-6,17.7-14c0.3-2.8,0.5-5.7,0.5-8.6
		c0-3.4-0.2-6.8-0.7-10c-8.7-2.1-16.3-7-21.7-13.7c-5.7-7-9.2-16-9.2-25.7c0-2.1,0.2-4.2,0.5-6.2c0.2-1.5,0.5-3,0.9-4.4
		C572.97,484.43,557.47,478.93,540.67,478.93z"/>
	<path class="st7" d="M417.57,372.43h246.2c4,0,7.7,1.7,10.4,4.3c2.7,2.7,4.3,6.3,4.3,10.4v350.6c0,4-1.7,7.7-4.3,10.4
		c-2.7,2.7-6.3,4.3-10.4,4.3h-246.2c-4,0-7.7-1.7-10.4-4.3c-2.7-2.7-4.3-6.3-4.3-10.4v-350.6c0-4,1.6-7.7,4.3-10.4
		C409.87,374.13,413.57,372.43,417.57,372.43L417.57,372.43z M663.87,377.33L663.87,377.33h-246.2c-2.7,0-5.1,1.1-6.9,2.9
		c-1.8,1.8-2.9,4.2-2.9,6.9v350.6c0,2.7,1.1,5.1,2.9,6.9c1.8,1.8,4.2,2.9,6.9,2.9h246.2c2.7,0,5.1-1.1,6.9-2.9
		c1.8-1.8,2.9-4.2,2.9-6.9v-350.6c0-2.7-1.1-5.1-2.9-6.9C668.97,378.43,666.57,377.33,663.87,377.33z"/>
	<path class="st7" d="M540.67,445.03c30,0,57.2,12.2,76.9,31.9c19.7,19.7,31.9,46.9,31.9,76.9s-12.2,57.2-31.9,76.9
		c-19.7,19.7-46.9,31.9-76.9,31.9s-57.2-12.2-76.9-31.9c-19.7-19.7-31.9-46.9-31.9-76.9s12.2-57.2,31.9-76.9
		S510.67,445.03,540.67,445.03L540.67,445.03z M614.17,480.43L614.17,480.43c-18.8-18.8-44.8-30.4-73.5-30.4s-54.7,11.6-73.5,30.4
		c-18.8,18.8-30.4,44.8-30.4,73.5s11.6,54.7,30.4,73.5s44.8,30.4,73.5,30.4s54.7-11.6,73.5-30.4c18.8-18.8,30.4-44.8,30.4-73.5
		C644.67,525.13,632.97,499.23,614.17,480.43z"/>
	<path class="st0" d="M617.17,541.83c-17.5-3.5-30.6-18.9-30.6-37.4c0-4,0.6-7.9,1.8-11.5
		C603.37,504.63,614.07,522.03,617.17,541.83z"/>
	<path class="st0" d="M616.67,544.23c-9.4-1.9-17.6-7-23.4-14.1c-5.7-7-9.2-16-9.2-25.7c0-2.1,0.2-4.2,0.5-6.2
		c0.3-2.1,0.8-4.1,1.4-6.1l1.1-3.3l2.8,2.2c7.9,6.2,14.6,13.8,19.7,22.5c5,8.5,8.5,17.9,10,28l0.5,3.4L616.67,544.23L616.67,544.23z
		 M596.97,527.03L596.97,527.03c4.4,5.4,10.3,9.4,17.1,11.5c-1.7-8.1-4.7-15.7-8.8-22.7c-4.2-7.1-9.5-13.4-15.6-18.7
		c-0.1,0.6-0.2,1.2-0.3,1.8c-0.3,1.8-0.4,3.6-0.4,5.5C588.87,512.93,591.97,520.83,596.97,527.03z"/>
	<path class="st7" d="M576.67,401.03h-5.4c-0.1,0-0.1,0-0.2,0.1c0,0-0.1,0.1-0.1,0.2v5.2c0,0.1,0,0.1,0.1,0.2c0,0,0.1,0.1,0.2,0.1
		h5.4c0.1,0,0.1,0,0.2-0.1c0,0,0.1-0.1,0.1-0.2v-5.2c0-0.1,0-0.1-0.1-0.2C576.77,401.03,576.67,401.03,576.67,401.03z"/>
	<path class="st7" d="M571.17,399.13h5.4c0.6,0,1.1,0.2,1.5,0.6c0.4,0.4,0.6,0.9,0.6,1.5v5.2c0,0.6-0.2,1.1-0.6,1.5
		s-0.9,0.6-1.5,0.6h-5.4c-0.6,0-1.1-0.2-1.5-0.6c-0.4-0.4-0.6-0.9-0.6-1.5v-5.2c0-0.6,0.2-1.1,0.6-1.5
		C570.07,399.43,570.67,399.13,571.17,399.13z"/>
	<path class="st7" d="M583.97,399.13h5.4c0.6,0,1.1,0.2,1.5,0.6c0.4,0.4,0.6,0.9,0.6,1.5v5.2c0,0.6-0.2,1.1-0.6,1.5
		s-0.9,0.6-1.5,0.6h-5.4c-0.6,0-1.1-0.2-1.5-0.6c-0.4-0.4-0.6-0.9-0.6-1.5v-5.2c0-0.6,0.2-1.1,0.6-1.5
		C582.87,399.43,583.37,399.13,583.97,399.13z"/>
	<path class="st7" d="M596.87,399.13h5.4c0.6,0,1.1,0.2,1.5,0.6c0.4,0.4,0.6,0.9,0.6,1.5v5.2c0,0.6-0.2,1.1-0.6,1.5
		s-0.9,0.6-1.5,0.6h-5.4c-0.6,0-1.1-0.2-1.5-0.6c-0.4-0.4-0.6-0.9-0.6-1.5v-5.2c0-0.6,0.2-1.1,0.6-1.5
		C595.77,399.43,596.27,399.13,596.87,399.13z"/>
	<path class="st7" d="M609.27,399.13h5.4c0.6,0,1.1,0.2,1.5,0.6c0.4,0.4,0.6,0.9,0.6,1.5v5.2c0,0.6-0.2,1.1-0.6,1.5
		s-0.9,0.6-1.5,0.6h-5.4c-0.6,0-1.1-0.2-1.5-0.6c-0.4-0.4-0.6-0.9-0.6-1.5v-5.2c0-0.6,0.2-1.1,0.6-1.5
		C608.17,399.43,608.67,399.13,609.27,399.13z"/>
	<path class="st7" d="M549.07,388.33c-2.5-2.5-6-4.1-9.8-4.1s-7.3,1.6-9.8,4.1s-4.1,6-4.1,9.8s1.6,7.3,4.1,9.8s6,4.1,9.8,4.1
		s7.3-1.6,9.8-4.1s4.1-6,4.1-9.8S551.67,390.83,549.07,388.33z M546.47,405.43c-1.9,1.9-4.4,3-7.3,3c-2.8,0-5.4-1.1-7.3-3
		s-3-4.4-3-7.3c0-2.8,1.1-5.4,3-7.3c1.5-1.5,3.4-2.5,5.5-2.9v6c0,0.7,0.5,1.2,1.2,1.2s1.2-0.5,1.2-1.2v-6.1c2.5,0.2,4.8,1.3,6.5,3
		c1.9,1.9,3,4.4,3,7.3C549.57,401.03,548.37,403.63,546.47,405.43z"/>
	<path class="st0" d="M463.77,562.23h2.4c1.8,8.1,9.1,14.2,17.8,14.2c8.7,0,16-6.1,17.8-14.2h2.2c1.8,8.1,9.1,14.2,17.8,14.2
		c8.7,0,16-6.1,17.8-14.2h2.2c1.8,8.1,9.1,14.2,17.8,14.2c8.7,0,16-6.1,17.8-14.2h2.2c1.8,8.1,9.1,14.2,17.8,14.2s16-6.1,17.8-14.2
		h2.4c-4.2,38.8-37,69-76.9,69C500.77,631.23,467.97,601.03,463.77,562.23z"/>
	<rect x="406.77" y="418.53" class="st7" width="269.4" height="4.9"/>
	<path class="st7" d="M540.67,474.13c22,0,42,8.9,56.4,23.4c14.4,14.4,23.4,34.4,23.4,56.4s-8.9,42-23.4,56.4
		c-14.4,14.4-34.4,23.4-56.4,23.4s-42-8.9-56.4-23.4c-14.4-14.4-23.4-34.4-23.4-56.4s8.9-42,23.4-56.4
		C498.77,483.03,518.67,474.13,540.67,474.13L540.67,474.13z M593.67,500.93L593.67,500.93c-13.6-13.6-32.3-21.9-53-21.9
		s-39.4,8.4-53,21.9c-13.6,13.6-21.9,32.3-21.9,53s8.4,39.4,21.9,53c13.6,13.6,32.3,21.9,53,21.9s39.4-8.4,53-21.9
		c13.6-13.6,21.9-32.3,21.9-53C615.67,533.23,607.27,514.43,593.67,500.93z"/>
	<path class="st7" d="M417.97,389.33c-1.3,0-2.4-1.1-2.4-2.4c0-1.3,1.1-2.4,2.4-2.4h44.8c1.3,0,2.4,1.1,2.4,2.4
		c0,1.3-1.1,2.4-2.4,2.4H417.97z"/>
	<path class="st7" d="M417.97,399.13c-1.3,0-2.4-1.1-2.4-2.4c0-1.3,1.1-2.4,2.4-2.4h44.8c1.3,0,2.4,1.1,2.4,2.4
		c0,1.3-1.1,2.4-2.4,2.4H417.97z"/>
	<path class="st7" d="M417.97,408.93c-1.3,0-2.4-1.1-2.4-2.4c0-1.3,1.1-2.4,2.4-2.4h44.8c1.3,0,2.4,1.1,2.4,2.4
		c0,1.3-1.1,2.4-2.4,2.4H417.97z"/>
</g>
<g>
	<g id="BACKGROUND">
		<path class="st0" d="M644.67,716.03h160.6c0,0-0.3-6.8-8.8-11.8c-4.2-2.5-9.1-3.7-14-3.4c-2.3,0.1-5.4,0.1-8.8-0.3
			c-6.6-0.8-12.5-4.8-15.8-10.6c-3.9-6.9-12-16.6-26.5-15.8c-6,0.3-13.9,3-31.2,22.5c0,0-11.4,11.4-30,7.7
			C670.17,704.33,649.77,702.63,644.67,716.03z"/>
	</g>
</g>
<g id="PRINKLES" transform="matrix(1,0,0,1,319.065,-136.885)">
	<path class="st8" d="M55.57,454.43l6.2,10.3l5.7-2.4l-6.9-11.7L55.57,454.43z M104.27,446.23l-5,12.2l5,4.1l7.9-10L104.27,446.23z
		 M74.37,437.43l5.9,15.9l6.3-0.7l-2.6-18.1L74.37,437.43z"/>
	<path class="st8" d="M353.97,452.23l-8.3,14.5l3.9,4.2l9.5-12.5L353.97,452.23z M377.17,456.23l-11.1,14.4l4.9,5.2l13.6-15.2
		L377.17,456.23z"/>
	<path class="st8" d="M-39.33,153.03l6.8,14.2l5.9-2.5l-6.3-16.3L-39.33,153.03z M-19.33,136.83l0.5,17.7l6.9,1.1l3.1-18.4
		L-19.33,136.83z"/>
	<path class="st9" d="M435.27,506.03l2-5.2c0.3-0.8,1.2-1.2,2-0.9s1.2,1.2,0.9,2l-2.3,6l6.1-2.1c0.8-0.3,1.7,0.2,2,1s-0.1,1.7-1,2
		l-5.8,2l5.5,2.7c0.8,0.4,1.1,1.3,0.7,2.1s-1.3,1.1-2.1,0.7l-5.5-2.7l2,5.8c0.3,0.8-0.2,1.7-1,2s-1.7-0.2-2-1l-1.8-5.3l-2,5.2
		c-0.3,0.8-1.2,1.2-2,0.9s-1.2-1.2-0.9-2l2.3-6l-6.1,2.1c-0.8,0.3-1.7-0.2-2-1s0.2-1.7,1-2l5.8-2l-5.5-2.7c-0.8-0.4-1.1-1.3-0.7-2.1
		s1.3-1.1,2.1-0.7l5.5,2.7l-2-5.8c-0.3-0.8,0.2-1.7,1-2s1.7,0.2,2,1L435.27,506.03z"/>
	<path class="st8" d="M186.87,278.93l0.1-5.6c0-0.9,0.7-1.6,1.6-1.5c0.9,0,1.6,0.7,1.5,1.6l-0.1,6.5l5-4.1c0.7-0.6,1.7-0.4,2.2,0.2
		c0.5,0.7,0.4,1.7-0.2,2.2l-4.7,3.8l6.1,0.6c0.9,0.1,1.5,0.9,1.4,1.7c-0.1,0.9-0.9,1.5-1.7,1.4l-6.1-0.6l3.8,4.7
		c0.5,0.7,0.4,1.7-0.2,2.2c-0.7,0.5-1.7,0.4-2.2-0.2l-3.5-4.3l-0.1,5.6c0,0.9-0.7,1.6-1.6,1.5c-0.9,0-1.6-0.7-1.5-1.6l0.1-6.5
		l-5,4.1c-0.7,0.6-1.7,0.4-2.2-0.2c-0.5-0.7-0.4-1.7,0.2-2.2l4.7-3.8l-6.1-0.6c-0.9-0.1-1.5-0.9-1.4-1.7c0.1-0.9,0.9-1.5,1.7-1.4
		l6.1,0.6l-3.8-4.7c-0.5-0.7-0.4-1.7,0.2-2.2c0.7-0.5,1.7-0.4,2.2,0.2L186.87,278.93z"/>
	<path class="st8" d="M-309.33,467.63l0.1-5.6c0-0.9,0.7-1.6,1.6-1.5c0.9,0,1.6,0.7,1.5,1.6l-0.1,6.5l5-4.1c0.7-0.6,1.7-0.4,2.2,0.2
		c0.5,0.7,0.4,1.7-0.2,2.2l-4.7,3.8l6.1,0.6c0.9,0.1,1.5,0.9,1.4,1.7c-0.1,0.9-0.9,1.5-1.7,1.4l-6.1-0.6l3.8,4.7
		c0.5,0.7,0.4,1.7-0.2,2.2c-0.7,0.5-1.7,0.4-2.2-0.2l-3.5-4.3l-0.1,5.6c0,0.9-0.7,1.6-1.6,1.5c-0.9,0-1.6-0.7-1.5-1.6l0.1-6.5
		l-5,4.1c-0.7,0.5-1.7,0.4-2.2-0.2s-0.4-1.7,0.2-2.2l4.7-3.8l-6.1-0.6c-0.9-0.1-1.5-0.9-1.4-1.7c0.1-0.9,0.9-1.5,1.7-1.4l6.1,0.6
		l-3.8-4.7c-0.5-0.7-0.4-1.7,0.2-2.2c0.7-0.5,1.7-0.4,2.2,0.2L-309.33,467.63z"/>
	<path class="st9" d="M-200.53,203.33l0.1-5.6c0-0.9,0.7-1.6,1.6-1.5c0.9,0,1.6,0.7,1.5,1.6l-0.1,6.5l5-4.1c0.7-0.5,1.7-0.4,2.2,0.2
		c0.5,0.7,0.4,1.7-0.2,2.2l-4.7,3.8l6.1,0.6c0.9,0.1,1.5,0.9,1.4,1.7c-0.1,0.9-0.9,1.5-1.7,1.4l-6.1-0.6l3.8,4.7
		c0.5,0.7,0.4,1.7-0.2,2.2c-0.7,0.5-1.7,0.4-2.2-0.2l-3.5-4.3l-0.1,5.6c0,0.9-0.7,1.6-1.6,1.5c-0.9,0-1.6-0.7-1.5-1.6l0.1-6.5
		l-5,4.1c-0.7,0.6-1.7,0.4-2.2-0.2c-0.5-0.7-0.4-1.7,0.2-2.2l4.7-3.8l-6.1-0.6c-0.9-0.1-1.5-0.9-1.4-1.7c0.1-0.9,0.9-1.5,1.7-1.4
		l6.1,0.6l-3.8-4.7c-0.5-0.7-0.4-1.7,0.2-2.2c0.7-0.5,1.7-0.4,2.2,0.2L-200.53,203.33z"/>
</g>
</svg>
