<?xml version="1.0" encoding="utf-8"?>
<!-- Generator: Adobe Illustrator 25.3.1, SVG Export Plug-In . SVG Version: 6.00 Build 0)  -->
<svg version="1.1" id="Layer_1" xmlns="http://www.w3.org/2000/svg" xmlns:xlink="http://www.w3.org/1999/xlink" x="0px" y="0px"
	 viewBox="0 0 260 100" style="enable-background:new 0 0 260 100;" xml:space="preserve">
<style type="text/css">
	.st0{fill:#FFFFFF;}
	.st1{fill:#E56C00;}
	.st2{fill:#656464;}
	.st3{fill:#EC6C00;}
</style>
<g>
	<g>
		<path class="st2" d="M92.47,57.5V13.01h8.85l1.15,5.59c4.55-3.73,9.06-5.59,13.53-5.59c4.98,0,8.51,2.03,10.59,6.1
			c5.05-4.07,9.79-6.1,14.21-6.1c8.34,0,12.52,5.64,12.52,16.91V57.5H142.1V29.49c0-4.94-1.86-7.42-5.58-7.42
			c-2.96,0-4.83,1.92-8.07,5.76V57.5h-11.09V29.62c0-5.03-1.84-7.54-5.51-7.54c-3.17,0-5.19,1.92-8.29,5.76V57.5H92.47z"/>
		<path class="st2" d="M160.22,26.19c1.07-6.75,7.14-12.39,12.96-12.74c5.99-0.36,11.26-0.43,19.04-0.43c2.75,0,5.87,2.98,5.87,5.71
			V57.5h-7.72l-2.74-3.13c-3.44,2.09-7.94,3.13-11.83,3.13c-10.68,0-15.57-4.63-16.02-13.86C159.45,37.16,159.33,31.83,160.22,26.19
			z M186.98,30.8v-8.18c0-1.27-1.48-1.18-2.62-1.18c-3.56,0-6.34,0.27-7.92,0.47c-2.29,0.28-4.98,2.08-5.47,5.55
			c-0.41,2.9-0.6,13.72-0.26,16.05c0.49,3.35,2.01,5.09,6.03,5.09c4.07,0,7.39-1.16,10.23-3.47v-5.85V30.8z"/>
		<path class="st2" d="M200.86,13.01h12.22l15.12,22.19l-11.68,1.18L200.86,13.01z M216.23,33.76h12.09L249.7,66.9l-12.92,0.04
			L216.23,33.76z M212.31,57.5H201l29.59-44.49h11.31L212.31,57.5z"/>
	</g>
	<g>
		<g>
			<path class="st3" d="M83.59,18.16c-0.51-3.35-2.82-5.72-5.41-6.01c-4.16-0.46-10.95-1.13-20.25-0.86
				c-6.69,0.19-12.57-0.09-16.52,0.86c-4.21,1.02-8.66,4.98-9.43,10.91c-0.68,5.21-1.08,10.58-1.08,18.07
				c0,7.49,0.23,22.96,1.33,28.1c0.77,3.61,4.11,5.13,6.69,5.42c4.16,0.46,11.27,0.86,18.66,0.86s11.3-0.39,15.45-0.91
				c5.92-0.74,9.78-4.5,10.81-10.94c0.83-5.19,0.84-15.05,0.84-22.54C84.68,33.63,84.38,23.35,83.59,18.16z M69.12,62.74
				c-0.46,1.84-2.48,4.51-4.65,4.51H48.71c-2.16,0-2.27-0.86-2.55-2.67c-0.28-1.81-0.39-13.67-0.39-20.89
				c0-7.22,0.07-17.07,0.48-19.62c0.41-2.56,2.34-4.51,4.5-4.51h16.12c1.55,0,2.13,0.66,2.35,2.73c0.22,2.06,0.39,12.83,0.39,21.12
				C69.6,51.69,69.59,60.9,69.12,62.74z"/>
		</g>
	</g>
	<rect x="6.15" y="31.54" class="st3" width="15.31" height="43.09"/>
	<path class="st3" d="M52.87,77.51c-4.88,1.21-6.34,4.7-5.75,6.42C47.7,85.66,49.97,92,49.97,92s20.35-15.76,55.38-15.63l-0.02-0.99
		C78.76,72.76,61.68,75.34,52.87,77.51z"/>
	<path class="st2" d="M213.61,79.22c-24.33,1.42-57.6,1.42-96.64-2.68c-2.92-0.31-5.8-0.56-8.62-0.76v0.85
		c2.14,0.13,10.19,1.48,12.39,1.82c44.17,6.79,61.02,9.31,95.72,8.84c16.62-0.23,29.91-2.56,36.2-3.9c2.56-0.54,2.61-3.22,2.06-4.29
		c-0.54-1.07-3.44-6.31-3.44-6.31S237.68,77.82,213.61,79.22z"/>
	<ellipse class="st3" cx="13.59" cy="16.61" rx="8.59" ry="8.61"/>
</g>
</svg>
