<?xml version="1.0" encoding="utf-8"?>
<!-- Generator: Adobe Illustrator 25.3.1, SVG Export Plug-In . SVG Version: 6.00 Build 0)  -->
<svg version="1.1" id="Layer_1" xmlns="http://www.w3.org/2000/svg" xmlns:xlink="http://www.w3.org/1999/xlink" x="0px" y="0px"
	 viewBox="0 0 990 747" style="enable-background:new 0 0 990 747;" xml:space="preserve">
<style type="text/css">
	.st0{opacity:0.21;}
	.st1{fill:#A8C1F2;}
	.st2{opacity:0.95;}
	.st3{fill:#25365B;}
	.st4{fill:#496BB6;}
	.st5{fill:#375089;}
	.st6{opacity:0.48;fill:#496BB6;enable-background:new    ;}
	.st7{fill:#FFD274;}
	.st8{fill:#FCE5D4;}
	.st9{opacity:0.4;fill:#FFFFFF;enable-background:new    ;}
	.st10{fill:none;stroke:#EF7B58;stroke-width:2.126;stroke-miterlimit:10;}
	.st11{fill:#FBB040;}
	.st12{clip-path:url(#SVGID_2_);}
	.st13{fill:#FFD274;fill-opacity:0.81;}
	.st14{opacity:0.51;fill:#FBB040;enable-background:new    ;}
	.st15{display:none;fill:#FBB040;}
	.st16{fill:#EF7B58;}
	.st17{fill:#78293E;}
	.st18{clip-path:url(#SVGID_4_);}
	.st19{opacity:0.46;fill:#FBB040;enable-background:new    ;}
	.st20{fill:#FFFFFF;}
	.st21{fill:#FBC12A;}
	.st22{fill:#194FB0;}
	.st23{fill:#B1C3E7;fill-opacity:0.75;}
	.st24{fill:#8DA7DA;}
	.st25{fill:#B1C3E7;}
	.st26{fill:#194FB0;fill-opacity:0.24;}
	.st27{fill:#69BAC9;}
</style>
<g>
	<g id="CLOUDS_1_" class="st0">
		<g>
			<path class="st1" d="M139.39,218.6l142.45,0.95c1.07,0,1.89-0.83,1.89-1.9c0-1.07-0.83-1.9-1.89-1.9l-142.45-0.95
				c-1.07,0-1.89,0.83-1.89,1.9C137.49,217.77,138.32,218.6,139.39,218.6z"/>
			<path class="st1" d="M184.27,194.67c0.83-2.13,2.61-6.4,3.43-7.7c3.91-6.51,9.12-12.44,15.99-15.99
				c8.17-4.26,18.12-6.28,27.23-4.26c6.39,1.42,13.03,6.87,16.34,13.15c13.62-3.91,26.88,7.7,33.04,20.49
				c1.3,2.61,3.2,6.63,4.03,10.54c0.59,2.84,0.59,5.69-0.47,8.05c-0.47,0.95-1.54,1.3-2.49,0.95c-0.95-0.47-1.3-1.54-0.95-2.49
				c0.71-1.66,0.59-3.67,0.24-5.69c-0.71-3.55-2.49-7.23-3.67-9.59c-5.33-11.02-16.58-21.44-28.18-18.6c0.95,3.08,1.07,6.28,0,9.24
				c-0.95,2.61-2.84,5.09-6.04,7.11c-2.49,1.54-5.57,1.66-7.58,0.36c-1.42-0.95-2.49-2.61-2.37-5.21c0.12-3.67,2.13-6.99,4.85-9.48
				c2.01-1.78,4.03-3.2,6.04-4.15c-2.84-5.09-8.29-9.59-13.62-10.78c-8.17-1.9-17.29,0-24.63,3.91
				c-6.16,3.32-10.89,8.65-14.45,14.57c-0.95,1.54-2.61,6.4-3.55,8.41c-0.59,1.07-1.3,1.66-1.66,1.78c-0.36,0.12-0.83,0.24-1.54,0
				c-0.71-0.24-3.2-2.25-3.43-2.37c-2.61-1.54-5.68-2.25-8.64-2.25c-6.99-0.12-16.7,3.08-23.33,8.65c-4.26,3.55-7.34,8.17-7.58,13.5
				c0,1.07-0.95,1.9-1.89,1.78c-1.07,0-1.89-0.95-1.78-1.9c0.24-6.4,3.79-11.96,8.88-16.23c7.46-6.16,18.12-9.71,25.81-9.59
				c3.67,0.12,7.34,0.95,10.42,2.84C182.73,193.49,183.55,194.08,184.27,194.67z M245.25,184.72c-1.66,0.83-3.43,2.01-5.09,3.43
				c-2.01,1.78-3.55,4.15-3.67,6.75c0,0.95,0.12,1.54,0.71,1.9c0.95,0.59,2.25,0.36,3.43-0.36c2.37-1.42,3.79-3.2,4.5-5.21
				C245.96,189.22,245.84,186.97,245.25,184.72z"/>
		</g>
		<g class="st2">
			<path class="st1" d="M739.15,131.66c0.59-1.18,1.18-2.37,1.78-3.2c7.22-11.96,20.72-22.62,34.58-25.23
				c17.76-3.32,35.76,5.69,44.88,21.08c2.37,4.03,4.14,8.53,5.09,13.03c0.12,0.83,0.36,1.66,0.36,2.37
				c1.78-1.42,3.67-2.49,5.68-3.32c7.34-2.84,15.99-2.37,22.97,1.3c10.3,5.45,15.28,15.28,15.99,26.41c0.12,1.07-0.71,1.9-1.78,2.01
				s-1.89-0.71-2.01-1.78c-0.59-9.83-4.85-18.48-13.97-23.33c-6.04-3.2-13.5-3.67-19.89-1.18c-1.89,0.71-3.67,1.9-5.33,3.2
				c-0.12,0.12-1.78,2.01-2.01,2.37c-0.83,0.95-1.89,0.59-1.89,0.59c-0.24-0.12-1.3-0.36-1.42-1.66c0-0.36,0-2.13,0-2.25
				c0-1.42-0.24-2.72-0.47-4.03c-0.83-4.15-2.49-8.29-4.62-11.84c-8.29-13.98-24.75-22.27-40.97-19.31
				c-12.91,2.37-25.34,12.44-32.09,23.57c-0.36,0.59-0.71,1.18-1.07,1.9c4.62,1.3,8.41,5.33,8.41,10.3c0,6.16-7.22,7.58-11.37,4.38
				c-2.49-1.9-3.32-4.74-3.08-7.82c0.12-1.3,0.36-2.61,0.71-3.91c-2.72,0.12-5.45,0.95-7.93,2.25c-5.8,2.96-10.89,8.41-14.33,13.03
				c-2.13,2.96-4.03,6.16-5.21,9.59c0,0.12-0.36,1.3-0.59,1.9c0.12,0.36,0.24,0.71,0.24,1.07c-0.12,1.07-0.95,1.78-2.01,1.66
				c-1.07-0.12-1.78-0.71-2.01-1.9c-0.12-0.47,0-1.07,0.12-1.66c0.24-0.95,0.59-2.13,0.71-2.37c1.3-3.79,3.32-7.34,5.68-10.54
				c3.79-5.09,9.35-10.9,15.63-14.21C731.57,132.49,735.36,131.42,739.15,131.66z M708.24,161.15L708.24,161.15L708.24,161.15z
				 M741.51,135.69c-0.47,1.18-0.71,2.49-0.83,3.79c-0.12,1.78,0.24,3.43,1.66,4.5c1.07,0.83,2.49,1.07,3.67,0.71
				c0.95-0.24,1.66-0.95,1.66-2.13C747.55,139.12,744.71,136.52,741.51,135.69z"/>
			<path class="st1" d="M868.57,162.22L708,161.15c-1.07,0-1.89,0.83-1.89,1.9c0,1.07,0.83,1.9,1.89,1.9l160.57,1.07
				c1.07,0,1.89-0.83,1.89-1.9C870.46,163.05,869.52,162.22,868.57,162.22z"/>
		</g>
	</g>
	<g>
		<polygon class="st3" points="588.64,534.49 363.19,534.49 413.16,245.25 615.64,245.25 636.01,272.13 		"/>
		<g>
			<polygon class="st4" points="315.58,610.29 25,591.81 296.4,491.97 595.27,508.31 			"/>
			<polygon class="st3" points="588.64,633.74 310.85,734.42 312.27,607.92 594.21,508.31 			"/>
			<polygon class="st5" points="313.93,734.42 25.83,718.67 25.12,592.17 313.22,608.04 			"/>
		</g>
		<polygon class="st4" points="564.61,512.58 316.3,488.29 366.15,245.25 615.64,245.25 		"/>
	</g>
	<path class="st6" d="M446.43,579.38c0,0-83.24-22.98-120.9-18.12c-11.37,1.42-53.4,25.82-53.4,25.82l0.24-78.65h80.88
		L446.43,579.38z"/>
	<path class="st6" d="M448.21,238.26c3.91,0.59,62.4,10.3,62.4,10.3s3.79,5.45,3.43,9.59c-0.36,4.15-4.5,22.98-8.17,24.04
		c-3.67,1.07-8.88,9.71-2.61,12.44c6.28,2.72,21.43,16.58,28.18,27.72c6.75,11.02,29.13,59.1,29.13,83.5s-2.13,66.33-2.13,78.53
		s-0.47,36.13-6.28,39.8c-5.68,3.67-29.6,9.59-29.6,9.59s7.93,13.15,7.58,27.6s-21.2,41.57-21.2,41.57l-40.62-24.04
		c0,0-20.49-17.77-20.13-31.86c0.36-14.09,4.74-37.07,4.74-37.07l9.24-225.28L448.21,238.26z"/>
	<polygon class="st3" points="584.97,405.74 555.96,556.4 588.64,534.49 606.17,437.48 	"/>
	<g>
		<g transform="matrix(1,0,0,1,33.4727,-36.2017)">
			<path class="st7" d="M313.58,367.32c1.54-18.36,8.41-27.36,15.99-31.51c12.08-6.51,26.29-1.07,26.29-1.07
				c0.95,0.36,1.42,1.42,1.07,2.37s-1.42,1.42-2.37,1.07c0,0-12.55-4.86-23.21,0.95c-7.1,3.91-13.26,12.67-14.21,30.8
				c0,0.59-0.36,1.18-0.83,1.42c-0.47,0.36-1.18,0.36-1.66,0.12c-8.41-3.32-19.66-1.07-30.2,5.33
				c-25.46,15.28-47.01,54.37-19.89,103.28c0.47,0.95,0.24,2.01-0.71,2.61c-0.95,0.47-2.01,0.24-2.61-0.71
				c-28.42-51.29-5.45-92.27,21.31-108.26C293.21,367.2,304.58,364.83,313.58,367.32z"/>
		</g>
		<g>
			<path class="st8" d="M392.2,449.33c0,0-45.35-4.03-65.96,15.99c-20.72,20.02-26.05,49.51,15.39,73.44
				c41.33,23.93,139.37,90.61,139.37,90.61s34.46,28.9,36.12,33.87c4.26,12.79,8.05,18.12,13.38,8.76c5.21-9.36-4.5-38.14-5.8-47.38
				c-1.54-10.66-9.71-48.68-13.26-50.58c-18.71-9.95-21.79-10.19-32.92-19.31c-14.56-11.84-50.21-61-94.02-67.28
				c-31.14-4.5,53.76,18.48,53.76,18.48L392.2,449.33z"/>
			<path class="st9" d="M375.62,491.37c0,0,19.89-3.08,35.52,7.23l-7.1-14.33C404.04,484.27,385.45,484.27,375.62,491.37z"/>
		</g>
		<path class="st10" d="M511.91,572.86c-19.42-8.17-17.88-10.9-32.8-19.19c-10.54-5.8-19.66-13.98-28.66-23.69
			c-9.24-10.66-20.84-21.68-33.98-29.97c11.72,3.32,21.43,5.92,21.43,5.92l-45.71-56.62c0,0-45.35-4.03-65.96,15.99
			c-20.72,20.02-26.05,49.51,15.39,73.44c41.33,23.93,139.37,90.61,139.37,90.61s35.64,29.37,36.12,33.87
			c1.3,12.32,8.05,18.12,13.38,8.76C535.59,662.76,513.93,578.31,511.91,572.86z"/>
		<g>
			<path class="st11" d="M542.23,382.29c-4.26-23.69-11.49-44.42-19.77-58.39c-0.36-2.25-1.3-4.5-2.96-6.63
				c-12.2-16.11-27.71-18.83-39.9-22.74l-35.29,47.85l-11.25,12.67l-21.91-19.78l-2.37-12.67l4.74-33.76c0,0-13.5,0.24-25.81,12.56
				c0,0-14.8,11.84-22.38,31.15c-7.58,19.42-15.39,43.94-15.39,43.94l32.44,13.74l-4.26,44.42c0,0,67.38,27.36,103.37,33.99
				c36,6.63,15.39-29.37,15.39-29.37l-0.59-9.95c9.35,25.35,21.91,41.46,32.68,39.56C544.36,466.26,550.28,427.41,542.23,382.29z"/>
			<g>
				<g>
					<g>
						<defs>
							<path id="SVGID_1_" d="M542.23,382.29c-4.26-23.69-11.49-44.42-19.77-58.39c-0.36-2.25-1.3-4.5-2.96-6.63
								c-12.2-16.11-27.71-18.83-39.9-22.74l-35.29,47.85l-11.25,12.67l-21.91-19.78l-2.37-12.67l4.74-33.76
								c0,0-13.5,0.24-25.81,12.56c0,0-14.8,11.84-22.38,31.15c-7.58,19.42-15.39,43.94-15.39,43.94l32.44,13.74l-4.26,44.42
								c0,0,67.38,27.36,103.37,33.99c36,6.63,15.39-29.37,15.39-29.37l-0.59-9.95c9.35,25.35,21.91,41.46,32.68,39.56
								C544.36,466.26,550.28,427.41,542.23,382.29z"/>
						</defs>
						<clipPath id="SVGID_2_">
							<use xlink:href="#SVGID_1_"  style="overflow:visible;"/>
						</clipPath>
						<g class="st12">
							<path class="st7" d="M386.16,332.19c-0.12,2.61-2.01,4.86-4.5,4.74c-2.49-0.12-4.26-2.37-4.14-4.97
								c0.12-2.25-1.66-4.03-3.91-4.15c-2.25-0.12-4.03,1.66-4.14,3.91c-0.24,7.23,5.21,13.15,11.96,13.27
								c6.75,0.24,12.55-5.33,12.79-12.56c0.12-2.25-1.66-4.03-3.91-4.15C388.17,328.28,386.28,329.94,386.16,332.19z"/>
							<path class="st7" d="M377.51,331.95c0.12-2.61,2.01-4.86,4.5-4.74c2.49,0.12,4.26,2.37,4.14,4.97
								c-0.12,2.25,1.66,4.03,3.91,4.15c2.25,0.12,4.03-1.66,4.14-3.91c0.24-7.23-5.21-13.15-11.96-13.27
								c-6.75-0.24-12.55,5.33-12.79,12.55c-0.12,2.25,1.66,4.03,3.91,4.15C375.5,335.86,377.4,334.08,377.51,331.95z"/>
							<path class="st7" d="M434.12,250.22l7.1,3.32c0,0.24-0.12,0.47-0.24,0.71c-1.07,2.37-0.24,5.21,2.01,6.16
								c2.25,0.95,4.85-0.36,5.92-2.72c0-0.12,0.12-0.24,0.24-0.36l7.22,3.43c0,0,0,0.12-0.12,0.12c-2.84,6.63-10.3,9.59-16.46,6.99
								c-6.16-2.72-9.12-10.19-6.28-16.82C433.76,250.82,434,250.58,434.12,250.22z"/>
							<path class="st7" d="M484.56,370.8l2.25,8.05c-0.24,0-0.47-0.12-0.71-0.12c-2.49-0.12-4.38,2.13-4.5,4.74
								s1.66,4.97,4.14,4.97c1.3,0,2.49-0.59,3.32-1.54l2.25,8.29c-1.78,0.95-3.79,1.42-5.92,1.3c-6.75-0.24-12.2-6.16-11.96-13.38
								C473.78,376.72,478.64,371.51,484.56,370.8z"/>
							<path class="st7" d="M542.58,379.92l1.3,8.41c-1.3,0.71-2.37,1.54-2.61,2.84c-0.12,0.36-0.12,0.71,0,1.18
								c0.24,1.9,1.78,3.32,3.67,3.79l1.18,8.53c-6.63,0-12.2-5.21-12.91-11.49C532.63,387.03,536.66,381.58,542.58,379.92z"/>
							<path class="st13" d="M511.68,464.13c3.55-3.2,7.7-6.28,12.67-9.36c1.89-1.18,4.38-0.59,5.57,1.3
								c1.18,1.9,0.59,4.38-1.3,5.57c-5.68,3.55-10.18,7.11-13.85,10.78L511.68,464.13z M559.04,441.39
								c-2.96,0.36-6.16,0.47-9.59,0.24c-12.67-1.07-27.71-7.34-42.51-26.18c-1.42-1.78-1.07-4.26,0.71-5.69
								c1.78-1.42,4.26-1.07,5.68,0.71c12.91,16.35,25.81,22.27,36.83,23.21c2.37,0.24,4.62,0.12,6.75,0L559.04,441.39z
								 M463.48,331.48l2.13,7.82c-8.05,1.9-14.21,5.45-18.71,9.48c-12.08,10.78-13.62,25.47-13.62,25.47l0,0
								c-0.24,2.25-2.25,3.79-4.38,3.55c-2.25-0.24-3.79-2.25-3.55-4.38c0,0,1.78-17.77,16.22-30.68
								C446.9,337.99,454.13,333.84,463.48,331.48z M505.75,302.22l4.14,7.94v0.12c-7.46,11.02-9.59,20.96-9,29.49
								c1.07,16.11,11.72,26.41,11.72,26.41l0,0c1.66,1.54,1.66,4.03,0.12,5.69c-1.54,1.66-4.03,1.66-5.68,0.12
								c0,0-12.91-12.32-14.21-31.74C492.14,329.46,494.98,316.43,505.75,302.22z M376.45,258.04c5.21,1.07,11.13,3.08,16.81,6.75
								c10.66,6.87,20.96,19.66,25.1,43.23c0.36,2.13-1.07,4.26-3.32,4.62c-2.13,0.36-4.26-1.07-4.62-3.32
								c-3.67-20.49-12.31-31.86-21.55-37.78c-6.16-4.03-12.55-5.69-17.64-6.28C373.13,261.95,375.03,259.58,376.45,258.04z
								 M491.43,277.46l1.78,2.84c-2.25,2.72-4.85,5.45-8.05,7.94c-10.07,7.7-25.46,13.15-49.14,9.24
								c-2.13-0.36-3.67-2.49-3.32-4.62c0.36-2.13,2.49-3.67,4.62-3.32c20.6,3.43,34.1-0.95,42.87-7.7
								c2.72-2.01,4.85-4.26,6.75-6.63L491.43,277.46z"/>
						</g>
					</g>
				</g>
			</g>
		</g>
		<path class="st14" d="M394.8,324.13c0,0,5.57,20.96-5.57,43.71c-5.09,10.3-2.84,16.23,0,20.85c2.84,4.62-20.37-9.12-20.37-9.12
			L394.8,324.13z"/>
		<path class="st14" d="M482.78,352.68c0,0,13.62,46.55-34.58,57.33l47.01,16.35L482.78,352.68z"/>
		<path class="st8" d="M416.83,282.91l-10.54,20.96l10.42,36.48l16.34,12.32l38.6-41.46l2.96-18.12l-8.76-5.69l-3.2-3.91l2.25-28.43
			l0.59-6.87l4.74-2.01l1.18-4.26l-0.47-3.08l-3.08-1.9l-3.2,0.47l-3.32,2.96l-2.72-1.54l-3.79-0.59l-2.72-1.78l-1.66-2.01
			l-1.54-2.49l-1.3-2.49l-1.18-3.32v-1.07l-5.8,2.25l-5.92,0.47l-3.08-0.95l-2.13-0.83c0,0-1.07,0.36-1.3,0
			c-0.24-0.36-1.3-1.07-1.3-1.07h-1.54l-5.09,28.19l0.95,5.33l1.89,2.96l2.37,1.3l1.3,1.42l1.89,0.59l0.95,0.59l-0.83,5.21
			l-2.01,10.3L416.83,282.91z"/>
		<path class="st11" d="M504.22,419.36c0,0-69.27-22.62-83.36-18.71c-14.09,4.03,25.34,42.64,25.34,42.64s54.82,33.28,82.77,25.58
			C556.91,461.41,504.22,419.36,504.22,419.36z"/>
		<path class="st8" d="M369.46,368.67c0,0,51.98,19.31,87.98,42.05c36,22.62,66.9,47.97,72.11,80.07
			c5.21,31.98-24.16,54.01-69.51,46.67c0,0-49.38-27.01-82.06-67.87s-32.68-40.86-32.68-40.86L369.46,368.67z"/>
		<path class="st8" d="M392.2,393.3l-22.62-24.64c0,0-22.62-12.67-44.64,0c-22.02,12.67-38.37,68.11-47.96,98.19
			C261,517.2,232.93,575.11,222.39,594.78c-15.04,11.49-14.8,17.29-2.13,17.29c12.67,0,80.88-39.44,80.88-39.44
			c3.2-11.96,4.26-15.28,14.21-39.32c10.54-25.82,45-75.21,48.9-106.95C368.16,394.72,392.2,393.3,392.2,393.3z"/>
		<path class="st10" d="M529.67,490.66c-5.21-31.98-36.12-57.33-72.11-80.07c-36-22.62-87.98-42.05-87.98-42.05
			s-22.62-12.67-44.64,0c-22.02,12.67-36.94,68.58-47.96,98.19c-18.47,49.27-39.9,101.03-54.59,127.92
			c-15.51,10.54-14.8,17.29-2.13,17.29c12.67,0,80.17-37.67,80.99-40.74c4.97-16.46,9-23.69,19.3-47.38
			c9.12-20.85,26.29-48.8,38.25-78.65c4.62,5.8,10.89,13.62,19.3,24.16c32.68,40.86,82.06,67.87,82.06,67.87
			C505.52,544.79,534.88,522.76,529.67,490.66z"/>
		<path class="st11" d="M423.46,276.52c0,0-10.66-1.9-20.37,15.75c-9.71,17.53,9.59,56.26,24.27,70.71
			c14.56,14.57,5.68-7.94,5.68-7.94s-5.68-10.54-10.66-22.5c-4.97-11.96-15.63-36.36-1.54-45.25L423.46,276.52z"/>
		<path class="st11" d="M423.46,276.52c0,0-10.66-1.9-20.37,15.75c-9.71,17.53,9.59,56.26,24.27,70.71
			c14.56,14.57,5.68-7.94,5.68-7.94s-5.68-10.54-10.66-22.5c-4.97-11.96-15.63-36.36-1.54-45.25L423.46,276.52z"/>
		<g>
			<path class="st11" d="M468.93,288.01c2.13,29.26-57.79,65.5-65.84,105.18l14.8,2.37c0,0,19.06-31.03,31.38-43.23
				c12.2-12.2,40.62-38.02,35.76-59.93c0,0-1.78-20.02-19.18-22.62c0,0-0.12,11.37,1.42,13.62
				C467.03,283.27,468.81,286.82,468.93,288.01z"/>
			<path class="st11" d="M468.93,288.01c2.13,29.26-57.79,65.5-65.84,105.18l14.8,2.37c0,0,19.06-31.03,31.38-43.23
				c12.2-12.2,40.62-38.02,35.76-59.93c0,0-1.78-20.02-19.18-22.62c0,0-0.12,11.37,1.42,13.62
				C467.03,283.27,468.81,286.82,468.93,288.01z"/>
		</g>
		<path class="st15" d="M445.36,168.73l-13.26-5.57c0,0-6.16,1.9-4.5,11.37s20.49,17.77,20.49,17.77L445.36,168.73z"/>
		<polygon class="st11" points="429.62,348.41 422.04,356.94 419.55,353.62 427.96,345.1 		"/>
		<g>
			<path class="st16" d="M423.93,224.76c0,0-2.96,18.12-4.38,26.89c-0.83,4.86,1.18,9.83,5.21,12.79c0.47,0.36,1.07,0.71,1.54,0.95
				c6.04,3.2,15.28,3.08,22.62,0.24c0.71-0.24,1.07-1.07,0.83-1.9c-0.24-0.71-1.07-1.07-1.89-0.83c-6.51,2.61-14.8,2.72-20.25-0.12
				c-0.47-0.24-0.83-0.47-1.18-0.71c-3.2-2.25-4.74-6.16-4.14-9.95c1.42-8.76,4.38-26.89,4.38-26.89c0.12-0.83-0.36-1.54-1.18-1.66
				C424.76,223.45,424.05,224.05,423.93,224.76z"/>
			<path class="st16" d="M428.67,265.03l-2.61,12.91c-0.12,0.83,0.36,1.54,1.07,1.66c0.83,0.12,1.54-0.36,1.66-1.07l2.61-12.91
				c0.12-0.83-0.36-1.54-1.07-1.66C429.62,263.73,428.79,264.32,428.67,265.03z"/>
			<path class="st16" d="M463.6,248.56l-3.2,36.01c-0.12,0.83,0.47,1.54,1.3,1.54c0.83,0.12,1.54-0.47,1.54-1.3l3.2-36.01
				c0.12-0.83-0.47-1.54-1.3-1.54C464.43,247.14,463.72,247.74,463.6,248.56z"/>
			<path class="st16" d="M463.24,250.1c0,0,3.08-0.36,5.8-1.66c1.78-0.95,3.43-2.25,4.03-4.15c0.47-1.3,0.47-2.84-0.24-4.74
				c-0.59-1.66-2.96-4.03-6.16-4.03c-1.89,0.12-4.26,1.07-6.63,4.15c-0.47,0.59-0.36,1.54,0.24,2.01c0.59,0.47,1.54,0.36,2.01-0.24
				c1.66-2.13,3.08-2.96,4.5-3.08c1.78,0,3.08,1.3,3.43,2.13c0.47,1.07,0.47,1.9,0.24,2.72c-0.36,1.18-1.54,1.9-2.61,2.49
				c-2.25,1.07-4.74,1.42-4.74,1.42c-0.83,0.12-1.3,0.83-1.3,1.54C461.71,249.51,462.42,250.1,463.24,250.1z"/>
			<path class="st16" d="M460.99,285.99l10.3,7.11c0.83-0.95,1.42-1.78,1.89-2.37l-10.42-7.23c-0.71-0.47-1.42-0.36-1.89,0.36
				C460.4,284.57,460.28,285.52,460.99,285.99z"/>
		</g>
		<g>
			<path class="st7" d="M445.36,227.48c-10.89,4.97-21.2-1.42-21.2-1.42c-0.71-0.47-0.83-1.3-0.47-2.01
				c0.47-0.71,1.3-0.83,2.01-0.47c0,0,10.07,6.28,20.13,0.47c0.47-0.24,0.95-0.24,1.42,0c0.47,0.24,0.71,0.71,0.71,1.18
				c0,0-0.36,2.61,1.07,5.09c4.14,7.46,12.79,7.23,12.79,7.23c-1.42,1.3-2.37,2.37-2.49,3.2c0,0-3.67,0.59-6.99-1.54
				c-3.2-1.9-5.09-5.09-6.04-7.94C445.84,229.85,445.6,228.55,445.36,227.48z"/>
			<path class="st7" d="M622.75,392.95c-7.58-25.7-32.92-37.31-40.14-40.15c12.31-29.49,2.49-51.52-2.13-58.51
				c-20.84-31.39-57.19-28.19-66.43-26.89c-0.83-12.91-5.09-21.56-10.66-27.24c-11.72-11.84-29.48-10.9-34.58-10.42
				c-6.51-11.84-18.95-15.87-28.66-17.06c-7.82-0.95-15.04,4.03-17.05,11.61l3.67,0.95c1.54-5.8,7.1-9.59,13.03-8.76
				c8.88,1.07,20.72,4.62,26.29,16.11c0.36,0.71,1.18,1.18,2.01,1.07c0,0,20.13-3.55,32.56,9.12c5.33,5.45,9.35,13.86,9.71,26.77
				c0,0.59,0.24,1.07,0.71,1.42c0.47,0.36,1.07,0.47,1.54,0.36c0,0,42.04-9.24,64.65,24.87c4.5,6.75,13.74,28.31,1.07,56.85
				c-0.24,0.47-0.24,1.07,0,1.54c0.24,0.47,0.59,0.83,1.18,1.07c0,0,31.26,10.19,39.55,38.38c3.55,12.08,2.96,27.6-6.16,47.02
				c-4.62,9.95-13.38,17.53-24.27,22.62c-3.79,1.54-23.8,9.36-52.93,9.36c-5.21,0-10.89-0.24-16.7-0.83
				c-1.07-0.12-1.89,0.59-2.01,1.66c-0.12,1.07,0.59,1.9,1.66,2.01c5.92,0.59,11.6,0.83,17.05,0.83c28.3,0,48.08-7.11,53.64-9.36
				c0.24,0,0.36-0.12,0.59-0.12c11.96-5.45,21.43-13.86,26.52-24.64C625.94,422.08,626.54,405.86,622.75,392.95z"/>
		</g>
		<g transform="matrix(1.11526,0,0,1.11526,-195.353,-78.0164)">
			<g>
				<path d="M576.28,291.71c6.16,1.54,12.55,2.37,19.06,2.61c0.71,0,1.42-0.59,1.42-1.3s-0.59-1.3-1.3-1.3
					c-6.39-0.24-12.55-1.18-18.59-2.61c-0.71-0.12-1.42,0.24-1.54,0.95C575.09,290.88,575.57,291.59,576.28,291.71z"/>
			</g>
			<path class="st17" d="M574.14,282.11c-1.07-1.18-2.37-2.01-3.79-2.13h-0.12l-7.58-0.95c-1.54-0.24-3.08-0.59-4.62-1.07
				l-3.91-1.42c-0.12,0-0.24,0-0.36,0c-0.12,0-0.12,0-0.24-0.12c-1.54-0.12-2.96,0.59-4.14,1.78c-1.54,1.54-2.72,4.15-2.96,7.23
				c-0.12,3.08,0.71,5.8,2.01,7.58c1.07,1.3,2.49,2.13,3.91,2.25h0.12c0.83,0.12,2.13,0.36,3.91,0.47c0.24,0,0.83,0.12,1.42,0.36
				c1.89,0.47,4.74,1.42,6.63,2.01c2.13,0.59,3.91,0.59,3.91,0.59h0.12c0.12,0,0.12,0,0.24,0c1.66,0.12,3.08-0.47,4.38-1.66
				c1.66-1.54,2.96-4.26,3.08-7.23C576.51,286.73,575.57,283.89,574.14,282.11z"/>
		</g>
		<g>
			<path class="st11" d="M531.1,490.19c-5.21-31.98-36.71-57.56-72.71-80.3c-28.77-18.12-67.5-34.23-81.94-39.92
				c-0.47-0.12-0.71-0.12-0.71-0.12s20.25,6.16,31.85,36.36c8.17,21.44,10.54,75.21,39.67,116.67
				c9.35,13.27,33.98,32.57,47.96,43.94c5.57,4.5,10.3,13.03,13.97,24.75c0,0,9.83-29.97,13.5-41.93
				C529.32,528.21,533.23,508.9,531.1,490.19z"/>
			<g>
				<g>
					<g>
						<defs>
							<path id="SVGID_3_" d="M531.1,490.19c-5.21-31.98-36.71-57.56-72.71-80.3c-28.77-18.12-67.5-34.23-81.94-39.92
								c-0.47-0.12-0.71-0.12-0.71-0.12s20.25,6.16,31.85,36.36c8.17,21.44,10.54,75.21,39.67,116.67
								c9.35,13.27,33.98,32.57,47.96,43.94c5.57,4.5,10.3,13.03,13.97,24.75c0,0,9.83-29.97,13.5-41.93
								C529.32,528.21,533.11,506.89,531.1,490.19z"/>
						</defs>
						<clipPath id="SVGID_4_">
							<use xlink:href="#SVGID_3_"  style="overflow:visible;"/>
						</clipPath>
						<g class="st18">
							<g transform="matrix(1,0,0,1,114.546,241.009)">
								<path class="st7" d="M346.5,211.05c-0.12,2.61-2.01,4.86-4.5,4.74s-4.26-2.37-4.14-4.97c0.12-2.25-1.66-4.03-3.91-4.15
									c-2.25-0.12-4.03,1.66-4.14,3.91c-0.24,7.23,5.21,13.15,11.96,13.27c6.75,0.24,12.55-5.33,12.79-12.56
									c0.12-2.25-1.66-4.03-3.91-4.15C348.52,207.14,346.62,208.92,346.5,211.05z"/>
							</g>
							<g transform="matrix(1,0,0,1,114.546,241.009)">
								<path class="st7" d="M337.86,210.82c0.12-2.61,2.01-4.86,4.5-4.74c2.49,0.12,4.26,2.37,4.14,4.97
									c-0.12,2.25,1.66,4.03,3.91,4.15c2.25,0.12,4.03-1.66,4.14-3.91c0.24-7.23-5.21-13.15-11.96-13.27
									c-6.75-0.24-12.55,5.33-12.79,12.56c-0.12,2.25,1.66,4.03,3.91,4.15C335.85,214.72,337.74,213.07,337.86,210.82z"/>
							</g>
							<g transform="matrix(1,0,0,1,347.348,312.893)">
								<path class="st7" d="M178.59,189.01c0.12-2.61,2.01-4.86,4.5-4.74c2.49,0.12,4.26,2.37,4.14,4.97
									c-0.12,2.25,1.66,4.03,3.91,4.15c2.25,0.12,4.03-1.66,4.14-3.91c0.24-7.23-5.21-13.15-11.96-13.27
									c-6.75-0.24-12.55,5.33-12.79,12.56c-0.12,2.25,1.66,4.03,3.91,4.15C176.7,193.04,178.48,191.26,178.59,189.01z"/>
							</g>
							<g transform="matrix(1,0,0,1,347.348,312.893)">
								<path class="st7" d="M187.24,189.37c-0.12,2.61-2.01,4.86-4.5,4.74c-2.49-0.12-4.26-2.37-4.14-4.97
									c0.12-2.25-1.66-4.03-3.91-4.15c-2.25-0.12-4.03,1.66-4.14,3.91c-0.24,7.23,5.21,13.15,11.96,13.27
									c6.75,0.24,12.55-5.33,12.79-12.56c0.12-2.25-1.66-4.03-3.91-4.15C189.25,185.34,187.36,187.12,187.24,189.37z"/>
							</g>
							<path class="st13" d="M427.72,499.19c6.04-1.42,17.88-3.08,30.55,1.9c11.84,4.62,24.39,15.16,33.16,37.43
								c0.83,2.01-0.24,4.38-2.25,5.21c-2.01,0.83-4.38-0.24-5.21-2.25c-7.58-19.42-18.24-28.78-28.54-32.81
								c-10.42-4.15-20.37-2.84-25.34-1.66L427.72,499.19z"/>
							<path class="st13" d="M528.73,534.61l2.37,9.24c-4.26,3.91-9.59,8.41-15.99,12.08c-1.89,1.07-4.38,0.47-5.45-1.54
								c-1.07-1.9-0.47-4.38,1.54-5.45C518.66,544.67,524.35,539.23,528.73,534.61z"/>
							<path class="st13" d="M488.35,428.95c0,0,11.13,9.71,13.03,25.82c1.3,11.02-1.89,24.87-15.51,40.74
								c-1.42,1.66-1.3,4.26,0.47,5.69c1.66,1.42,4.26,1.18,5.68-0.47c15.51-18.24,18.83-34.23,17.41-46.9
								c-2.25-19.31-15.75-30.91-15.75-30.91c-1.66-1.42-4.26-1.3-5.68,0.47C486.45,424.93,486.69,427.41,488.35,428.95
								L488.35,428.95z"/>
							<path class="st13" d="M391.49,381.34c5.45,0.36,12.55,1.18,19.06,4.38c11.37,5.69,23.09,17.06,29.96,40.03
								c0.59,2.13-0.59,4.38-2.72,4.97s-4.38-0.59-4.97-2.72c-5.92-20.02-15.87-30.2-25.81-35.06c-4.62-2.25-9.83-3.2-13.97-3.67
								L391.49,381.34z"/>
						</g>
					</g>
				</g>
			</g>
		</g>
		<path class="st19" d="M509.19,591.7c0,0,9.83-29.97,13.5-41.93c6.63-21.56,12.55-45.25,8.41-59.58
			c-1.07-6.75-3.43-14.09-7.1-20.25c0.71-1.78-19.18,47.97-93.66,21.56c4.38,10.78,9.83,21.44,16.81,31.39
			c9.35,13.27,33.98,32.57,47.96,43.94C500.78,571.32,505.52,579.85,509.19,591.7z"/>
	</g>
	<g id="PLANT_1_" transform="matrix(1,0,0,1,94.6774,115.527)">
		<g transform="matrix(1,0,0,1,-94.6774,-115.527)">
			<path class="st20" d="M664.55,477.28c0,0-52.46,14.33-28.42,72.37c0,0-40.62,27.72-34.46,74.03l7.93,42.52l136.65-3.55
				c0,0,45.47-75.09-27.12-110.86c0,0,29.25-41.22,14.21-61C733.46,490.78,697.11,466.97,664.55,477.28z"/>
		</g>
		<path class="st21" d="M641.24,393.05c0.83-13.27-6.75-20.14-17.17-23.45c-7.34-2.37-18.12-3.08-26.17-3.08
			c-1.07,0-1.89-0.83-1.89-1.9c0-1.07,0.83-1.9,1.89-1.9c8.53-0.12,19.77,0.71,27.47,3.2c12.08,3.91,20.84,12.08,19.77,27.48v0.12
			c0,0-2.6,16.58-18.95,43c6.75,2.61,27.12,12.2,37.06,33.99c7.93,17.41,9.35,42.88-8.76,79.12c-0.36,0.59-0.95,1.07-1.66,1.07
			H513.48c-0.83,0-1.54-0.47-1.78-1.3c0,0-10.07-30.68-5.68-61.47c2.84-20.37,11.96-40.63,34.1-52.47l-4.62-13.86c0,0,0,0,0-0.12
			c0,0-13.5-46.19,31.97-58.04c0.95-0.24,2.01,0.36,2.25,1.3c0.24,0.95-0.36,2.01-1.3,2.25c-41.21,10.78-29.72,52.12-29.37,53.3
			l5.21,15.4c0.36,0.83-0.12,1.9-0.95,2.25c-21.91,11.02-30.79,30.68-33.51,50.34c-3.67,26.18,3.43,52.47,5.21,58.39h136.77
			c16.7-34.23,15.75-58.27,8.17-74.86c-11.37-24.87-37.06-32.81-37.06-32.81c-0.59-0.12-0.95-0.59-1.18-1.18
			c-0.24-0.59-0.12-1.18,0.12-1.66C637.81,410.82,641.01,394.36,641.24,393.05z"/>
		<g transform="matrix(0.985904,-0.167309,0.210306,1.23927,-225.355,38.242)">
			
				<ellipse transform="matrix(-1 7.442140e-05 -7.442140e-05 -1 1491.2202 764.8144)" class="st22" cx="745.6" cy="382.43" rx="29.6" ry="9.83"/>
		</g>
		<g>
			<g transform="matrix(1,0,0,1,-4.13813,13.2255)">
				<path class="st23" d="M595.6,368.49c-4.03,1.54-11.25-13.03-13.14-15.99c-11.84-19.19-23.8-39.2-24.51-62.54
					c-0.95-30.2,23.92-44.18,29.48-70.83c5.45-25.58-17.53-47.85-13.97-76.4c3.2-25.7,29.25-37.78,32.56-63.6
					c2.37-18.6,3.55-37.19,16.81-52c2.61-2.96,9.83-10.54,14.56-10.54c1.66,0,9.47,15.52,10.18,17.06
					c8.76,19.31,12.2,39.8,6.63,60.52c-4.74,17.53-15.39,33.99-15.51,52.59c-0.24,20.14,10.66,38.14,7.22,58.75
					c-3.55,21.08-23.8,32.22-29.6,52c-5.21,17.77,4.85,37.31,4.03,55.55c-0.59,13.98-5.8,27.12-10.66,40.15
					c-6.75,17.88-6.04,27.12-25.81,19.54"/>
			</g>
			<path class="st24" d="M557.17,283.37l9-16.94c0,0,22.85,16.35,21.91,38.61c0,0,24.87-82.08,52.93-83.27l-40.5,163.1l-16.81,2.49
				L557.17,283.37z"/>
			<path class="st22" d="M631.42,30.14c0,0-0.47,31.39-0.12,44.89c0.24,9.59-3.43,18.36-5.92,27.6
				c-2.72,10.42-8.05,19.66-12.79,29.14c-4.85,9.83-9.12,19.9-9.12,31.51c0,9.95,2.72,19.42,5.33,28.9
				c2.49,9.12,4.74,18.36,3.91,27.95c-0.95,11.49-6.39,21.32-11.96,31.15c-5.92,10.19-11.96,20.25-14.33,31.86
				c-3.08,15.63,1.78,31.74,2.37,47.38c0.59,16.7-2.72,32.81-6.28,48.92c-0.24,1.07,0.36,2.01,1.42,2.25
				c1.07,0.24,2.01-0.36,2.25-1.42c3.67-16.46,6.99-32.93,6.39-49.86c-0.59-15.4-5.45-31.15-2.49-46.55
				c2.25-11.25,8.29-20.96,13.85-30.68c5.92-10.19,11.49-20.61,12.43-32.69c0.83-10.07-1.42-19.66-4.03-29.26
				c-2.49-9.24-5.21-18.36-5.21-27.95c0-11.02,4.03-20.61,8.64-29.85c4.85-9.71,10.3-19.19,13.14-29.85
				c2.49-9.59,6.28-18.71,6.04-28.66c-0.24-12.2,0.24-42.76,0.24-42.76c-0.59-0.83-1.07-1.54-1.54-2.01
				c-0.24-0.24-0.59-0.36-0.95-0.24c-0.24,0-0.59,0.12-0.59,0.12L631.42,30.14z"/>
		</g>
		<g>
			<path class="st25" d="M611.64,387.37h-24.98c-1.18-0.12-1.18-18.24-1.3-19.31c-2.13-15.16-3.32-33.16,6.28-46.19
				c4.5-6.04,10.89-10.9,13.74-18c6.16-15.63,3.79-33.16,10.54-48.92c5.92-13.86,18.71-20.37,26.76-32.34
				c9.83-14.57,13.62-33.05,21.91-48.56c10.42-19.19,38.13-51.88,63.11-51.88c2.49,0-0.36,14.92-0.47,17.17
				c-0.24,18,2.6,36.13-5.21,53.18c-9.35,20.49-30.08,33.05-39.67,53.3c-9,18.95-4.14,44.53-17.05,61.35
				c-10.42,13.5-29.48,15.87-40.85,28.43C610.58,351.48,613.89,376,611.64,387.37z"/>
			<path class="st22" d="M725.2,122.41c1.3-0.12,2.72-0.24,2.84,0c0.47,0.47,0.59,1.18,0.71,1.9c0,0-0.12,0.12-0.24,0.12
				c-3.91,2.84-15.63,15.28-21.2,26.53c-4.74,9.48-7.22,19.66-10.07,29.61c-2.96,10.3-6.28,20.37-12.55,29.37
				c-10.18,14.69-25.1,25.35-33.63,41.22c-4.03,7.46-6.28,15.75-8.64,23.81c-2.49,8.41-5.21,16.7-10.18,24.16
				c-13.26,20.02-35.88,29.02-35.05,88.12c0,1.07-0.83,1.9-1.89,1.9s-1.89-0.83-1.89-1.9c-0.83-60.52,22.14-69.76,35.64-90.25
				c4.74-7.11,7.22-15.04,9.71-23.1c2.49-8.29,4.85-16.7,9-24.52c8.53-16.11,23.56-26.89,33.87-41.69
				c6.04-8.65,9.24-18.36,12.08-28.31c2.96-10.19,5.45-20.61,10.3-30.2c5.33-10.78,15.87-22.39,20.84-26.77
				C725.08,122.53,725.08,122.41,725.2,122.41z"/>
		</g>
		<path class="st26" d="M600.51,387.37h6.75c0,0,0.36-40.86-22.85-45.84l-0.47,6.63C583.93,348.16,600.27,363.68,600.51,387.37z"/>
		<g transform="matrix(1,0,0,1,2.27374e-13,12.4701)">
			<g transform="matrix(0.99546,0.0951787,-0.0951787,0.99546,99.3506,-181.716)">
				<path class="st25" d="M527.27,514.04c-5.21-3.55-11.84-9.24-14.92-14.69c-6.28-10.78-5.57-25.23-14.8-34.11
					c-11.84-11.61-30.67-12.32-41.21-26.06c-11.25-14.57-1.42-29.37-15.99-45.72c-12.91-14.57-22.26-29.14-19.78-49.27
					c0.47-3.79,1.3-13.74,4.74-16.35c0.71-0.47,10.66,4.74,11.49,4.97c12.91,5.69,25.34,13.15,33.75,24.76
					c8.53,11.73,7.7,25.82,14.45,38.02c6.28,11.37,21.55,11.73,28.77,22.5c8.05,11.96,3.79,24.99,7.93,37.67
					c3.08,9.24,13.26,14.69,18.83,22.39c5.33,7.23,8.76,15.99,10.66,24.75c0.24,1.18,1.78,7.11,0.71,8.17"/>
			</g>
			<path class="st22" d="M491.81,185c-0.59,0-1.42,0.83-2.25,2.01c0,0,0.12,0.36,0.24,0.47c15.63,18.48,19.54,31.86,26.29,47.14
				c3.43,7.58,4.97,15.63,6.63,23.69c1.78,8.41,3.55,16.82,7.22,24.64c3.55,7.7,9.71,11.02,15.87,14.92
				c5.45,3.55,10.78,7.7,13.14,16.94c5.8,22.15,10.66,28.19,13.85,40.74c2.37,8.88,6.39,12.08,10.18,15.4
				c3.32,2.84,6.28,5.8,7.1,13.98c0.12,1.07,1.07,1.78,2.01,1.66c1.07-0.12,1.78-1.07,1.66-2.01c-0.95-9.59-4.5-13.03-8.41-16.46
				c-3.32-2.96-6.99-5.69-9.12-13.5c-3.32-12.67-8.05-18.6-13.85-40.74c-2.72-10.42-8.64-15.16-14.8-19.19
				c-5.45-3.55-11.25-6.51-14.45-13.38c-3.55-7.7-5.21-15.75-6.87-23.93c-1.78-8.41-3.43-16.7-6.87-24.52
				c-6.87-15.28-10.89-28.78-26.29-47.26C492.99,185.35,491.81,185,491.81,185z"/>
		</g>
		<g transform="matrix(1,0,0,1,-94.6774,-115.527)">
			<path class="st21" d="M638.02,665.01c0.71-2.96,2.13-5.45,3.79-7.34c3.32-3.91,8.17-5.92,12.79-6.99
				c2.96-0.59,5.92-0.83,8.05-0.83c2.13-9.71,6.28-15.52,11.13-19.07c5.21-3.79,11.37-4.86,16.81-4.74
				c7.7,0.24,14.09,2.96,14.09,2.96c2.25,0.95,3.2,3.55,2.25,5.8c-0.95,2.25-3.55,3.2-5.8,2.25c0,0-4.85-2.13-10.89-2.25
				c-3.67-0.12-7.82,0.47-11.37,3.08c-4.03,2.84-7.1,8.17-8.29,17.06c-0.36,2.37-2.49,4.03-4.85,3.79c0,0-4.5-0.47-9.35,0.47
				c-2.84,0.59-5.92,1.78-7.93,4.15c-0.47,0.47-0.83,1.07-1.07,1.66L638.02,665.01z M750.99,659.09c-3.91-3.2-8.88-4.5-13.38-4.97
				c-7.58-0.71-14.21,0.95-14.21,0.95l0,0c-2.37,0.59-4.74-0.83-5.33-3.2c-0.59-2.37,0.83-4.74,3.2-5.33c0,0,7.93-2.01,17.17-1.18
				c5.45,0.47,11.25,2.13,16.22,5.45C753.35,654.23,752.05,656.96,750.99,659.09z M601.79,607.69c5.8-3.43,13.14-6.16,21.43-5.45
				c8.53,0.71,18.24,5.09,28.06,16.35c1.54,1.78,1.42,4.62-0.47,6.16c-1.78,1.54-4.62,1.42-6.16-0.47
				c-7.82-9-15.39-12.79-22.26-13.38c-9.12-0.83-16.81,3.91-21.67,7.94C600.96,614.91,601.31,611.12,601.79,607.69z M748.74,574.76
				c1.89,2.37,3.55,4.74,4.97,7.23c-0.36,0.36-0.71,0.59-1.07,0.95c-4.62,4.74-8.17,13.98-6.04,32.1c0.24,2.37-1.42,4.62-3.79,4.86
				c-2.37,0.24-4.62-1.42-4.85-3.79c-2.61-22.27,2.84-33.52,8.41-39.2C747.2,576.06,748.03,575.35,748.74,574.76z M635.53,581.27
				c-0.12,0.95-0.47,1.9-1.3,2.72c-1.66,1.66-4.5,1.66-6.16,0c-0.95-0.95-1.42-2.13-1.42-3.67c0-1.3,1.18-4.03,4.03-6.51
				c5.57-4.86,18.24-11.13,30.08-6.87c6.75,2.37,13.5,8.17,18.24,20.14c2.13-0.95,4.85-2.01,7.82-2.61
				c5.21-0.95,10.89-0.47,15.39,3.67c2.6,2.37,4.97,6.04,6.28,11.61c0.59,2.37-0.83,4.74-3.2,5.33c-2.37,0.59-4.74-0.83-5.33-3.2
				c-0.83-3.43-2.01-5.69-3.67-7.11c-2.25-2.01-5.21-2.01-7.93-1.54c-5.09,0.95-9.35,3.91-9.35,3.91c-1.18,0.83-2.61,0.95-3.91,0.47
				c-1.3-0.47-2.37-1.54-2.72-2.84c-3.08-10.3-7.58-15.99-12.55-18.71c-7.1-3.79-15.04-0.95-20.13,2.13
				C638.02,579.02,636.36,580.56,635.53,581.27z M735.95,518.02c-4.26-0.47-9.95-0.12-14.8,3.08c-4.03,2.72-7.34,7.46-9.12,15.16
				c-0.47,2.01-2.25,3.43-4.38,3.43c0,0-7.1-0.36-10.3,4.74c-1.42,2.25-2.01,5.57-1.18,10.19c0.47,2.37-1.18,4.62-3.55,5.09
				c-2.37,0.47-4.62-1.18-5.09-3.55c-1.3-7.58,0.12-12.91,2.49-16.58c3.79-5.8,10.3-7.7,14.33-8.29c2.6-8.76,6.99-14.21,11.96-17.53
				c6.87-4.62,14.8-4.97,20.84-4.38C736.9,512.34,736.54,515.18,735.95,518.02z M632.22,514c0,0,9.59,3.32,14.56,9.48
				c3.79,4.74,6.63,11.73,4.85,21.79c-0.47,2.37,1.18,4.62,3.55,5.09c2.37,0.47,4.62-1.18,5.09-3.55
				c5.57-30.8-24.75-41.69-24.75-41.69c-2.25-0.83-2.84,1.78-3.67,4.03C631.03,511.51,629.97,513.29,632.22,514z"/>
		</g>
	</g>
	<g id="BACKGROUND_1_">
		<path class="st1" d="M0.49,747.57l364.47-1.78c0,0-4.03-22.86-42.15-19.19c-12.31,1.18-19.18-9.12-31.5-23.93
			c-11.25-13.38-42.75-50.22-95.2-17.29c-9.12,5.69-30.55,11.96-46.89,1.07c-11.72-7.82-50.8-45.25-80.52,0.95
			c-5.92,9.12-15.28,25.23-32.44,30.32C21.21,722.22-2.83,725.89,0.49,747.57z"/>
		<path class="st1" d="M695.1,735.37l295.08-0.36c0,0-15.51-40.51-53.05-31.39c-12.2,2.96-23.92,11.25-41.33-17.65
			c-5.92-9.71-42.87-37.9-76.85-15.75c-17.29,11.25-36,43-63.71,35.89C728.73,699.24,698.65,713.46,695.1,735.37z"/>
		<g>
			<path class="st27" d="M333.58,195.15l4.85-6.87l13.03,11.02l-3.32,5.69L333.58,195.15z"/>
			<path class="st27" d="M348.03,178.45l10.54,12.08l5.45-3.32l-9.83-16.46L348.03,178.45z"/>
			<path class="st27" d="M364.02,166.25l7.7,16.11h6.51l-4.85-20.14L364.02,166.25z"/>
			<path class="st27" d="M515.58,178.68l5.57,3.67l11.84-15.87l-6.75-5.33L515.58,178.68z"/>
			<path class="st27" d="M528.96,187.8l4.03,6.16l18.47-10.19l-6.04-9.95L528.96,187.8z"/>
			<path class="st27" d="M537.02,206.28l-1.07-6.04l19.06-3.32v9.48h-18L537.02,206.28L537.02,206.28z"/>
			<path class="st1" d="M241.22,12.03l6.28-10.54c0.47-0.83,1.66-1.18,2.61-0.71c0.83,0.47,1.18,1.66,0.59,2.61l-7.93,13.27
				c-0.36,0.59-0.95,0.95-1.54,0.95c-0.71,0-1.3-0.36-1.66-0.83L231.39,3.5c-0.59-0.83-0.24-2.01,0.59-2.61s2.01-0.24,2.61,0.59
				L241.22,12.03z"/>
			<g transform="matrix(1,0,0,1,73.1737,38.8565)">
				<path class="st1" d="M213.72-3.07l6.39-10.07c0.59-0.83,1.66-1.18,2.61-0.59c0.83,0.59,1.18,1.66,0.59,2.61l-7.93,12.56
					c-0.36,0.59-0.95,0.83-1.54,0.83s-1.18-0.36-1.54-0.83l-8.17-12.56c-0.59-0.83-0.36-2.01,0.59-2.61
					c0.83-0.59,2.01-0.36,2.61,0.59L213.72-3.07z"/>
			</g>
			<g transform="matrix(1,0,0,1,761.814,66.6094)">
				<path class="st1" d="M-44.8-13.11l6.16-10.42c0.47-0.95,1.66-1.18,2.61-0.71c0.83,0.47,1.18,1.66,0.59,2.61l-7.82,13.03
					c-0.36,0.59-0.95,0.95-1.54,0.95c-0.59,0-1.3-0.36-1.66-0.83l-8.29-13.03c-0.59-0.83-0.36-2.01,0.59-2.61
					c0.83-0.59,2.01-0.36,2.61,0.59L-44.8-13.11z"/>
			</g>
			<g transform="matrix(0.821282,0,0,0.785177,1158.9,437.313)">
				<path class="st1" d="M-376.99-280.45l6.16-10.07c0.71-1.07,2.13-1.42,3.2-0.71c1.07,0.71,1.42,2.13,0.71,3.32l-8.05,13.15
					c-0.47,0.71-1.18,1.07-1.89,1.07c-0.83,0-1.54-0.36-1.89-1.07l-8.05-13.15c-0.71-1.07-0.36-2.61,0.71-3.32
					c1.07-0.71,2.49-0.36,3.2,0.71L-376.99-280.45z"/>
			</g>
		</g>
	</g>
</g>
</svg>
